G04 #@! TF.GenerationSoftware,KiCad,Pcbnew,9.0.0*
G04 #@! TF.CreationDate,2025-06-18T16:48:56-04:00*
G04 #@! TF.ProjectId,top_board,746f705f-626f-4617-9264-2e6b69636164,rev?*
G04 #@! TF.SameCoordinates,Original*
G04 #@! TF.FileFunction,Legend,Top*
G04 #@! TF.FilePolarity,Positive*
%FSLAX46Y46*%
G04 Gerber Fmt 4.6, Leading zero omitted, Abs format (unit mm)*
G04 Created by KiCad (PCBNEW 9.0.0) date 2025-06-18 16:48:56*
%MOMM*%
%LPD*%
G01*
G04 APERTURE LIST*
G04 Aperture macros list*
%AMRoundRect*
0 Rectangle with rounded corners*
0 $1 Rounding radius*
0 $2 $3 $4 $5 $6 $7 $8 $9 X,Y pos of 4 corners*
0 Add a 4 corners polygon primitive as box body*
4,1,4,$2,$3,$4,$5,$6,$7,$8,$9,$2,$3,0*
0 Add four circle primitives for the rounded corners*
1,1,$1+$1,$2,$3*
1,1,$1+$1,$4,$5*
1,1,$1+$1,$6,$7*
1,1,$1+$1,$8,$9*
0 Add four rect primitives between the rounded corners*
20,1,$1+$1,$2,$3,$4,$5,0*
20,1,$1+$1,$4,$5,$6,$7,0*
20,1,$1+$1,$6,$7,$8,$9,0*
20,1,$1+$1,$8,$9,$2,$3,0*%
G04 Aperture macros list end*
%ADD10C,0.300000*%
%ADD11C,0.150000*%
%ADD12C,0.120000*%
%ADD13C,0.000000*%
%ADD14C,3.200000*%
%ADD15RoundRect,0.250000X0.750000X-0.600000X0.750000X0.600000X-0.750000X0.600000X-0.750000X-0.600000X0*%
%ADD16O,2.000000X1.700000*%
%ADD17R,1.700000X1.700000*%
%ADD18O,1.700000X1.700000*%
%ADD19RoundRect,0.250000X-0.600000X-0.725000X0.600000X-0.725000X0.600000X0.725000X-0.600000X0.725000X0*%
%ADD20O,1.700000X1.950000*%
%ADD21RoundRect,0.250000X-0.725000X0.600000X-0.725000X-0.600000X0.725000X-0.600000X0.725000X0.600000X0*%
%ADD22O,1.950000X1.700000*%
%ADD23RoundRect,0.250000X0.725000X-0.600000X0.725000X0.600000X-0.725000X0.600000X-0.725000X-0.600000X0*%
%ADD24RoundRect,0.250000X-0.600000X-0.750000X0.600000X-0.750000X0.600000X0.750000X-0.600000X0.750000X0*%
%ADD25O,1.700000X2.000000*%
%ADD26R,1.524000X1.524000*%
%ADD27C,1.524000*%
G04 APERTURE END LIST*
D10*
G36*
X222581699Y-108010175D02*
G01*
X222679841Y-108019278D01*
X222770285Y-108046079D01*
X222851468Y-108090737D01*
X222918662Y-108152599D01*
X222975362Y-108233795D01*
X223018863Y-108332942D01*
X223044644Y-108445260D01*
X223054309Y-108594251D01*
X223046615Y-108793004D01*
X223024542Y-108956952D01*
X222714323Y-108956952D01*
X222714323Y-108920040D01*
X222750409Y-108817642D01*
X222762463Y-108760473D01*
X222767079Y-108681354D01*
X222758807Y-108580637D01*
X222738045Y-108515849D01*
X222702706Y-108465639D01*
X222657261Y-108433326D01*
X222604537Y-108415044D01*
X222545887Y-108406764D01*
X222390915Y-108403650D01*
X221776430Y-108403650D01*
X221776430Y-108753070D01*
X221500924Y-108753070D01*
X221500924Y-108010175D01*
X222581699Y-108010175D01*
G37*
G36*
X222565038Y-106491800D02*
G01*
X222664694Y-106512768D01*
X222752169Y-106546250D01*
X222829215Y-106591860D01*
X222897138Y-106649956D01*
X222953728Y-106718401D01*
X222998577Y-106797310D01*
X223031800Y-106888235D01*
X223052774Y-106993198D01*
X223060170Y-107114597D01*
X223052775Y-107235993D01*
X223031803Y-107340966D01*
X222998581Y-107431912D01*
X222953731Y-107510849D01*
X222897138Y-107579330D01*
X222829220Y-107637390D01*
X222752177Y-107682976D01*
X222664701Y-107716440D01*
X222565043Y-107737398D01*
X222451090Y-107744744D01*
X222336179Y-107737329D01*
X222235936Y-107716195D01*
X222148184Y-107682488D01*
X222071118Y-107636617D01*
X222003393Y-107578231D01*
X221946903Y-107509350D01*
X221902184Y-107430264D01*
X221869104Y-107339470D01*
X221848253Y-107235020D01*
X221840910Y-107114597D01*
X222098831Y-107114597D01*
X222102579Y-107166129D01*
X222113119Y-107209486D01*
X222133505Y-107248719D01*
X222170088Y-107288804D01*
X222214866Y-107318073D01*
X222278990Y-107342659D01*
X222352833Y-107357125D01*
X222453105Y-107362626D01*
X222543465Y-107357952D01*
X222615496Y-107345224D01*
X222679394Y-107322780D01*
X222725863Y-107293933D01*
X222760430Y-107257725D01*
X222783932Y-107215622D01*
X222797470Y-107167930D01*
X222802250Y-107111575D01*
X222798027Y-107062341D01*
X222785489Y-107015771D01*
X222763089Y-106973827D01*
X222728977Y-106938376D01*
X222681569Y-106907446D01*
X222623647Y-106884612D01*
X222556052Y-106871793D01*
X222453105Y-106866660D01*
X222356466Y-106871733D01*
X222284119Y-106885162D01*
X222220653Y-106908175D01*
X222175218Y-106936361D01*
X222139294Y-106972857D01*
X222116141Y-107015313D01*
X222103241Y-107062697D01*
X222098831Y-107114597D01*
X221840910Y-107114597D01*
X221848359Y-106992265D01*
X221869452Y-106886809D01*
X221902816Y-106795749D01*
X221947795Y-106716997D01*
X222004492Y-106648948D01*
X222072539Y-106591235D01*
X222149706Y-106545900D01*
X222237299Y-106512610D01*
X222337061Y-106491759D01*
X222451090Y-106484451D01*
X222565038Y-106491800D01*
G37*
G36*
X222662024Y-105220128D02*
G01*
X222747115Y-105230102D01*
X222822107Y-105259230D01*
X222889496Y-105308173D01*
X222950628Y-105379954D01*
X222995887Y-105461189D01*
X223030150Y-105559033D01*
X223052241Y-105676587D01*
X223060170Y-105817485D01*
X223052712Y-105967264D01*
X223031686Y-106096196D01*
X222999889Y-106214525D01*
X222968579Y-106297056D01*
X222667428Y-106297056D01*
X222667428Y-106263258D01*
X222707453Y-106199236D01*
X222754165Y-106096196D01*
X222792267Y-105966137D01*
X222804044Y-105891824D01*
X222808112Y-105810341D01*
X222801368Y-105709056D01*
X222785214Y-105649507D01*
X222766315Y-105619095D01*
X222744142Y-105602649D01*
X222717528Y-105597208D01*
X222680473Y-105605233D01*
X222656345Y-105627983D01*
X222639766Y-105666061D01*
X222619801Y-105744761D01*
X222599742Y-105855953D01*
X222573456Y-105983539D01*
X222538588Y-106084384D01*
X222495610Y-106160310D01*
X222445411Y-106216089D01*
X222383677Y-106257716D01*
X222312347Y-106283083D01*
X222228798Y-106291926D01*
X222150001Y-106282364D01*
X222078806Y-106254106D01*
X222013044Y-106206005D01*
X221951552Y-106134665D01*
X221905734Y-106054543D01*
X221871146Y-105958295D01*
X221848889Y-105842907D01*
X221840910Y-105704828D01*
X221847583Y-105577435D01*
X221867197Y-105457349D01*
X221896215Y-105345963D01*
X221923342Y-105272426D01*
X222216067Y-105272426D01*
X222216067Y-105304208D01*
X222167196Y-105390622D01*
X222127224Y-105491237D01*
X222101480Y-105597192D01*
X222092969Y-105703820D01*
X222099291Y-105788942D01*
X222116325Y-105853938D01*
X222135981Y-105890296D01*
X222157746Y-105908943D01*
X222182545Y-105914846D01*
X222219451Y-105907636D01*
X222245285Y-105887185D01*
X222263884Y-105849535D01*
X222288516Y-105757035D01*
X222310681Y-105635676D01*
X222337883Y-105504976D01*
X222370334Y-105411450D01*
X222410570Y-105341234D01*
X222457776Y-105289829D01*
X222515707Y-105251652D01*
X222582960Y-105228293D01*
X222662024Y-105220128D01*
G37*
G36*
X222520882Y-104685602D02*
G01*
X222607167Y-104669768D01*
X222675527Y-104635478D01*
X222729893Y-104582654D01*
X222767716Y-104515470D01*
X222792856Y-104424685D01*
X222802250Y-104303393D01*
X222791555Y-104188510D01*
X222759385Y-104076980D01*
X222712630Y-103974503D01*
X222667428Y-103903781D01*
X222667428Y-103862840D01*
X222964549Y-103862840D01*
X223008827Y-103986989D01*
X223037547Y-104098504D01*
X223054258Y-104212309D01*
X223060170Y-104343418D01*
X223052819Y-104486150D01*
X223032164Y-104607843D01*
X222999891Y-104711441D01*
X222957087Y-104799515D01*
X222904191Y-104874188D01*
X222838079Y-104939282D01*
X222762258Y-104990024D01*
X222675347Y-105027142D01*
X222575354Y-105050390D01*
X222459791Y-105058561D01*
X222345426Y-105050892D01*
X222244928Y-105028947D01*
X222156205Y-104993762D01*
X222077544Y-104945591D01*
X222007698Y-104883897D01*
X221949570Y-104811676D01*
X221903628Y-104729336D01*
X221869719Y-104635413D01*
X221848399Y-104528009D01*
X221842715Y-104434551D01*
X222069521Y-104434551D01*
X222076175Y-104503668D01*
X222094995Y-104561328D01*
X222125300Y-104609856D01*
X222167256Y-104647176D01*
X222225178Y-104673202D01*
X222303995Y-104686610D01*
X222303995Y-104208138D01*
X222228042Y-104216888D01*
X222170945Y-104236580D01*
X222128415Y-104265566D01*
X222097215Y-104305626D01*
X222077020Y-104360357D01*
X222069521Y-104434551D01*
X221842715Y-104434551D01*
X221840910Y-104404876D01*
X221851199Y-104263864D01*
X221879661Y-104149637D01*
X221923842Y-104057219D01*
X221982968Y-103982732D01*
X222057821Y-103923317D01*
X222148546Y-103879372D01*
X222258410Y-103851356D01*
X222391647Y-103841316D01*
X222520882Y-103841316D01*
X222520882Y-104685602D01*
G37*
G36*
X222081982Y-101593452D02*
G01*
X222180896Y-101620416D01*
X222271661Y-101664551D01*
X222344844Y-101722814D01*
X222400436Y-101786634D01*
X222445533Y-101854298D01*
X222480765Y-101926238D01*
X222505189Y-102002438D01*
X222521035Y-102094533D01*
X222526744Y-102205408D01*
X222526744Y-102450322D01*
X223025000Y-102450322D01*
X223025000Y-102843797D01*
X221500924Y-102843797D01*
X221500924Y-102382728D01*
X221788154Y-102382728D01*
X221788154Y-102450322D01*
X222239515Y-102450322D01*
X222239515Y-102337574D01*
X222236156Y-102241575D01*
X222227424Y-102172160D01*
X222208726Y-102111304D01*
X222178790Y-102062984D01*
X222143048Y-102030203D01*
X222101395Y-102008212D01*
X222053522Y-101995837D01*
X221991577Y-101991268D01*
X221931571Y-102000209D01*
X221881760Y-102026164D01*
X221842036Y-102064562D01*
X221817463Y-102107039D01*
X221798441Y-102168644D01*
X221790718Y-102226932D01*
X221788154Y-102382728D01*
X221500924Y-102382728D01*
X221500924Y-102196249D01*
X221507787Y-102056531D01*
X221526020Y-101950876D01*
X221557815Y-101855454D01*
X221601033Y-101774105D01*
X221645391Y-101717001D01*
X221696637Y-101670333D01*
X221755364Y-101633238D01*
X221819749Y-101606928D01*
X221894367Y-101590358D01*
X221981136Y-101584512D01*
X222081982Y-101593452D01*
G37*
G36*
X222520882Y-101036614D02*
G01*
X222607167Y-101020780D01*
X222675527Y-100986489D01*
X222729893Y-100933666D01*
X222767716Y-100866482D01*
X222792856Y-100775696D01*
X222802250Y-100654405D01*
X222791555Y-100539521D01*
X222759385Y-100427991D01*
X222712630Y-100325515D01*
X222667428Y-100254793D01*
X222667428Y-100213852D01*
X222964549Y-100213852D01*
X223008827Y-100338001D01*
X223037547Y-100449515D01*
X223054258Y-100563321D01*
X223060170Y-100694430D01*
X223052819Y-100837162D01*
X223032164Y-100958855D01*
X222999891Y-101062453D01*
X222957087Y-101150527D01*
X222904191Y-101225200D01*
X222838079Y-101290294D01*
X222762258Y-101341035D01*
X222675347Y-101378154D01*
X222575354Y-101401402D01*
X222459791Y-101409573D01*
X222345426Y-101401904D01*
X222244928Y-101379959D01*
X222156205Y-101344773D01*
X222077544Y-101296603D01*
X222007698Y-101234909D01*
X221949570Y-101162687D01*
X221903628Y-101080348D01*
X221869719Y-100986425D01*
X221848399Y-100879021D01*
X221842715Y-100785563D01*
X222069521Y-100785563D01*
X222076175Y-100854680D01*
X222094995Y-100912340D01*
X222125300Y-100960868D01*
X222167256Y-100998188D01*
X222225178Y-101024213D01*
X222303995Y-101037622D01*
X222303995Y-100559150D01*
X222228042Y-100567899D01*
X222170945Y-100587592D01*
X222128415Y-100616577D01*
X222097215Y-100656637D01*
X222077020Y-100711369D01*
X222069521Y-100785563D01*
X221842715Y-100785563D01*
X221840910Y-100755887D01*
X221851199Y-100614876D01*
X221879661Y-100500649D01*
X221923842Y-100408231D01*
X221982968Y-100333744D01*
X222057821Y-100274329D01*
X222148546Y-100230384D01*
X222258410Y-100202367D01*
X222391647Y-100192328D01*
X222520882Y-100192328D01*
X222520882Y-101036614D01*
G37*
G36*
X223025000Y-99181895D02*
G01*
X222905107Y-99181895D01*
X222975412Y-99277572D01*
X223021611Y-99360223D01*
X223050112Y-99447563D01*
X223060170Y-99551831D01*
X223049653Y-99653231D01*
X223019303Y-99741315D01*
X222969281Y-99818940D01*
X222897596Y-99887879D01*
X222813956Y-99940650D01*
X222715010Y-99979960D01*
X222597920Y-100004995D01*
X222459241Y-100013908D01*
X222361848Y-100008863D01*
X222275384Y-99994427D01*
X222198482Y-99971410D01*
X222091638Y-99920307D01*
X222003484Y-99855089D01*
X221935190Y-99778371D01*
X221883592Y-99686012D01*
X221851361Y-99585607D01*
X221840910Y-99487260D01*
X221847024Y-99388699D01*
X221857341Y-99342821D01*
X222110554Y-99342821D01*
X222116925Y-99414588D01*
X222134740Y-99473289D01*
X222162969Y-99521518D01*
X222201871Y-99561082D01*
X222266546Y-99599764D01*
X222349304Y-99624704D01*
X222455028Y-99633805D01*
X222567691Y-99625887D01*
X222647232Y-99605305D01*
X222701958Y-99575462D01*
X222743135Y-99531031D01*
X222769204Y-99470338D01*
X222778803Y-99387883D01*
X222774241Y-99337292D01*
X222759752Y-99281363D01*
X222737314Y-99227564D01*
X222709743Y-99181895D01*
X222141512Y-99181895D01*
X222117790Y-99263869D01*
X222110554Y-99342821D01*
X221857341Y-99342821D01*
X221862984Y-99317725D01*
X221918763Y-99181895D01*
X221430582Y-99181895D01*
X221430582Y-98812966D01*
X223025000Y-98812966D01*
X223025000Y-99181895D01*
G37*
G36*
X222233653Y-97629426D02*
G01*
X222233653Y-97662216D01*
X222220464Y-97738053D01*
X222216067Y-97825157D01*
X222218782Y-97901812D01*
X222226234Y-97964558D01*
X222239529Y-98025730D01*
X222260764Y-98094709D01*
X223025000Y-98094709D01*
X223025000Y-98463546D01*
X221876081Y-98463546D01*
X221876081Y-98094709D01*
X222045158Y-98094709D01*
X221978608Y-98010053D01*
X221934614Y-97940180D01*
X221908413Y-97882584D01*
X221883686Y-97793471D01*
X221876081Y-97716530D01*
X221877180Y-97672474D01*
X221880203Y-97629426D01*
X222233653Y-97629426D01*
G37*
G36*
X222520882Y-97131171D02*
G01*
X222607167Y-97115337D01*
X222675527Y-97081046D01*
X222729893Y-97028223D01*
X222767716Y-96961039D01*
X222792856Y-96870253D01*
X222802250Y-96748961D01*
X222791555Y-96634078D01*
X222759385Y-96522548D01*
X222712630Y-96420072D01*
X222667428Y-96349350D01*
X222667428Y-96308408D01*
X222964549Y-96308408D01*
X223008827Y-96432558D01*
X223037547Y-96544072D01*
X223054258Y-96657877D01*
X223060170Y-96788987D01*
X223052819Y-96931719D01*
X223032164Y-97053412D01*
X222999891Y-97157010D01*
X222957087Y-97245084D01*
X222904191Y-97319757D01*
X222838079Y-97384851D01*
X222762258Y-97435592D01*
X222675347Y-97472710D01*
X222575354Y-97495959D01*
X222459791Y-97504130D01*
X222345426Y-97496460D01*
X222244928Y-97474515D01*
X222156205Y-97439330D01*
X222077544Y-97391160D01*
X222007698Y-97329466D01*
X221949570Y-97257244D01*
X221903628Y-97174905D01*
X221869719Y-97080982D01*
X221848399Y-96973578D01*
X221842715Y-96880120D01*
X222069521Y-96880120D01*
X222076175Y-96949237D01*
X222094995Y-97006897D01*
X222125300Y-97055425D01*
X222167256Y-97092744D01*
X222225178Y-97118770D01*
X222303995Y-97132178D01*
X222303995Y-96653707D01*
X222228042Y-96662456D01*
X222170945Y-96682149D01*
X222128415Y-96711134D01*
X222097215Y-96751194D01*
X222077020Y-96805926D01*
X222069521Y-96880120D01*
X221842715Y-96880120D01*
X221840910Y-96850444D01*
X221851199Y-96709433D01*
X221879661Y-96595206D01*
X221923842Y-96502788D01*
X221982968Y-96428301D01*
X222057821Y-96368886D01*
X222148546Y-96324941D01*
X222258410Y-96296924D01*
X222391647Y-96286885D01*
X222520882Y-96286885D01*
X222520882Y-97131171D01*
G37*
G36*
X222233653Y-95192371D02*
G01*
X222233653Y-95225161D01*
X222220464Y-95300998D01*
X222216067Y-95388101D01*
X222218782Y-95464757D01*
X222226234Y-95527503D01*
X222239529Y-95588675D01*
X222260764Y-95657654D01*
X223025000Y-95657654D01*
X223025000Y-96026491D01*
X221876081Y-96026491D01*
X221876081Y-95657654D01*
X222045158Y-95657654D01*
X221978608Y-95572998D01*
X221934614Y-95503125D01*
X221908413Y-95445529D01*
X221883686Y-95356416D01*
X221876081Y-95279474D01*
X221877180Y-95235419D01*
X221880203Y-95192371D01*
X222233653Y-95192371D01*
G37*
G36*
X222565038Y-93814131D02*
G01*
X222664694Y-93835099D01*
X222752169Y-93868581D01*
X222829215Y-93914191D01*
X222897138Y-93972287D01*
X222953728Y-94040732D01*
X222998577Y-94119640D01*
X223031800Y-94210566D01*
X223052774Y-94315529D01*
X223060170Y-94436928D01*
X223052775Y-94558324D01*
X223031803Y-94663297D01*
X222998581Y-94754243D01*
X222953731Y-94833180D01*
X222897138Y-94901661D01*
X222829220Y-94959721D01*
X222752177Y-95005306D01*
X222664701Y-95038771D01*
X222565043Y-95059729D01*
X222451090Y-95067075D01*
X222336179Y-95059659D01*
X222235936Y-95038526D01*
X222148184Y-95004819D01*
X222071118Y-94958948D01*
X222003393Y-94900562D01*
X221946903Y-94831681D01*
X221902184Y-94752594D01*
X221869104Y-94661801D01*
X221848253Y-94557351D01*
X221840910Y-94436928D01*
X222098831Y-94436928D01*
X222102579Y-94488460D01*
X222113119Y-94531816D01*
X222133505Y-94571050D01*
X222170088Y-94611134D01*
X222214866Y-94640404D01*
X222278990Y-94664990D01*
X222352833Y-94679456D01*
X222453105Y-94684957D01*
X222543465Y-94680282D01*
X222615496Y-94667554D01*
X222679394Y-94645111D01*
X222725863Y-94616263D01*
X222760430Y-94580055D01*
X222783932Y-94537953D01*
X222797470Y-94490261D01*
X222802250Y-94433906D01*
X222798027Y-94384671D01*
X222785489Y-94338101D01*
X222763089Y-94296158D01*
X222728977Y-94260707D01*
X222681569Y-94229777D01*
X222623647Y-94206943D01*
X222556052Y-94194124D01*
X222453105Y-94188991D01*
X222356466Y-94194064D01*
X222284119Y-94207493D01*
X222220653Y-94230506D01*
X222175218Y-94258692D01*
X222139294Y-94295188D01*
X222116141Y-94337643D01*
X222103241Y-94385027D01*
X222098831Y-94436928D01*
X221840910Y-94436928D01*
X221848359Y-94314596D01*
X221869452Y-94209140D01*
X221902816Y-94118080D01*
X221947795Y-94039328D01*
X222004492Y-93971279D01*
X222072539Y-93913566D01*
X222149706Y-93868231D01*
X222237299Y-93834941D01*
X222337061Y-93814089D01*
X222451090Y-93806782D01*
X222565038Y-93814131D01*
G37*
G36*
X222662024Y-92542459D02*
G01*
X222747115Y-92552433D01*
X222822107Y-92581561D01*
X222889496Y-92630504D01*
X222950628Y-92702285D01*
X222995887Y-92783520D01*
X223030150Y-92881363D01*
X223052241Y-92998917D01*
X223060170Y-93139815D01*
X223052712Y-93289595D01*
X223031686Y-93418527D01*
X222999889Y-93536855D01*
X222968579Y-93619386D01*
X222667428Y-93619386D01*
X222667428Y-93585589D01*
X222707453Y-93521567D01*
X222754165Y-93418527D01*
X222792267Y-93288468D01*
X222804044Y-93214155D01*
X222808112Y-93132671D01*
X222801368Y-93031387D01*
X222785214Y-92971837D01*
X222766315Y-92941426D01*
X222744142Y-92924979D01*
X222717528Y-92919539D01*
X222680473Y-92927563D01*
X222656345Y-92950314D01*
X222639766Y-92988392D01*
X222619801Y-93067092D01*
X222599742Y-93178284D01*
X222573456Y-93305870D01*
X222538588Y-93406715D01*
X222495610Y-93482640D01*
X222445411Y-93538420D01*
X222383677Y-93580047D01*
X222312347Y-93605413D01*
X222228798Y-93614257D01*
X222150001Y-93604695D01*
X222078806Y-93576437D01*
X222013044Y-93528336D01*
X221951552Y-93456995D01*
X221905734Y-93376874D01*
X221871146Y-93280626D01*
X221848889Y-93165238D01*
X221840910Y-93027158D01*
X221847583Y-92899766D01*
X221867197Y-92779679D01*
X221896215Y-92668294D01*
X221923342Y-92594757D01*
X222216067Y-92594757D01*
X222216067Y-92626539D01*
X222167196Y-92712953D01*
X222127224Y-92813568D01*
X222101480Y-92919523D01*
X222092969Y-93026151D01*
X222099291Y-93111273D01*
X222116325Y-93176269D01*
X222135981Y-93212626D01*
X222157746Y-93231273D01*
X222182545Y-93237177D01*
X222219451Y-93229967D01*
X222245285Y-93209516D01*
X222263884Y-93171865D01*
X222288516Y-93079365D01*
X222310681Y-92958007D01*
X222337883Y-92827307D01*
X222370334Y-92733781D01*
X222410570Y-92663564D01*
X222457776Y-92612159D01*
X222515707Y-92573983D01*
X222582960Y-92550624D01*
X222662024Y-92542459D01*
G37*
G36*
X222491573Y-90859931D02*
G01*
X222491573Y-91641752D01*
X222198482Y-91641752D01*
X222198482Y-90859931D01*
X222491573Y-90859931D01*
G37*
G36*
X223025000Y-88643702D02*
G01*
X223025000Y-89841530D01*
X222771842Y-89841530D01*
X222562007Y-89566482D01*
X222453605Y-89436580D01*
X222370490Y-89345655D01*
X222251998Y-89233725D01*
X222162761Y-89169434D01*
X222102033Y-89139650D01*
X222043952Y-89122645D01*
X221987547Y-89117136D01*
X221921349Y-89125157D01*
X221868942Y-89147650D01*
X221827080Y-89184272D01*
X221797175Y-89232213D01*
X221777731Y-89295166D01*
X221770568Y-89377438D01*
X221779691Y-89472132D01*
X221808579Y-89575732D01*
X221851946Y-89676387D01*
X221905390Y-89768806D01*
X221905390Y-89801596D01*
X221566778Y-89801596D01*
X221537511Y-89719688D01*
X221503397Y-89586998D01*
X221479520Y-89444556D01*
X221471615Y-89302608D01*
X221480471Y-89156860D01*
X221504895Y-89038352D01*
X221542438Y-88942394D01*
X221591782Y-88865077D01*
X221657107Y-88799897D01*
X221733814Y-88753403D01*
X221824174Y-88724573D01*
X221931585Y-88714410D01*
X222025799Y-88722395D01*
X222116707Y-88746290D01*
X222205534Y-88786675D01*
X222288250Y-88839870D01*
X222377238Y-88912406D01*
X222473346Y-89007501D01*
X222556388Y-89101794D01*
X222631250Y-89195080D01*
X222731908Y-89329261D01*
X222731908Y-88643702D01*
X223025000Y-88643702D01*
G37*
G36*
X222448550Y-87171333D02*
G01*
X222605604Y-87197021D01*
X222704432Y-87225936D01*
X222786497Y-87262345D01*
X222854182Y-87305556D01*
X222914618Y-87360694D01*
X222964298Y-87425236D01*
X223003750Y-87500279D01*
X223030702Y-87581116D01*
X223048077Y-87677834D01*
X223054309Y-87793278D01*
X223048093Y-87906657D01*
X223030626Y-88003201D01*
X223003292Y-88085362D01*
X222963306Y-88161594D01*
X222913097Y-88226425D01*
X222852167Y-88281092D01*
X222782416Y-88325711D01*
X222700159Y-88362432D01*
X222603497Y-88390727D01*
X222449240Y-88415554D01*
X222262962Y-88424524D01*
X222071586Y-88415173D01*
X221918854Y-88389719D01*
X221823872Y-88360923D01*
X221742047Y-88323869D01*
X221671741Y-88278986D01*
X221610857Y-88223680D01*
X221561027Y-88158501D01*
X221521715Y-88082248D01*
X221494809Y-88000151D01*
X221477685Y-87904569D01*
X221471615Y-87793278D01*
X221752983Y-87793278D01*
X221760531Y-87852727D01*
X221781999Y-87901103D01*
X221817536Y-87941040D01*
X221869761Y-87973621D01*
X221950714Y-88000487D01*
X222076875Y-88020145D01*
X222263969Y-88027935D01*
X222445941Y-88020108D01*
X222571123Y-88000182D01*
X222653598Y-87972614D01*
X222707317Y-87939428D01*
X222743600Y-87899372D01*
X222765343Y-87851487D01*
X222772941Y-87793278D01*
X222765345Y-87735119D01*
X222743606Y-87687262D01*
X222707323Y-87647220D01*
X222653598Y-87614035D01*
X222571086Y-87586498D01*
X222445332Y-87566557D01*
X222261954Y-87558714D01*
X222076267Y-87566488D01*
X221950676Y-87586131D01*
X221869761Y-87613027D01*
X221817530Y-87645608D01*
X221781993Y-87685532D01*
X221760529Y-87733879D01*
X221752983Y-87793278D01*
X221471615Y-87793278D01*
X221477979Y-87677133D01*
X221495706Y-87580114D01*
X221523181Y-87499271D01*
X221563427Y-87424414D01*
X221614438Y-87359855D01*
X221676871Y-87304549D01*
X221746457Y-87260425D01*
X221828054Y-87224052D01*
X221923434Y-87195922D01*
X222075912Y-87171125D01*
X222261954Y-87162124D01*
X222448550Y-87171333D01*
G37*
G36*
X223025000Y-85660031D02*
G01*
X223025000Y-86857859D01*
X222771842Y-86857859D01*
X222562007Y-86582811D01*
X222453605Y-86452909D01*
X222370490Y-86361985D01*
X222251998Y-86250054D01*
X222162761Y-86185764D01*
X222102033Y-86155979D01*
X222043952Y-86138974D01*
X221987547Y-86133465D01*
X221921349Y-86141487D01*
X221868942Y-86163980D01*
X221827080Y-86200601D01*
X221797175Y-86248542D01*
X221777731Y-86311495D01*
X221770568Y-86393767D01*
X221779691Y-86488462D01*
X221808579Y-86592062D01*
X221851946Y-86692717D01*
X221905390Y-86785136D01*
X221905390Y-86817925D01*
X221566778Y-86817925D01*
X221537511Y-86736017D01*
X221503397Y-86603327D01*
X221479520Y-86460886D01*
X221471615Y-86318937D01*
X221480471Y-86173189D01*
X221504895Y-86054681D01*
X221542438Y-85958723D01*
X221591782Y-85881407D01*
X221657107Y-85816226D01*
X221733814Y-85769732D01*
X221824174Y-85740902D01*
X221931585Y-85730739D01*
X222025799Y-85738724D01*
X222116707Y-85762619D01*
X222205534Y-85803005D01*
X222288250Y-85856199D01*
X222377238Y-85928735D01*
X222473346Y-86023831D01*
X222556388Y-86118124D01*
X222631250Y-86211409D01*
X222731908Y-86345590D01*
X222731908Y-85660031D01*
X223025000Y-85660031D01*
G37*
G36*
X222506960Y-84200985D02*
G01*
X222585139Y-84206063D01*
X222658391Y-84220990D01*
X222727512Y-84245590D01*
X222792154Y-84279799D01*
X222850079Y-84322831D01*
X222901901Y-84375191D01*
X222948989Y-84440731D01*
X222987327Y-84512718D01*
X223017031Y-84591896D01*
X223044499Y-84719318D01*
X223054309Y-84871157D01*
X223045842Y-85047394D01*
X223025183Y-85181101D01*
X222993831Y-85301266D01*
X222962351Y-85387547D01*
X222626395Y-85387547D01*
X222626395Y-85344500D01*
X222676779Y-85248268D01*
X222718536Y-85143732D01*
X222746295Y-85035523D01*
X222755355Y-84929501D01*
X222751854Y-84863813D01*
X222740701Y-84789641D01*
X222719050Y-84720111D01*
X222687303Y-84670298D01*
X222654655Y-84638920D01*
X222623373Y-84617541D01*
X222585977Y-84604832D01*
X222522806Y-84599590D01*
X222472830Y-84605855D01*
X222432039Y-84623678D01*
X222397578Y-84651270D01*
X222370581Y-84685685D01*
X222343331Y-84745022D01*
X222326434Y-84818950D01*
X222315718Y-84960275D01*
X222319748Y-85051339D01*
X222331564Y-85137046D01*
X222362613Y-85285149D01*
X222362613Y-85330211D01*
X221500924Y-85330211D01*
X221500924Y-84245040D01*
X221794016Y-84245040D01*
X221794016Y-84960275D01*
X222039480Y-84960275D01*
X222035908Y-84879858D01*
X222034351Y-84794312D01*
X222040712Y-84671941D01*
X222058439Y-84569364D01*
X222088019Y-84475108D01*
X222125392Y-84398730D01*
X222167212Y-84340795D01*
X222216618Y-84292580D01*
X222274228Y-84253284D01*
X222338030Y-84225277D01*
X222414713Y-84207388D01*
X222506960Y-84200985D01*
G37*
G36*
X225545000Y-107704810D02*
G01*
X225545000Y-108805277D01*
X224020924Y-108805277D01*
X224020924Y-108411802D01*
X225251908Y-108411802D01*
X225251908Y-107704810D01*
X225545000Y-107704810D01*
G37*
G36*
X225545000Y-106791098D02*
G01*
X225423092Y-106791098D01*
X225477405Y-106864920D01*
X225527597Y-106947902D01*
X225550201Y-107003256D01*
X225566707Y-107060650D01*
X225576673Y-107120596D01*
X225580170Y-107188695D01*
X225573470Y-107269220D01*
X225554100Y-107340820D01*
X225522484Y-107405107D01*
X225478138Y-107463285D01*
X225423551Y-107511714D01*
X225362847Y-107545886D01*
X225294763Y-107566719D01*
X225217470Y-107573927D01*
X225134621Y-107567061D01*
X225066534Y-107547875D01*
X225010382Y-107517598D01*
X224961536Y-107475772D01*
X224919328Y-107423000D01*
X224883620Y-107357680D01*
X224845309Y-107248093D01*
X224817675Y-107103606D01*
X224800784Y-106950441D01*
X224788980Y-106791098D01*
X225005711Y-106791098D01*
X225022656Y-106953031D01*
X225035339Y-107034617D01*
X225047843Y-107085105D01*
X225070127Y-107135340D01*
X225098676Y-107169644D01*
X225136127Y-107191166D01*
X225186420Y-107198861D01*
X225244947Y-107192725D01*
X225266167Y-107182580D01*
X225288087Y-107161950D01*
X225305753Y-107136415D01*
X225318403Y-107105621D01*
X225325220Y-107068214D01*
X225328112Y-107003131D01*
X225322615Y-106948126D01*
X225305580Y-106891024D01*
X225279089Y-106837145D01*
X225245955Y-106791098D01*
X225005711Y-106791098D01*
X224788980Y-106791098D01*
X224788824Y-106788991D01*
X224782595Y-106788991D01*
X224723395Y-106798228D01*
X224680485Y-106823870D01*
X224649697Y-106866844D01*
X224630938Y-106920304D01*
X224617928Y-106994875D01*
X224612969Y-107096371D01*
X224620703Y-107188540D01*
X224645300Y-107291093D01*
X224695034Y-107439654D01*
X224695034Y-107473451D01*
X224418155Y-107473451D01*
X224381885Y-107283400D01*
X224366142Y-107151435D01*
X224360910Y-107019526D01*
X224368631Y-106855886D01*
X224389287Y-106730267D01*
X224419739Y-106635435D01*
X224457814Y-106565143D01*
X224511601Y-106505236D01*
X224578167Y-106462135D01*
X224660174Y-106435006D01*
X224761713Y-106425283D01*
X225545000Y-106425283D01*
X225545000Y-106791098D01*
G37*
G36*
X225182024Y-105085306D02*
G01*
X225267115Y-105095280D01*
X225342107Y-105124408D01*
X225409496Y-105173351D01*
X225470628Y-105245132D01*
X225515887Y-105326367D01*
X225550150Y-105424211D01*
X225572241Y-105541765D01*
X225580170Y-105682663D01*
X225572712Y-105832442D01*
X225551686Y-105961374D01*
X225519889Y-106079703D01*
X225488579Y-106162233D01*
X225187428Y-106162233D01*
X225187428Y-106128436D01*
X225227453Y-106064414D01*
X225274165Y-105961374D01*
X225312267Y-105831315D01*
X225324044Y-105757002D01*
X225328112Y-105675519D01*
X225321368Y-105574234D01*
X225305214Y-105514685D01*
X225286315Y-105484273D01*
X225264142Y-105467827D01*
X225237528Y-105462386D01*
X225200473Y-105470411D01*
X225176345Y-105493161D01*
X225159766Y-105531239D01*
X225139801Y-105609939D01*
X225119742Y-105721131D01*
X225093456Y-105848717D01*
X225058588Y-105949562D01*
X225015610Y-106025487D01*
X224965411Y-106081267D01*
X224903677Y-106122894D01*
X224832347Y-106148261D01*
X224748798Y-106157104D01*
X224670001Y-106147542D01*
X224598806Y-106119284D01*
X224533044Y-106071183D01*
X224471552Y-105999842D01*
X224425734Y-105919721D01*
X224391146Y-105823473D01*
X224368889Y-105708085D01*
X224360910Y-105570006D01*
X224367583Y-105442613D01*
X224387197Y-105322527D01*
X224416215Y-105211141D01*
X224443342Y-105137604D01*
X224736067Y-105137604D01*
X224736067Y-105169386D01*
X224687196Y-105255800D01*
X224647224Y-105356415D01*
X224621480Y-105462370D01*
X224612969Y-105568998D01*
X224619291Y-105654120D01*
X224636325Y-105719116D01*
X224655981Y-105755473D01*
X224677746Y-105774120D01*
X224702545Y-105780024D01*
X224739451Y-105772814D01*
X224765285Y-105752363D01*
X224783884Y-105714712D01*
X224808516Y-105622213D01*
X224830681Y-105500854D01*
X224857883Y-105370154D01*
X224890334Y-105276628D01*
X224930570Y-105206411D01*
X224977776Y-105155006D01*
X225035707Y-105116830D01*
X225102960Y-105093471D01*
X225182024Y-105085306D01*
G37*
G36*
X225040882Y-104550780D02*
G01*
X225127167Y-104534946D01*
X225195527Y-104500656D01*
X225249893Y-104447832D01*
X225287716Y-104380648D01*
X225312856Y-104289863D01*
X225322250Y-104168571D01*
X225311555Y-104053687D01*
X225279385Y-103942158D01*
X225232630Y-103839681D01*
X225187428Y-103768959D01*
X225187428Y-103728018D01*
X225484549Y-103728018D01*
X225528827Y-103852167D01*
X225557547Y-103963681D01*
X225574258Y-104077487D01*
X225580170Y-104208596D01*
X225572819Y-104351328D01*
X225552164Y-104473021D01*
X225519891Y-104576619D01*
X225477087Y-104664693D01*
X225424191Y-104739366D01*
X225358079Y-104804460D01*
X225282258Y-104855201D01*
X225195347Y-104892320D01*
X225095354Y-104915568D01*
X224979791Y-104923739D01*
X224865426Y-104916070D01*
X224764928Y-104894125D01*
X224676205Y-104858939D01*
X224597544Y-104810769D01*
X224527698Y-104749075D01*
X224469570Y-104676853D01*
X224423628Y-104594514D01*
X224389719Y-104500591D01*
X224368399Y-104393187D01*
X224362715Y-104299729D01*
X224589521Y-104299729D01*
X224596175Y-104368846D01*
X224614995Y-104426506D01*
X224645300Y-104475034D01*
X224687256Y-104512354D01*
X224745178Y-104538380D01*
X224823995Y-104551788D01*
X224823995Y-104073316D01*
X224748042Y-104082065D01*
X224690945Y-104101758D01*
X224648415Y-104130744D01*
X224617215Y-104170803D01*
X224597020Y-104225535D01*
X224589521Y-104299729D01*
X224362715Y-104299729D01*
X224360910Y-104270054D01*
X224371199Y-104129042D01*
X224399661Y-104014815D01*
X224443842Y-103922397D01*
X224502968Y-103847910D01*
X224577821Y-103788495D01*
X224668546Y-103744550D01*
X224778410Y-103716533D01*
X224911647Y-103706494D01*
X225040882Y-103706494D01*
X225040882Y-104550780D01*
G37*
G36*
X224753653Y-102611980D02*
G01*
X224753653Y-102644770D01*
X224740464Y-102720607D01*
X224736067Y-102807711D01*
X224738782Y-102884366D01*
X224746234Y-102947112D01*
X224759529Y-103008284D01*
X224780764Y-103077263D01*
X225545000Y-103077263D01*
X225545000Y-103446100D01*
X224396081Y-103446100D01*
X224396081Y-103077263D01*
X224565158Y-103077263D01*
X224498608Y-102992607D01*
X224454614Y-102922734D01*
X224428413Y-102865138D01*
X224403686Y-102776025D01*
X224396081Y-102699084D01*
X224397180Y-102655028D01*
X224400203Y-102611980D01*
X224753653Y-102611980D01*
G37*
G36*
X224923775Y-100235123D02*
G01*
X225050091Y-100267733D01*
X225165812Y-100321288D01*
X225271322Y-100393484D01*
X225356729Y-100475291D01*
X225424191Y-100567210D01*
X225481319Y-100683665D01*
X225518438Y-100812124D01*
X225537831Y-100951455D01*
X225545000Y-101127656D01*
X225545000Y-101665570D01*
X224020924Y-101665570D01*
X224020924Y-101172718D01*
X224308154Y-101172718D01*
X224308154Y-101272095D01*
X225257770Y-101272095D01*
X225257770Y-101172718D01*
X225253973Y-101041678D01*
X225245039Y-100966730D01*
X225227255Y-100902395D01*
X225198694Y-100838686D01*
X225152479Y-100772324D01*
X225098184Y-100720237D01*
X225035112Y-100680874D01*
X224965078Y-100654023D01*
X224881549Y-100636829D01*
X224781954Y-100630683D01*
X224683338Y-100637275D01*
X224598678Y-100655942D01*
X224525774Y-100685546D01*
X224460774Y-100728463D01*
X224405429Y-100785677D01*
X224359078Y-100859202D01*
X224334157Y-100920673D01*
X224318870Y-100982667D01*
X224311308Y-101053716D01*
X224308154Y-101172718D01*
X224020924Y-101172718D01*
X224020924Y-101112268D01*
X224029355Y-100932336D01*
X224052157Y-100790601D01*
X224091304Y-100662479D01*
X224140634Y-100563088D01*
X224212313Y-100465278D01*
X224298395Y-100382821D01*
X224400203Y-100314602D01*
X224512309Y-100265274D01*
X224639437Y-100234628D01*
X224784519Y-100223927D01*
X224923775Y-100235123D01*
G37*
G36*
X224753653Y-99109538D02*
G01*
X224753653Y-99142328D01*
X224740464Y-99218165D01*
X224736067Y-99305268D01*
X224738782Y-99381924D01*
X224746234Y-99444670D01*
X224759529Y-99505841D01*
X224780764Y-99574821D01*
X225545000Y-99574821D01*
X225545000Y-99943658D01*
X224396081Y-99943658D01*
X224396081Y-99574821D01*
X224565158Y-99574821D01*
X224498608Y-99490165D01*
X224454614Y-99420292D01*
X224428413Y-99362696D01*
X224403686Y-99273583D01*
X224396081Y-99196641D01*
X224397180Y-99152586D01*
X224400203Y-99109538D01*
X224753653Y-99109538D01*
G37*
G36*
X225545000Y-98531415D02*
G01*
X225545000Y-98900252D01*
X224396081Y-98900252D01*
X224396081Y-98531415D01*
X225545000Y-98531415D01*
G37*
G36*
X224231950Y-98521157D02*
G01*
X224231950Y-98910511D01*
X223950582Y-98910511D01*
X223950582Y-98521157D01*
X224231950Y-98521157D01*
G37*
G36*
X224396081Y-97024742D02*
G01*
X225545000Y-97468409D01*
X225545000Y-97886431D01*
X224396081Y-98327076D01*
X224396081Y-97936714D01*
X225185871Y-97670276D01*
X224396081Y-97406952D01*
X224396081Y-97024742D01*
G37*
G36*
X225040882Y-96530334D02*
G01*
X225127167Y-96514500D01*
X225195527Y-96480209D01*
X225249893Y-96427385D01*
X225287716Y-96360201D01*
X225312856Y-96269416D01*
X225322250Y-96148124D01*
X225311555Y-96033241D01*
X225279385Y-95921711D01*
X225232630Y-95819235D01*
X225187428Y-95748512D01*
X225187428Y-95707571D01*
X225484549Y-95707571D01*
X225528827Y-95831721D01*
X225557547Y-95943235D01*
X225574258Y-96057040D01*
X225580170Y-96188149D01*
X225572819Y-96330881D01*
X225552164Y-96452575D01*
X225519891Y-96556172D01*
X225477087Y-96644246D01*
X225424191Y-96718920D01*
X225358079Y-96784013D01*
X225282258Y-96834755D01*
X225195347Y-96871873D01*
X225095354Y-96895122D01*
X224979791Y-96903292D01*
X224865426Y-96895623D01*
X224764928Y-96873678D01*
X224676205Y-96838493D01*
X224597544Y-96790322D01*
X224527698Y-96728628D01*
X224469570Y-96656407D01*
X224423628Y-96574067D01*
X224389719Y-96480144D01*
X224368399Y-96372741D01*
X224362715Y-96279282D01*
X224589521Y-96279282D01*
X224596175Y-96348400D01*
X224614995Y-96406059D01*
X224645300Y-96454588D01*
X224687256Y-96491907D01*
X224745178Y-96517933D01*
X224823995Y-96531341D01*
X224823995Y-96052869D01*
X224748042Y-96061619D01*
X224690945Y-96081312D01*
X224648415Y-96110297D01*
X224617215Y-96150357D01*
X224597020Y-96205089D01*
X224589521Y-96279282D01*
X224362715Y-96279282D01*
X224360910Y-96249607D01*
X224371199Y-96108595D01*
X224399661Y-95994368D01*
X224443842Y-95901951D01*
X224502968Y-95827464D01*
X224577821Y-95768048D01*
X224668546Y-95724103D01*
X224778410Y-95696087D01*
X224911647Y-95686047D01*
X225040882Y-95686047D01*
X225040882Y-96530334D01*
G37*
G36*
X224753653Y-94591534D02*
G01*
X224753653Y-94624323D01*
X224740464Y-94700161D01*
X224736067Y-94787264D01*
X224738782Y-94863919D01*
X224746234Y-94926666D01*
X224759529Y-94987837D01*
X224780764Y-95056816D01*
X225545000Y-95056816D01*
X225545000Y-95425654D01*
X224396081Y-95425654D01*
X224396081Y-95056816D01*
X224565158Y-95056816D01*
X224498608Y-94972161D01*
X224454614Y-94902288D01*
X224428413Y-94844692D01*
X224403686Y-94755579D01*
X224396081Y-94678637D01*
X224397180Y-94634582D01*
X224400203Y-94591534D01*
X224753653Y-94591534D01*
G37*
G36*
X228094309Y-108115688D02*
G01*
X228088529Y-108228217D01*
X228071664Y-108332585D01*
X228044208Y-108429754D01*
X228004783Y-108522259D01*
X227955044Y-108604389D01*
X227894823Y-108677233D01*
X227824340Y-108740173D01*
X227742290Y-108793616D01*
X227647253Y-108837609D01*
X227546786Y-108868375D01*
X227433186Y-108887713D01*
X227304519Y-108894487D01*
X227184750Y-108888148D01*
X227075733Y-108869802D01*
X226976165Y-108840173D01*
X226881551Y-108797953D01*
X226797652Y-108745411D01*
X226723374Y-108682362D01*
X226661812Y-108611960D01*
X226609647Y-108530293D01*
X226566844Y-108435982D01*
X226536548Y-108336538D01*
X226517975Y-108229792D01*
X226511615Y-108114680D01*
X226514470Y-108020673D01*
X226522423Y-107941024D01*
X226550633Y-107798050D01*
X226594322Y-107673578D01*
X226639018Y-107575667D01*
X227009870Y-107575667D01*
X227009870Y-107620730D01*
X226950794Y-107693087D01*
X226883475Y-107791913D01*
X226853112Y-107850107D01*
X226827513Y-107913821D01*
X226810512Y-107981074D01*
X226804706Y-108054230D01*
X226811305Y-108135612D01*
X226830810Y-108212042D01*
X226864965Y-108283175D01*
X226917363Y-108350344D01*
X226983189Y-108403760D01*
X227072061Y-108448255D01*
X227174269Y-108475580D01*
X227305526Y-108485624D01*
X227400652Y-108480604D01*
X227479723Y-108466661D01*
X227545220Y-108445141D01*
X227633472Y-108397891D01*
X227696712Y-108343200D01*
X227745197Y-108276695D01*
X227777129Y-108203798D01*
X227795302Y-108126780D01*
X227801217Y-108052124D01*
X227795777Y-107981006D01*
X227779327Y-107910249D01*
X227753383Y-107842418D01*
X227719976Y-107780648D01*
X227655404Y-107687408D01*
X227596053Y-107616700D01*
X227596053Y-107575667D01*
X227962509Y-107575667D01*
X228010961Y-107685393D01*
X228050070Y-107794936D01*
X228082951Y-107935345D01*
X228091065Y-108007072D01*
X228094309Y-108115688D01*
G37*
G36*
X227605038Y-106138625D02*
G01*
X227704694Y-106159593D01*
X227792169Y-106193075D01*
X227869215Y-106238685D01*
X227937138Y-106296781D01*
X227993728Y-106365226D01*
X228038577Y-106444135D01*
X228071800Y-106535060D01*
X228092774Y-106640023D01*
X228100170Y-106761422D01*
X228092775Y-106882818D01*
X228071803Y-106987791D01*
X228038581Y-107078737D01*
X227993731Y-107157674D01*
X227937138Y-107226155D01*
X227869220Y-107284215D01*
X227792177Y-107329800D01*
X227704701Y-107363265D01*
X227605043Y-107384223D01*
X227491090Y-107391569D01*
X227376179Y-107384153D01*
X227275936Y-107363020D01*
X227188184Y-107329313D01*
X227111118Y-107283442D01*
X227043393Y-107225056D01*
X226986903Y-107156175D01*
X226942184Y-107077088D01*
X226909104Y-106986295D01*
X226888253Y-106881845D01*
X226880910Y-106761422D01*
X227138831Y-106761422D01*
X227142579Y-106812954D01*
X227153119Y-106856311D01*
X227173505Y-106895544D01*
X227210088Y-106935628D01*
X227254866Y-106964898D01*
X227318990Y-106989484D01*
X227392833Y-107003950D01*
X227493105Y-107009451D01*
X227583465Y-107004776D01*
X227655496Y-106992049D01*
X227719394Y-106969605D01*
X227765863Y-106940758D01*
X227800430Y-106904550D01*
X227823932Y-106862447D01*
X227837470Y-106814755D01*
X227842250Y-106758400D01*
X227838027Y-106709166D01*
X227825489Y-106662595D01*
X227803089Y-106620652D01*
X227768977Y-106585201D01*
X227721569Y-106554271D01*
X227663647Y-106531437D01*
X227596052Y-106518618D01*
X227493105Y-106513485D01*
X227396466Y-106518558D01*
X227324119Y-106531987D01*
X227260653Y-106555000D01*
X227215218Y-106583186D01*
X227179294Y-106619682D01*
X227156141Y-106662137D01*
X227143241Y-106709521D01*
X227138831Y-106761422D01*
X226880910Y-106761422D01*
X226888359Y-106639090D01*
X226909452Y-106533634D01*
X226942816Y-106442574D01*
X226987795Y-106363822D01*
X227044492Y-106295773D01*
X227112539Y-106238060D01*
X227189706Y-106192725D01*
X227277299Y-106159435D01*
X227377061Y-106138584D01*
X227491090Y-106131276D01*
X227605038Y-106138625D01*
G37*
G36*
X228065000Y-104711248D02*
G01*
X228065000Y-105082100D01*
X227493746Y-105082100D01*
X227354711Y-105089336D01*
X227290406Y-105100082D01*
X227252678Y-105113882D01*
X227219891Y-105139136D01*
X227197357Y-105173874D01*
X227184831Y-105217501D01*
X227179863Y-105283967D01*
X227183886Y-105334142D01*
X227196258Y-105385999D01*
X227216644Y-105438012D01*
X227248557Y-105498198D01*
X228065000Y-105498198D01*
X228065000Y-105867035D01*
X226916081Y-105867035D01*
X226916081Y-105498198D01*
X227039912Y-105498198D01*
X226970210Y-105398951D01*
X226921943Y-105309154D01*
X226891437Y-105214798D01*
X226880910Y-105107837D01*
X226888427Y-105015402D01*
X226909631Y-104937671D01*
X226943373Y-104871968D01*
X226989720Y-104816303D01*
X227046696Y-104772774D01*
X227117720Y-104740068D01*
X227205852Y-104718913D01*
X227314960Y-104711248D01*
X228065000Y-104711248D01*
G37*
G36*
X228055474Y-103636518D02*
G01*
X228079654Y-103762547D01*
X228088447Y-103925488D01*
X228081899Y-104035349D01*
X228064026Y-104122724D01*
X228036883Y-104191703D01*
X228001618Y-104245690D01*
X227954827Y-104288678D01*
X227892533Y-104321302D01*
X227810790Y-104342798D01*
X227704405Y-104350745D01*
X227168140Y-104350745D01*
X227168140Y-104502420D01*
X226916081Y-104502420D01*
X226916081Y-104350745D01*
X226587819Y-104350745D01*
X226587819Y-103981908D01*
X226916081Y-103981908D01*
X226916081Y-103636518D01*
X227168140Y-103636518D01*
X227168140Y-103981908D01*
X227573613Y-103981908D01*
X227678485Y-103980901D01*
X227721712Y-103976153D01*
X227758994Y-103964506D01*
X227790623Y-103944910D01*
X227815505Y-103913764D01*
X227830438Y-103872613D01*
X227836388Y-103807702D01*
X227824023Y-103732322D01*
X227801217Y-103667293D01*
X227801217Y-103636518D01*
X228055474Y-103636518D01*
G37*
G36*
X227273653Y-102582671D02*
G01*
X227273653Y-102615461D01*
X227260464Y-102691298D01*
X227256067Y-102778401D01*
X227258782Y-102855057D01*
X227266234Y-102917803D01*
X227279529Y-102978975D01*
X227300764Y-103047954D01*
X228065000Y-103047954D01*
X228065000Y-103416791D01*
X226916081Y-103416791D01*
X226916081Y-103047954D01*
X227085158Y-103047954D01*
X227018608Y-102963298D01*
X226974614Y-102893425D01*
X226948413Y-102835829D01*
X226923686Y-102746716D01*
X226916081Y-102669774D01*
X226917180Y-102625719D01*
X226920203Y-102582671D01*
X227273653Y-102582671D01*
G37*
G36*
X227605038Y-101204431D02*
G01*
X227704694Y-101225399D01*
X227792169Y-101258881D01*
X227869215Y-101304491D01*
X227937138Y-101362587D01*
X227993728Y-101431032D01*
X228038577Y-101509941D01*
X228071800Y-101600866D01*
X228092774Y-101705829D01*
X228100170Y-101827228D01*
X228092775Y-101948624D01*
X228071803Y-102053597D01*
X228038581Y-102144543D01*
X227993731Y-102223480D01*
X227937138Y-102291961D01*
X227869220Y-102350021D01*
X227792177Y-102395606D01*
X227704701Y-102429071D01*
X227605043Y-102450029D01*
X227491090Y-102457375D01*
X227376179Y-102449959D01*
X227275936Y-102428826D01*
X227188184Y-102395119D01*
X227111118Y-102349248D01*
X227043393Y-102290862D01*
X226986903Y-102221981D01*
X226942184Y-102142894D01*
X226909104Y-102052101D01*
X226888253Y-101947651D01*
X226880910Y-101827228D01*
X227138831Y-101827228D01*
X227142579Y-101878760D01*
X227153119Y-101922117D01*
X227173505Y-101961350D01*
X227210088Y-102001434D01*
X227254866Y-102030704D01*
X227318990Y-102055290D01*
X227392833Y-102069756D01*
X227493105Y-102075257D01*
X227583465Y-102070582D01*
X227655496Y-102057855D01*
X227719394Y-102035411D01*
X227765863Y-102006564D01*
X227800430Y-101970356D01*
X227823932Y-101928253D01*
X227837470Y-101880561D01*
X227842250Y-101824206D01*
X227838027Y-101774972D01*
X227825489Y-101728401D01*
X227803089Y-101686458D01*
X227768977Y-101651007D01*
X227721569Y-101620077D01*
X227663647Y-101597243D01*
X227596052Y-101584424D01*
X227493105Y-101579291D01*
X227396466Y-101584364D01*
X227324119Y-101597793D01*
X227260653Y-101620806D01*
X227215218Y-101648992D01*
X227179294Y-101685488D01*
X227156141Y-101727943D01*
X227143241Y-101775327D01*
X227138831Y-101827228D01*
X226880910Y-101827228D01*
X226888359Y-101704896D01*
X226909452Y-101599440D01*
X226942816Y-101508380D01*
X226987795Y-101429628D01*
X227044492Y-101361579D01*
X227112539Y-101303866D01*
X227189706Y-101258531D01*
X227277299Y-101225241D01*
X227377061Y-101204390D01*
X227491090Y-101197082D01*
X227605038Y-101204431D01*
G37*
G36*
X228065000Y-100564004D02*
G01*
X228065000Y-100932841D01*
X226470582Y-100932841D01*
X226470582Y-100564004D01*
X228065000Y-100564004D01*
G37*
G36*
X228065000Y-99847396D02*
G01*
X228065000Y-100216233D01*
X226470582Y-100216233D01*
X226470582Y-99847396D01*
X228065000Y-99847396D01*
G37*
G36*
X227560882Y-99210655D02*
G01*
X227647167Y-99194821D01*
X227715527Y-99160530D01*
X227769893Y-99107706D01*
X227807716Y-99040522D01*
X227832856Y-98949737D01*
X227842250Y-98828445D01*
X227831555Y-98713562D01*
X227799385Y-98602032D01*
X227752630Y-98499556D01*
X227707428Y-98428833D01*
X227707428Y-98387892D01*
X228004549Y-98387892D01*
X228048827Y-98512042D01*
X228077547Y-98623556D01*
X228094258Y-98737361D01*
X228100170Y-98868470D01*
X228092819Y-99011202D01*
X228072164Y-99132896D01*
X228039891Y-99236493D01*
X227997087Y-99324567D01*
X227944191Y-99399241D01*
X227878079Y-99464334D01*
X227802258Y-99515076D01*
X227715347Y-99552194D01*
X227615354Y-99575443D01*
X227499791Y-99583613D01*
X227385426Y-99575944D01*
X227284928Y-99553999D01*
X227196205Y-99518814D01*
X227117544Y-99470643D01*
X227047698Y-99408949D01*
X226989570Y-99336728D01*
X226943628Y-99254388D01*
X226909719Y-99160465D01*
X226888399Y-99053062D01*
X226882715Y-98959603D01*
X227109521Y-98959603D01*
X227116175Y-99028721D01*
X227134995Y-99086380D01*
X227165300Y-99134909D01*
X227207256Y-99172228D01*
X227265178Y-99198254D01*
X227343995Y-99211662D01*
X227343995Y-98733190D01*
X227268042Y-98741940D01*
X227210945Y-98761633D01*
X227168415Y-98790618D01*
X227137215Y-98830678D01*
X227117020Y-98885410D01*
X227109521Y-98959603D01*
X226882715Y-98959603D01*
X226880910Y-98929928D01*
X226891199Y-98788916D01*
X226919661Y-98674689D01*
X226963842Y-98582272D01*
X227022968Y-98507785D01*
X227097821Y-98448369D01*
X227188546Y-98404424D01*
X227298410Y-98376408D01*
X227431647Y-98366368D01*
X227560882Y-98366368D01*
X227560882Y-99210655D01*
G37*
G36*
X227273653Y-97271855D02*
G01*
X227273653Y-97304644D01*
X227260464Y-97380482D01*
X227256067Y-97467585D01*
X227258782Y-97544240D01*
X227266234Y-97606987D01*
X227279529Y-97668158D01*
X227300764Y-97737137D01*
X228065000Y-97737137D01*
X228065000Y-98105975D01*
X226916081Y-98105975D01*
X226916081Y-97737137D01*
X227085158Y-97737137D01*
X227018608Y-97652482D01*
X226974614Y-97582609D01*
X226948413Y-97525013D01*
X226923686Y-97435900D01*
X226916081Y-97358958D01*
X226917180Y-97314903D01*
X226920203Y-97271855D01*
X227273653Y-97271855D01*
G37*
G36*
X227671898Y-95025174D02*
G01*
X227737194Y-95040178D01*
X227796546Y-95064602D01*
X227875963Y-95117537D01*
X227940436Y-95187059D01*
X227998173Y-95281767D01*
X228036423Y-95385354D01*
X228057088Y-95500775D01*
X228065000Y-95659394D01*
X228065000Y-96325444D01*
X226540924Y-96325444D01*
X226540924Y-95897165D01*
X226816430Y-95897165D01*
X226816430Y-95934076D01*
X227144692Y-95934076D01*
X227144692Y-95872618D01*
X227144209Y-95847980D01*
X227408475Y-95847980D01*
X227408475Y-95934076D01*
X227789494Y-95934076D01*
X227789494Y-95905408D01*
X227788486Y-95667637D01*
X227781152Y-95598030D01*
X227761741Y-95535471D01*
X227730427Y-95481812D01*
X227693506Y-95450933D01*
X227648451Y-95433814D01*
X227595412Y-95427852D01*
X227527862Y-95435677D01*
X227482938Y-95456062D01*
X227449842Y-95491753D01*
X227423862Y-95551866D01*
X227414089Y-95602344D01*
X227409482Y-95678903D01*
X227408475Y-95847980D01*
X227144209Y-95847980D01*
X227141578Y-95713799D01*
X227134165Y-95652073D01*
X227120696Y-95610301D01*
X227091852Y-95564661D01*
X227058780Y-95540601D01*
X227018735Y-95528499D01*
X226970669Y-95524206D01*
X226932625Y-95528820D01*
X226893550Y-95543165D01*
X226860624Y-95568630D01*
X226836214Y-95610301D01*
X226823721Y-95656301D01*
X226817987Y-95717371D01*
X226816430Y-95897165D01*
X226540924Y-95897165D01*
X226540924Y-95733217D01*
X226544614Y-95561193D01*
X226553289Y-95463206D01*
X226572747Y-95378901D01*
X226607694Y-95293579D01*
X226641389Y-95239332D01*
X226680823Y-95196644D01*
X226726304Y-95164070D01*
X226804823Y-95132416D01*
X226896206Y-95121480D01*
X226968314Y-95128179D01*
X227033021Y-95147688D01*
X227091844Y-95179915D01*
X227143236Y-95223273D01*
X227187128Y-95277728D01*
X227223736Y-95344870D01*
X227231979Y-95344870D01*
X227259888Y-95249116D01*
X227300863Y-95171022D01*
X227354528Y-95107650D01*
X227421176Y-95059922D01*
X227501572Y-95030440D01*
X227599534Y-95019997D01*
X227671898Y-95025174D01*
G37*
G36*
X227605038Y-93578192D02*
G01*
X227704694Y-93599160D01*
X227792169Y-93632642D01*
X227869215Y-93678253D01*
X227937138Y-93736348D01*
X227993728Y-93804794D01*
X228038577Y-93883702D01*
X228071800Y-93974627D01*
X228092774Y-94079590D01*
X228100170Y-94200990D01*
X228092775Y-94322386D01*
X228071803Y-94427358D01*
X228038581Y-94518304D01*
X227993731Y-94597241D01*
X227937138Y-94665723D01*
X227869220Y-94723782D01*
X227792177Y-94769368D01*
X227704701Y-94802832D01*
X227605043Y-94823790D01*
X227491090Y-94831136D01*
X227376179Y-94823721D01*
X227275936Y-94802587D01*
X227188184Y-94768881D01*
X227111118Y-94723009D01*
X227043393Y-94664624D01*
X226986903Y-94595742D01*
X226942184Y-94516656D01*
X226909104Y-94425863D01*
X226888253Y-94321413D01*
X226880910Y-94200990D01*
X227138831Y-94200990D01*
X227142579Y-94252521D01*
X227153119Y-94295878D01*
X227173505Y-94335112D01*
X227210088Y-94375196D01*
X227254866Y-94404465D01*
X227318990Y-94429051D01*
X227392833Y-94443518D01*
X227493105Y-94449018D01*
X227583465Y-94444344D01*
X227655496Y-94431616D01*
X227719394Y-94409172D01*
X227765863Y-94380325D01*
X227800430Y-94344117D01*
X227823932Y-94302015D01*
X227837470Y-94254323D01*
X227842250Y-94197967D01*
X227838027Y-94148733D01*
X227825489Y-94102163D01*
X227803089Y-94060219D01*
X227768977Y-94024768D01*
X227721569Y-93993838D01*
X227663647Y-93971004D01*
X227596052Y-93958185D01*
X227493105Y-93953053D01*
X227396466Y-93958125D01*
X227324119Y-93971554D01*
X227260653Y-93994568D01*
X227215218Y-94022753D01*
X227179294Y-94059249D01*
X227156141Y-94101705D01*
X227143241Y-94149089D01*
X227138831Y-94200990D01*
X226880910Y-94200990D01*
X226888359Y-94078658D01*
X226909452Y-93973201D01*
X226942816Y-93882141D01*
X226987795Y-93803389D01*
X227044492Y-93735341D01*
X227112539Y-93677627D01*
X227189706Y-93632293D01*
X227277299Y-93599002D01*
X227377061Y-93578151D01*
X227491090Y-93570843D01*
X227605038Y-93578192D01*
G37*
G36*
X228065000Y-92609870D02*
G01*
X227943092Y-92609870D01*
X227997405Y-92683692D01*
X228047597Y-92766673D01*
X228070201Y-92822028D01*
X228086707Y-92879422D01*
X228096673Y-92939368D01*
X228100170Y-93007466D01*
X228093470Y-93087992D01*
X228074100Y-93159592D01*
X228042484Y-93223879D01*
X227998138Y-93282056D01*
X227943551Y-93330486D01*
X227882847Y-93364658D01*
X227814763Y-93385490D01*
X227737470Y-93392698D01*
X227654621Y-93385833D01*
X227586534Y-93366647D01*
X227530382Y-93336370D01*
X227481536Y-93294543D01*
X227439328Y-93241772D01*
X227403620Y-93176452D01*
X227365309Y-93066865D01*
X227337675Y-92922378D01*
X227320784Y-92769213D01*
X227308980Y-92609870D01*
X227525711Y-92609870D01*
X227542656Y-92771803D01*
X227555339Y-92853389D01*
X227567843Y-92903877D01*
X227590127Y-92954112D01*
X227618676Y-92988415D01*
X227656127Y-93009938D01*
X227706420Y-93017633D01*
X227764947Y-93011496D01*
X227786167Y-93001352D01*
X227808087Y-92980722D01*
X227825753Y-92955187D01*
X227838403Y-92924393D01*
X227845220Y-92886986D01*
X227848112Y-92821903D01*
X227842615Y-92766897D01*
X227825580Y-92709795D01*
X227799089Y-92655917D01*
X227765955Y-92609870D01*
X227525711Y-92609870D01*
X227308980Y-92609870D01*
X227308824Y-92607763D01*
X227302595Y-92607763D01*
X227243395Y-92617000D01*
X227200485Y-92642642D01*
X227169697Y-92685615D01*
X227150938Y-92739076D01*
X227137928Y-92813647D01*
X227132969Y-92915143D01*
X227140703Y-93007312D01*
X227165300Y-93109865D01*
X227215034Y-93258426D01*
X227215034Y-93292223D01*
X226938155Y-93292223D01*
X226901885Y-93102172D01*
X226886142Y-92970207D01*
X226880910Y-92838298D01*
X226888631Y-92674658D01*
X226909287Y-92549039D01*
X226939739Y-92454207D01*
X226977814Y-92383914D01*
X227031601Y-92324008D01*
X227098167Y-92280907D01*
X227180174Y-92253778D01*
X227281713Y-92244055D01*
X228065000Y-92244055D01*
X228065000Y-92609870D01*
G37*
G36*
X227273653Y-91070040D02*
G01*
X227273653Y-91102830D01*
X227260464Y-91178668D01*
X227256067Y-91265771D01*
X227258782Y-91342426D01*
X227266234Y-91405172D01*
X227279529Y-91466344D01*
X227300764Y-91535323D01*
X228065000Y-91535323D01*
X228065000Y-91904160D01*
X226916081Y-91904160D01*
X226916081Y-91535323D01*
X227085158Y-91535323D01*
X227018608Y-91450667D01*
X226974614Y-91380794D01*
X226948413Y-91323198D01*
X226923686Y-91234085D01*
X226916081Y-91157144D01*
X226917180Y-91113088D01*
X226920203Y-91070040D01*
X227273653Y-91070040D01*
G37*
G36*
X228065000Y-90110716D02*
G01*
X227945107Y-90110716D01*
X228015412Y-90206392D01*
X228061611Y-90289043D01*
X228090112Y-90376383D01*
X228100170Y-90480652D01*
X228089653Y-90582052D01*
X228059303Y-90670136D01*
X228009281Y-90747760D01*
X227937596Y-90816700D01*
X227853956Y-90869471D01*
X227755010Y-90908781D01*
X227637920Y-90933815D01*
X227499241Y-90942729D01*
X227401848Y-90937684D01*
X227315384Y-90923248D01*
X227238482Y-90900231D01*
X227131638Y-90849128D01*
X227043484Y-90783910D01*
X226975190Y-90707192D01*
X226923592Y-90614833D01*
X226891361Y-90514427D01*
X226880910Y-90416080D01*
X226887024Y-90317520D01*
X226897341Y-90271641D01*
X227150554Y-90271641D01*
X227156925Y-90343409D01*
X227174740Y-90402110D01*
X227202969Y-90450338D01*
X227241871Y-90489903D01*
X227306546Y-90528585D01*
X227389304Y-90553525D01*
X227495028Y-90562626D01*
X227607691Y-90554708D01*
X227687232Y-90534126D01*
X227741958Y-90504282D01*
X227783135Y-90459852D01*
X227809204Y-90399159D01*
X227818803Y-90316704D01*
X227814241Y-90266112D01*
X227799752Y-90210184D01*
X227777314Y-90156385D01*
X227749743Y-90110716D01*
X227181512Y-90110716D01*
X227157790Y-90192690D01*
X227150554Y-90271641D01*
X226897341Y-90271641D01*
X226902984Y-90246545D01*
X226958763Y-90110716D01*
X226470582Y-90110716D01*
X226470582Y-89741787D01*
X228065000Y-89741787D01*
X228065000Y-90110716D01*
G37*
G36*
X226540924Y-87271942D02*
G01*
X228065000Y-87828358D01*
X228065000Y-88268911D01*
X226540924Y-88825327D01*
X226540924Y-88412434D01*
X227611532Y-88043505D01*
X226540924Y-87674668D01*
X226540924Y-87271942D01*
G37*
G36*
X228065000Y-85955687D02*
G01*
X228065000Y-86974180D01*
X227801217Y-86974180D01*
X227801217Y-86652420D01*
X226992285Y-86652420D01*
X226992285Y-86974180D01*
X226746088Y-86974180D01*
X226737479Y-86832763D01*
X226725116Y-86768473D01*
X226707711Y-86720014D01*
X226677836Y-86672452D01*
X226642041Y-86640147D01*
X226597968Y-86619573D01*
X226540924Y-86609372D01*
X226540924Y-86270211D01*
X227801217Y-86270211D01*
X227801217Y-85955687D01*
X228065000Y-85955687D01*
G37*
G36*
X228065000Y-85184215D02*
G01*
X228065000Y-85567432D01*
X227660533Y-85567432D01*
X227660533Y-85184215D01*
X228065000Y-85184215D01*
G37*
G36*
X228065000Y-83706210D02*
G01*
X228065000Y-84724703D01*
X227801217Y-84724703D01*
X227801217Y-84402943D01*
X226992285Y-84402943D01*
X226992285Y-84724703D01*
X226746088Y-84724703D01*
X226737479Y-84583286D01*
X226725116Y-84518997D01*
X226707711Y-84470538D01*
X226677836Y-84422975D01*
X226642041Y-84390670D01*
X226597968Y-84370097D01*
X226540924Y-84359896D01*
X226540924Y-84020734D01*
X227801217Y-84020734D01*
X227801217Y-83706210D01*
X228065000Y-83706210D01*
G37*
G36*
X228065000Y-81769242D02*
G01*
X228065000Y-82662805D01*
X227789494Y-82662805D01*
X227789494Y-82412761D01*
X226816430Y-82412761D01*
X226816430Y-82662805D01*
X226540924Y-82662805D01*
X226540924Y-81769242D01*
X226816430Y-81769242D01*
X226816430Y-82019286D01*
X227789494Y-82019286D01*
X227789494Y-81769242D01*
X228065000Y-81769242D01*
G37*
G36*
X227586619Y-80226757D02*
G01*
X227674101Y-80234512D01*
X227753056Y-80257116D01*
X227825186Y-80294409D01*
X227891726Y-80347342D01*
X227953350Y-80417908D01*
X228012030Y-80515705D01*
X228056049Y-80632345D01*
X228084236Y-80771335D01*
X228094309Y-80936863D01*
X228085321Y-81120137D01*
X228060786Y-81267323D01*
X228022340Y-81405077D01*
X227975790Y-81531197D01*
X227607777Y-81531197D01*
X227607777Y-81488149D01*
X227670336Y-81403706D01*
X227722389Y-81312904D01*
X227764214Y-81215116D01*
X227795141Y-81113188D01*
X227813008Y-81016628D01*
X227818803Y-80924590D01*
X227812391Y-80830342D01*
X227803270Y-80774846D01*
X227790959Y-80734996D01*
X227768786Y-80693073D01*
X227742874Y-80660716D01*
X227708873Y-80639439D01*
X227657328Y-80631498D01*
X227611139Y-80641846D01*
X227570683Y-80674088D01*
X227539984Y-80723133D01*
X227514720Y-80798560D01*
X227476344Y-80980368D01*
X227455661Y-81074344D01*
X227430640Y-81160253D01*
X227380218Y-81284147D01*
X227323357Y-81374251D01*
X227260922Y-81437408D01*
X227185516Y-81483555D01*
X227097827Y-81511981D01*
X226994758Y-81521946D01*
X226912580Y-81514312D01*
X226838059Y-81491984D01*
X226769554Y-81454939D01*
X226705906Y-81401994D01*
X226646529Y-81330887D01*
X226589627Y-81233035D01*
X226547535Y-81120295D01*
X226520979Y-80990129D01*
X226511615Y-80839501D01*
X226518882Y-80689732D01*
X226540649Y-80541922D01*
X226574603Y-80400408D01*
X226613464Y-80287207D01*
X226962976Y-80287207D01*
X226962976Y-80329248D01*
X226895637Y-80429217D01*
X226837588Y-80555203D01*
X226809432Y-80645450D01*
X226792695Y-80736255D01*
X226787121Y-80828236D01*
X226794082Y-80926147D01*
X226804024Y-80973906D01*
X226820094Y-81019844D01*
X226840147Y-81056944D01*
X226868545Y-81088538D01*
X226903434Y-81110115D01*
X226942459Y-81117206D01*
X226980429Y-81111861D01*
X227010760Y-81096644D01*
X227035333Y-81071135D01*
X227062936Y-81013791D01*
X227094226Y-80896929D01*
X227128114Y-80735546D01*
X227173269Y-80569033D01*
X227219248Y-80456255D01*
X227271640Y-80371770D01*
X227329706Y-80310288D01*
X227399896Y-80264982D01*
X227484297Y-80236770D01*
X227586619Y-80226757D01*
G37*
G36*
X227586619Y-78734922D02*
G01*
X227674101Y-78742677D01*
X227753056Y-78765280D01*
X227825186Y-78802573D01*
X227891726Y-78855507D01*
X227953350Y-78926072D01*
X228012030Y-79023870D01*
X228056049Y-79140509D01*
X228084236Y-79279499D01*
X228094309Y-79445027D01*
X228085321Y-79628302D01*
X228060786Y-79775488D01*
X228022340Y-79913242D01*
X227975790Y-80039362D01*
X227607777Y-80039362D01*
X227607777Y-79996314D01*
X227670336Y-79911870D01*
X227722389Y-79821068D01*
X227764214Y-79723281D01*
X227795141Y-79621353D01*
X227813008Y-79524793D01*
X227818803Y-79432754D01*
X227812391Y-79338507D01*
X227803270Y-79283011D01*
X227790959Y-79243161D01*
X227768786Y-79201238D01*
X227742874Y-79168880D01*
X227708873Y-79147604D01*
X227657328Y-79139663D01*
X227611139Y-79150011D01*
X227570683Y-79182253D01*
X227539984Y-79231298D01*
X227514720Y-79306725D01*
X227476344Y-79488533D01*
X227455661Y-79582508D01*
X227430640Y-79668418D01*
X227380218Y-79792311D01*
X227323357Y-79882416D01*
X227260922Y-79945573D01*
X227185516Y-79991720D01*
X227097827Y-80020146D01*
X226994758Y-80030111D01*
X226912580Y-80022477D01*
X226838059Y-80000149D01*
X226769554Y-79963104D01*
X226705906Y-79910159D01*
X226646529Y-79839052D01*
X226589627Y-79741199D01*
X226547535Y-79628460D01*
X226520979Y-79498294D01*
X226511615Y-79347666D01*
X226518882Y-79197897D01*
X226540649Y-79050087D01*
X226574603Y-78908573D01*
X226613464Y-78795372D01*
X226962976Y-78795372D01*
X226962976Y-78837412D01*
X226895637Y-78937382D01*
X226837588Y-79063367D01*
X226809432Y-79153615D01*
X226792695Y-79244420D01*
X226787121Y-79336400D01*
X226794082Y-79434311D01*
X226804024Y-79482071D01*
X226820094Y-79528009D01*
X226840147Y-79565109D01*
X226868545Y-79596702D01*
X226903434Y-79618280D01*
X226942459Y-79625370D01*
X226980429Y-79620025D01*
X227010760Y-79604809D01*
X227035333Y-79579300D01*
X227062936Y-79521955D01*
X227094226Y-79405094D01*
X227128114Y-79243710D01*
X227173269Y-79077198D01*
X227219248Y-78964420D01*
X227271640Y-78879934D01*
X227329706Y-78818453D01*
X227399896Y-78773147D01*
X227484297Y-78744935D01*
X227586619Y-78734922D01*
G37*
G36*
X230560947Y-107712518D02*
G01*
X230650838Y-107728388D01*
X230725958Y-107752987D01*
X230795969Y-107788828D01*
X230853089Y-107831815D01*
X230898974Y-107882039D01*
X230936590Y-107939783D01*
X230967208Y-108006184D01*
X230990565Y-108082440D01*
X231011349Y-108203874D01*
X231018775Y-108347322D01*
X231015137Y-108466640D01*
X231004303Y-108583535D01*
X230987613Y-108695742D01*
X230969132Y-108784852D01*
X230678789Y-108784852D01*
X230678789Y-108739789D01*
X230703113Y-108668102D01*
X230727149Y-108574834D01*
X230744008Y-108479600D01*
X230749131Y-108400628D01*
X230743863Y-108303055D01*
X230730263Y-108234115D01*
X230706330Y-108175544D01*
X230676774Y-108136204D01*
X230640354Y-108109233D01*
X230593151Y-108090134D01*
X230539532Y-108079637D01*
X230470969Y-108075754D01*
X230449536Y-108075754D01*
X230498154Y-108145828D01*
X230535632Y-108223307D01*
X230559204Y-108307391D01*
X230567414Y-108403650D01*
X230557338Y-108523237D01*
X230528984Y-108622938D01*
X230483904Y-108706490D01*
X230421876Y-108776609D01*
X230346320Y-108830327D01*
X230250538Y-108871247D01*
X230129975Y-108898003D01*
X229979033Y-108907767D01*
X229884545Y-108902929D01*
X229803133Y-108889274D01*
X229733019Y-108867834D01*
X229635647Y-108819311D01*
X229552585Y-108755085D01*
X229489357Y-108680467D01*
X229440935Y-108588572D01*
X229410843Y-108488134D01*
X229400910Y-108386156D01*
X229406654Y-108295440D01*
X229418828Y-108236680D01*
X229670554Y-108236680D01*
X229680913Y-108329972D01*
X229709330Y-108400943D01*
X229754360Y-108454941D01*
X229814200Y-108493788D01*
X229890580Y-108518630D01*
X229988101Y-108527664D01*
X230097931Y-108519094D01*
X230172024Y-108497165D01*
X230220284Y-108465657D01*
X230255453Y-108420174D01*
X230277852Y-108360345D01*
X230286046Y-108281742D01*
X230281710Y-108227013D01*
X230268644Y-108173115D01*
X230248133Y-108121749D01*
X230222299Y-108075754D01*
X229699314Y-108075754D01*
X229678248Y-108153698D01*
X229670554Y-108236680D01*
X229418828Y-108236680D01*
X229422984Y-108216621D01*
X229449508Y-108143071D01*
X229483983Y-108077769D01*
X229436081Y-108064488D01*
X229436081Y-107706825D01*
X230453658Y-107706825D01*
X230560947Y-107712518D01*
G37*
G36*
X230585000Y-106988568D02*
G01*
X230585000Y-107357405D01*
X229436081Y-107357405D01*
X229436081Y-106988568D01*
X230585000Y-106988568D01*
G37*
G36*
X229271950Y-106978310D02*
G01*
X229271950Y-107367663D01*
X228990582Y-107367663D01*
X228990582Y-106978310D01*
X229271950Y-106978310D01*
G37*
G36*
X230575474Y-105905046D02*
G01*
X230599654Y-106031075D01*
X230608447Y-106194016D01*
X230601899Y-106303877D01*
X230584026Y-106391252D01*
X230556883Y-106460230D01*
X230521618Y-106514218D01*
X230474827Y-106557206D01*
X230412533Y-106589830D01*
X230330790Y-106611325D01*
X230224405Y-106619273D01*
X229688140Y-106619273D01*
X229688140Y-106770948D01*
X229436081Y-106770948D01*
X229436081Y-106619273D01*
X229107819Y-106619273D01*
X229107819Y-106250436D01*
X229436081Y-106250436D01*
X229436081Y-105905046D01*
X229688140Y-105905046D01*
X229688140Y-106250436D01*
X230093613Y-106250436D01*
X230198485Y-106249428D01*
X230241712Y-106244681D01*
X230278994Y-106233033D01*
X230310623Y-106213438D01*
X230335505Y-106182292D01*
X230350438Y-106141140D01*
X230356388Y-106076229D01*
X230344023Y-106000850D01*
X230321217Y-105935820D01*
X230321217Y-105905046D01*
X230575474Y-105905046D01*
G37*
G36*
X230585000Y-104529531D02*
G01*
X230585000Y-104900383D01*
X230013746Y-104900383D01*
X229874711Y-104907619D01*
X229810406Y-104918365D01*
X229772678Y-104932165D01*
X229739891Y-104957419D01*
X229717357Y-104992158D01*
X229704831Y-105035785D01*
X229699863Y-105102250D01*
X229703886Y-105152425D01*
X229716258Y-105204282D01*
X229736644Y-105256296D01*
X229768557Y-105316482D01*
X230585000Y-105316482D01*
X230585000Y-105685319D01*
X228990582Y-105685319D01*
X228990582Y-105316482D01*
X229559912Y-105316482D01*
X229490210Y-105217234D01*
X229441943Y-105127438D01*
X229411437Y-105033081D01*
X229400910Y-104926120D01*
X229408427Y-104833685D01*
X229429631Y-104755954D01*
X229463373Y-104690251D01*
X229509720Y-104634586D01*
X229566696Y-104591057D01*
X229637720Y-104558351D01*
X229725852Y-104537196D01*
X229834960Y-104529531D01*
X230585000Y-104529531D01*
G37*
G36*
X230585000Y-103043924D02*
G01*
X230585000Y-103412853D01*
X230461168Y-103412853D01*
X230532200Y-103514856D01*
X230579687Y-103600431D01*
X230601525Y-103658444D01*
X230615307Y-103725506D01*
X230620170Y-103803214D01*
X230612509Y-103897828D01*
X230591009Y-103976463D01*
X230556981Y-104042072D01*
X230510444Y-104096855D01*
X230453073Y-104139541D01*
X230381980Y-104171603D01*
X230294225Y-104192313D01*
X230186120Y-104199803D01*
X229436081Y-104199803D01*
X229436081Y-103828859D01*
X230007335Y-103828859D01*
X230152506Y-103823272D01*
X230207335Y-103813367D01*
X230248402Y-103797077D01*
X230281168Y-103772695D01*
X230303815Y-103738184D01*
X230316277Y-103694484D01*
X230321217Y-103628000D01*
X230317135Y-103579989D01*
X230303815Y-103523586D01*
X230282400Y-103467524D01*
X230252524Y-103412853D01*
X229436081Y-103412853D01*
X229436081Y-103043924D01*
X230585000Y-103043924D01*
G37*
G36*
X230128379Y-101505035D02*
G01*
X230245411Y-101534105D01*
X230347503Y-101580746D01*
X230436988Y-101644962D01*
X230512931Y-101725886D01*
X230565755Y-101814028D01*
X230597548Y-101911049D01*
X230608447Y-102019478D01*
X230602870Y-102112584D01*
X230587472Y-102188647D01*
X230562086Y-102259513D01*
X230527572Y-102326949D01*
X230585000Y-102342336D01*
X230585000Y-102695786D01*
X228990582Y-102695786D01*
X228990582Y-102326949D01*
X229552493Y-102326949D01*
X229490611Y-102239879D01*
X229442950Y-102153292D01*
X229428015Y-102113817D01*
X229682278Y-102113817D01*
X229686187Y-102166166D01*
X229698306Y-102221436D01*
X229717705Y-102275379D01*
X229744193Y-102326949D01*
X230325797Y-102326949D01*
X230345397Y-102251112D01*
X230350526Y-102165016D01*
X230344384Y-102092283D01*
X230327308Y-102033348D01*
X230300482Y-101985491D01*
X230263881Y-101946755D01*
X230201946Y-101909227D01*
X230117599Y-101884347D01*
X230004037Y-101875039D01*
X229901664Y-101881848D01*
X229824001Y-101900087D01*
X229765809Y-101927337D01*
X229730726Y-101956897D01*
X229704981Y-101996120D01*
X229688369Y-102047284D01*
X229682278Y-102113817D01*
X229428015Y-102113817D01*
X229420080Y-102092843D01*
X229405861Y-102025086D01*
X229400910Y-101948770D01*
X229411452Y-101842600D01*
X229441416Y-101753306D01*
X229489972Y-101677417D01*
X229558538Y-101612722D01*
X229639236Y-101563826D01*
X229736411Y-101527007D01*
X229853216Y-101503334D01*
X229993413Y-101494844D01*
X230128379Y-101505035D01*
G37*
G36*
X230585000Y-100830901D02*
G01*
X230585000Y-101214118D01*
X230180533Y-101214118D01*
X230180533Y-100830901D01*
X230585000Y-100830901D01*
G37*
G36*
X230620170Y-99870293D02*
G01*
X230610827Y-100017016D01*
X230584175Y-100145433D01*
X230555267Y-100225997D01*
X230518161Y-100297920D01*
X230472892Y-100362137D01*
X230418822Y-100418037D01*
X230355981Y-100465071D01*
X230283390Y-100503554D01*
X230205642Y-100530695D01*
X230116997Y-100547756D01*
X230015669Y-100553746D01*
X229908925Y-100547286D01*
X229816637Y-100528976D01*
X229736683Y-100499982D01*
X229662214Y-100458944D01*
X229597624Y-100409029D01*
X229541960Y-100349864D01*
X229497953Y-100285157D01*
X229462269Y-100213709D01*
X229434890Y-100134717D01*
X229409477Y-100010961D01*
X229400910Y-99881559D01*
X229407499Y-99766493D01*
X229426372Y-99664397D01*
X229455960Y-99567498D01*
X229492593Y-99478925D01*
X229805376Y-99478925D01*
X229805376Y-99531223D01*
X229764985Y-99582972D01*
X229719647Y-99657253D01*
X229684568Y-99749485D01*
X229674285Y-99801913D01*
X229670554Y-99866263D01*
X229676942Y-99938971D01*
X229694945Y-99999599D01*
X229723674Y-100050471D01*
X229763428Y-100093226D01*
X229829593Y-100135882D01*
X229912171Y-100162898D01*
X230015578Y-100172636D01*
X230122232Y-100162396D01*
X230203508Y-100134517D01*
X230265255Y-100091211D01*
X230311282Y-100031741D01*
X230340127Y-99956292D01*
X230350526Y-99860127D01*
X230346541Y-99792407D01*
X230335322Y-99734647D01*
X230317925Y-99681596D01*
X230299327Y-99641865D01*
X230258019Y-99580408D01*
X230215704Y-99531223D01*
X230215704Y-99478925D01*
X230530869Y-99478925D01*
X230567605Y-99567781D01*
X230595990Y-99660825D01*
X230613876Y-99758411D01*
X230620170Y-99870293D01*
G37*
G36*
X230125038Y-98065422D02*
G01*
X230224694Y-98086390D01*
X230312169Y-98119872D01*
X230389215Y-98165482D01*
X230457138Y-98223578D01*
X230513728Y-98292023D01*
X230558577Y-98370931D01*
X230591800Y-98461857D01*
X230612774Y-98566820D01*
X230620170Y-98688219D01*
X230612775Y-98809615D01*
X230591803Y-98914588D01*
X230558581Y-99005534D01*
X230513731Y-99084471D01*
X230457138Y-99152952D01*
X230389220Y-99211012D01*
X230312177Y-99256597D01*
X230224701Y-99290062D01*
X230125043Y-99311020D01*
X230011090Y-99318366D01*
X229896179Y-99310950D01*
X229795936Y-99289817D01*
X229708184Y-99256110D01*
X229631118Y-99210239D01*
X229563393Y-99151853D01*
X229506903Y-99082972D01*
X229462184Y-99003885D01*
X229429104Y-98913092D01*
X229408253Y-98808642D01*
X229400910Y-98688219D01*
X229658831Y-98688219D01*
X229662579Y-98739751D01*
X229673119Y-98783107D01*
X229693505Y-98822341D01*
X229730088Y-98862425D01*
X229774866Y-98891695D01*
X229838990Y-98916281D01*
X229912833Y-98930747D01*
X230013105Y-98936248D01*
X230103465Y-98931573D01*
X230175496Y-98918845D01*
X230239394Y-98896402D01*
X230285863Y-98867554D01*
X230320430Y-98831346D01*
X230343932Y-98789244D01*
X230357470Y-98741552D01*
X230362250Y-98685197D01*
X230358027Y-98635962D01*
X230345489Y-98589392D01*
X230323089Y-98547449D01*
X230288977Y-98511998D01*
X230241569Y-98481068D01*
X230183647Y-98458234D01*
X230116052Y-98445415D01*
X230013105Y-98440282D01*
X229916466Y-98445355D01*
X229844119Y-98458784D01*
X229780653Y-98481797D01*
X229735218Y-98509983D01*
X229699294Y-98546479D01*
X229676141Y-98588934D01*
X229663241Y-98636318D01*
X229658831Y-98688219D01*
X229400910Y-98688219D01*
X229408359Y-98565887D01*
X229429452Y-98460431D01*
X229462816Y-98369371D01*
X229507795Y-98290619D01*
X229564492Y-98222570D01*
X229632539Y-98164857D01*
X229709706Y-98119522D01*
X229797299Y-98086232D01*
X229897061Y-98065380D01*
X230011090Y-98058073D01*
X230125038Y-98065422D01*
G37*
G36*
X229768557Y-96668728D02*
G01*
X230585000Y-96668728D01*
X230585000Y-97039672D01*
X230009624Y-97039672D01*
X229866559Y-97043793D01*
X229810836Y-97052028D01*
X229770663Y-97066325D01*
X229738733Y-97089508D01*
X229716808Y-97122195D01*
X229704682Y-97163683D01*
X229699863Y-97227250D01*
X229705347Y-97280617D01*
X229721937Y-97332763D01*
X229768557Y-97424995D01*
X230585000Y-97424995D01*
X230585000Y-97793832D01*
X229436081Y-97793832D01*
X229436081Y-97424995D01*
X229559912Y-97424995D01*
X229491481Y-97329002D01*
X229442950Y-97242546D01*
X229411646Y-97151869D01*
X229400910Y-97049930D01*
X229406815Y-96975481D01*
X229423897Y-96908989D01*
X229451743Y-96849071D01*
X229490367Y-96795793D01*
X229539670Y-96750520D01*
X229601037Y-96712783D01*
X229515637Y-96600724D01*
X229454308Y-96497636D01*
X229423985Y-96426496D01*
X229406565Y-96358476D01*
X229400910Y-96292655D01*
X229408727Y-96200321D01*
X229430611Y-96124266D01*
X229465242Y-96061365D01*
X229512743Y-96009364D01*
X229570702Y-95969233D01*
X229641807Y-95939048D01*
X229728778Y-95919575D01*
X229834960Y-95912552D01*
X230585000Y-95912552D01*
X230585000Y-96283496D01*
X230009624Y-96283496D01*
X229866010Y-96287068D01*
X229810785Y-96294885D01*
X229770663Y-96309141D01*
X229738804Y-96331611D01*
X229716808Y-96364462D01*
X229704683Y-96406533D01*
X229699863Y-96470983D01*
X229703832Y-96516458D01*
X229715800Y-96561108D01*
X229768557Y-96668728D01*
G37*
G36*
X228990582Y-94493257D02*
G01*
X230919124Y-95305853D01*
X230919124Y-95620376D01*
X228990582Y-94810894D01*
X228990582Y-94493257D01*
G37*
G36*
X230141699Y-93308709D02*
G01*
X230239841Y-93317813D01*
X230330285Y-93344613D01*
X230411468Y-93389272D01*
X230478662Y-93451133D01*
X230535362Y-93532329D01*
X230578863Y-93631476D01*
X230604644Y-93743794D01*
X230614309Y-93892786D01*
X230606615Y-94091538D01*
X230584542Y-94255486D01*
X230274323Y-94255486D01*
X230274323Y-94218575D01*
X230310409Y-94116176D01*
X230322463Y-94059008D01*
X230327079Y-93979889D01*
X230318807Y-93879171D01*
X230298045Y-93814384D01*
X230262706Y-93764174D01*
X230217261Y-93731860D01*
X230164537Y-93713579D01*
X230105887Y-93705299D01*
X229950915Y-93702185D01*
X229336430Y-93702185D01*
X229336430Y-94051605D01*
X229060924Y-94051605D01*
X229060924Y-93308709D01*
X230141699Y-93308709D01*
G37*
G36*
X230585000Y-92262556D02*
G01*
X230463092Y-92262556D01*
X230517405Y-92336379D01*
X230567597Y-92419360D01*
X230590201Y-92474715D01*
X230606707Y-92532109D01*
X230616673Y-92592055D01*
X230620170Y-92660153D01*
X230613470Y-92740679D01*
X230594100Y-92812279D01*
X230562484Y-92876565D01*
X230518138Y-92934743D01*
X230463551Y-92983173D01*
X230402847Y-93017344D01*
X230334763Y-93038177D01*
X230257470Y-93045385D01*
X230174621Y-93038520D01*
X230106534Y-93019334D01*
X230050382Y-92989057D01*
X230001536Y-92947230D01*
X229959328Y-92894458D01*
X229923620Y-92829139D01*
X229885309Y-92719551D01*
X229857675Y-92575065D01*
X229840784Y-92421899D01*
X229828980Y-92262556D01*
X230045711Y-92262556D01*
X230062656Y-92424489D01*
X230075339Y-92506075D01*
X230087843Y-92556564D01*
X230110127Y-92606798D01*
X230138676Y-92641102D01*
X230176127Y-92662624D01*
X230226420Y-92670320D01*
X230284947Y-92664183D01*
X230306167Y-92654038D01*
X230328087Y-92633408D01*
X230345753Y-92607873D01*
X230358403Y-92577080D01*
X230365220Y-92539673D01*
X230368112Y-92474590D01*
X230362615Y-92419584D01*
X230345580Y-92362482D01*
X230319089Y-92308603D01*
X230285955Y-92262556D01*
X230045711Y-92262556D01*
X229828980Y-92262556D01*
X229828824Y-92260450D01*
X229822595Y-92260450D01*
X229763395Y-92269687D01*
X229720485Y-92295329D01*
X229689697Y-92338302D01*
X229670938Y-92391763D01*
X229657928Y-92466333D01*
X229652969Y-92567829D01*
X229660703Y-92659998D01*
X229685300Y-92762552D01*
X229735034Y-92911113D01*
X229735034Y-92944910D01*
X229458155Y-92944910D01*
X229421885Y-92754858D01*
X229406142Y-92622894D01*
X229400910Y-92490984D01*
X229408631Y-92327345D01*
X229429287Y-92201726D01*
X229459739Y-92106894D01*
X229497814Y-92036601D01*
X229551601Y-91976695D01*
X229618167Y-91933593D01*
X229700174Y-91906465D01*
X229801713Y-91896741D01*
X230585000Y-91896741D01*
X230585000Y-92262556D01*
G37*
G36*
X230087765Y-90360976D02*
G01*
X230174019Y-90375686D01*
X230253165Y-90399502D01*
X230362195Y-90451138D01*
X230446239Y-90513716D01*
X230517048Y-90593069D01*
X230567414Y-90680778D01*
X230598077Y-90776796D01*
X230608447Y-90880539D01*
X230602734Y-90975014D01*
X230587381Y-91047692D01*
X230562628Y-91115979D01*
X230528488Y-91188010D01*
X231007051Y-91188010D01*
X231007051Y-91556847D01*
X229436081Y-91556847D01*
X229436081Y-91188010D01*
X229555974Y-91188010D01*
X229493699Y-91101024D01*
X229444691Y-91014353D01*
X229429143Y-90974877D01*
X229682278Y-90974877D01*
X229686122Y-91027235D01*
X229698032Y-91082497D01*
X229717118Y-91136457D01*
X229743186Y-91188010D01*
X230316454Y-91188010D01*
X230334773Y-91109150D01*
X230338803Y-91026077D01*
X230332771Y-90953200D01*
X230316024Y-90894223D01*
X230289777Y-90846423D01*
X230254081Y-90807815D01*
X230193370Y-90770268D01*
X230110568Y-90745402D01*
X229998908Y-90736099D01*
X229888703Y-90743890D01*
X229810906Y-90764144D01*
X229757383Y-90793527D01*
X229717020Y-90837029D01*
X229691597Y-90895783D01*
X229682278Y-90974877D01*
X229429143Y-90974877D01*
X229420845Y-90953810D01*
X229406054Y-90886062D01*
X229400910Y-90809830D01*
X229411399Y-90705380D01*
X229441327Y-90616801D01*
X229490039Y-90540814D01*
X229559088Y-90475340D01*
X229640121Y-90425699D01*
X229737362Y-90388406D01*
X229853895Y-90364475D01*
X229993413Y-90355905D01*
X230087765Y-90360976D01*
G37*
G36*
X229768557Y-88963354D02*
G01*
X230585000Y-88963354D01*
X230585000Y-89334298D01*
X230009624Y-89334298D01*
X229866559Y-89338420D01*
X229810836Y-89346655D01*
X229770663Y-89360951D01*
X229738733Y-89384135D01*
X229716808Y-89416822D01*
X229704682Y-89458309D01*
X229699863Y-89521877D01*
X229705347Y-89575244D01*
X229721937Y-89627390D01*
X229768557Y-89719622D01*
X230585000Y-89719622D01*
X230585000Y-90088459D01*
X229436081Y-90088459D01*
X229436081Y-89719622D01*
X229559912Y-89719622D01*
X229491481Y-89623628D01*
X229442950Y-89537172D01*
X229411646Y-89446496D01*
X229400910Y-89344556D01*
X229406815Y-89270108D01*
X229423897Y-89203616D01*
X229451743Y-89143697D01*
X229490367Y-89090420D01*
X229539670Y-89045147D01*
X229601037Y-89007410D01*
X229515637Y-88895350D01*
X229454308Y-88792262D01*
X229423985Y-88721123D01*
X229406565Y-88653103D01*
X229400910Y-88587281D01*
X229408727Y-88494947D01*
X229430611Y-88418892D01*
X229465242Y-88355992D01*
X229512743Y-88303990D01*
X229570702Y-88263860D01*
X229641807Y-88233675D01*
X229728778Y-88214202D01*
X229834960Y-88207178D01*
X230585000Y-88207178D01*
X230585000Y-88578122D01*
X230009624Y-88578122D01*
X229866010Y-88581694D01*
X229810785Y-88589512D01*
X229770663Y-88603768D01*
X229738804Y-88626237D01*
X229716808Y-88659089D01*
X229704683Y-88701160D01*
X229699863Y-88765609D01*
X229703832Y-88811085D01*
X229715800Y-88855735D01*
X229768557Y-88963354D01*
G37*
G36*
X230051573Y-87146462D02*
G01*
X230051573Y-87928284D01*
X229758482Y-87928284D01*
X229758482Y-87146462D01*
X230051573Y-87146462D01*
G37*
G36*
X230585000Y-85735960D02*
G01*
X230585000Y-86839541D01*
X229060924Y-86839541D01*
X229060924Y-85735960D01*
X229354016Y-85735960D01*
X229354016Y-86448172D01*
X229617798Y-86448172D01*
X229617798Y-85787251D01*
X229910889Y-85787251D01*
X229910889Y-86448172D01*
X230291908Y-86448172D01*
X230291908Y-85735960D01*
X230585000Y-85735960D01*
G37*
G36*
X230585000Y-84271052D02*
G01*
X230585000Y-84641905D01*
X230013746Y-84641905D01*
X229874711Y-84649140D01*
X229810406Y-84659886D01*
X229772678Y-84673687D01*
X229739891Y-84698940D01*
X229717357Y-84733679D01*
X229704831Y-84777306D01*
X229699863Y-84843771D01*
X229703886Y-84893946D01*
X229716258Y-84945804D01*
X229736644Y-84997817D01*
X229768557Y-85058003D01*
X230585000Y-85058003D01*
X230585000Y-85426840D01*
X229436081Y-85426840D01*
X229436081Y-85058003D01*
X229559912Y-85058003D01*
X229490210Y-84958755D01*
X229441943Y-84868959D01*
X229411437Y-84774602D01*
X229400910Y-84667642D01*
X229408427Y-84575206D01*
X229429631Y-84497475D01*
X229463373Y-84431773D01*
X229509720Y-84376107D01*
X229566696Y-84332578D01*
X229637720Y-84299872D01*
X229725852Y-84278718D01*
X229834960Y-84271052D01*
X230585000Y-84271052D01*
G37*
G36*
X230560947Y-82818798D02*
G01*
X230650838Y-82834668D01*
X230725958Y-82859268D01*
X230795969Y-82895109D01*
X230853089Y-82938095D01*
X230898974Y-82988319D01*
X230936590Y-83046064D01*
X230967208Y-83112464D01*
X230990565Y-83188721D01*
X231011349Y-83310155D01*
X231018775Y-83453602D01*
X231015137Y-83572921D01*
X231004303Y-83689815D01*
X230987613Y-83802023D01*
X230969132Y-83891133D01*
X230678789Y-83891133D01*
X230678789Y-83846070D01*
X230703113Y-83774383D01*
X230727149Y-83681114D01*
X230744008Y-83585880D01*
X230749131Y-83506908D01*
X230743863Y-83409336D01*
X230730263Y-83340396D01*
X230706330Y-83281824D01*
X230676774Y-83242485D01*
X230640354Y-83215513D01*
X230593151Y-83196414D01*
X230539532Y-83185917D01*
X230470969Y-83182035D01*
X230449536Y-83182035D01*
X230498154Y-83252108D01*
X230535632Y-83329588D01*
X230559204Y-83413671D01*
X230567414Y-83509931D01*
X230557338Y-83629518D01*
X230528984Y-83729218D01*
X230483904Y-83812771D01*
X230421876Y-83882889D01*
X230346320Y-83936608D01*
X230250538Y-83977527D01*
X230129975Y-84004283D01*
X229979033Y-84014048D01*
X229884545Y-84009209D01*
X229803133Y-83995554D01*
X229733019Y-83974114D01*
X229635647Y-83925592D01*
X229552585Y-83861366D01*
X229489357Y-83786747D01*
X229440935Y-83694853D01*
X229410843Y-83594415D01*
X229400910Y-83492437D01*
X229406654Y-83401720D01*
X229418828Y-83342960D01*
X229670554Y-83342960D01*
X229680913Y-83436253D01*
X229709330Y-83507223D01*
X229754360Y-83561222D01*
X229814200Y-83600068D01*
X229890580Y-83624910D01*
X229988101Y-83633945D01*
X230097931Y-83625374D01*
X230172024Y-83603445D01*
X230220284Y-83571938D01*
X230255453Y-83526455D01*
X230277852Y-83466626D01*
X230286046Y-83388023D01*
X230281710Y-83333294D01*
X230268644Y-83279396D01*
X230248133Y-83228029D01*
X230222299Y-83182035D01*
X229699314Y-83182035D01*
X229678248Y-83259979D01*
X229670554Y-83342960D01*
X229418828Y-83342960D01*
X229422984Y-83322902D01*
X229449508Y-83249351D01*
X229483983Y-83184050D01*
X229436081Y-83170769D01*
X229436081Y-82813106D01*
X230453658Y-82813106D01*
X230560947Y-82818798D01*
G37*
G36*
X230585000Y-82094849D02*
G01*
X230585000Y-82463686D01*
X229436081Y-82463686D01*
X229436081Y-82094849D01*
X230585000Y-82094849D01*
G37*
G36*
X229271950Y-82084590D02*
G01*
X229271950Y-82473944D01*
X228990582Y-82473944D01*
X228990582Y-82084590D01*
X229271950Y-82084590D01*
G37*
G36*
X230585000Y-80591290D02*
G01*
X230585000Y-80962142D01*
X230013746Y-80962142D01*
X229874711Y-80969378D01*
X229810406Y-80980124D01*
X229772678Y-80993924D01*
X229739891Y-81019178D01*
X229717357Y-81053916D01*
X229704831Y-81097543D01*
X229699863Y-81164009D01*
X229703886Y-81214183D01*
X229716258Y-81266041D01*
X229736644Y-81318054D01*
X229768557Y-81378240D01*
X230585000Y-81378240D01*
X230585000Y-81747077D01*
X229436081Y-81747077D01*
X229436081Y-81378240D01*
X229559912Y-81378240D01*
X229490210Y-81278993D01*
X229441943Y-81189196D01*
X229411437Y-81094840D01*
X229400910Y-80987879D01*
X229408427Y-80895444D01*
X229429631Y-80817713D01*
X229463373Y-80752010D01*
X229509720Y-80696345D01*
X229566696Y-80652816D01*
X229637720Y-80620110D01*
X229725852Y-80598955D01*
X229834960Y-80591290D01*
X230585000Y-80591290D01*
G37*
G36*
X230080882Y-79963341D02*
G01*
X230167167Y-79947507D01*
X230235527Y-79913217D01*
X230289893Y-79860393D01*
X230327716Y-79793209D01*
X230352856Y-79702424D01*
X230362250Y-79581132D01*
X230351555Y-79466249D01*
X230319385Y-79354719D01*
X230272630Y-79252242D01*
X230227428Y-79181520D01*
X230227428Y-79140579D01*
X230524549Y-79140579D01*
X230568827Y-79264728D01*
X230597547Y-79376243D01*
X230614258Y-79490048D01*
X230620170Y-79621157D01*
X230612819Y-79763889D01*
X230592164Y-79885582D01*
X230559891Y-79989180D01*
X230517087Y-80077254D01*
X230464191Y-80151927D01*
X230398079Y-80217021D01*
X230322258Y-80267763D01*
X230235347Y-80304881D01*
X230135354Y-80328129D01*
X230019791Y-80336300D01*
X229905426Y-80328631D01*
X229804928Y-80306686D01*
X229716205Y-80271501D01*
X229637544Y-80223330D01*
X229567698Y-80161636D01*
X229509570Y-80089415D01*
X229463628Y-80007075D01*
X229429719Y-79913152D01*
X229408399Y-79805748D01*
X229402715Y-79712290D01*
X229629521Y-79712290D01*
X229636175Y-79781407D01*
X229654995Y-79839067D01*
X229685300Y-79887595D01*
X229727256Y-79924915D01*
X229785178Y-79950941D01*
X229863995Y-79964349D01*
X229863995Y-79485877D01*
X229788042Y-79494627D01*
X229730945Y-79514320D01*
X229688415Y-79543305D01*
X229657215Y-79583365D01*
X229637020Y-79638096D01*
X229629521Y-79712290D01*
X229402715Y-79712290D01*
X229400910Y-79682615D01*
X229411199Y-79541603D01*
X229439661Y-79427376D01*
X229483842Y-79334958D01*
X229542968Y-79260471D01*
X229617821Y-79201056D01*
X229708546Y-79157111D01*
X229818410Y-79129095D01*
X229951647Y-79119055D01*
X230080882Y-79119055D01*
X230080882Y-79963341D01*
G37*
G36*
X230080882Y-78569692D02*
G01*
X230167167Y-78553858D01*
X230235527Y-78519567D01*
X230289893Y-78466743D01*
X230327716Y-78399559D01*
X230352856Y-78308774D01*
X230362250Y-78187482D01*
X230351555Y-78072599D01*
X230319385Y-77961069D01*
X230272630Y-77858593D01*
X230227428Y-77787870D01*
X230227428Y-77746929D01*
X230524549Y-77746929D01*
X230568827Y-77871079D01*
X230597547Y-77982593D01*
X230614258Y-78096398D01*
X230620170Y-78227507D01*
X230612819Y-78370239D01*
X230592164Y-78491933D01*
X230559891Y-78595530D01*
X230517087Y-78683604D01*
X230464191Y-78758278D01*
X230398079Y-78823371D01*
X230322258Y-78874113D01*
X230235347Y-78911231D01*
X230135354Y-78934480D01*
X230019791Y-78942650D01*
X229905426Y-78934981D01*
X229804928Y-78913036D01*
X229716205Y-78877851D01*
X229637544Y-78829680D01*
X229567698Y-78767986D01*
X229509570Y-78695765D01*
X229463628Y-78613425D01*
X229429719Y-78519502D01*
X229408399Y-78412099D01*
X229402715Y-78318640D01*
X229629521Y-78318640D01*
X229636175Y-78387758D01*
X229654995Y-78445417D01*
X229685300Y-78493946D01*
X229727256Y-78531265D01*
X229785178Y-78557291D01*
X229863995Y-78570699D01*
X229863995Y-78092227D01*
X229788042Y-78100977D01*
X229730945Y-78120670D01*
X229688415Y-78149655D01*
X229657215Y-78189715D01*
X229637020Y-78244447D01*
X229629521Y-78318640D01*
X229402715Y-78318640D01*
X229400910Y-78288965D01*
X229411199Y-78147953D01*
X229439661Y-78033726D01*
X229483842Y-77941309D01*
X229542968Y-77866822D01*
X229617821Y-77807406D01*
X229708546Y-77763461D01*
X229818410Y-77735445D01*
X229951647Y-77725405D01*
X230080882Y-77725405D01*
X230080882Y-78569692D01*
G37*
G36*
X229793653Y-76630892D02*
G01*
X229793653Y-76663681D01*
X229780464Y-76739519D01*
X229776067Y-76826622D01*
X229778782Y-76903277D01*
X229786234Y-76966024D01*
X229799529Y-77027195D01*
X229820764Y-77096174D01*
X230585000Y-77096174D01*
X230585000Y-77465012D01*
X229436081Y-77465012D01*
X229436081Y-77096174D01*
X229605158Y-77096174D01*
X229538608Y-77011518D01*
X229494614Y-76941646D01*
X229468413Y-76884050D01*
X229443686Y-76794937D01*
X229436081Y-76717995D01*
X229437180Y-76673940D01*
X229440203Y-76630892D01*
X229793653Y-76630892D01*
G37*
G36*
X228990582Y-75342663D02*
G01*
X230919124Y-76155259D01*
X230919124Y-76469783D01*
X228990582Y-75660301D01*
X228990582Y-75342663D01*
G37*
G36*
X230585000Y-73852752D02*
G01*
X230585000Y-74953218D01*
X229060924Y-74953218D01*
X229060924Y-74559743D01*
X230291908Y-74559743D01*
X230291908Y-73852752D01*
X230585000Y-73852752D01*
G37*
G36*
X230585000Y-72939039D02*
G01*
X230463092Y-72939039D01*
X230517405Y-73012862D01*
X230567597Y-73095843D01*
X230590201Y-73151198D01*
X230606707Y-73208592D01*
X230616673Y-73268537D01*
X230620170Y-73336636D01*
X230613470Y-73417162D01*
X230594100Y-73488761D01*
X230562484Y-73553048D01*
X230518138Y-73611226D01*
X230463551Y-73659656D01*
X230402847Y-73693827D01*
X230334763Y-73714660D01*
X230257470Y-73721868D01*
X230174621Y-73715003D01*
X230106534Y-73695817D01*
X230050382Y-73665539D01*
X230001536Y-73623713D01*
X229959328Y-73570941D01*
X229923620Y-73505621D01*
X229885309Y-73396034D01*
X229857675Y-73251548D01*
X229840784Y-73098382D01*
X229828980Y-72939039D01*
X230045711Y-72939039D01*
X230062656Y-73100972D01*
X230075339Y-73182558D01*
X230087843Y-73233046D01*
X230110127Y-73283281D01*
X230138676Y-73317585D01*
X230176127Y-73339107D01*
X230226420Y-73346803D01*
X230284947Y-73340666D01*
X230306167Y-73330521D01*
X230328087Y-73309891D01*
X230345753Y-73284356D01*
X230358403Y-73253563D01*
X230365220Y-73216156D01*
X230368112Y-73151072D01*
X230362615Y-73096067D01*
X230345580Y-73038965D01*
X230319089Y-72985086D01*
X230285955Y-72939039D01*
X230045711Y-72939039D01*
X229828980Y-72939039D01*
X229828824Y-72936933D01*
X229822595Y-72936933D01*
X229763395Y-72946170D01*
X229720485Y-72971812D01*
X229689697Y-73014785D01*
X229670938Y-73068246D01*
X229657928Y-73142816D01*
X229652969Y-73244312D01*
X229660703Y-73336481D01*
X229685300Y-73439035D01*
X229735034Y-73587595D01*
X229735034Y-73621393D01*
X229458155Y-73621393D01*
X229421885Y-73431341D01*
X229406142Y-73299376D01*
X229400910Y-73167467D01*
X229408631Y-73003828D01*
X229429287Y-72878209D01*
X229459739Y-72783377D01*
X229497814Y-72713084D01*
X229551601Y-72653178D01*
X229618167Y-72610076D01*
X229700174Y-72582948D01*
X229801713Y-72573224D01*
X230585000Y-72573224D01*
X230585000Y-72939039D01*
G37*
G36*
X230222024Y-71233247D02*
G01*
X230307115Y-71243221D01*
X230382107Y-71272350D01*
X230449496Y-71321293D01*
X230510628Y-71393073D01*
X230555887Y-71474309D01*
X230590150Y-71572152D01*
X230612241Y-71689706D01*
X230620170Y-71830604D01*
X230612712Y-71980383D01*
X230591686Y-72109316D01*
X230559889Y-72227644D01*
X230528579Y-72310175D01*
X230227428Y-72310175D01*
X230227428Y-72276378D01*
X230267453Y-72212356D01*
X230314165Y-72109316D01*
X230352267Y-71979256D01*
X230364044Y-71904943D01*
X230368112Y-71823460D01*
X230361368Y-71722176D01*
X230345214Y-71662626D01*
X230326315Y-71632214D01*
X230304142Y-71615768D01*
X230277528Y-71610327D01*
X230240473Y-71618352D01*
X230216345Y-71641102D01*
X230199766Y-71679180D01*
X230179801Y-71757881D01*
X230159742Y-71869072D01*
X230133456Y-71996659D01*
X230098588Y-72097503D01*
X230055610Y-72173429D01*
X230005411Y-72229208D01*
X229943677Y-72270836D01*
X229872347Y-72296202D01*
X229788798Y-72305046D01*
X229710001Y-72295483D01*
X229638806Y-72267226D01*
X229573044Y-72219125D01*
X229511552Y-72147784D01*
X229465734Y-72067662D01*
X229431146Y-71971415D01*
X229408889Y-71856027D01*
X229400910Y-71717947D01*
X229407583Y-71590555D01*
X229427197Y-71470468D01*
X229456215Y-71359083D01*
X229483342Y-71285546D01*
X229776067Y-71285546D01*
X229776067Y-71317328D01*
X229727196Y-71403741D01*
X229687224Y-71504357D01*
X229661480Y-71610312D01*
X229652969Y-71716939D01*
X229659291Y-71802062D01*
X229676325Y-71867057D01*
X229695981Y-71903415D01*
X229717746Y-71922062D01*
X229742545Y-71927965D01*
X229779451Y-71920755D01*
X229805285Y-71900305D01*
X229823884Y-71862654D01*
X229848516Y-71770154D01*
X229870681Y-71648796D01*
X229897883Y-71518095D01*
X229930334Y-71424570D01*
X229970570Y-71354353D01*
X230017776Y-71302948D01*
X230075707Y-71264771D01*
X230142960Y-71241413D01*
X230222024Y-71233247D01*
G37*
G36*
X230080882Y-70698722D02*
G01*
X230167167Y-70682888D01*
X230235527Y-70648597D01*
X230289893Y-70595773D01*
X230327716Y-70528589D01*
X230352856Y-70437804D01*
X230362250Y-70316512D01*
X230351555Y-70201629D01*
X230319385Y-70090099D01*
X230272630Y-69987623D01*
X230227428Y-69916900D01*
X230227428Y-69875959D01*
X230524549Y-69875959D01*
X230568827Y-70000109D01*
X230597547Y-70111623D01*
X230614258Y-70225428D01*
X230620170Y-70356537D01*
X230612819Y-70499269D01*
X230592164Y-70620963D01*
X230559891Y-70724560D01*
X230517087Y-70812634D01*
X230464191Y-70887308D01*
X230398079Y-70952401D01*
X230322258Y-71003143D01*
X230235347Y-71040261D01*
X230135354Y-71063510D01*
X230019791Y-71071680D01*
X229905426Y-71064011D01*
X229804928Y-71042066D01*
X229716205Y-71006881D01*
X229637544Y-70958710D01*
X229567698Y-70897016D01*
X229509570Y-70824795D01*
X229463628Y-70742455D01*
X229429719Y-70648532D01*
X229408399Y-70541129D01*
X229402715Y-70447670D01*
X229629521Y-70447670D01*
X229636175Y-70516788D01*
X229654995Y-70574447D01*
X229685300Y-70622976D01*
X229727256Y-70660295D01*
X229785178Y-70686321D01*
X229863995Y-70699729D01*
X229863995Y-70221257D01*
X229788042Y-70230007D01*
X229730945Y-70249700D01*
X229688415Y-70278685D01*
X229657215Y-70318745D01*
X229637020Y-70373477D01*
X229629521Y-70447670D01*
X229402715Y-70447670D01*
X229400910Y-70417995D01*
X229411199Y-70276983D01*
X229439661Y-70162756D01*
X229483842Y-70070339D01*
X229542968Y-69995852D01*
X229617821Y-69936436D01*
X229708546Y-69892491D01*
X229818410Y-69864475D01*
X229951647Y-69854435D01*
X230080882Y-69854435D01*
X230080882Y-70698722D01*
G37*
G36*
X229793653Y-68759922D02*
G01*
X229793653Y-68792711D01*
X229780464Y-68868549D01*
X229776067Y-68955652D01*
X229778782Y-69032307D01*
X229786234Y-69095054D01*
X229799529Y-69156225D01*
X229820764Y-69225204D01*
X230585000Y-69225204D01*
X230585000Y-69594042D01*
X229436081Y-69594042D01*
X229436081Y-69225204D01*
X229605158Y-69225204D01*
X229538608Y-69140548D01*
X229494614Y-69070676D01*
X229468413Y-69013080D01*
X229443686Y-68923967D01*
X229436081Y-68847025D01*
X229437180Y-68802970D01*
X229440203Y-68759922D01*
X229793653Y-68759922D01*
G37*
G36*
X229963775Y-67099673D02*
G01*
X230090091Y-67132283D01*
X230205812Y-67185838D01*
X230311322Y-67258034D01*
X230396729Y-67339841D01*
X230464191Y-67431760D01*
X230521319Y-67548215D01*
X230558438Y-67676674D01*
X230577831Y-67816005D01*
X230585000Y-67992206D01*
X230585000Y-68530120D01*
X229060924Y-68530120D01*
X229060924Y-68037268D01*
X229348154Y-68037268D01*
X229348154Y-68136645D01*
X230297770Y-68136645D01*
X230297770Y-68037268D01*
X230293973Y-67906228D01*
X230285039Y-67831280D01*
X230267255Y-67766944D01*
X230238694Y-67703236D01*
X230192479Y-67636874D01*
X230138184Y-67584787D01*
X230075112Y-67545424D01*
X230005078Y-67518573D01*
X229921549Y-67501379D01*
X229821954Y-67495232D01*
X229723338Y-67501825D01*
X229638678Y-67520492D01*
X229565774Y-67550095D01*
X229500774Y-67593013D01*
X229445429Y-67650227D01*
X229399078Y-67723752D01*
X229374157Y-67785223D01*
X229358870Y-67847217D01*
X229351308Y-67918266D01*
X229348154Y-68037268D01*
X229060924Y-68037268D01*
X229060924Y-67976818D01*
X229069355Y-67796886D01*
X229092157Y-67655150D01*
X229131304Y-67527029D01*
X229180634Y-67427638D01*
X229252313Y-67329828D01*
X229338395Y-67247371D01*
X229440203Y-67179152D01*
X229552309Y-67129823D01*
X229679437Y-67099178D01*
X229824519Y-67088476D01*
X229963775Y-67099673D01*
G37*
G36*
X229793653Y-65974088D02*
G01*
X229793653Y-66006878D01*
X229780464Y-66082715D01*
X229776067Y-66169818D01*
X229778782Y-66246473D01*
X229786234Y-66309220D01*
X229799529Y-66370391D01*
X229820764Y-66439371D01*
X230585000Y-66439371D01*
X230585000Y-66808208D01*
X229436081Y-66808208D01*
X229436081Y-66439371D01*
X229605158Y-66439371D01*
X229538608Y-66354715D01*
X229494614Y-66284842D01*
X229468413Y-66227246D01*
X229443686Y-66138133D01*
X229436081Y-66061191D01*
X229437180Y-66017136D01*
X229440203Y-65974088D01*
X229793653Y-65974088D01*
G37*
G36*
X230585000Y-65395965D02*
G01*
X230585000Y-65764802D01*
X229436081Y-65764802D01*
X229436081Y-65395965D01*
X230585000Y-65395965D01*
G37*
G36*
X229271950Y-65385707D02*
G01*
X229271950Y-65775061D01*
X228990582Y-65775061D01*
X228990582Y-65385707D01*
X229271950Y-65385707D01*
G37*
G36*
X229436081Y-63889292D02*
G01*
X230585000Y-64332959D01*
X230585000Y-64750981D01*
X229436081Y-65191625D01*
X229436081Y-64801264D01*
X230225871Y-64534826D01*
X229436081Y-64271502D01*
X229436081Y-63889292D01*
G37*
G36*
X230080882Y-63394883D02*
G01*
X230167167Y-63379050D01*
X230235527Y-63344759D01*
X230289893Y-63291935D01*
X230327716Y-63224751D01*
X230352856Y-63133966D01*
X230362250Y-63012674D01*
X230351555Y-62897791D01*
X230319385Y-62786261D01*
X230272630Y-62683785D01*
X230227428Y-62613062D01*
X230227428Y-62572121D01*
X230524549Y-62572121D01*
X230568827Y-62696271D01*
X230597547Y-62807785D01*
X230614258Y-62921590D01*
X230620170Y-63052699D01*
X230612819Y-63195431D01*
X230592164Y-63317125D01*
X230559891Y-63420722D01*
X230517087Y-63508796D01*
X230464191Y-63583469D01*
X230398079Y-63648563D01*
X230322258Y-63699305D01*
X230235347Y-63736423D01*
X230135354Y-63759672D01*
X230019791Y-63767842D01*
X229905426Y-63760173D01*
X229804928Y-63738228D01*
X229716205Y-63703043D01*
X229637544Y-63654872D01*
X229567698Y-63593178D01*
X229509570Y-63520957D01*
X229463628Y-63438617D01*
X229429719Y-63344694D01*
X229408399Y-63237291D01*
X229402715Y-63143832D01*
X229629521Y-63143832D01*
X229636175Y-63212949D01*
X229654995Y-63270609D01*
X229685300Y-63319138D01*
X229727256Y-63356457D01*
X229785178Y-63382483D01*
X229863995Y-63395891D01*
X229863995Y-62917419D01*
X229788042Y-62926169D01*
X229730945Y-62945862D01*
X229688415Y-62974847D01*
X229657215Y-63014907D01*
X229637020Y-63069639D01*
X229629521Y-63143832D01*
X229402715Y-63143832D01*
X229400910Y-63114157D01*
X229411199Y-62973145D01*
X229439661Y-62858918D01*
X229483842Y-62766501D01*
X229542968Y-62692014D01*
X229617821Y-62632598D01*
X229708546Y-62588653D01*
X229818410Y-62560637D01*
X229951647Y-62550597D01*
X230080882Y-62550597D01*
X230080882Y-63394883D01*
G37*
G36*
X229793653Y-61456084D02*
G01*
X229793653Y-61488873D01*
X229780464Y-61564711D01*
X229776067Y-61651814D01*
X229778782Y-61728469D01*
X229786234Y-61791215D01*
X229799529Y-61852387D01*
X229820764Y-61921366D01*
X230585000Y-61921366D01*
X230585000Y-62290204D01*
X229436081Y-62290204D01*
X229436081Y-61921366D01*
X229605158Y-61921366D01*
X229538608Y-61836710D01*
X229494614Y-61766838D01*
X229468413Y-61709241D01*
X229443686Y-61620129D01*
X229436081Y-61543187D01*
X229437180Y-61499132D01*
X229440203Y-61456084D01*
X229793653Y-61456084D01*
G37*
G36*
X230942571Y-59912683D02*
G01*
X230942571Y-61437399D01*
X230725683Y-61437399D01*
X230725683Y-59912683D01*
X230942571Y-59912683D01*
G37*
G36*
X230585000Y-58909577D02*
G01*
X230585000Y-59803140D01*
X230309494Y-59803140D01*
X230309494Y-59553096D01*
X229336430Y-59553096D01*
X229336430Y-59803140D01*
X229060924Y-59803140D01*
X229060924Y-58909577D01*
X229336430Y-58909577D01*
X229336430Y-59159621D01*
X230309494Y-59159621D01*
X230309494Y-58909577D01*
X230585000Y-58909577D01*
G37*
G36*
X230106619Y-57367092D02*
G01*
X230194101Y-57374847D01*
X230273056Y-57397451D01*
X230345186Y-57434744D01*
X230411726Y-57487677D01*
X230473350Y-57558243D01*
X230532030Y-57656040D01*
X230576049Y-57772680D01*
X230604236Y-57911670D01*
X230614309Y-58077198D01*
X230605321Y-58260472D01*
X230580786Y-58407658D01*
X230542340Y-58545412D01*
X230495790Y-58671532D01*
X230127777Y-58671532D01*
X230127777Y-58628484D01*
X230190336Y-58544041D01*
X230242389Y-58453239D01*
X230284214Y-58355451D01*
X230315141Y-58253523D01*
X230333008Y-58156963D01*
X230338803Y-58064924D01*
X230332391Y-57970677D01*
X230323270Y-57915181D01*
X230310959Y-57875331D01*
X230288786Y-57833408D01*
X230262874Y-57801051D01*
X230228873Y-57779774D01*
X230177328Y-57771833D01*
X230131139Y-57782181D01*
X230090683Y-57814423D01*
X230059984Y-57863468D01*
X230034720Y-57938895D01*
X229996344Y-58120703D01*
X229975661Y-58214679D01*
X229950640Y-58300588D01*
X229900218Y-58424482D01*
X229843357Y-58514586D01*
X229780922Y-58577743D01*
X229705516Y-58623890D01*
X229617827Y-58652316D01*
X229514758Y-58662281D01*
X229432580Y-58654647D01*
X229358059Y-58632319D01*
X229289554Y-58595274D01*
X229225906Y-58542329D01*
X229166529Y-58471222D01*
X229109627Y-58373370D01*
X229067535Y-58260630D01*
X229040979Y-58130464D01*
X229031615Y-57979836D01*
X229038882Y-57830067D01*
X229060649Y-57682257D01*
X229094603Y-57540743D01*
X229133464Y-57427542D01*
X229482976Y-57427542D01*
X229482976Y-57469583D01*
X229415637Y-57569552D01*
X229357588Y-57695538D01*
X229329432Y-57785785D01*
X229312695Y-57876590D01*
X229307121Y-57968571D01*
X229314082Y-58066482D01*
X229324024Y-58114241D01*
X229340094Y-58160179D01*
X229360147Y-58197279D01*
X229388545Y-58228872D01*
X229423434Y-58250450D01*
X229462459Y-58257540D01*
X229500429Y-58252196D01*
X229530760Y-58236979D01*
X229555333Y-58211470D01*
X229582936Y-58154126D01*
X229614226Y-58037264D01*
X229648114Y-57875881D01*
X229693269Y-57709368D01*
X229739248Y-57596590D01*
X229791640Y-57512104D01*
X229849706Y-57450623D01*
X229919896Y-57405317D01*
X230004297Y-57377105D01*
X230106619Y-57367092D01*
G37*
G36*
X230106619Y-55875257D02*
G01*
X230194101Y-55883012D01*
X230273056Y-55905615D01*
X230345186Y-55942908D01*
X230411726Y-55995842D01*
X230473350Y-56066407D01*
X230532030Y-56164205D01*
X230576049Y-56280844D01*
X230604236Y-56419834D01*
X230614309Y-56585362D01*
X230605321Y-56768637D01*
X230580786Y-56915823D01*
X230542340Y-57053577D01*
X230495790Y-57179697D01*
X230127777Y-57179697D01*
X230127777Y-57136649D01*
X230190336Y-57052205D01*
X230242389Y-56961403D01*
X230284214Y-56863616D01*
X230315141Y-56761688D01*
X230333008Y-56665128D01*
X230338803Y-56573089D01*
X230332391Y-56478842D01*
X230323270Y-56423346D01*
X230310959Y-56383496D01*
X230288786Y-56341573D01*
X230262874Y-56309215D01*
X230228873Y-56287938D01*
X230177328Y-56279998D01*
X230131139Y-56290346D01*
X230090683Y-56322588D01*
X230059984Y-56371633D01*
X230034720Y-56447060D01*
X229996344Y-56628868D01*
X229975661Y-56722843D01*
X229950640Y-56808753D01*
X229900218Y-56932646D01*
X229843357Y-57022751D01*
X229780922Y-57085908D01*
X229705516Y-57132055D01*
X229617827Y-57160481D01*
X229514758Y-57170446D01*
X229432580Y-57162812D01*
X229358059Y-57140484D01*
X229289554Y-57103439D01*
X229225906Y-57050494D01*
X229166529Y-56979387D01*
X229109627Y-56881534D01*
X229067535Y-56768795D01*
X229040979Y-56638629D01*
X229031615Y-56488001D01*
X229038882Y-56338232D01*
X229060649Y-56190422D01*
X229094603Y-56048908D01*
X229133464Y-55935707D01*
X229482976Y-55935707D01*
X229482976Y-55977747D01*
X229415637Y-56077717D01*
X229357588Y-56203702D01*
X229329432Y-56293950D01*
X229312695Y-56384755D01*
X229307121Y-56476735D01*
X229314082Y-56574646D01*
X229324024Y-56622406D01*
X229340094Y-56668344D01*
X229360147Y-56705444D01*
X229388545Y-56737037D01*
X229423434Y-56758615D01*
X229462459Y-56765705D01*
X229500429Y-56760360D01*
X229530760Y-56745144D01*
X229555333Y-56719635D01*
X229582936Y-56662290D01*
X229614226Y-56545429D01*
X229648114Y-56384045D01*
X229693269Y-56217533D01*
X229739248Y-56104755D01*
X229791640Y-56020269D01*
X229849706Y-55958788D01*
X229919896Y-55913482D01*
X230004297Y-55885270D01*
X230106619Y-55875257D01*
G37*
D11*
X237998095Y-113484819D02*
X237998095Y-112484819D01*
X237998095Y-112961009D02*
X238569523Y-112961009D01*
X238569523Y-113484819D02*
X238569523Y-112484819D01*
X238950476Y-112484819D02*
X239569523Y-112484819D01*
X239569523Y-112484819D02*
X239236190Y-112865771D01*
X239236190Y-112865771D02*
X239379047Y-112865771D01*
X239379047Y-112865771D02*
X239474285Y-112913390D01*
X239474285Y-112913390D02*
X239521904Y-112961009D01*
X239521904Y-112961009D02*
X239569523Y-113056247D01*
X239569523Y-113056247D02*
X239569523Y-113294342D01*
X239569523Y-113294342D02*
X239521904Y-113389580D01*
X239521904Y-113389580D02*
X239474285Y-113437200D01*
X239474285Y-113437200D02*
X239379047Y-113484819D01*
X239379047Y-113484819D02*
X239093333Y-113484819D01*
X239093333Y-113484819D02*
X238998095Y-113437200D01*
X238998095Y-113437200D02*
X238950476Y-113389580D01*
X244294819Y-79731904D02*
X244294819Y-80208094D01*
X244294819Y-80208094D02*
X243294819Y-80208094D01*
X244294819Y-79398570D02*
X243294819Y-79398570D01*
X243294819Y-79398570D02*
X243294819Y-79160475D01*
X243294819Y-79160475D02*
X243342438Y-79017618D01*
X243342438Y-79017618D02*
X243437676Y-78922380D01*
X243437676Y-78922380D02*
X243532914Y-78874761D01*
X243532914Y-78874761D02*
X243723390Y-78827142D01*
X243723390Y-78827142D02*
X243866247Y-78827142D01*
X243866247Y-78827142D02*
X244056723Y-78874761D01*
X244056723Y-78874761D02*
X244151961Y-78922380D01*
X244151961Y-78922380D02*
X244247200Y-79017618D01*
X244247200Y-79017618D02*
X244294819Y-79160475D01*
X244294819Y-79160475D02*
X244294819Y-79398570D01*
X244199580Y-77827142D02*
X244247200Y-77874761D01*
X244247200Y-77874761D02*
X244294819Y-78017618D01*
X244294819Y-78017618D02*
X244294819Y-78112856D01*
X244294819Y-78112856D02*
X244247200Y-78255713D01*
X244247200Y-78255713D02*
X244151961Y-78350951D01*
X244151961Y-78350951D02*
X244056723Y-78398570D01*
X244056723Y-78398570D02*
X243866247Y-78446189D01*
X243866247Y-78446189D02*
X243723390Y-78446189D01*
X243723390Y-78446189D02*
X243532914Y-78398570D01*
X243532914Y-78398570D02*
X243437676Y-78350951D01*
X243437676Y-78350951D02*
X243342438Y-78255713D01*
X243342438Y-78255713D02*
X243294819Y-78112856D01*
X243294819Y-78112856D02*
X243294819Y-78017618D01*
X243294819Y-78017618D02*
X243342438Y-77874761D01*
X243342438Y-77874761D02*
X243390057Y-77827142D01*
X243294819Y-77208094D02*
X243294819Y-77017618D01*
X243294819Y-77017618D02*
X243342438Y-76922380D01*
X243342438Y-76922380D02*
X243437676Y-76827142D01*
X243437676Y-76827142D02*
X243628152Y-76779523D01*
X243628152Y-76779523D02*
X243961485Y-76779523D01*
X243961485Y-76779523D02*
X244151961Y-76827142D01*
X244151961Y-76827142D02*
X244247200Y-76922380D01*
X244247200Y-76922380D02*
X244294819Y-77017618D01*
X244294819Y-77017618D02*
X244294819Y-77208094D01*
X244294819Y-77208094D02*
X244247200Y-77303332D01*
X244247200Y-77303332D02*
X244151961Y-77398570D01*
X244151961Y-77398570D02*
X243961485Y-77446189D01*
X243961485Y-77446189D02*
X243628152Y-77446189D01*
X243628152Y-77446189D02*
X243437676Y-77398570D01*
X243437676Y-77398570D02*
X243342438Y-77303332D01*
X243342438Y-77303332D02*
X243294819Y-77208094D01*
X244294819Y-76350951D02*
X243294819Y-76350951D01*
X243294819Y-76350951D02*
X244009104Y-76017618D01*
X244009104Y-76017618D02*
X243294819Y-75684285D01*
X243294819Y-75684285D02*
X244294819Y-75684285D01*
X244294819Y-74684285D02*
X244294819Y-75255713D01*
X244294819Y-74969999D02*
X243294819Y-74969999D01*
X243294819Y-74969999D02*
X243437676Y-75065237D01*
X243437676Y-75065237D02*
X243532914Y-75160475D01*
X243532914Y-75160475D02*
X243580533Y-75255713D01*
X189684819Y-98233333D02*
X190399104Y-98233333D01*
X190399104Y-98233333D02*
X190541961Y-98280952D01*
X190541961Y-98280952D02*
X190637200Y-98376190D01*
X190637200Y-98376190D02*
X190684819Y-98519047D01*
X190684819Y-98519047D02*
X190684819Y-98614285D01*
X190684819Y-97233333D02*
X190684819Y-97804761D01*
X190684819Y-97519047D02*
X189684819Y-97519047D01*
X189684819Y-97519047D02*
X189827676Y-97614285D01*
X189827676Y-97614285D02*
X189922914Y-97709523D01*
X189922914Y-97709523D02*
X189970533Y-97804761D01*
X215678095Y-55017200D02*
X215820952Y-55064819D01*
X215820952Y-55064819D02*
X216059047Y-55064819D01*
X216059047Y-55064819D02*
X216154285Y-55017200D01*
X216154285Y-55017200D02*
X216201904Y-54969580D01*
X216201904Y-54969580D02*
X216249523Y-54874342D01*
X216249523Y-54874342D02*
X216249523Y-54779104D01*
X216249523Y-54779104D02*
X216201904Y-54683866D01*
X216201904Y-54683866D02*
X216154285Y-54636247D01*
X216154285Y-54636247D02*
X216059047Y-54588628D01*
X216059047Y-54588628D02*
X215868571Y-54541009D01*
X215868571Y-54541009D02*
X215773333Y-54493390D01*
X215773333Y-54493390D02*
X215725714Y-54445771D01*
X215725714Y-54445771D02*
X215678095Y-54350533D01*
X215678095Y-54350533D02*
X215678095Y-54255295D01*
X215678095Y-54255295D02*
X215725714Y-54160057D01*
X215725714Y-54160057D02*
X215773333Y-54112438D01*
X215773333Y-54112438D02*
X215868571Y-54064819D01*
X215868571Y-54064819D02*
X216106666Y-54064819D01*
X216106666Y-54064819D02*
X216249523Y-54112438D01*
X217106666Y-54398152D02*
X217106666Y-55064819D01*
X216678095Y-54398152D02*
X216678095Y-54921961D01*
X216678095Y-54921961D02*
X216725714Y-55017200D01*
X216725714Y-55017200D02*
X216820952Y-55064819D01*
X216820952Y-55064819D02*
X216963809Y-55064819D01*
X216963809Y-55064819D02*
X217059047Y-55017200D01*
X217059047Y-55017200D02*
X217106666Y-54969580D01*
X217582857Y-54398152D02*
X217582857Y-55398152D01*
X217582857Y-54445771D02*
X217678095Y-54398152D01*
X217678095Y-54398152D02*
X217868571Y-54398152D01*
X217868571Y-54398152D02*
X217963809Y-54445771D01*
X217963809Y-54445771D02*
X218011428Y-54493390D01*
X218011428Y-54493390D02*
X218059047Y-54588628D01*
X218059047Y-54588628D02*
X218059047Y-54874342D01*
X218059047Y-54874342D02*
X218011428Y-54969580D01*
X218011428Y-54969580D02*
X217963809Y-55017200D01*
X217963809Y-55017200D02*
X217868571Y-55064819D01*
X217868571Y-55064819D02*
X217678095Y-55064819D01*
X217678095Y-55064819D02*
X217582857Y-55017200D01*
X218487619Y-54398152D02*
X218487619Y-55398152D01*
X218487619Y-54445771D02*
X218582857Y-54398152D01*
X218582857Y-54398152D02*
X218773333Y-54398152D01*
X218773333Y-54398152D02*
X218868571Y-54445771D01*
X218868571Y-54445771D02*
X218916190Y-54493390D01*
X218916190Y-54493390D02*
X218963809Y-54588628D01*
X218963809Y-54588628D02*
X218963809Y-54874342D01*
X218963809Y-54874342D02*
X218916190Y-54969580D01*
X218916190Y-54969580D02*
X218868571Y-55017200D01*
X218868571Y-55017200D02*
X218773333Y-55064819D01*
X218773333Y-55064819D02*
X218582857Y-55064819D01*
X218582857Y-55064819D02*
X218487619Y-55017200D01*
X219535238Y-55064819D02*
X219440000Y-55017200D01*
X219440000Y-55017200D02*
X219392381Y-54921961D01*
X219392381Y-54921961D02*
X219392381Y-54064819D01*
X219820953Y-54398152D02*
X220059048Y-55064819D01*
X220297143Y-54398152D02*
X220059048Y-55064819D01*
X220059048Y-55064819D02*
X219963810Y-55302914D01*
X219963810Y-55302914D02*
X219916191Y-55350533D01*
X219916191Y-55350533D02*
X219820953Y-55398152D01*
X221201905Y-55064819D02*
X220630477Y-55064819D01*
X220916191Y-55064819D02*
X220916191Y-54064819D01*
X220916191Y-54064819D02*
X220820953Y-54207676D01*
X220820953Y-54207676D02*
X220725715Y-54302914D01*
X220725715Y-54302914D02*
X220630477Y-54350533D01*
X246154819Y-104572142D02*
X245154819Y-104572142D01*
X245250057Y-104143571D02*
X245202438Y-104095952D01*
X245202438Y-104095952D02*
X245154819Y-104000714D01*
X245154819Y-104000714D02*
X245154819Y-103762619D01*
X245154819Y-103762619D02*
X245202438Y-103667381D01*
X245202438Y-103667381D02*
X245250057Y-103619762D01*
X245250057Y-103619762D02*
X245345295Y-103572143D01*
X245345295Y-103572143D02*
X245440533Y-103572143D01*
X245440533Y-103572143D02*
X245583390Y-103619762D01*
X245583390Y-103619762D02*
X246154819Y-104191190D01*
X246154819Y-104191190D02*
X246154819Y-103572143D01*
X246059580Y-102572143D02*
X246107200Y-102619762D01*
X246107200Y-102619762D02*
X246154819Y-102762619D01*
X246154819Y-102762619D02*
X246154819Y-102857857D01*
X246154819Y-102857857D02*
X246107200Y-103000714D01*
X246107200Y-103000714D02*
X246011961Y-103095952D01*
X246011961Y-103095952D02*
X245916723Y-103143571D01*
X245916723Y-103143571D02*
X245726247Y-103191190D01*
X245726247Y-103191190D02*
X245583390Y-103191190D01*
X245583390Y-103191190D02*
X245392914Y-103143571D01*
X245392914Y-103143571D02*
X245297676Y-103095952D01*
X245297676Y-103095952D02*
X245202438Y-103000714D01*
X245202438Y-103000714D02*
X245154819Y-102857857D01*
X245154819Y-102857857D02*
X245154819Y-102762619D01*
X245154819Y-102762619D02*
X245202438Y-102619762D01*
X245202438Y-102619762D02*
X245250057Y-102572143D01*
X245154819Y-102238809D02*
X245154819Y-101619762D01*
X245154819Y-101619762D02*
X245535771Y-101953095D01*
X245535771Y-101953095D02*
X245535771Y-101810238D01*
X245535771Y-101810238D02*
X245583390Y-101715000D01*
X245583390Y-101715000D02*
X245631009Y-101667381D01*
X245631009Y-101667381D02*
X245726247Y-101619762D01*
X245726247Y-101619762D02*
X245964342Y-101619762D01*
X245964342Y-101619762D02*
X246059580Y-101667381D01*
X246059580Y-101667381D02*
X246107200Y-101715000D01*
X246107200Y-101715000D02*
X246154819Y-101810238D01*
X246154819Y-101810238D02*
X246154819Y-102095952D01*
X246154819Y-102095952D02*
X246107200Y-102191190D01*
X246107200Y-102191190D02*
X246059580Y-102238809D01*
X245154819Y-101334047D02*
X246154819Y-101000714D01*
X246154819Y-101000714D02*
X245154819Y-100667381D01*
X246154819Y-99810238D02*
X246154819Y-100381666D01*
X246154819Y-100095952D02*
X245154819Y-100095952D01*
X245154819Y-100095952D02*
X245297676Y-100191190D01*
X245297676Y-100191190D02*
X245392914Y-100286428D01*
X245392914Y-100286428D02*
X245440533Y-100381666D01*
X245304819Y-89058666D02*
X245304819Y-89534856D01*
X245304819Y-89534856D02*
X244304819Y-89534856D01*
X245304819Y-88725332D02*
X244304819Y-88725332D01*
X244304819Y-88725332D02*
X244304819Y-88487237D01*
X244304819Y-88487237D02*
X244352438Y-88344380D01*
X244352438Y-88344380D02*
X244447676Y-88249142D01*
X244447676Y-88249142D02*
X244542914Y-88201523D01*
X244542914Y-88201523D02*
X244733390Y-88153904D01*
X244733390Y-88153904D02*
X244876247Y-88153904D01*
X244876247Y-88153904D02*
X245066723Y-88201523D01*
X245066723Y-88201523D02*
X245161961Y-88249142D01*
X245161961Y-88249142D02*
X245257200Y-88344380D01*
X245257200Y-88344380D02*
X245304819Y-88487237D01*
X245304819Y-88487237D02*
X245304819Y-88725332D01*
X245304819Y-87201523D02*
X245304819Y-87772951D01*
X245304819Y-87487237D02*
X244304819Y-87487237D01*
X244304819Y-87487237D02*
X244447676Y-87582475D01*
X244447676Y-87582475D02*
X244542914Y-87677713D01*
X244542914Y-87677713D02*
X244590533Y-87772951D01*
X243294819Y-69413333D02*
X244009104Y-69413333D01*
X244009104Y-69413333D02*
X244151961Y-69460952D01*
X244151961Y-69460952D02*
X244247200Y-69556190D01*
X244247200Y-69556190D02*
X244294819Y-69699047D01*
X244294819Y-69699047D02*
X244294819Y-69794285D01*
X244294819Y-68937142D02*
X243294819Y-68937142D01*
X243294819Y-68937142D02*
X243294819Y-68556190D01*
X243294819Y-68556190D02*
X243342438Y-68460952D01*
X243342438Y-68460952D02*
X243390057Y-68413333D01*
X243390057Y-68413333D02*
X243485295Y-68365714D01*
X243485295Y-68365714D02*
X243628152Y-68365714D01*
X243628152Y-68365714D02*
X243723390Y-68413333D01*
X243723390Y-68413333D02*
X243771009Y-68460952D01*
X243771009Y-68460952D02*
X243818628Y-68556190D01*
X243818628Y-68556190D02*
X243818628Y-68937142D01*
X244294819Y-67413333D02*
X244294819Y-67984761D01*
X244294819Y-67699047D02*
X243294819Y-67699047D01*
X243294819Y-67699047D02*
X243437676Y-67794285D01*
X243437676Y-67794285D02*
X243532914Y-67889523D01*
X243532914Y-67889523D02*
X243580533Y-67984761D01*
X195453095Y-111579819D02*
X195453095Y-110579819D01*
X195453095Y-111056009D02*
X196024523Y-111056009D01*
X196024523Y-111579819D02*
X196024523Y-110579819D01*
X196929285Y-110913152D02*
X196929285Y-111579819D01*
X196691190Y-110532200D02*
X196453095Y-111246485D01*
X196453095Y-111246485D02*
X197072142Y-111246485D01*
X192278095Y-55699819D02*
X192278095Y-54699819D01*
X192278095Y-55176009D02*
X192849523Y-55176009D01*
X192849523Y-55699819D02*
X192849523Y-54699819D01*
X193278095Y-54795057D02*
X193325714Y-54747438D01*
X193325714Y-54747438D02*
X193420952Y-54699819D01*
X193420952Y-54699819D02*
X193659047Y-54699819D01*
X193659047Y-54699819D02*
X193754285Y-54747438D01*
X193754285Y-54747438D02*
X193801904Y-54795057D01*
X193801904Y-54795057D02*
X193849523Y-54890295D01*
X193849523Y-54890295D02*
X193849523Y-54985533D01*
X193849523Y-54985533D02*
X193801904Y-55128390D01*
X193801904Y-55128390D02*
X193230476Y-55699819D01*
X193230476Y-55699819D02*
X193849523Y-55699819D01*
X237998095Y-61414819D02*
X237998095Y-60414819D01*
X237998095Y-60891009D02*
X238569523Y-60891009D01*
X238569523Y-61414819D02*
X238569523Y-60414819D01*
X239569523Y-61414819D02*
X238998095Y-61414819D01*
X239283809Y-61414819D02*
X239283809Y-60414819D01*
X239283809Y-60414819D02*
X239188571Y-60557676D01*
X239188571Y-60557676D02*
X239093333Y-60652914D01*
X239093333Y-60652914D02*
X238998095Y-60700533D01*
X201616666Y-116929819D02*
X201616666Y-117644104D01*
X201616666Y-117644104D02*
X201569047Y-117786961D01*
X201569047Y-117786961D02*
X201473809Y-117882200D01*
X201473809Y-117882200D02*
X201330952Y-117929819D01*
X201330952Y-117929819D02*
X201235714Y-117929819D01*
X201997619Y-116929819D02*
X202616666Y-116929819D01*
X202616666Y-116929819D02*
X202283333Y-117310771D01*
X202283333Y-117310771D02*
X202426190Y-117310771D01*
X202426190Y-117310771D02*
X202521428Y-117358390D01*
X202521428Y-117358390D02*
X202569047Y-117406009D01*
X202569047Y-117406009D02*
X202616666Y-117501247D01*
X202616666Y-117501247D02*
X202616666Y-117739342D01*
X202616666Y-117739342D02*
X202569047Y-117834580D01*
X202569047Y-117834580D02*
X202521428Y-117882200D01*
X202521428Y-117882200D02*
X202426190Y-117929819D01*
X202426190Y-117929819D02*
X202140476Y-117929819D01*
X202140476Y-117929819D02*
X202045238Y-117882200D01*
X202045238Y-117882200D02*
X201997619Y-117834580D01*
D12*
X238574000Y-73884000D02*
X238574000Y-81604000D01*
X238574000Y-81604000D02*
X242594000Y-81604000D01*
X239074000Y-74384000D02*
X240284000Y-74384000D01*
X239074000Y-81104000D02*
X239074000Y-74384000D01*
X240284000Y-74384000D02*
X240284000Y-73884000D01*
X240284000Y-81104000D02*
X239074000Y-81104000D01*
X240284000Y-81604000D02*
X240284000Y-81104000D01*
X240394000Y-81904000D02*
X242894000Y-81904000D01*
X241094000Y-73884000D02*
X241094000Y-74884000D01*
X241094000Y-74884000D02*
X242594000Y-74884000D01*
X241094000Y-80604000D02*
X242594000Y-80604000D01*
X241094000Y-81604000D02*
X241094000Y-80604000D01*
X242594000Y-73884000D02*
X238574000Y-73884000D01*
X242594000Y-81604000D02*
X242594000Y-73884000D01*
X242894000Y-81904000D02*
X242894000Y-79404000D01*
X191230000Y-99230000D02*
X191230000Y-97900000D01*
X192560000Y-99230000D02*
X191230000Y-99230000D01*
X193830000Y-96570000D02*
X206590000Y-96570000D01*
X193830000Y-99230000D02*
X193830000Y-96570000D01*
X193830000Y-99230000D02*
X206590000Y-99230000D01*
X206590000Y-99230000D02*
X206590000Y-96570000D01*
X213050000Y-55670000D02*
X213050000Y-56920000D01*
X213340000Y-55960000D02*
X213340000Y-61930000D01*
X213340000Y-61930000D02*
X223460000Y-61930000D01*
X213350000Y-55970000D02*
X213350000Y-56720000D01*
X213350000Y-56720000D02*
X215150000Y-56720000D01*
X213350000Y-58220000D02*
X214100000Y-58220000D01*
X214100000Y-58220000D02*
X214100000Y-61170000D01*
X214100000Y-61170000D02*
X218400000Y-61170000D01*
X214300000Y-55670000D02*
X213050000Y-55670000D01*
X215150000Y-55970000D02*
X213350000Y-55970000D01*
X215150000Y-56720000D02*
X215150000Y-55970000D01*
X216650000Y-55970000D02*
X216650000Y-56720000D01*
X216650000Y-56720000D02*
X220150000Y-56720000D01*
X220150000Y-55970000D02*
X216650000Y-55970000D01*
X220150000Y-56720000D02*
X220150000Y-55970000D01*
X221650000Y-55970000D02*
X221650000Y-56720000D01*
X221650000Y-56720000D02*
X223450000Y-56720000D01*
X222700000Y-58220000D02*
X222700000Y-61170000D01*
X222700000Y-61170000D02*
X218400000Y-61170000D01*
X223450000Y-55970000D02*
X221650000Y-55970000D01*
X223450000Y-56720000D02*
X223450000Y-55970000D01*
X223450000Y-58220000D02*
X222700000Y-58220000D01*
X223460000Y-55960000D02*
X213340000Y-55960000D01*
X223460000Y-61930000D02*
X223460000Y-55960000D01*
X237990000Y-95855000D02*
X237990000Y-108575000D01*
X237990000Y-108575000D02*
X244610000Y-108575000D01*
X238700000Y-96865000D02*
X238700000Y-107565000D01*
X238700000Y-107565000D02*
X243000000Y-107565000D01*
X241300000Y-95855000D02*
X241300000Y-96865000D01*
X241300000Y-108575000D02*
X241300000Y-107565000D01*
X243000000Y-96865000D02*
X238700000Y-96865000D01*
X243000000Y-107565000D02*
X243000000Y-96865000D01*
X243610000Y-99515000D02*
X244610000Y-99515000D01*
X243610000Y-101415000D02*
X243610000Y-99515000D01*
X243610000Y-103015000D02*
X244210000Y-103015000D01*
X243610000Y-104915000D02*
X243610000Y-103015000D01*
X244210000Y-101415000D02*
X243610000Y-101415000D01*
X244210000Y-103015000D02*
X244210000Y-101415000D01*
X244610000Y-95855000D02*
X237990000Y-95855000D01*
X244610000Y-99515000D02*
X244610000Y-95855000D01*
X244610000Y-104915000D02*
X243610000Y-104915000D01*
X244610000Y-108575000D02*
X244610000Y-104915000D01*
X244910000Y-95555000D02*
X243660000Y-95555000D01*
X244910000Y-96805000D02*
X244910000Y-95555000D01*
X237790000Y-83332000D02*
X237790000Y-93452000D01*
X237790000Y-93452000D02*
X243760000Y-93452000D01*
X238550000Y-84092000D02*
X238550000Y-88392000D01*
X238550000Y-92692000D02*
X238550000Y-88392000D01*
X241500000Y-83342000D02*
X241500000Y-84092000D01*
X241500000Y-84092000D02*
X238550000Y-84092000D01*
X241500000Y-92692000D02*
X238550000Y-92692000D01*
X241500000Y-93442000D02*
X241500000Y-92692000D01*
X243000000Y-83342000D02*
X243000000Y-85142000D01*
X243000000Y-85142000D02*
X243750000Y-85142000D01*
X243000000Y-86642000D02*
X243000000Y-90142000D01*
X243000000Y-90142000D02*
X243750000Y-90142000D01*
X243000000Y-91642000D02*
X243000000Y-93442000D01*
X243000000Y-93442000D02*
X243750000Y-93442000D01*
X243750000Y-83342000D02*
X243000000Y-83342000D01*
X243750000Y-85142000D02*
X243750000Y-83342000D01*
X243750000Y-86642000D02*
X243000000Y-86642000D01*
X243750000Y-90142000D02*
X243750000Y-86642000D01*
X243750000Y-91642000D02*
X243000000Y-91642000D01*
X243750000Y-93442000D02*
X243750000Y-91642000D01*
X243760000Y-83332000D02*
X237790000Y-83332000D01*
X243760000Y-93452000D02*
X243760000Y-83332000D01*
X244050000Y-83042000D02*
X242800000Y-83042000D01*
X244050000Y-84292000D02*
X244050000Y-83042000D01*
X239716000Y-63694000D02*
X241046000Y-63694000D01*
X239716000Y-65024000D02*
X239716000Y-63694000D01*
X239716000Y-66294000D02*
X239716000Y-71434000D01*
X239716000Y-66294000D02*
X242376000Y-66294000D01*
X239716000Y-71434000D02*
X242376000Y-71434000D01*
X242376000Y-66294000D02*
X242376000Y-71434000D01*
D13*
G36*
X212962414Y-101601232D02*
G01*
X212931133Y-101632513D01*
X212899852Y-101601232D01*
X212931133Y-101569951D01*
X212962414Y-101601232D01*
G37*
G36*
X213838276Y-99599261D02*
G01*
X213806995Y-99630542D01*
X213775714Y-99599261D01*
X213806995Y-99567981D01*
X213838276Y-99599261D01*
G37*
G36*
X215277192Y-103040148D02*
G01*
X215245911Y-103071429D01*
X215214630Y-103040148D01*
X215245911Y-103008867D01*
X215277192Y-103040148D01*
G37*
G36*
X215401706Y-102840025D02*
G01*
X215402315Y-102848771D01*
X215357879Y-102901687D01*
X215330087Y-102920999D01*
X215287277Y-102928373D01*
X215302499Y-102893410D01*
X215365491Y-102826248D01*
X215401706Y-102840025D01*
G37*
G36*
X213142442Y-101745997D02*
G01*
X213150098Y-101792609D01*
X213119769Y-101857363D01*
X213087537Y-101851478D01*
X213027362Y-101771496D01*
X213024975Y-101753944D01*
X213072694Y-101696759D01*
X213087537Y-101695074D01*
X213142442Y-101745997D01*
G37*
G36*
X215588373Y-102529720D02*
G01*
X215590000Y-102535963D01*
X215546161Y-102589376D01*
X215527438Y-102602217D01*
X215469789Y-102597257D01*
X215464877Y-102574628D01*
X215510291Y-102510921D01*
X215527438Y-102508375D01*
X215588373Y-102529720D01*
G37*
G36*
X218273089Y-91610771D02*
G01*
X218280148Y-91653941D01*
X218246366Y-91737196D01*
X218217586Y-91747783D01*
X218162083Y-91697111D01*
X218155024Y-91653941D01*
X218188806Y-91570686D01*
X218217586Y-91560099D01*
X218273089Y-91610771D01*
G37*
G36*
X213383689Y-101059282D02*
G01*
X213418394Y-101131722D01*
X213424310Y-101219474D01*
X213353643Y-101230464D01*
X213300567Y-101218783D01*
X213177764Y-101214131D01*
X213150098Y-101260788D01*
X213129164Y-101312049D01*
X213113749Y-101304209D01*
X213108175Y-101224566D01*
X213163798Y-101114811D01*
X213247628Y-101027206D01*
X213301407Y-101006897D01*
X213383689Y-101059282D01*
G37*
G36*
X218711357Y-91571481D02*
G01*
X218728801Y-91572470D01*
X218956513Y-91601788D01*
X219072484Y-91647587D01*
X219074712Y-91696245D01*
X218961194Y-91734139D01*
X218754573Y-91747783D01*
X218547068Y-91740073D01*
X218439029Y-91712313D01*
X218405489Y-91657562D01*
X218405271Y-91650672D01*
X218430334Y-91593423D01*
X218523416Y-91569189D01*
X218711357Y-91571481D01*
G37*
G36*
X213397717Y-99357122D02*
G01*
X213400345Y-99395701D01*
X213350510Y-99486233D01*
X213226110Y-99593475D01*
X213177016Y-99624827D01*
X212953687Y-99756594D01*
X212996363Y-99615366D01*
X213050791Y-99481684D01*
X213107316Y-99403562D01*
X213144929Y-99404959D01*
X213150098Y-99440041D01*
X213174993Y-99480585D01*
X213259464Y-99425588D01*
X213275221Y-99411577D01*
X213365635Y-99340343D01*
X213397717Y-99357122D01*
G37*
G36*
X218564803Y-82734456D02*
G01*
X218663809Y-82779688D01*
X218824288Y-82811224D01*
X218838384Y-82812658D01*
X219020087Y-82847715D01*
X219086815Y-82897588D01*
X219045116Y-82947304D01*
X218901541Y-82981886D01*
X218761191Y-82989163D01*
X218565042Y-82985315D01*
X218464125Y-82964443D01*
X218428586Y-82912559D01*
X218427529Y-82832803D01*
X218450581Y-82703100D01*
X218506154Y-82687947D01*
X218564803Y-82734456D01*
G37*
G36*
X218564803Y-93307362D02*
G01*
X218663809Y-93352595D01*
X218824288Y-93384130D01*
X218838384Y-93385564D01*
X219020087Y-93420621D01*
X219086815Y-93470495D01*
X219045116Y-93520210D01*
X218901541Y-93554793D01*
X218761191Y-93562069D01*
X218565042Y-93558221D01*
X218464125Y-93537350D01*
X218428586Y-93485465D01*
X218427529Y-93405709D01*
X218450581Y-93276006D01*
X218506154Y-93260853D01*
X218564803Y-93307362D01*
G37*
G36*
X217566372Y-87626986D02*
G01*
X217721602Y-87649141D01*
X217779655Y-87681220D01*
X217779655Y-87681281D01*
X217721791Y-87713374D01*
X217566702Y-87735549D01*
X217342149Y-87743843D01*
X217341724Y-87743843D01*
X217117076Y-87735576D01*
X216961846Y-87713421D01*
X216903793Y-87681342D01*
X216903793Y-87681281D01*
X216961657Y-87649188D01*
X217116745Y-87627013D01*
X217341299Y-87618719D01*
X217341724Y-87618719D01*
X217566372Y-87626986D01*
G37*
G36*
X218871733Y-94630532D02*
G01*
X219017011Y-94648296D01*
X219082697Y-94683434D01*
X219093448Y-94719458D01*
X219068869Y-94768958D01*
X218980047Y-94798013D01*
X218804356Y-94811151D01*
X218624236Y-94813301D01*
X218376740Y-94808385D01*
X218231462Y-94790621D01*
X218165775Y-94755482D01*
X218155024Y-94719458D01*
X218179603Y-94669959D01*
X218268425Y-94640903D01*
X218444117Y-94627766D01*
X218624236Y-94625616D01*
X218871733Y-94630532D01*
G37*
G36*
X218569153Y-85394752D02*
G01*
X218570332Y-85397783D01*
X218663172Y-85468893D01*
X218849895Y-85491626D01*
X219004109Y-85505857D01*
X219088216Y-85541299D01*
X219093448Y-85554187D01*
X219036953Y-85588789D01*
X218891524Y-85611509D01*
X218757180Y-85616749D01*
X218562923Y-85612465D01*
X218462783Y-85590017D01*
X218425810Y-85535008D01*
X218420911Y-85460345D01*
X218446690Y-85335309D01*
X218505412Y-85309548D01*
X218569153Y-85394752D01*
G37*
G36*
X217261660Y-83348892D02*
G01*
X217338037Y-83400449D01*
X217494689Y-83426161D01*
X217534622Y-83427094D01*
X217706657Y-83443261D01*
X217776040Y-83496573D01*
X217779655Y-83520936D01*
X217749069Y-83577229D01*
X217641578Y-83606390D01*
X217433587Y-83614778D01*
X217431350Y-83614779D01*
X217234341Y-83611474D01*
X217135974Y-83593422D01*
X217109792Y-83548415D01*
X217126314Y-83474015D01*
X217185849Y-83326617D01*
X217235927Y-83303423D01*
X217261660Y-83348892D01*
G37*
G36*
X219042206Y-88346418D02*
G01*
X219075953Y-88510892D01*
X219081235Y-88572783D01*
X219100304Y-88869951D01*
X218627664Y-88869951D01*
X218379136Y-88865094D01*
X218232877Y-88847535D01*
X218166305Y-88812789D01*
X218155024Y-88776109D01*
X218184090Y-88721367D01*
X218287007Y-88692119D01*
X218487355Y-88682407D01*
X218526430Y-88682266D01*
X218897836Y-88682266D01*
X218917440Y-88478941D01*
X218949624Y-88322809D01*
X218995655Y-88281179D01*
X219042206Y-88346418D01*
G37*
G36*
X219082711Y-84094226D02*
G01*
X219093448Y-84148515D01*
X219045231Y-84253127D01*
X219007789Y-84277192D01*
X218898394Y-84292715D01*
X218716008Y-84295375D01*
X218605745Y-84290869D01*
X218422208Y-84276647D01*
X218341764Y-84253814D01*
X218342513Y-84208001D01*
X218385775Y-84146552D01*
X218468475Y-84069576D01*
X218511506Y-84099631D01*
X218588933Y-84155272D01*
X218726764Y-84176239D01*
X218864561Y-84160312D01*
X218937044Y-84115271D01*
X219017420Y-84054749D01*
X219082711Y-84094226D01*
G37*
G36*
X213187210Y-100177121D02*
G01*
X213315154Y-100278550D01*
X213370003Y-100345671D01*
X213490143Y-100526135D01*
X213514814Y-100634599D01*
X213443208Y-100680890D01*
X213342258Y-100682116D01*
X213162420Y-100696707D01*
X213001943Y-100755074D01*
X212896959Y-100838538D01*
X212880259Y-100920953D01*
X212875150Y-100996457D01*
X212848168Y-101006897D01*
X212802561Y-100953058D01*
X212787998Y-100834552D01*
X212776779Y-100653760D01*
X212752239Y-100534102D01*
X212756854Y-100369139D01*
X212859591Y-100233668D01*
X213033539Y-100161917D01*
X213046117Y-100160334D01*
X213187210Y-100177121D01*
G37*
G36*
X217772637Y-84660927D02*
G01*
X217773586Y-84759600D01*
X217727255Y-84856557D01*
X217680696Y-84890597D01*
X217559138Y-84914066D01*
X217372933Y-84927410D01*
X217301110Y-84928572D01*
X217130291Y-84923443D01*
X217056419Y-84896951D01*
X217051407Y-84832440D01*
X217063753Y-84787808D01*
X217123288Y-84640410D01*
X217173365Y-84617217D01*
X217199098Y-84662685D01*
X217268199Y-84711851D01*
X217398149Y-84736890D01*
X217537901Y-84736049D01*
X217636407Y-84707575D01*
X217654532Y-84678325D01*
X217702140Y-84617582D01*
X217717093Y-84615764D01*
X217772637Y-84660927D01*
G37*
G36*
X217256125Y-93639966D02*
G01*
X217261549Y-93702833D01*
X217268037Y-93842364D01*
X217356930Y-93959274D01*
X217470612Y-94000000D01*
X217575843Y-93954774D01*
X217632635Y-93812315D01*
X217682272Y-93665015D01*
X217735829Y-93633125D01*
X217773235Y-93716841D01*
X217779655Y-93810873D01*
X217731054Y-93995799D01*
X217620688Y-94101275D01*
X217474453Y-94168887D01*
X217337859Y-94148259D01*
X217309606Y-94136125D01*
X217185404Y-94030015D01*
X217109585Y-93875635D01*
X217104822Y-93726401D01*
X217120561Y-93690748D01*
X217193086Y-93630555D01*
X217256125Y-93639966D01*
G37*
G36*
X219065565Y-91956064D02*
G01*
X219080507Y-92055739D01*
X219052015Y-92170074D01*
X218980844Y-92210907D01*
X218832789Y-92237426D01*
X218648275Y-92248812D01*
X218467728Y-92244244D01*
X218331571Y-92222906D01*
X218280148Y-92185715D01*
X218327755Y-92124971D01*
X218342709Y-92123153D01*
X218398212Y-92072481D01*
X218405271Y-92029311D01*
X218439052Y-91946056D01*
X218467832Y-91935468D01*
X218528576Y-91983076D01*
X218530394Y-91998030D01*
X218584672Y-92042292D01*
X218714386Y-92060591D01*
X218858866Y-92041306D01*
X218937044Y-91998030D01*
X219011777Y-91927898D01*
X219065565Y-91956064D01*
G37*
G36*
X217686036Y-85942157D02*
G01*
X217769123Y-85984892D01*
X217779655Y-86023399D01*
X217738332Y-86088651D01*
X217601353Y-86115538D01*
X217529409Y-86117242D01*
X217365688Y-86127734D01*
X217293330Y-86170144D01*
X217279162Y-86242365D01*
X217300148Y-86324225D01*
X217384967Y-86360404D01*
X217529409Y-86367488D01*
X217703413Y-86382984D01*
X217775113Y-86434351D01*
X217779655Y-86461330D01*
X217748135Y-86518530D01*
X217637886Y-86547606D01*
X217443853Y-86555173D01*
X217108050Y-86555173D01*
X217121649Y-86314154D01*
X217147231Y-86101134D01*
X217211856Y-85984758D01*
X217343161Y-85937068D01*
X217501820Y-85929557D01*
X217686036Y-85942157D01*
G37*
G36*
X217712789Y-90451711D02*
G01*
X217777492Y-90508495D01*
X217779655Y-90527833D01*
X217739041Y-90592571D01*
X217603854Y-90619695D01*
X217525057Y-90621675D01*
X217363522Y-90629294D01*
X217295183Y-90664795D01*
X217288431Y-90747142D01*
X217290452Y-90762439D01*
X217330425Y-90860866D01*
X217437243Y-90908841D01*
X217545049Y-90922619D01*
X217717737Y-90950944D01*
X217775555Y-90989849D01*
X217726834Y-91028058D01*
X217579903Y-91054296D01*
X217443853Y-91059606D01*
X217108050Y-91059606D01*
X217122548Y-90802663D01*
X217156712Y-90600094D01*
X217247536Y-90486665D01*
X217420608Y-90440107D01*
X217545049Y-90434948D01*
X217712789Y-90451711D01*
G37*
G36*
X218901501Y-89873923D02*
G01*
X219035794Y-89903393D01*
X219093366Y-89958682D01*
X219093448Y-89961181D01*
X219038525Y-90029583D01*
X218869351Y-90067081D01*
X218827561Y-90070664D01*
X218634867Y-90108429D01*
X218554966Y-90172343D01*
X218589593Y-90242275D01*
X218740484Y-90298093D01*
X218807031Y-90308867D01*
X219004556Y-90352220D01*
X219082729Y-90406742D01*
X219044653Y-90457899D01*
X218893430Y-90491154D01*
X218766972Y-90496552D01*
X218430069Y-90496552D01*
X218423259Y-90261946D01*
X218435062Y-90086814D01*
X218472904Y-89961008D01*
X218481082Y-89949138D01*
X218579867Y-89895925D01*
X218734766Y-89871144D01*
X218901501Y-89873923D01*
G37*
G36*
X219042206Y-96729670D02*
G01*
X219075953Y-96894143D01*
X219081235Y-96956035D01*
X219100304Y-97253202D01*
X218624236Y-97253202D01*
X218148169Y-97253202D01*
X218167237Y-96956035D01*
X218195100Y-96765500D01*
X218239447Y-96672091D01*
X218286953Y-96683442D01*
X218324293Y-96807188D01*
X218331033Y-96862192D01*
X218373541Y-97015262D01*
X218441548Y-97069371D01*
X218504128Y-97022094D01*
X218530394Y-96877833D01*
X218558372Y-96728829D01*
X218624236Y-96690148D01*
X218698738Y-96746105D01*
X218718079Y-96877833D01*
X218746040Y-97025373D01*
X218809308Y-97069184D01*
X218876958Y-97011690D01*
X218917440Y-96862192D01*
X218949624Y-96706060D01*
X218995655Y-96664430D01*
X219042206Y-96729670D01*
G37*
G36*
X218951669Y-85915965D02*
G01*
X219064812Y-86044310D01*
X219084737Y-86224186D01*
X219025875Y-86383128D01*
X218918149Y-86461364D01*
X218750420Y-86492291D01*
X218700711Y-86486462D01*
X218579933Y-86472298D01*
X218480345Y-86417537D01*
X218422535Y-86300551D01*
X218410236Y-86214528D01*
X218530394Y-86214528D01*
X218582134Y-86299990D01*
X218700711Y-86342896D01*
X218831160Y-86329325D01*
X218877485Y-86302435D01*
X218960506Y-86198003D01*
X218923662Y-86108508D01*
X218839203Y-86052540D01*
X218692259Y-86027750D01*
X218574181Y-86093771D01*
X218530394Y-86214528D01*
X218410236Y-86214528D01*
X218405271Y-86179803D01*
X218446730Y-85994284D01*
X218576491Y-85892690D01*
X218759671Y-85866995D01*
X218951669Y-85915965D01*
G37*
G36*
X216527049Y-82814588D02*
G01*
X216524912Y-83236538D01*
X216518491Y-83554204D01*
X216506042Y-83788403D01*
X216485821Y-83959948D01*
X216456084Y-84089656D01*
X216415086Y-84198339D01*
X216410179Y-84209114D01*
X216207982Y-84525429D01*
X215927246Y-84751401D01*
X215763200Y-84831743D01*
X215667422Y-84862740D01*
X215536397Y-84886647D01*
X215354614Y-84904283D01*
X215106561Y-84916468D01*
X214776727Y-84924023D01*
X214349599Y-84927768D01*
X213931597Y-84928572D01*
X212331738Y-84928572D01*
X212349908Y-84412439D01*
X212368079Y-83896306D01*
X213900837Y-83865025D01*
X215433596Y-83833744D01*
X215464877Y-82770197D01*
X215496157Y-81706650D01*
X216012290Y-81688480D01*
X216528423Y-81670309D01*
X216527049Y-82814588D01*
G37*
G36*
X218893076Y-90752040D02*
G01*
X219019730Y-90854097D01*
X219087032Y-90998544D01*
X219072105Y-91159686D01*
X218995137Y-91274103D01*
X218848617Y-91351649D01*
X218740672Y-91361249D01*
X218665457Y-91367939D01*
X218508580Y-91320133D01*
X218480345Y-91297340D01*
X218408286Y-91147296D01*
X218416591Y-91028325D01*
X218561675Y-91028325D01*
X218613148Y-91137196D01*
X218740672Y-91183279D01*
X218878137Y-91160703D01*
X218961770Y-91087560D01*
X218927065Y-90985467D01*
X218877488Y-90936977D01*
X218744569Y-90880793D01*
X218624314Y-90908889D01*
X218562944Y-91007896D01*
X218561675Y-91028325D01*
X218416591Y-91028325D01*
X218420837Y-90967505D01*
X218510316Y-90812709D01*
X218553230Y-90777859D01*
X218729949Y-90718063D01*
X218893076Y-90752040D01*
G37*
G36*
X218566168Y-81945455D02*
G01*
X218786038Y-82025937D01*
X218796281Y-82030073D01*
X219007937Y-82120343D01*
X219178085Y-82201245D01*
X219265492Y-82252316D01*
X219334387Y-82342089D01*
X219330919Y-82412501D01*
X219293645Y-82426109D01*
X219209910Y-82387042D01*
X219172607Y-82355120D01*
X219089736Y-82322275D01*
X218946256Y-82350672D01*
X218831646Y-82393265D01*
X218652312Y-82465657D01*
X218515895Y-82520542D01*
X218483473Y-82533509D01*
X218415946Y-82512798D01*
X218405271Y-82468935D01*
X218460571Y-82387035D01*
X218602137Y-82308137D01*
X218639877Y-82294335D01*
X218874483Y-82215418D01*
X218639877Y-82124589D01*
X218491750Y-82048942D01*
X218410547Y-81971895D01*
X218405271Y-81952790D01*
X218443412Y-81921896D01*
X218566168Y-81945455D01*
G37*
G36*
X218883030Y-83227458D02*
G01*
X219003801Y-83347282D01*
X219082857Y-83488312D01*
X219093448Y-83547748D01*
X219050951Y-83689425D01*
X218995137Y-83766714D01*
X218831261Y-83857008D01*
X218740672Y-83852776D01*
X218654603Y-83848755D01*
X218503064Y-83757806D01*
X218414546Y-83600014D01*
X218405378Y-83520936D01*
X218561675Y-83520936D01*
X218613148Y-83629807D01*
X218740672Y-83675889D01*
X218878137Y-83653314D01*
X218961770Y-83580171D01*
X218927065Y-83478078D01*
X218877488Y-83429588D01*
X218744569Y-83373404D01*
X218624314Y-83401500D01*
X218562944Y-83500507D01*
X218561675Y-83520936D01*
X218405378Y-83520936D01*
X218405271Y-83520015D01*
X218458181Y-83373790D01*
X218585008Y-83244670D01*
X218737896Y-83178529D01*
X218763280Y-83176848D01*
X218883030Y-83227458D01*
G37*
G36*
X218883030Y-93800364D02*
G01*
X219003801Y-93920188D01*
X219082857Y-94061219D01*
X219093448Y-94120655D01*
X219050951Y-94262331D01*
X218995137Y-94339620D01*
X218831261Y-94429914D01*
X218740665Y-94425682D01*
X218654603Y-94421661D01*
X218503064Y-94330713D01*
X218414546Y-94172921D01*
X218405279Y-94092986D01*
X218561675Y-94092986D01*
X218613092Y-94202588D01*
X218740665Y-94248876D01*
X218878137Y-94226220D01*
X218959948Y-94160199D01*
X218936686Y-94049957D01*
X218913371Y-94010167D01*
X218814317Y-93945498D01*
X218687062Y-93953060D01*
X218586609Y-94019902D01*
X218561675Y-94092986D01*
X218405279Y-94092986D01*
X218405271Y-94092921D01*
X218458181Y-93946696D01*
X218585008Y-93817577D01*
X218737896Y-93751435D01*
X218763280Y-93749754D01*
X218883030Y-93800364D01*
G37*
G36*
X217212652Y-82546341D02*
G01*
X217395812Y-82609604D01*
X217419926Y-82618975D01*
X217631569Y-82708170D01*
X217814759Y-82796223D01*
X217889138Y-82838470D01*
X217994195Y-82931053D01*
X218031379Y-83013085D01*
X217986631Y-83051520D01*
X217979852Y-83051724D01*
X217896117Y-83012658D01*
X217858814Y-82980735D01*
X217775943Y-82947890D01*
X217632463Y-82976287D01*
X217517853Y-83018881D01*
X217338518Y-83091272D01*
X217202102Y-83146158D01*
X217169680Y-83159125D01*
X217102153Y-83138414D01*
X217091478Y-83094550D01*
X217146778Y-83012651D01*
X217288344Y-82933753D01*
X217326084Y-82919950D01*
X217560689Y-82841034D01*
X217326084Y-82750205D01*
X217177901Y-82673736D01*
X217096722Y-82594707D01*
X217091478Y-82574936D01*
X217118250Y-82535729D01*
X217212652Y-82546341D01*
G37*
G36*
X217217712Y-87973489D02*
G01*
X217339474Y-88061507D01*
X217374547Y-88124072D01*
X217390165Y-88254927D01*
X217345849Y-88301294D01*
X217263700Y-88244398D01*
X217251510Y-88228596D01*
X217143759Y-88130935D01*
X217062407Y-88146138D01*
X217028955Y-88269663D01*
X217028916Y-88275616D01*
X217036864Y-88362297D01*
X217080295Y-88409096D01*
X217188590Y-88428255D01*
X217391129Y-88432016D01*
X217404285Y-88432020D01*
X217620780Y-88438858D01*
X217737261Y-88463589D01*
X217778301Y-88512535D01*
X217779655Y-88528603D01*
X217759151Y-88578758D01*
X217681485Y-88605236D01*
X217522426Y-88612216D01*
X217326084Y-88606805D01*
X216872512Y-88588424D01*
X216878093Y-88320084D01*
X216896508Y-88137871D01*
X216935816Y-88006752D01*
X216951714Y-87983704D01*
X217070115Y-87941465D01*
X217217712Y-87973489D01*
G37*
G36*
X218889237Y-86726375D02*
G01*
X219025372Y-86849492D01*
X219084534Y-87031217D01*
X219052015Y-87227710D01*
X218966188Y-87276744D01*
X218835468Y-87292702D01*
X218758431Y-87302107D01*
X218587742Y-87305912D01*
X218351427Y-87300279D01*
X218216794Y-87280048D01*
X218160770Y-87240212D01*
X218155024Y-87212069D01*
X218206370Y-87133327D01*
X218267210Y-87118227D01*
X218372044Y-87058343D01*
X218394214Y-87011028D01*
X218562684Y-87011028D01*
X218613812Y-87085571D01*
X218674812Y-87107021D01*
X218835468Y-87107137D01*
X218926115Y-87046432D01*
X218927997Y-86960807D01*
X218837026Y-86885337D01*
X218725727Y-86880237D01*
X218603030Y-86929035D01*
X218562684Y-87011028D01*
X218394214Y-87011028D01*
X218439254Y-86914902D01*
X218505509Y-86767702D01*
X218616394Y-86704596D01*
X218696428Y-86692421D01*
X218889237Y-86726375D01*
G37*
G36*
X217763690Y-89839655D02*
G01*
X217753721Y-90013451D01*
X217713660Y-90136823D01*
X217597059Y-90225528D01*
X217437426Y-90248588D01*
X217428286Y-90249908D01*
X217261284Y-90211933D01*
X217151423Y-90116294D01*
X217109054Y-89979763D01*
X217112116Y-89935461D01*
X217279162Y-89935461D01*
X217326182Y-90061786D01*
X217437426Y-90107174D01*
X217561486Y-90057960D01*
X217650976Y-89939638D01*
X217623814Y-89849275D01*
X217488328Y-89808833D01*
X217466847Y-89808375D01*
X217329795Y-89827776D01*
X217281306Y-89900670D01*
X217279162Y-89935461D01*
X217112116Y-89935461D01*
X217114482Y-89901226D01*
X217091852Y-89825015D01*
X217009816Y-89796632D01*
X216889017Y-89765293D01*
X216876045Y-89727602D01*
X216954382Y-89691115D01*
X217107508Y-89663390D01*
X217318903Y-89651982D01*
X217326084Y-89651971D01*
X217748374Y-89651971D01*
X217763690Y-89839655D01*
G37*
G36*
X217526752Y-95135663D02*
G01*
X217669764Y-95223991D01*
X217744483Y-95356621D01*
X217816826Y-95502636D01*
X217911692Y-95583812D01*
X217916527Y-95585239D01*
X218011609Y-95641373D01*
X218029901Y-95683306D01*
X217970041Y-95722364D01*
X217799817Y-95745765D01*
X217596186Y-95751724D01*
X217466847Y-95745594D01*
X217330760Y-95739144D01*
X217172081Y-95691862D01*
X217103445Y-95595566D01*
X217107907Y-95444130D01*
X217279162Y-95444130D01*
X217311162Y-95532541D01*
X217427037Y-95563166D01*
X217466847Y-95564040D01*
X217610407Y-95530293D01*
X217656570Y-95450232D01*
X217594968Y-95355624D01*
X217545049Y-95324448D01*
X217395135Y-95290439D01*
X217299642Y-95353753D01*
X217279162Y-95444130D01*
X217107907Y-95444130D01*
X217108148Y-95435944D01*
X217127150Y-95349850D01*
X217216623Y-95198167D01*
X217362765Y-95126913D01*
X217526752Y-95135663D01*
G37*
G36*
X218891569Y-95040879D02*
G01*
X219020017Y-95129255D01*
X219079494Y-95254734D01*
X219073788Y-95319655D01*
X219089756Y-95417824D01*
X219173513Y-95451092D01*
X219290095Y-95500070D01*
X219328367Y-95548399D01*
X219306931Y-95590526D01*
X219198098Y-95615431D01*
X218986118Y-95625861D01*
X218879696Y-95626601D01*
X218718079Y-95626601D01*
X218405271Y-95626601D01*
X218405271Y-95434804D01*
X218415492Y-95347275D01*
X218530394Y-95347275D01*
X218586633Y-95419482D01*
X218718079Y-95438916D01*
X218856462Y-95418472D01*
X218904396Y-95344441D01*
X218905763Y-95319007D01*
X218870222Y-95205898D01*
X218827561Y-95171057D01*
X218699221Y-95175302D01*
X218580708Y-95246540D01*
X218530394Y-95347275D01*
X218415492Y-95347275D01*
X218426390Y-95253950D01*
X218470033Y-95121996D01*
X218578812Y-95024886D01*
X218731912Y-95001968D01*
X218891569Y-95040879D01*
G37*
G36*
X217768873Y-91558179D02*
G01*
X217755905Y-91747673D01*
X217690855Y-91851054D01*
X217666276Y-91866621D01*
X217570806Y-91883933D01*
X217521884Y-91892805D01*
X217420481Y-91810176D01*
X217382536Y-91662163D01*
X217370305Y-91610765D01*
X217482508Y-91610765D01*
X217498759Y-91686242D01*
X217570806Y-91719537D01*
X217640849Y-91672462D01*
X217654532Y-91622660D01*
X217609490Y-91541084D01*
X217596293Y-91531490D01*
X217522130Y-91535553D01*
X217482508Y-91610765D01*
X217370305Y-91610765D01*
X217355611Y-91549013D01*
X217310443Y-91519789D01*
X217270064Y-91590707D01*
X217265890Y-91707424D01*
X217259597Y-91828623D01*
X217223185Y-91872907D01*
X217150815Y-91819761D01*
X217118620Y-91689548D01*
X217134554Y-91526105D01*
X217150898Y-91474520D01*
X217208144Y-91369505D01*
X217301585Y-91321649D01*
X217474160Y-91309872D01*
X217486323Y-91309852D01*
X217759143Y-91309852D01*
X217768873Y-91558179D01*
G37*
G36*
X218489311Y-95869366D02*
G01*
X218566726Y-95917191D01*
X218686723Y-95983904D01*
X218782199Y-95981747D01*
X218910815Y-95915096D01*
X219034565Y-95849830D01*
X219085324Y-95853619D01*
X219093448Y-95901483D01*
X219044358Y-96007816D01*
X218985267Y-96056294D01*
X218912948Y-96108996D01*
X218928518Y-96169778D01*
X218985267Y-96236373D01*
X219080490Y-96366419D01*
X219075077Y-96432452D01*
X219038547Y-96439902D01*
X218957013Y-96397099D01*
X218905763Y-96346059D01*
X218803295Y-96266764D01*
X218749359Y-96252217D01*
X218646649Y-96296029D01*
X218592955Y-96346059D01*
X218502644Y-96424705D01*
X218460172Y-96439902D01*
X218407157Y-96400715D01*
X218428707Y-96310900D01*
X218514753Y-96212147D01*
X218590069Y-96141542D01*
X218563305Y-96092191D01*
X218514753Y-96061378D01*
X218423982Y-95966171D01*
X218405271Y-95903577D01*
X218421419Y-95849769D01*
X218489311Y-95869366D01*
G37*
G36*
X217510424Y-85224294D02*
G01*
X217529409Y-85373887D01*
X217546647Y-85496832D01*
X217590678Y-85523672D01*
X217591970Y-85522907D01*
X217640398Y-85436670D01*
X217654532Y-85331530D01*
X217676418Y-85215735D01*
X217717093Y-85178818D01*
X217766916Y-85229922D01*
X217778318Y-85351946D01*
X217754910Y-85497956D01*
X217700302Y-85621020D01*
X217681344Y-85643561D01*
X217515281Y-85733610D01*
X217336317Y-85716931D01*
X217326084Y-85708736D01*
X217188235Y-85598344D01*
X217181574Y-85588531D01*
X217123776Y-85429064D01*
X217247882Y-85429064D01*
X217297216Y-85523001D01*
X217326084Y-85538547D01*
X217388873Y-85509511D01*
X217404285Y-85429064D01*
X217375459Y-85329838D01*
X217326084Y-85319582D01*
X217253434Y-85396422D01*
X217247882Y-85429064D01*
X217123776Y-85429064D01*
X217116691Y-85409516D01*
X217149014Y-85251451D01*
X217270308Y-85150637D01*
X217281803Y-85146699D01*
X217430623Y-85135524D01*
X217510424Y-85224294D01*
G37*
G36*
X217491780Y-92899725D02*
G01*
X217525529Y-92998695D01*
X217529409Y-93096550D01*
X217544228Y-93238900D01*
X217583430Y-93284177D01*
X217591970Y-93280542D01*
X217636690Y-93196145D01*
X217654532Y-93054192D01*
X217671770Y-92931248D01*
X217715801Y-92904407D01*
X217717093Y-92905173D01*
X217772058Y-93003026D01*
X217772882Y-93156978D01*
X217725248Y-93313235D01*
X217665246Y-93395969D01*
X217521880Y-93478330D01*
X217418547Y-93499508D01*
X217323880Y-93462455D01*
X217286176Y-93447697D01*
X217163191Y-93324818D01*
X217114408Y-93221356D01*
X217257854Y-93221356D01*
X217258885Y-93224097D01*
X217323880Y-93306449D01*
X217384780Y-93278734D01*
X217404285Y-93186700D01*
X217382416Y-93084976D01*
X217352151Y-93061577D01*
X217259719Y-93107452D01*
X217257854Y-93221356D01*
X217114408Y-93221356D01*
X217094766Y-93179697D01*
X217091478Y-93145967D01*
X217143965Y-93023762D01*
X217267151Y-92918374D01*
X217408754Y-92873892D01*
X217491780Y-92899725D01*
G37*
G36*
X218948702Y-87562003D02*
G01*
X219034401Y-87592046D01*
X219062518Y-87666173D01*
X219065573Y-87728345D01*
X219059640Y-87900035D01*
X219045346Y-88009729D01*
X218969112Y-88099959D01*
X218877447Y-88119033D01*
X218876589Y-88119212D01*
X218735573Y-88069688D01*
X218665021Y-87919187D01*
X218655917Y-87802712D01*
X218780640Y-87802712D01*
X218810069Y-87923946D01*
X218877447Y-87973430D01*
X218928318Y-87950680D01*
X218963611Y-87904908D01*
X218953098Y-87840932D01*
X218930351Y-87780240D01*
X218863187Y-87689627D01*
X218800998Y-87710234D01*
X218780640Y-87802712D01*
X218655917Y-87802712D01*
X218655517Y-87797595D01*
X218630596Y-87714359D01*
X218592955Y-87712562D01*
X218544528Y-87798799D01*
X218530394Y-87903939D01*
X218508508Y-88019733D01*
X218467832Y-88056650D01*
X218422139Y-88003564D01*
X218406172Y-87876405D01*
X218422882Y-87723326D01*
X218443245Y-87655117D01*
X218517026Y-87587194D01*
X218683592Y-87558338D01*
X218771693Y-87556301D01*
X218948702Y-87562003D01*
G37*
G36*
X218948702Y-92504368D02*
G01*
X219034401Y-92534410D01*
X219062518Y-92608538D01*
X219065573Y-92670709D01*
X219059640Y-92842400D01*
X219045346Y-92952094D01*
X218969112Y-93042324D01*
X218877447Y-93061398D01*
X218876589Y-93061577D01*
X218735573Y-93012053D01*
X218665021Y-92861552D01*
X218655917Y-92745077D01*
X218780640Y-92745077D01*
X218810069Y-92866310D01*
X218877447Y-92915794D01*
X218928318Y-92893045D01*
X218963611Y-92847273D01*
X218953098Y-92783296D01*
X218930351Y-92722605D01*
X218863187Y-92631991D01*
X218800998Y-92652598D01*
X218780640Y-92745077D01*
X218655917Y-92745077D01*
X218655517Y-92739960D01*
X218630596Y-92656723D01*
X218592955Y-92654926D01*
X218544528Y-92741163D01*
X218530394Y-92846303D01*
X218508508Y-92962098D01*
X218467832Y-92999015D01*
X218422139Y-92945928D01*
X218406172Y-92818770D01*
X218422882Y-92665691D01*
X218443245Y-92597482D01*
X218517026Y-92529559D01*
X218683592Y-92500702D01*
X218771693Y-92498665D01*
X218948702Y-92504368D01*
G37*
G36*
X217627500Y-95977652D02*
G01*
X217697948Y-96039267D01*
X217752363Y-96171720D01*
X217778030Y-96346575D01*
X217770758Y-96506578D01*
X217737947Y-96585879D01*
X217661497Y-96625350D01*
X217622090Y-96550232D01*
X217616115Y-96395068D01*
X217604312Y-96227775D01*
X217547241Y-96151232D01*
X217513768Y-96140234D01*
X217434511Y-96152760D01*
X217405698Y-96252841D01*
X217404285Y-96305723D01*
X217368255Y-96482056D01*
X217278406Y-96614756D01*
X217162099Y-96670704D01*
X217109575Y-96662465D01*
X217012721Y-96631221D01*
X216990970Y-96627586D01*
X216940427Y-96573316D01*
X216897106Y-96443510D01*
X216872693Y-96287678D01*
X216878872Y-96155326D01*
X216879192Y-96154033D01*
X216930908Y-96026634D01*
X216983634Y-96018181D01*
X217025838Y-96123129D01*
X217040780Y-96231741D01*
X217076352Y-96414106D01*
X217132988Y-96475813D01*
X217197058Y-96416416D01*
X217254260Y-96238679D01*
X217305228Y-96061918D01*
X217376553Y-95975748D01*
X217463413Y-95949108D01*
X217627500Y-95977652D01*
G37*
G36*
X217656456Y-83870828D02*
G01*
X217736725Y-83905449D01*
X217763005Y-83994708D01*
X217767037Y-84068672D01*
X217757226Y-84236931D01*
X217722894Y-84356131D01*
X217722756Y-84356355D01*
X217626789Y-84424549D01*
X217574163Y-84410103D01*
X217511448Y-84392887D01*
X217407408Y-84276195D01*
X217367200Y-84184521D01*
X217354970Y-84154177D01*
X217477854Y-84154177D01*
X217511229Y-84246484D01*
X217574163Y-84279089D01*
X217591528Y-84271948D01*
X217649592Y-84177576D01*
X217633285Y-84063920D01*
X217596293Y-84024100D01*
X217516316Y-84032596D01*
X217496907Y-84054685D01*
X217477854Y-84154177D01*
X217354970Y-84154177D01*
X217315775Y-84056928D01*
X217277061Y-84043170D01*
X217259681Y-84075800D01*
X217244469Y-84217733D01*
X217256538Y-84271675D01*
X217252876Y-84351973D01*
X217221331Y-84365517D01*
X217135682Y-84314273D01*
X217105555Y-84187923D01*
X217140019Y-84027543D01*
X217144474Y-84017439D01*
X217211172Y-83918710D01*
X217319585Y-83874387D01*
X217486650Y-83865025D01*
X217656456Y-83870828D01*
G37*
G36*
X217676907Y-86751898D02*
G01*
X217740278Y-86802561D01*
X217757961Y-86932857D01*
X217759347Y-86977463D01*
X217756049Y-87152836D01*
X217739787Y-87278639D01*
X217736146Y-87290271D01*
X217656736Y-87356185D01*
X217588958Y-87368473D01*
X217582305Y-87365523D01*
X217468183Y-87314914D01*
X217379816Y-87190215D01*
X217358303Y-87048341D01*
X217362416Y-87033362D01*
X217502550Y-87033362D01*
X217516041Y-87113658D01*
X217582305Y-87167140D01*
X217644607Y-87149028D01*
X217644866Y-87090847D01*
X217595514Y-87002706D01*
X217560689Y-86989799D01*
X217502550Y-87033362D01*
X217362416Y-87033362D01*
X217366224Y-87019496D01*
X217368310Y-86941813D01*
X217346454Y-86930542D01*
X217276593Y-86982892D01*
X217243804Y-87102396D01*
X217259814Y-87220606D01*
X217264435Y-87295075D01*
X217210930Y-87292141D01*
X217151589Y-87214121D01*
X217133185Y-87071942D01*
X217154007Y-86919078D01*
X217212342Y-86809001D01*
X217226756Y-86797819D01*
X217343560Y-86761400D01*
X217515450Y-86744025D01*
X217531755Y-86743815D01*
X217676907Y-86751898D01*
G37*
G36*
X218975135Y-84559600D02*
G01*
X219049667Y-84599232D01*
X219072157Y-84702758D01*
X219074904Y-84773844D01*
X219054169Y-84949572D01*
X218995300Y-85079812D01*
X218988992Y-85086652D01*
X218894165Y-85162040D01*
X218888209Y-85164368D01*
X218851245Y-85178818D01*
X218750547Y-85124766D01*
X218675236Y-84996127D01*
X218655517Y-84884779D01*
X218651627Y-84866010D01*
X218780640Y-84866010D01*
X218811866Y-84974616D01*
X218888209Y-84980463D01*
X218922307Y-84953736D01*
X218936741Y-84869271D01*
X218892770Y-84773995D01*
X218836508Y-84740887D01*
X218791098Y-84793344D01*
X218780640Y-84866010D01*
X218651627Y-84866010D01*
X218632417Y-84773333D01*
X218592955Y-84740887D01*
X218549357Y-84795334D01*
X218530419Y-84926875D01*
X218530394Y-84932264D01*
X218513450Y-85057330D01*
X218469979Y-85086210D01*
X218467832Y-85084976D01*
X218417451Y-84991907D01*
X218408838Y-84841428D01*
X218440353Y-84693479D01*
X218480345Y-84628276D01*
X218587311Y-84580464D01*
X218760186Y-84554665D01*
X218812034Y-84553202D01*
X218975135Y-84559600D01*
G37*
G36*
X217656180Y-94381017D02*
G01*
X217735867Y-94415120D01*
X217760547Y-94503416D01*
X217763264Y-94578695D01*
X217757157Y-94744902D01*
X217737025Y-94859915D01*
X217736907Y-94860222D01*
X217657744Y-94927835D01*
X217574163Y-94933960D01*
X217535632Y-94936784D01*
X217429100Y-94892419D01*
X217394756Y-94828941D01*
X217378544Y-94698584D01*
X217372128Y-94664522D01*
X217477854Y-94664522D01*
X217511229Y-94756828D01*
X217574163Y-94789434D01*
X217591528Y-94782293D01*
X217649592Y-94687921D01*
X217633285Y-94574265D01*
X217596293Y-94534445D01*
X217516316Y-94542941D01*
X217496907Y-94565030D01*
X217477854Y-94664522D01*
X217372128Y-94664522D01*
X217370692Y-94656897D01*
X217348550Y-94536015D01*
X217347982Y-94531774D01*
X217315456Y-94520756D01*
X217279633Y-94563054D01*
X217243735Y-94700469D01*
X217251855Y-94761115D01*
X217250087Y-94868795D01*
X217223650Y-94902787D01*
X217159980Y-94893588D01*
X217123513Y-94799443D01*
X217122003Y-94659010D01*
X217150898Y-94540037D01*
X217208124Y-94435042D01*
X217301524Y-94387182D01*
X217474026Y-94375390D01*
X217486443Y-94375370D01*
X217656180Y-94381017D01*
G37*
G36*
X216523046Y-86286756D02*
G01*
X216518465Y-86648114D01*
X216509236Y-86975285D01*
X216496446Y-87243567D01*
X216481184Y-87428263D01*
X216469920Y-87493596D01*
X216272676Y-87933081D01*
X215975915Y-88314402D01*
X215597383Y-88623045D01*
X215154828Y-88844494D01*
X214672940Y-88963346D01*
X214264805Y-88961918D01*
X213837311Y-88866947D01*
X213424471Y-88693167D01*
X213060301Y-88455312D01*
X212778815Y-88168116D01*
X212752520Y-88131488D01*
X212622330Y-87933056D01*
X212526047Y-87752632D01*
X212458511Y-87565811D01*
X212414563Y-87348187D01*
X212389041Y-87075356D01*
X212376785Y-86722913D01*
X212372915Y-86336207D01*
X212368079Y-85272660D01*
X212884212Y-85254490D01*
X213400345Y-85236319D01*
X213400345Y-86173200D01*
X213404720Y-86517593D01*
X213416752Y-86830109D01*
X213434796Y-87083341D01*
X213457210Y-87249883D01*
X213467074Y-87286198D01*
X213549456Y-87444368D01*
X213663620Y-87598358D01*
X213777868Y-87710204D01*
X213849181Y-87743843D01*
X213868063Y-87685086D01*
X213883850Y-87524010D01*
X213895148Y-87283408D01*
X213900564Y-86986074D01*
X213900837Y-86899261D01*
X213900837Y-86054680D01*
X214432611Y-86054680D01*
X214964384Y-86054680D01*
X214964384Y-86934090D01*
X214964384Y-87813499D01*
X215095241Y-87721843D01*
X215213042Y-87630619D01*
X215300506Y-87532207D01*
X215362903Y-87406402D01*
X215405505Y-87232997D01*
X215433583Y-86991784D01*
X215452409Y-86662556D01*
X215464877Y-86304926D01*
X215496157Y-85272660D01*
X216012290Y-85254490D01*
X216528423Y-85236319D01*
X216523046Y-86286756D01*
G37*
G36*
X217104149Y-100697152D02*
G01*
X217155499Y-100725485D01*
X217325743Y-100816733D01*
X217447403Y-100876093D01*
X217587178Y-100980101D01*
X217652929Y-101066464D01*
X217752601Y-101168075D01*
X217836828Y-101194582D01*
X217946883Y-101251154D01*
X218029270Y-101380743D01*
X218094993Y-101504193D01*
X218165703Y-101527950D01*
X218224545Y-101503665D01*
X218308943Y-101461492D01*
X218330734Y-101473944D01*
X218291880Y-101562658D01*
X218239066Y-101663793D01*
X218066686Y-101919567D01*
X217848423Y-102141854D01*
X217621886Y-102294625D01*
X217549559Y-102324363D01*
X217411095Y-102385178D01*
X217343139Y-102444685D01*
X217341724Y-102452043D01*
X217296546Y-102536137D01*
X217179817Y-102669973D01*
X217019744Y-102827769D01*
X216844533Y-102983742D01*
X216682392Y-103112109D01*
X216561526Y-103187088D01*
X216527224Y-103196552D01*
X216380078Y-103170855D01*
X216253534Y-103125631D01*
X216132480Y-103090962D01*
X216007989Y-103117173D01*
X215859580Y-103195103D01*
X215621281Y-103335496D01*
X215744535Y-103198959D01*
X215839054Y-103051843D01*
X215876131Y-102926162D01*
X215920233Y-102658403D01*
X216008920Y-102403055D01*
X216124307Y-102205491D01*
X216184452Y-102144090D01*
X216318871Y-102000325D01*
X216400361Y-101859208D01*
X216499135Y-101723788D01*
X216596733Y-101695074D01*
X216694291Y-101670481D01*
X216699172Y-101575115D01*
X216695899Y-101561989D01*
X216702710Y-101411499D01*
X216757276Y-101282114D01*
X216838692Y-101123958D01*
X216915586Y-100923092D01*
X216927006Y-100886228D01*
X216977976Y-100731579D01*
X217026711Y-100675810D01*
X217104149Y-100697152D01*
G37*
G36*
X214449335Y-89372595D02*
G01*
X214853453Y-89537116D01*
X215209228Y-89812597D01*
X215359796Y-89974543D01*
X215469141Y-90129848D01*
X215544901Y-90303888D01*
X215594713Y-90522040D01*
X215626217Y-90809682D01*
X215647051Y-91192190D01*
X215650467Y-91278572D01*
X215683842Y-92154434D01*
X216106133Y-92172933D01*
X216528423Y-92191431D01*
X216528423Y-92689066D01*
X216528423Y-93186700D01*
X214463891Y-93186700D01*
X214015533Y-93186700D01*
X212399359Y-93186700D01*
X212399359Y-91927086D01*
X212401652Y-91426871D01*
X212402133Y-91407337D01*
X213462906Y-91407337D01*
X213462906Y-91408236D01*
X213462906Y-92185715D01*
X214015533Y-92185715D01*
X214268058Y-92180734D01*
X214471590Y-92167428D01*
X214594693Y-92148245D01*
X214614873Y-92139003D01*
X214631777Y-92061180D01*
X214642202Y-91885417D01*
X214645215Y-91638773D01*
X214640940Y-91382710D01*
X214630629Y-91074599D01*
X214617025Y-90865357D01*
X214594147Y-90728758D01*
X214556017Y-90638576D01*
X214496654Y-90568585D01*
X214444762Y-90522279D01*
X214212637Y-90398229D01*
X213949966Y-90374620D01*
X213700270Y-90452579D01*
X213627747Y-90501093D01*
X213559211Y-90559436D01*
X213512914Y-90622863D01*
X213484496Y-90715370D01*
X213469595Y-90860954D01*
X213463852Y-91083611D01*
X213462906Y-91407337D01*
X212402133Y-91407337D01*
X212411349Y-91032778D01*
X212432679Y-90725846D01*
X212469873Y-90487113D01*
X212527159Y-90297618D01*
X212608768Y-90138400D01*
X212718927Y-89990498D01*
X212861868Y-89834951D01*
X212867258Y-89829401D01*
X213084043Y-89627731D01*
X213285933Y-89498060D01*
X213525784Y-89407192D01*
X213551557Y-89399634D01*
X214011781Y-89325874D01*
X214449335Y-89372595D01*
G37*
G36*
X215642421Y-93584757D02*
G01*
X215974536Y-93754229D01*
X216069854Y-93830052D01*
X216209480Y-93961166D01*
X216317452Y-94091157D01*
X216397816Y-94238012D01*
X216454614Y-94419721D01*
X216491892Y-94654272D01*
X216513693Y-94959652D01*
X216524061Y-95353852D01*
X216527040Y-95854858D01*
X216527049Y-95863737D01*
X216528423Y-97195701D01*
X216012290Y-97177530D01*
X215496157Y-97159360D01*
X215464877Y-95876848D01*
X215454065Y-95446137D01*
X215444105Y-95124310D01*
X215432814Y-94895165D01*
X215418009Y-94742497D01*
X215397510Y-94650105D01*
X215369132Y-94601785D01*
X215330695Y-94581336D01*
X215289389Y-94573892D01*
X215169655Y-94567952D01*
X215083242Y-94600184D01*
X215024842Y-94686910D01*
X214989152Y-94844450D01*
X214970865Y-95089124D01*
X214964676Y-95437256D01*
X214964384Y-95573709D01*
X214958359Y-96003374D01*
X214936482Y-96332085D01*
X214893053Y-96583603D01*
X214822372Y-96781685D01*
X214718737Y-96950089D01*
X214601336Y-97086743D01*
X214294972Y-97325457D01*
X213945927Y-97457810D01*
X213577574Y-97483708D01*
X213213285Y-97403058D01*
X212876435Y-97215766D01*
X212737576Y-97094219D01*
X212608941Y-96950928D01*
X212509990Y-96798350D01*
X212437417Y-96618692D01*
X212387914Y-96394162D01*
X212358174Y-96106964D01*
X212344890Y-95739306D01*
X212344755Y-95273393D01*
X212348536Y-95000985D01*
X212368079Y-93843596D01*
X212884212Y-93825426D01*
X213400345Y-93807255D01*
X213400345Y-95053357D01*
X213401836Y-95510177D01*
X213408599Y-95856414D01*
X213424065Y-96106595D01*
X213451665Y-96275248D01*
X213494833Y-96376899D01*
X213557000Y-96426075D01*
X213641597Y-96437303D01*
X213725349Y-96429064D01*
X213780081Y-96417238D01*
X213819592Y-96387267D01*
X213847201Y-96320425D01*
X213866228Y-96197987D01*
X213879991Y-96001226D01*
X213891808Y-95711418D01*
X213900837Y-95438916D01*
X213915597Y-95050856D01*
X213933126Y-94764436D01*
X213956527Y-94556174D01*
X213988905Y-94402587D01*
X214033363Y-94280192D01*
X214061645Y-94222299D01*
X214288322Y-93912202D01*
X214583390Y-93688780D01*
X214923197Y-93556652D01*
X215284091Y-93520438D01*
X215642421Y-93584757D01*
G37*
G36*
X212726444Y-104637878D02*
G01*
X212938176Y-104684066D01*
X213249060Y-104759266D01*
X213286513Y-104768540D01*
X213451101Y-104835063D01*
X213541340Y-104922902D01*
X213545143Y-104933876D01*
X213568769Y-105008223D01*
X213578806Y-104959768D01*
X213580772Y-104931444D01*
X213612616Y-104855690D01*
X213715389Y-104849770D01*
X213760074Y-104858467D01*
X213913704Y-104891164D01*
X214011911Y-104924689D01*
X214062963Y-104983212D01*
X214075127Y-105090900D01*
X214056671Y-105271922D01*
X214015861Y-105550447D01*
X214010150Y-105589532D01*
X213971949Y-105821141D01*
X213925551Y-105950960D01*
X213846830Y-106001302D01*
X213711660Y-105994483D01*
X213595850Y-105972722D01*
X213510510Y-105942117D01*
X213452922Y-105921464D01*
X213447949Y-105912597D01*
X213397474Y-105822604D01*
X213391825Y-105769397D01*
X213383913Y-105659810D01*
X213371886Y-105670879D01*
X213355407Y-105751935D01*
X213323460Y-105846263D01*
X213251113Y-105875422D01*
X213098516Y-105855738D01*
X212983267Y-105829906D01*
X212905738Y-105812528D01*
X212862127Y-105787936D01*
X212810689Y-105758931D01*
X212787068Y-105668068D01*
X212801611Y-105552296D01*
X212812948Y-105486883D01*
X213410174Y-105486883D01*
X213420169Y-105523061D01*
X213447949Y-105546758D01*
X213457967Y-105485263D01*
X213446465Y-105404120D01*
X213425109Y-105403151D01*
X213410174Y-105486883D01*
X212812948Y-105486883D01*
X212835818Y-105354926D01*
X212765428Y-105542611D01*
X212712092Y-105678103D01*
X212679375Y-105749071D01*
X212678637Y-105750048D01*
X212616374Y-105747154D01*
X212484147Y-105719679D01*
X212330099Y-105680018D01*
X212202373Y-105640566D01*
X212149113Y-105613719D01*
X212168566Y-105542632D01*
X212218617Y-105389684D01*
X212262638Y-105261084D01*
X212846085Y-105261084D01*
X212862127Y-105295923D01*
X212899852Y-105229803D01*
X212916926Y-105174075D01*
X213472736Y-105174075D01*
X213482731Y-105210253D01*
X213510510Y-105233950D01*
X213520529Y-105172455D01*
X213509026Y-105091312D01*
X213487670Y-105090343D01*
X213472736Y-105174075D01*
X212916926Y-105174075D01*
X212944567Y-105083857D01*
X212953619Y-105010838D01*
X212937577Y-104975999D01*
X212899852Y-105042118D01*
X212855137Y-105188064D01*
X212846085Y-105261084D01*
X212262638Y-105261084D01*
X212286801Y-105190496D01*
X212360656Y-104980686D01*
X212406013Y-104855691D01*
X212975780Y-104855691D01*
X212983267Y-104864861D01*
X213020460Y-104856273D01*
X213024975Y-104823153D01*
X213002085Y-104771658D01*
X212983267Y-104781445D01*
X212975780Y-104855691D01*
X212406013Y-104855691D01*
X212427718Y-104795875D01*
X212475522Y-104671682D01*
X212489070Y-104642154D01*
X212521601Y-104620045D01*
X212594156Y-104617579D01*
X212726444Y-104637878D01*
G37*
G36*
X215939455Y-97838543D02*
G01*
X216360963Y-97908218D01*
X216484292Y-97941960D01*
X217035521Y-98175876D01*
X217533720Y-98513478D01*
X217964299Y-98939379D01*
X218312667Y-99438192D01*
X218564234Y-99994531D01*
X218627192Y-100201790D01*
X218699450Y-100622765D01*
X218715846Y-101093703D01*
X218677891Y-101561580D01*
X218587097Y-101973375D01*
X218575700Y-102007882D01*
X218312078Y-102602078D01*
X217960612Y-103116227D01*
X217531797Y-103543161D01*
X217036127Y-103875714D01*
X216484100Y-104106719D01*
X215886208Y-104229008D01*
X215395182Y-104237946D01*
X215307669Y-104239539D01*
X215043913Y-104214748D01*
X214807080Y-104180282D01*
X214642662Y-104142967D01*
X214626455Y-104137318D01*
X214495920Y-104094491D01*
X214432611Y-104086245D01*
X214430235Y-104085936D01*
X214429822Y-104086304D01*
X214416693Y-104150926D01*
X214390759Y-104319165D01*
X214389348Y-104329070D01*
X214354955Y-104570507D01*
X214312222Y-104884440D01*
X214274972Y-105167242D01*
X214228269Y-105517451D01*
X214185291Y-105822357D01*
X214149154Y-106061184D01*
X214122975Y-106213158D01*
X214111334Y-106258202D01*
X214044853Y-106254767D01*
X214005028Y-106248110D01*
X213880459Y-106227288D01*
X213641889Y-106181000D01*
X213352879Y-106121140D01*
X213037165Y-106052943D01*
X212718484Y-105981644D01*
X212420572Y-105912480D01*
X212167166Y-105850685D01*
X211982001Y-105801497D01*
X211888815Y-105770150D01*
X211883674Y-105766835D01*
X211892187Y-105699203D01*
X211906014Y-105651849D01*
X212049122Y-105651849D01*
X212066068Y-105696706D01*
X212081899Y-105706658D01*
X212200619Y-105743031D01*
X212402689Y-105794365D01*
X212662564Y-105855224D01*
X212954694Y-105920174D01*
X213253533Y-105983782D01*
X213533534Y-106040614D01*
X213769148Y-106085234D01*
X213934828Y-106112208D01*
X214005028Y-106116104D01*
X214005391Y-106115808D01*
X214025095Y-106044642D01*
X214055208Y-105875269D01*
X214092276Y-105633833D01*
X214132843Y-105346481D01*
X214173453Y-105039357D01*
X214210651Y-104738605D01*
X214240981Y-104470373D01*
X214260988Y-104260804D01*
X214267216Y-104136044D01*
X214267188Y-104134976D01*
X214255831Y-104110738D01*
X214230076Y-104192516D01*
X214195247Y-104362769D01*
X214191252Y-104385222D01*
X214148405Y-104589832D01*
X214105160Y-104733136D01*
X214071378Y-104783751D01*
X213838983Y-104737473D01*
X213760757Y-104708621D01*
X213706886Y-104688751D01*
X213698195Y-104679144D01*
X213650561Y-104626488D01*
X213643334Y-104590111D01*
X213634452Y-104512606D01*
X213615686Y-104557580D01*
X213607458Y-104588586D01*
X213533360Y-104661875D01*
X213367776Y-104656606D01*
X213233514Y-104615134D01*
X213197703Y-104604073D01*
X213150098Y-104589368D01*
X213108391Y-104576088D01*
X213023850Y-104549169D01*
X212883538Y-104528377D01*
X212759088Y-104519874D01*
X212650014Y-104499991D01*
X212599195Y-104441394D01*
X212600319Y-104417760D01*
X213100903Y-104417760D01*
X213108391Y-104426930D01*
X213145583Y-104418342D01*
X213150098Y-104385222D01*
X213139231Y-104360774D01*
X213660420Y-104360774D01*
X213670416Y-104396952D01*
X213698195Y-104420649D01*
X213708213Y-104359155D01*
X213696711Y-104278011D01*
X213675355Y-104277043D01*
X213660420Y-104360774D01*
X213139231Y-104360774D01*
X213127208Y-104333727D01*
X213108391Y-104343514D01*
X213100903Y-104417760D01*
X212600319Y-104417760D01*
X212604846Y-104322602D01*
X212649847Y-104173090D01*
X213159928Y-104173090D01*
X213169923Y-104209267D01*
X213197703Y-104232965D01*
X213207721Y-104171470D01*
X213196218Y-104090327D01*
X213174862Y-104089358D01*
X213159928Y-104173090D01*
X212649847Y-104173090D01*
X212665184Y-104122132D01*
X212692194Y-104047966D01*
X213722982Y-104047966D01*
X213732977Y-104084144D01*
X213760757Y-104107841D01*
X213770775Y-104046347D01*
X213759273Y-103965203D01*
X213737916Y-103964235D01*
X213722982Y-104047966D01*
X212692194Y-104047966D01*
X212714751Y-103986027D01*
X212717070Y-103979829D01*
X213226026Y-103979829D01*
X213233514Y-103988999D01*
X213270707Y-103980411D01*
X213275221Y-103947291D01*
X213252331Y-103895796D01*
X213233514Y-103905583D01*
X213226026Y-103979829D01*
X212717070Y-103979829D01*
X212842458Y-103644699D01*
X213043199Y-103705581D01*
X213236537Y-103756790D01*
X213400345Y-103789915D01*
X213559406Y-103818852D01*
X213768360Y-103862906D01*
X213838276Y-103878800D01*
X214084877Y-103930642D01*
X214234202Y-103942231D01*
X214308961Y-103908801D01*
X214331866Y-103825583D01*
X214331511Y-103775247D01*
X214320234Y-103676471D01*
X214299374Y-103701135D01*
X214294439Y-103718936D01*
X214247212Y-103796722D01*
X214138903Y-103808799D01*
X214067090Y-103797758D01*
X213885880Y-103764053D01*
X213884520Y-103763800D01*
X213744433Y-103737967D01*
X213616028Y-103712784D01*
X213421198Y-103672881D01*
X213415959Y-103671808D01*
X213358637Y-103659810D01*
X213254193Y-103637950D01*
X213054910Y-103593716D01*
X212949278Y-103546042D01*
X212947824Y-103541898D01*
X213351149Y-103541898D01*
X213358637Y-103551068D01*
X213395830Y-103542480D01*
X213400345Y-103509360D01*
X213389477Y-103484912D01*
X213848105Y-103484912D01*
X213858101Y-103521090D01*
X213885880Y-103544787D01*
X213895898Y-103483293D01*
X213884396Y-103402149D01*
X213863040Y-103401180D01*
X213848105Y-103484912D01*
X213389477Y-103484912D01*
X213377454Y-103457865D01*
X213358637Y-103467652D01*
X213351149Y-103541898D01*
X212947824Y-103541898D01*
X212920088Y-103462851D01*
X212941736Y-103354213D01*
X213413711Y-103354213D01*
X213421198Y-103363383D01*
X213458391Y-103354795D01*
X213462906Y-103321675D01*
X213440016Y-103270180D01*
X213421198Y-103279967D01*
X213413711Y-103354213D01*
X212941736Y-103354213D01*
X212950134Y-103312066D01*
X212995363Y-103155443D01*
X213014076Y-103074883D01*
X212991248Y-103106605D01*
X212928966Y-103245625D01*
X212829322Y-103486955D01*
X212694406Y-103825609D01*
X212526308Y-104256601D01*
X212440503Y-104479064D01*
X212284757Y-104887975D01*
X212171943Y-105195343D01*
X212097863Y-105415534D01*
X212058322Y-105562914D01*
X212049122Y-105651849D01*
X211906014Y-105651849D01*
X211941062Y-105531819D01*
X212024629Y-105281278D01*
X212137215Y-104964177D01*
X212273149Y-104597110D01*
X212372192Y-104337375D01*
X212907183Y-102949816D01*
X212902073Y-102941097D01*
X213026312Y-102941097D01*
X213104710Y-102967935D01*
X213211939Y-102959756D01*
X213365442Y-102962844D01*
X213439598Y-103038365D01*
X213439611Y-103038399D01*
X213488491Y-103102402D01*
X213524468Y-103073046D01*
X213613231Y-103029731D01*
X213744102Y-103047314D01*
X213861067Y-103109056D01*
X213908094Y-103187694D01*
X213918256Y-103255339D01*
X213939742Y-103199727D01*
X213941807Y-103192104D01*
X214008549Y-103122058D01*
X214150043Y-103120493D01*
X214293506Y-103172205D01*
X214359974Y-103297539D01*
X214366577Y-103328266D01*
X214389348Y-103441078D01*
X214394602Y-103436395D01*
X214385839Y-103310640D01*
X214385689Y-103308727D01*
X214370049Y-103108093D01*
X214359622Y-103105877D01*
X214109376Y-103052691D01*
X214057241Y-103041611D01*
X213869556Y-103001721D01*
X213731482Y-102972376D01*
X213464461Y-102919331D01*
X213245380Y-102882781D01*
X213101305Y-102866822D01*
X213058945Y-102870628D01*
X213026312Y-102941097D01*
X212902073Y-102941097D01*
X212749134Y-102680124D01*
X212487911Y-102119062D01*
X212342171Y-101539867D01*
X212317809Y-101142312D01*
X212442708Y-101142312D01*
X212527718Y-101739681D01*
X212726473Y-102305849D01*
X212740735Y-102335749D01*
X212835994Y-102525074D01*
X212901896Y-102641266D01*
X212928553Y-102667598D01*
X212925992Y-102649138D01*
X212913629Y-102501107D01*
X212938276Y-102368194D01*
X212988005Y-102291545D01*
X213029479Y-102292193D01*
X213083381Y-102280989D01*
X213087537Y-102257352D01*
X213127938Y-102158902D01*
X213181379Y-102092787D01*
X213238584Y-101986111D01*
X213269407Y-101835787D01*
X213271319Y-101687711D01*
X213241790Y-101587779D01*
X213210193Y-101569951D01*
X213189471Y-101534889D01*
X213225834Y-101482458D01*
X213293443Y-101432416D01*
X213331437Y-101493937D01*
X213337783Y-101517431D01*
X213388877Y-101608413D01*
X213431625Y-101620564D01*
X213478489Y-101561718D01*
X213475879Y-101546309D01*
X213475957Y-101545963D01*
X213713152Y-101545963D01*
X213766857Y-101564018D01*
X213869556Y-101569951D01*
X213987173Y-101551488D01*
X213999831Y-101539928D01*
X214352135Y-101539928D01*
X214359622Y-101549097D01*
X214396815Y-101540509D01*
X214401330Y-101507389D01*
X214378440Y-101455894D01*
X214359622Y-101465682D01*
X214352135Y-101539928D01*
X213999831Y-101539928D01*
X214025960Y-101516065D01*
X213973909Y-101485963D01*
X213869556Y-101492077D01*
X213752339Y-101522634D01*
X213713152Y-101545963D01*
X213475957Y-101545963D01*
X213491426Y-101477677D01*
X213600025Y-101477677D01*
X213633840Y-101439971D01*
X213692267Y-101314385D01*
X213702247Y-101288424D01*
X214025960Y-101288424D01*
X214057241Y-101319705D01*
X214088522Y-101288424D01*
X214057241Y-101257143D01*
X214025960Y-101288424D01*
X213702247Y-101288424D01*
X213726298Y-101225862D01*
X214401330Y-101225862D01*
X214432611Y-101257143D01*
X214463891Y-101225862D01*
X214432611Y-101194582D01*
X214401330Y-101225862D01*
X213726298Y-101225862D01*
X213738869Y-101193161D01*
X213774649Y-101101997D01*
X214101888Y-101101997D01*
X214109376Y-101111166D01*
X214146569Y-101102578D01*
X214151084Y-101069458D01*
X214128193Y-101017963D01*
X214109376Y-101027751D01*
X214101888Y-101101997D01*
X213774649Y-101101997D01*
X213804342Y-101026342D01*
X213872579Y-100930083D01*
X213972895Y-100894452D01*
X214134608Y-100909517D01*
X214387035Y-100965346D01*
X214401330Y-100968737D01*
X214745418Y-101050398D01*
X214735504Y-101388377D01*
X214733017Y-101566173D01*
X214741171Y-101628312D01*
X214762384Y-101583987D01*
X214775024Y-101538670D01*
X214815152Y-101327925D01*
X214831859Y-101156510D01*
X214831284Y-101057789D01*
X214822323Y-101037502D01*
X214803443Y-100994760D01*
X214723044Y-100952477D01*
X214564792Y-100915991D01*
X214557734Y-100914752D01*
X214365676Y-100881026D01*
X214127417Y-100837815D01*
X213989288Y-100801320D01*
X213927746Y-100759259D01*
X213924857Y-100738893D01*
X214848410Y-100738893D01*
X214858468Y-100802381D01*
X214878382Y-100827894D01*
X214889214Y-100744798D01*
X214889626Y-100725370D01*
X214882864Y-100618526D01*
X214863279Y-100609119D01*
X214860786Y-100614696D01*
X214848410Y-100738893D01*
X213924857Y-100738893D01*
X213919247Y-100699352D01*
X213926921Y-100662808D01*
X214526453Y-100662808D01*
X214557734Y-100694089D01*
X214589015Y-100662808D01*
X214557734Y-100631527D01*
X214526453Y-100662808D01*
X213926921Y-100662808D01*
X213928937Y-100653210D01*
X213948456Y-100541737D01*
X213941690Y-100506404D01*
X213907955Y-100560459D01*
X213849225Y-100699812D01*
X213777536Y-100890243D01*
X213704925Y-101097533D01*
X213643431Y-101287461D01*
X213605091Y-101425810D01*
X213600025Y-101477677D01*
X213491426Y-101477677D01*
X213491673Y-101476585D01*
X213543259Y-101315543D01*
X213621347Y-101088584D01*
X213716644Y-100821108D01*
X213819861Y-100538517D01*
X213859798Y-100431736D01*
X213972490Y-100431736D01*
X214009851Y-100393373D01*
X214013134Y-100388793D01*
X214064539Y-100345826D01*
X214154547Y-100335462D01*
X214313322Y-100358077D01*
X214485937Y-100394720D01*
X214686009Y-100433831D01*
X214822323Y-100449241D01*
X214866717Y-100437852D01*
X214866036Y-100436552D01*
X214802767Y-100401770D01*
X214789204Y-100394314D01*
X214639168Y-100354239D01*
X214602460Y-100347598D01*
X214526453Y-100332359D01*
X214393822Y-100305766D01*
X214205984Y-100257078D01*
X214198005Y-100254586D01*
X214157427Y-100244006D01*
X214109376Y-100231477D01*
X214075657Y-100222685D01*
X214025960Y-100223015D01*
X214009147Y-100293975D01*
X213988778Y-100360524D01*
X213972490Y-100431736D01*
X213859798Y-100431736D01*
X213921705Y-100266211D01*
X213985364Y-100101011D01*
X214101888Y-100101011D01*
X214109376Y-100110181D01*
X214146569Y-100101593D01*
X214151084Y-100068473D01*
X214128193Y-100016978D01*
X214109376Y-100026765D01*
X214101888Y-100101011D01*
X213985364Y-100101011D01*
X214012886Y-100029591D01*
X214028564Y-99990954D01*
X214741272Y-99990954D01*
X214802767Y-100000972D01*
X214883910Y-99989470D01*
X214884879Y-99968114D01*
X214801147Y-99953179D01*
X214764969Y-99963175D01*
X214741272Y-99990954D01*
X214028564Y-99990954D01*
X214055071Y-99925627D01*
X214157427Y-99925627D01*
X214161611Y-99924751D01*
X214440392Y-99924751D01*
X214526453Y-99933472D01*
X214615267Y-99923640D01*
X214604655Y-99901917D01*
X214476570Y-99893654D01*
X214448251Y-99901917D01*
X214440392Y-99924751D01*
X214161611Y-99924751D01*
X214220115Y-99912501D01*
X214231984Y-99908047D01*
X214308593Y-99858486D01*
X214309143Y-99830309D01*
X214242962Y-99837327D01*
X214196962Y-99873025D01*
X214157427Y-99925627D01*
X214055071Y-99925627D01*
X214084112Y-99854058D01*
X214126093Y-99765012D01*
X214128837Y-99761208D01*
X214197556Y-99757872D01*
X214349987Y-99776960D01*
X214548311Y-99811120D01*
X214754712Y-99853000D01*
X214931373Y-99895247D01*
X215040477Y-99930510D01*
X215057206Y-99941698D01*
X215057972Y-100014683D01*
X215043450Y-100188475D01*
X215016020Y-100440015D01*
X214978066Y-100746242D01*
X214960208Y-100880825D01*
X214878382Y-101486138D01*
X214838633Y-101780184D01*
X214976618Y-101927062D01*
X215052860Y-102019616D01*
X215084027Y-102111562D01*
X215075520Y-102245512D01*
X215040199Y-102428665D01*
X215002115Y-102642569D01*
X215000807Y-102765939D01*
X215036499Y-102827907D01*
X215043291Y-102832609D01*
X215074837Y-102872713D01*
X215011305Y-102882786D01*
X214919224Y-102934504D01*
X214901822Y-103010831D01*
X214861056Y-103131130D01*
X214807980Y-103173928D01*
X214741171Y-103242873D01*
X214726532Y-103257980D01*
X214728086Y-103380550D01*
X214808465Y-103490404D01*
X214835148Y-103507159D01*
X214992673Y-103557681D01*
X215123972Y-103571921D01*
X215243557Y-103553752D01*
X215267585Y-103484723D01*
X215261761Y-103457109D01*
X215262204Y-103374995D01*
X215346152Y-103364846D01*
X215378481Y-103370348D01*
X215525225Y-103398400D01*
X215385568Y-103580503D01*
X215302145Y-103679078D01*
X215219011Y-103729936D01*
X215096909Y-103743865D01*
X214896580Y-103731654D01*
X214850259Y-103727607D01*
X214636278Y-103711022D01*
X214519853Y-103714503D01*
X214474025Y-103745787D01*
X214471837Y-103812613D01*
X214474890Y-103835360D01*
X214512772Y-103929392D01*
X214614184Y-103994653D01*
X214807980Y-104050538D01*
X215395182Y-104126097D01*
X215975569Y-104087528D01*
X216534076Y-103943714D01*
X217055633Y-103703539D01*
X217525175Y-103375886D01*
X217927634Y-102969638D01*
X218247943Y-102493679D01*
X218471034Y-101956892D01*
X218493600Y-101877583D01*
X218558367Y-101521007D01*
X218585116Y-101108630D01*
X218573889Y-100691538D01*
X218524728Y-100320814D01*
X218492212Y-100189311D01*
X218291733Y-99655440D01*
X218030751Y-99220136D01*
X217696167Y-98866170D01*
X217274879Y-98576313D01*
X217259050Y-98567476D01*
X217004143Y-98434735D01*
X216806170Y-98358414D01*
X216618848Y-98324213D01*
X216450221Y-98317576D01*
X216247672Y-98320684D01*
X216140204Y-98339967D01*
X216097814Y-98388568D01*
X216090492Y-98475162D01*
X216114904Y-98640081D01*
X216174608Y-98834106D01*
X216183919Y-98857178D01*
X216239638Y-99020424D01*
X216231906Y-99142504D01*
X216149588Y-99273137D01*
X216070280Y-99364655D01*
X215881745Y-99484614D01*
X215739191Y-99505419D01*
X215587483Y-99522528D01*
X215498844Y-99563994D01*
X215496845Y-99566868D01*
X215425195Y-99574226D01*
X215284636Y-99514972D01*
X215208584Y-99470321D01*
X215022235Y-99360771D01*
X214853283Y-99274407D01*
X214807496Y-99254989D01*
X214683733Y-99163838D01*
X214562939Y-99008270D01*
X214536326Y-98960526D01*
X214464298Y-98800752D01*
X214453399Y-98697004D01*
X214499647Y-98598464D01*
X214507073Y-98587222D01*
X214561263Y-98481114D01*
X214535448Y-98395869D01*
X214461591Y-98314449D01*
X214350136Y-98224258D01*
X214252224Y-98222299D01*
X214178468Y-98256272D01*
X214073809Y-98337551D01*
X214044591Y-98403922D01*
X214003393Y-98460714D01*
X213932043Y-98475481D01*
X213781877Y-98502914D01*
X213688303Y-98564212D01*
X213682218Y-98630117D01*
X213755289Y-98643502D01*
X213894620Y-98608713D01*
X213936228Y-98592527D01*
X214156570Y-98500462D01*
X214052789Y-98658852D01*
X213996289Y-98774038D01*
X214018671Y-98817242D01*
X214018765Y-98817242D01*
X214084525Y-98768548D01*
X214088522Y-98744253D01*
X214113105Y-98701611D01*
X214128718Y-98711460D01*
X214127157Y-98784656D01*
X214085819Y-98851779D01*
X214034975Y-98940793D01*
X214083110Y-99002616D01*
X214092545Y-99008737D01*
X214228998Y-99056865D01*
X214315831Y-99066530D01*
X214441431Y-99110184D01*
X214484779Y-99209043D01*
X214439074Y-99318495D01*
X214362469Y-99372366D01*
X214253680Y-99409144D01*
X214216501Y-99367989D01*
X214213645Y-99316393D01*
X214200843Y-99218709D01*
X214147937Y-99205480D01*
X214033179Y-99277236D01*
X213974763Y-99322223D01*
X213869556Y-99386736D01*
X213846173Y-99401074D01*
X213786075Y-99379868D01*
X213785031Y-99376965D01*
X213729316Y-99286453D01*
X213838276Y-99286453D01*
X213869556Y-99317734D01*
X213900837Y-99286453D01*
X213869556Y-99255173D01*
X213838276Y-99286453D01*
X213729316Y-99286453D01*
X213724301Y-99278306D01*
X213641337Y-99183357D01*
X213527130Y-99103801D01*
X213413279Y-99123430D01*
X213398911Y-99130817D01*
X213299912Y-99222362D01*
X213275221Y-99292870D01*
X213234581Y-99360499D01*
X213162171Y-99352847D01*
X213033704Y-99372675D01*
X212887807Y-99488043D01*
X212746006Y-99675588D01*
X212629829Y-99911947D01*
X212618469Y-99942941D01*
X212472579Y-100535984D01*
X212442708Y-101142312D01*
X212317809Y-101142312D01*
X212306413Y-100956339D01*
X212375138Y-100382275D01*
X212542849Y-99831474D01*
X212804045Y-99317734D01*
X213153229Y-98854854D01*
X213584901Y-98456631D01*
X214093562Y-98136865D01*
X214647291Y-97917076D01*
X215031403Y-97842279D01*
X215479197Y-97816332D01*
X215939455Y-97838543D01*
G37*
D12*
X190065000Y-75260000D02*
X190065000Y-76510000D01*
X190065000Y-76510000D02*
X191315000Y-76510000D01*
X190365000Y-63490000D02*
X190365000Y-67150000D01*
X190365000Y-67150000D02*
X191365000Y-67150000D01*
X190365000Y-72550000D02*
X190365000Y-76210000D01*
X190365000Y-76210000D02*
X196985000Y-76210000D01*
X190765000Y-69050000D02*
X190765000Y-70650000D01*
X190765000Y-70650000D02*
X191365000Y-70650000D01*
X191365000Y-67150000D02*
X191365000Y-69050000D01*
X191365000Y-69050000D02*
X190765000Y-69050000D01*
X191365000Y-70650000D02*
X191365000Y-72550000D01*
X191365000Y-72550000D02*
X190365000Y-72550000D01*
X191975000Y-64500000D02*
X191975000Y-75200000D01*
X191975000Y-75200000D02*
X196275000Y-75200000D01*
X193675000Y-63490000D02*
X193675000Y-64500000D01*
X193675000Y-76210000D02*
X193675000Y-75200000D01*
X196275000Y-64500000D02*
X191975000Y-64500000D01*
X196275000Y-75200000D02*
X196275000Y-64500000D01*
X196985000Y-63490000D02*
X190365000Y-63490000D01*
X196985000Y-76210000D02*
X196985000Y-63490000D01*
X197790000Y-113775000D02*
X197790000Y-116275000D01*
X197790000Y-116275000D02*
X200290000Y-116275000D01*
X198090000Y-111955000D02*
X198090000Y-115975000D01*
X198090000Y-113665000D02*
X198590000Y-113665000D01*
X198090000Y-114475000D02*
X199090000Y-114475000D01*
X198090000Y-115975000D02*
X205810000Y-115975000D01*
X198590000Y-112455000D02*
X205310000Y-112455000D01*
X198590000Y-113665000D02*
X198590000Y-112455000D01*
X199090000Y-114475000D02*
X199090000Y-115975000D01*
X204810000Y-114475000D02*
X204810000Y-115975000D01*
X205310000Y-112455000D02*
X205310000Y-113665000D01*
X205310000Y-113665000D02*
X205810000Y-113665000D01*
X205810000Y-111955000D02*
X198090000Y-111955000D01*
X205810000Y-114475000D02*
X204810000Y-114475000D01*
X205810000Y-115975000D02*
X205810000Y-111955000D01*
%LPC*%
D14*
X241935000Y-113665000D03*
D15*
X240284000Y-78994000D03*
D16*
X240284000Y-76494000D03*
D17*
X192560000Y-97900000D03*
D18*
X195100000Y-97900000D03*
X197640000Y-97900000D03*
X200180000Y-97900000D03*
X202720000Y-97900000D03*
X205260000Y-97900000D03*
D19*
X215900000Y-58420000D03*
D20*
X218400000Y-58420000D03*
X220900000Y-58420000D03*
D21*
X241300000Y-98465000D03*
D22*
X241300000Y-100965000D03*
X241300000Y-103465000D03*
X241300000Y-105965000D03*
D21*
X241300000Y-85892000D03*
D22*
X241300000Y-88392000D03*
X241300000Y-90892000D03*
D17*
X241046000Y-65024000D03*
D18*
X241046000Y-67564000D03*
X241046000Y-70104000D03*
D14*
X193040000Y-113665000D03*
X193040000Y-57785000D03*
X241935000Y-57785000D03*
D23*
X193675000Y-73600000D03*
D22*
X193675000Y-71100000D03*
X193675000Y-68600000D03*
X193675000Y-66100000D03*
D24*
X200700000Y-113665000D03*
D25*
X203200000Y-113665000D03*
D26*
X234840000Y-71440000D03*
D27*
X234840000Y-73980000D03*
X234840000Y-76520000D03*
X234840000Y-79060000D03*
X234840000Y-81600000D03*
X234840000Y-84140000D03*
X234840000Y-86680000D03*
X234840000Y-89220000D03*
X234840000Y-91760000D03*
X234840000Y-94300000D03*
X234840000Y-96840000D03*
X234840000Y-99380000D03*
X234840000Y-101920000D03*
X234840000Y-104460000D03*
X234840000Y-107000000D03*
X209440000Y-107000000D03*
X209440000Y-104460000D03*
X209440000Y-101920000D03*
X209440000Y-99380000D03*
X209440000Y-96840000D03*
X209440000Y-94300000D03*
X209440000Y-91760000D03*
X209440000Y-89220000D03*
X209440000Y-86680000D03*
X209440000Y-84140000D03*
X209440000Y-81600000D03*
X209440000Y-79060000D03*
X209440000Y-76520000D03*
X209440000Y-73980000D03*
X209440000Y-71440000D03*
%LPD*%
M02*
