G04 #@! TF.GenerationSoftware,KiCad,Pcbnew,9.0.0*
G04 #@! TF.CreationDate,2025-06-18T16:48:56-04:00*
G04 #@! TF.ProjectId,top_board,746f705f-626f-4617-9264-2e6b69636164,rev?*
G04 #@! TF.SameCoordinates,Original*
G04 #@! TF.FileFunction,Soldermask,Top*
G04 #@! TF.FilePolarity,Negative*
%FSLAX46Y46*%
G04 Gerber Fmt 4.6, Leading zero omitted, Abs format (unit mm)*
G04 Created by KiCad (PCBNEW 9.0.0) date 2025-06-18 16:48:56*
%MOMM*%
%LPD*%
G01*
G04 APERTURE LIST*
G04 Aperture macros list*
%AMRoundRect*
0 Rectangle with rounded corners*
0 $1 Rounding radius*
0 $2 $3 $4 $5 $6 $7 $8 $9 X,Y pos of 4 corners*
0 Add a 4 corners polygon primitive as box body*
4,1,4,$2,$3,$4,$5,$6,$7,$8,$9,$2,$3,0*
0 Add four circle primitives for the rounded corners*
1,1,$1+$1,$2,$3*
1,1,$1+$1,$4,$5*
1,1,$1+$1,$6,$7*
1,1,$1+$1,$8,$9*
0 Add four rect primitives between the rounded corners*
20,1,$1+$1,$2,$3,$4,$5,0*
20,1,$1+$1,$4,$5,$6,$7,0*
20,1,$1+$1,$6,$7,$8,$9,0*
20,1,$1+$1,$8,$9,$2,$3,0*%
G04 Aperture macros list end*
%ADD10C,3.200000*%
%ADD11RoundRect,0.250000X0.750000X-0.600000X0.750000X0.600000X-0.750000X0.600000X-0.750000X-0.600000X0*%
%ADD12O,2.000000X1.700000*%
%ADD13R,1.700000X1.700000*%
%ADD14O,1.700000X1.700000*%
%ADD15RoundRect,0.250000X-0.600000X-0.725000X0.600000X-0.725000X0.600000X0.725000X-0.600000X0.725000X0*%
%ADD16O,1.700000X1.950000*%
%ADD17RoundRect,0.250000X-0.725000X0.600000X-0.725000X-0.600000X0.725000X-0.600000X0.725000X0.600000X0*%
%ADD18O,1.950000X1.700000*%
%ADD19RoundRect,0.250000X0.725000X-0.600000X0.725000X0.600000X-0.725000X0.600000X-0.725000X-0.600000X0*%
%ADD20RoundRect,0.250000X-0.600000X-0.750000X0.600000X-0.750000X0.600000X0.750000X-0.600000X0.750000X0*%
%ADD21O,1.700000X2.000000*%
%ADD22R,1.524000X1.524000*%
%ADD23C,1.524000*%
G04 APERTURE END LIST*
D10*
X241935000Y-113665000D03*
D11*
X240284000Y-78994000D03*
D12*
X240284000Y-76494000D03*
D13*
X192560000Y-97900000D03*
D14*
X195100000Y-97900000D03*
X197640000Y-97900000D03*
X200180000Y-97900000D03*
X202720000Y-97900000D03*
X205260000Y-97900000D03*
D15*
X215900000Y-58420000D03*
D16*
X218400000Y-58420000D03*
X220900000Y-58420000D03*
D17*
X241300000Y-98465000D03*
D18*
X241300000Y-100965000D03*
X241300000Y-103465000D03*
X241300000Y-105965000D03*
D17*
X241300000Y-85892000D03*
D18*
X241300000Y-88392000D03*
X241300000Y-90892000D03*
D13*
X241046000Y-65024000D03*
D14*
X241046000Y-67564000D03*
X241046000Y-70104000D03*
D10*
X193040000Y-113665000D03*
X193040000Y-57785000D03*
X241935000Y-57785000D03*
D19*
X193675000Y-73600000D03*
D18*
X193675000Y-71100000D03*
X193675000Y-68600000D03*
X193675000Y-66100000D03*
D20*
X200700000Y-113665000D03*
D21*
X203200000Y-113665000D03*
D22*
X234840000Y-71440000D03*
D23*
X234840000Y-73980000D03*
X234840000Y-76520000D03*
X234840000Y-79060000D03*
X234840000Y-81600000D03*
X234840000Y-84140000D03*
X234840000Y-86680000D03*
X234840000Y-89220000D03*
X234840000Y-91760000D03*
X234840000Y-94300000D03*
X234840000Y-96840000D03*
X234840000Y-99380000D03*
X234840000Y-101920000D03*
X234840000Y-104460000D03*
X234840000Y-107000000D03*
X209440000Y-107000000D03*
X209440000Y-104460000D03*
X209440000Y-101920000D03*
X209440000Y-99380000D03*
X209440000Y-96840000D03*
X209440000Y-94300000D03*
X209440000Y-91760000D03*
X209440000Y-89220000D03*
X209440000Y-86680000D03*
X209440000Y-84140000D03*
X209440000Y-81600000D03*
X209440000Y-79060000D03*
X209440000Y-76520000D03*
X209440000Y-73980000D03*
X209440000Y-71440000D03*
M02*
