M48
; DRILL file {KiCad 9.0.0} date 2025-06-18T16:49:14-0400
; FORMAT={-:-/ absolute / metric / decimal}
; #@! TF.CreationDate,2025-06-18T16:49:14-04:00
; #@! TF.GenerationSoftware,Kicad,Pcbnew,9.0.0
; #@! TF.FileFunction,Plated,1,2,PTH
FMAT,2
METRIC
; #@! TA.AperFunction,Plated,PTH,ViaDrill
T1C0.400
; #@! TA.AperFunction,Plated,PTH,ComponentDrill
T2C0.762
; #@! TA.AperFunction,Plated,PTH,ComponentDrill
T3C0.950
; #@! TA.AperFunction,Plated,PTH,ComponentDrill
T4C1.000
%
G90
G05
T1
X201.59Y-70.5
X208.74Y-114.1
X215.84Y-107.0
T2
X209.44Y-71.44
X209.44Y-73.98
X209.44Y-76.52
X209.44Y-79.06
X209.44Y-81.6
X209.44Y-84.14
X209.44Y-86.68
X209.44Y-89.22
X209.44Y-91.76
X209.44Y-94.3
X209.44Y-96.84
X209.44Y-99.38
X209.44Y-101.92
X209.44Y-104.46
X209.44Y-107.0
X234.84Y-71.44
X234.84Y-73.98
X234.84Y-76.52
X234.84Y-79.06
X234.84Y-81.6
X234.84Y-84.14
X234.84Y-86.68
X234.84Y-89.22
X234.84Y-91.76
X234.84Y-94.3
X234.84Y-96.84
X234.84Y-99.38
X234.84Y-101.92
X234.84Y-104.46
X234.84Y-107.0
T3
X193.675Y-66.1
X193.675Y-68.6
X193.675Y-71.1
X193.675Y-73.6
X215.9Y-58.42
X218.4Y-58.42
X220.9Y-58.42
X241.3Y-85.892
X241.3Y-88.392
X241.3Y-90.892
X241.3Y-98.465
X241.3Y-100.965
X241.3Y-103.465
X241.3Y-105.965
T4
X192.56Y-97.9
X195.1Y-97.9
X197.64Y-97.9
X200.18Y-97.9
X200.7Y-113.665
X202.72Y-97.9
X203.2Y-113.665
X205.26Y-97.9
X240.284Y-76.494
X240.284Y-78.994
X241.046Y-65.024
X241.046Y-67.564
X241.046Y-70.104
M30
