G04 #@! TF.GenerationSoftware,KiCad,Pcbnew,9.0.0*
G04 #@! TF.CreationDate,2025-06-18T16:48:56-04:00*
G04 #@! TF.ProjectId,top_board,746f705f-626f-4617-9264-2e6b69636164,rev?*
G04 #@! TF.SameCoordinates,Original*
G04 #@! TF.FileFunction,Copper,L2,Bot*
G04 #@! TF.FilePolarity,Positive*
%FSLAX46Y46*%
G04 Gerber Fmt 4.6, Leading zero omitted, Abs format (unit mm)*
G04 Created by KiCad (PCBNEW 9.0.0) date 2025-06-18 16:48:56*
%MOMM*%
%LPD*%
G01*
G04 APERTURE LIST*
G04 Aperture macros list*
%AMRoundRect*
0 Rectangle with rounded corners*
0 $1 Rounding radius*
0 $2 $3 $4 $5 $6 $7 $8 $9 X,Y pos of 4 corners*
0 Add a 4 corners polygon primitive as box body*
4,1,4,$2,$3,$4,$5,$6,$7,$8,$9,$2,$3,0*
0 Add four circle primitives for the rounded corners*
1,1,$1+$1,$2,$3*
1,1,$1+$1,$4,$5*
1,1,$1+$1,$6,$7*
1,1,$1+$1,$8,$9*
0 Add four rect primitives between the rounded corners*
20,1,$1+$1,$2,$3,$4,$5,0*
20,1,$1+$1,$4,$5,$6,$7,0*
20,1,$1+$1,$6,$7,$8,$9,0*
20,1,$1+$1,$8,$9,$2,$3,0*%
G04 Aperture macros list end*
G04 #@! TA.AperFunction,ComponentPad*
%ADD10RoundRect,0.250000X0.750000X-0.600000X0.750000X0.600000X-0.750000X0.600000X-0.750000X-0.600000X0*%
G04 #@! TD*
G04 #@! TA.AperFunction,ComponentPad*
%ADD11O,2.000000X1.700000*%
G04 #@! TD*
G04 #@! TA.AperFunction,ComponentPad*
%ADD12R,1.700000X1.700000*%
G04 #@! TD*
G04 #@! TA.AperFunction,ComponentPad*
%ADD13O,1.700000X1.700000*%
G04 #@! TD*
G04 #@! TA.AperFunction,ComponentPad*
%ADD14RoundRect,0.250000X-0.600000X-0.725000X0.600000X-0.725000X0.600000X0.725000X-0.600000X0.725000X0*%
G04 #@! TD*
G04 #@! TA.AperFunction,ComponentPad*
%ADD15O,1.700000X1.950000*%
G04 #@! TD*
G04 #@! TA.AperFunction,ComponentPad*
%ADD16RoundRect,0.250000X-0.725000X0.600000X-0.725000X-0.600000X0.725000X-0.600000X0.725000X0.600000X0*%
G04 #@! TD*
G04 #@! TA.AperFunction,ComponentPad*
%ADD17O,1.950000X1.700000*%
G04 #@! TD*
G04 #@! TA.AperFunction,ComponentPad*
%ADD18RoundRect,0.250000X0.725000X-0.600000X0.725000X0.600000X-0.725000X0.600000X-0.725000X-0.600000X0*%
G04 #@! TD*
G04 #@! TA.AperFunction,ComponentPad*
%ADD19RoundRect,0.250000X-0.600000X-0.750000X0.600000X-0.750000X0.600000X0.750000X-0.600000X0.750000X0*%
G04 #@! TD*
G04 #@! TA.AperFunction,ComponentPad*
%ADD20O,1.700000X2.000000*%
G04 #@! TD*
G04 #@! TA.AperFunction,SMDPad,CuDef*
%ADD21RoundRect,0.150000X-0.150000X-0.600000X0.150000X-0.600000X0.150000X0.600000X-0.150000X0.600000X0*%
G04 #@! TD*
G04 #@! TA.AperFunction,SMDPad,CuDef*
%ADD22RoundRect,0.250000X-0.375000X-0.650000X0.375000X-0.650000X0.375000X0.650000X-0.375000X0.650000X0*%
G04 #@! TD*
G04 #@! TA.AperFunction,SMDPad,CuDef*
%ADD23R,1.310000X0.650000*%
G04 #@! TD*
G04 #@! TA.AperFunction,SMDPad,CuDef*
%ADD24R,1.310000X0.600000*%
G04 #@! TD*
G04 #@! TA.AperFunction,SMDPad,CuDef*
%ADD25R,1.325000X1.500000*%
G04 #@! TD*
G04 #@! TA.AperFunction,SMDPad,CuDef*
%ADD26RoundRect,0.250000X0.350000X0.450000X-0.350000X0.450000X-0.350000X-0.450000X0.350000X-0.450000X0*%
G04 #@! TD*
G04 #@! TA.AperFunction,ComponentPad*
%ADD27R,1.524000X1.524000*%
G04 #@! TD*
G04 #@! TA.AperFunction,ComponentPad*
%ADD28C,1.524000*%
G04 #@! TD*
G04 #@! TA.AperFunction,ViaPad*
%ADD29C,0.800000*%
G04 #@! TD*
G04 #@! TA.AperFunction,Conductor*
%ADD30C,0.550000*%
G04 #@! TD*
G04 #@! TA.AperFunction,Conductor*
%ADD31C,1.000000*%
G04 #@! TD*
G04 #@! TA.AperFunction,Conductor*
%ADD32C,0.750000*%
G04 #@! TD*
G04 APERTURE END LIST*
D10*
X240284000Y-78994000D03*
D11*
X240284000Y-76494000D03*
D12*
X192560000Y-97900000D03*
D13*
X195100000Y-97900000D03*
X197640000Y-97900000D03*
X200180000Y-97900000D03*
X202720000Y-97900000D03*
X205260000Y-97900000D03*
D14*
X215900000Y-58420000D03*
D15*
X218400000Y-58420000D03*
X220900000Y-58420000D03*
D16*
X241300000Y-98465000D03*
D17*
X241300000Y-100965000D03*
X241300000Y-103465000D03*
X241300000Y-105965000D03*
D16*
X241300000Y-85892000D03*
D17*
X241300000Y-88392000D03*
X241300000Y-90892000D03*
D12*
X241046000Y-65024000D03*
D13*
X241046000Y-67564000D03*
X241046000Y-70104000D03*
D18*
X193675000Y-73600000D03*
D17*
X193675000Y-71100000D03*
X193675000Y-68600000D03*
X193675000Y-66100000D03*
D19*
X200700000Y-113665000D03*
D20*
X203200000Y-113665000D03*
D21*
X195240000Y-107850000D03*
X196740000Y-107850000D03*
X198240000Y-107850000D03*
X199740000Y-107850000D03*
X201240000Y-107850000D03*
X202740000Y-107850000D03*
D22*
X192635000Y-102410000D03*
X205345000Y-102410000D03*
D23*
X204530000Y-68595000D03*
X204530000Y-69865000D03*
X204530000Y-71135000D03*
D24*
X204530000Y-72405000D03*
D23*
X198840000Y-72405000D03*
X198840000Y-71135000D03*
X198840000Y-69865000D03*
X198840000Y-68595000D03*
D25*
X202347500Y-71250000D03*
X202347500Y-69750000D03*
X201022500Y-71250000D03*
X201022500Y-69750000D03*
D21*
X202235000Y-62440000D03*
X203735000Y-62440000D03*
X205235000Y-62440000D03*
X206735000Y-62440000D03*
D22*
X199630000Y-57000000D03*
X209340000Y-57000000D03*
D26*
X203090000Y-78000000D03*
X201090000Y-78000000D03*
D27*
X234840000Y-71440000D03*
D28*
X234840000Y-73980000D03*
X234840000Y-76520000D03*
X234840000Y-79060000D03*
X234840000Y-81600000D03*
X234840000Y-84140000D03*
X234840000Y-86680000D03*
X234840000Y-89220000D03*
X234840000Y-91760000D03*
X234840000Y-94300000D03*
X234840000Y-96840000D03*
X234840000Y-99380000D03*
X234840000Y-101920000D03*
X234840000Y-104460000D03*
X234840000Y-107000000D03*
X209440000Y-107000000D03*
X209440000Y-104460000D03*
X209440000Y-101920000D03*
X209440000Y-99380000D03*
X209440000Y-96840000D03*
X209440000Y-94300000D03*
X209440000Y-91760000D03*
X209440000Y-89220000D03*
X209440000Y-86680000D03*
X209440000Y-84140000D03*
X209440000Y-81600000D03*
X209440000Y-79060000D03*
X209440000Y-76520000D03*
X209440000Y-73980000D03*
X209440000Y-71440000D03*
D29*
X201590000Y-70500000D03*
X215840000Y-107000000D03*
X208740000Y-114100000D03*
D30*
X198240000Y-107600000D02*
X198240000Y-98500000D01*
X198240000Y-98500000D02*
X197640000Y-97900000D01*
D31*
X198240000Y-111205000D02*
X198240000Y-107850000D01*
X200700000Y-113665000D02*
X198240000Y-111205000D01*
X191135000Y-69215000D02*
X191770000Y-68580000D01*
D30*
X195240000Y-100580000D02*
X192560000Y-97900000D01*
D31*
X192560000Y-97900000D02*
X191135000Y-96475000D01*
X191135000Y-96475000D02*
X191135000Y-69215000D01*
X191770000Y-68580000D02*
X193655000Y-68580000D01*
X193655000Y-68580000D02*
X193675000Y-68600000D01*
D30*
X195240000Y-107600000D02*
X195240000Y-100580000D01*
D31*
X195140000Y-97860000D02*
X195100000Y-97900000D01*
D30*
X196740000Y-99540000D02*
X195100000Y-97900000D01*
D31*
X195205000Y-66100000D02*
X195840000Y-66735000D01*
X195840000Y-66735000D02*
X195840000Y-90300000D01*
X193675000Y-66100000D02*
X195205000Y-66100000D01*
X195840000Y-90300000D02*
X195140000Y-91000000D01*
D30*
X196740000Y-107600000D02*
X196740000Y-99540000D01*
D31*
X195140000Y-91000000D02*
X195140000Y-97860000D01*
D32*
X237840000Y-107250000D02*
X237840000Y-100000000D01*
X215840000Y-107000000D02*
X218590000Y-109750000D01*
X218590000Y-109750000D02*
X235340000Y-109750000D01*
X235340000Y-109750000D02*
X237840000Y-107250000D01*
X239375000Y-98465000D02*
X241300000Y-98465000D01*
X237840000Y-100000000D02*
X239375000Y-98465000D01*
D30*
X213590000Y-107250000D02*
X217340000Y-111000000D01*
X239090000Y-108000000D02*
X239090000Y-104250000D01*
X209440000Y-73980000D02*
X213590000Y-78130000D01*
X217340000Y-111000000D02*
X236090000Y-111000000D01*
X213590000Y-78130000D02*
X213590000Y-107250000D01*
X239090000Y-104250000D02*
X239875000Y-103465000D01*
X236090000Y-111000000D02*
X239090000Y-108000000D01*
X239875000Y-103465000D02*
X241300000Y-103465000D01*
X209440000Y-81600000D02*
X212090000Y-84250000D01*
X215719867Y-112129867D02*
X236960133Y-112129867D01*
X236960133Y-112129867D02*
X241300000Y-107790000D01*
X241300000Y-107790000D02*
X241300000Y-105965000D01*
X212090000Y-84250000D02*
X212090000Y-108500000D01*
X212090000Y-108500000D02*
X215719867Y-112129867D01*
X205260000Y-97900000D02*
X205260000Y-99280000D01*
X205260000Y-99280000D02*
X202740000Y-101800000D01*
X238040000Y-113000000D02*
X244540000Y-106500000D01*
X202740000Y-108800000D02*
X206940000Y-113000000D01*
X244540000Y-91000000D02*
X241932000Y-88392000D01*
X202740000Y-101800000D02*
X202740000Y-108800000D01*
X241932000Y-88392000D02*
X241300000Y-88392000D01*
X244540000Y-106500000D02*
X244540000Y-91000000D01*
X206940000Y-113000000D02*
X238040000Y-113000000D01*
X206140000Y-114100000D02*
X201240000Y-109200000D01*
X201240000Y-101100000D02*
X202720000Y-99620000D01*
X202720000Y-99620000D02*
X202720000Y-97900000D01*
X201240000Y-109200000D02*
X201240000Y-101100000D01*
X208740000Y-114100000D02*
X206140000Y-114100000D01*
X206795000Y-62500000D02*
X218440000Y-62500000D01*
X206735000Y-62440000D02*
X206795000Y-62500000D01*
X218440000Y-62500000D02*
X220900000Y-60040000D01*
D31*
X220900000Y-58420000D02*
X220900000Y-57825000D01*
D30*
X220900000Y-60040000D02*
X220900000Y-58420000D01*
D32*
X202235000Y-65355000D02*
X201840000Y-65750000D01*
X198840000Y-66750000D02*
X198840000Y-68595000D01*
X201840000Y-65750000D02*
X199840000Y-65750000D01*
X202235000Y-62440000D02*
X202235000Y-65355000D01*
D31*
X198840000Y-71135000D02*
X198840000Y-68595000D01*
D32*
X199840000Y-65750000D02*
X198840000Y-66750000D01*
D30*
X205235000Y-61505000D02*
X206740000Y-60000000D01*
X215900000Y-59040000D02*
X215900000Y-58420000D01*
X205235000Y-62440000D02*
X205235000Y-61505000D01*
X206740000Y-60000000D02*
X214940000Y-60000000D01*
X214940000Y-60000000D02*
X215900000Y-59040000D01*
D32*
X204530000Y-69865000D02*
X206955000Y-69865000D01*
X204590000Y-78000000D02*
X206590000Y-76000000D01*
X228840000Y-78750000D02*
X228840000Y-86750000D01*
X219955000Y-69865000D02*
X228840000Y-78750000D01*
X207225000Y-69865000D02*
X219955000Y-69865000D01*
X231310000Y-89220000D02*
X234840000Y-89220000D01*
X203090000Y-78000000D02*
X204590000Y-78000000D01*
X206590000Y-76000000D02*
X206590000Y-69865000D01*
X228840000Y-86750000D02*
X231310000Y-89220000D01*
G04 #@! TA.AperFunction,Conductor*
G36*
X201630108Y-98096445D02*
G01*
X201641097Y-98122972D01*
X201646598Y-98157704D01*
X201700127Y-98322446D01*
X201778769Y-98476790D01*
X201880584Y-98616926D01*
X202003073Y-98739415D01*
X202065369Y-98784676D01*
X202143212Y-98841232D01*
X202160920Y-98850254D01*
X202191489Y-98886045D01*
X202194500Y-98905051D01*
X202194500Y-99376856D01*
X202176487Y-99420343D01*
X200819498Y-100777331D01*
X200819494Y-100777336D01*
X200750311Y-100897166D01*
X200750310Y-100897168D01*
X200742743Y-100925408D01*
X200714499Y-101030814D01*
X200714499Y-101174134D01*
X200714500Y-101174147D01*
X200714500Y-107090019D01*
X200707798Y-107117935D01*
X200704354Y-107124696D01*
X200704354Y-107124697D01*
X200704353Y-107124700D01*
X200689500Y-107218477D01*
X200689500Y-108481513D01*
X200689501Y-108481523D01*
X200704353Y-108575301D01*
X200704353Y-108575302D01*
X200704354Y-108575304D01*
X200707797Y-108582061D01*
X200714500Y-108609981D01*
X200714500Y-109127037D01*
X200714499Y-109127055D01*
X200714499Y-109130817D01*
X200714499Y-109269183D01*
X200729590Y-109325500D01*
X200750312Y-109402836D01*
X200819495Y-109522665D01*
X200819498Y-109522668D01*
X200920833Y-109624004D01*
X200920847Y-109624016D01*
X203435987Y-112139156D01*
X203454000Y-112182643D01*
X203454000Y-113234297D01*
X203392993Y-113199075D01*
X203265826Y-113165000D01*
X203134174Y-113165000D01*
X203007007Y-113199075D01*
X202946000Y-113234297D01*
X202946000Y-112180302D01*
X202881999Y-112190439D01*
X202678709Y-112256491D01*
X202678708Y-112256492D01*
X202488250Y-112353535D01*
X202315325Y-112479174D01*
X202164174Y-112630325D01*
X202038535Y-112803250D01*
X201941492Y-112993707D01*
X201920489Y-113058350D01*
X201889919Y-113094142D01*
X201842994Y-113097835D01*
X201807202Y-113067265D01*
X201800499Y-113039345D01*
X201800499Y-112867127D01*
X201794091Y-112807518D01*
X201794090Y-112807514D01*
X201787174Y-112788972D01*
X201743796Y-112672669D01*
X201657546Y-112557454D01*
X201546734Y-112474500D01*
X201542333Y-112471205D01*
X201542328Y-112471203D01*
X201407487Y-112420910D01*
X201407485Y-112420909D01*
X201407483Y-112420909D01*
X201347873Y-112414500D01*
X201347872Y-112414500D01*
X200536341Y-112414500D01*
X200492854Y-112396487D01*
X199008513Y-110912145D01*
X198990500Y-110868658D01*
X198990500Y-108929527D01*
X199008513Y-108886040D01*
X199052000Y-108868027D01*
X199095487Y-108886040D01*
X199183500Y-108974053D01*
X199326604Y-109058683D01*
X199326605Y-109058684D01*
X199485999Y-109104991D01*
X199486000Y-109104991D01*
X199994000Y-109104991D01*
X200153394Y-109058684D01*
X200153395Y-109058683D01*
X200296499Y-108974053D01*
X200414053Y-108856499D01*
X200498683Y-108713395D01*
X200498684Y-108713393D01*
X200545064Y-108553756D01*
X200545066Y-108553745D01*
X200548000Y-108516461D01*
X200548000Y-108104000D01*
X199994000Y-108104000D01*
X199994000Y-109104991D01*
X199486000Y-109104991D01*
X199486000Y-107596000D01*
X199994000Y-107596000D01*
X200547999Y-107596000D01*
X200547999Y-107183552D01*
X200545064Y-107146244D01*
X200498684Y-106986606D01*
X200498683Y-106986604D01*
X200414053Y-106843500D01*
X200296499Y-106725946D01*
X200153398Y-106641318D01*
X200153399Y-106641318D01*
X199994000Y-106595006D01*
X199994000Y-107596000D01*
X199486000Y-107596000D01*
X199486000Y-106595007D01*
X199485999Y-106595006D01*
X199326600Y-106641318D01*
X199183500Y-106725946D01*
X199065946Y-106843500D01*
X198981316Y-106986604D01*
X198981315Y-106986606D01*
X198934935Y-107146243D01*
X198934933Y-107146254D01*
X198932000Y-107183538D01*
X198932000Y-107332579D01*
X198931857Y-107332923D01*
X198931996Y-107333269D01*
X198922880Y-107354596D01*
X198913987Y-107376066D01*
X198913642Y-107376208D01*
X198913496Y-107376551D01*
X198891966Y-107385187D01*
X198870500Y-107394079D01*
X198870155Y-107393936D01*
X198869810Y-107394075D01*
X198865508Y-107392011D01*
X198827013Y-107376066D01*
X198826528Y-107375575D01*
X198823653Y-107372634D01*
X198822951Y-107371584D01*
X198808291Y-107356924D01*
X198808027Y-107356654D01*
X198799390Y-107335124D01*
X198790499Y-107313658D01*
X198790499Y-107218486D01*
X198790498Y-107218476D01*
X198779060Y-107146254D01*
X198775646Y-107124696D01*
X198772201Y-107117935D01*
X198765500Y-107090019D01*
X198765500Y-98430814D01*
X198765499Y-98430813D01*
X198729690Y-98297170D01*
X198729689Y-98297168D01*
X198729688Y-98297164D01*
X198703960Y-98252603D01*
X198697574Y-98206871D01*
X198698081Y-98204850D01*
X198713402Y-98157701D01*
X198719331Y-98120262D01*
X198719998Y-98117610D01*
X198732523Y-98100746D01*
X198743496Y-98082840D01*
X198746327Y-98082160D01*
X198748064Y-98079822D01*
X198768844Y-98076753D01*
X198789265Y-98071851D01*
X198791747Y-98073372D01*
X198794629Y-98072947D01*
X198811492Y-98085472D01*
X198829399Y-98096445D01*
X198830790Y-98099805D01*
X198832417Y-98101013D01*
X198833040Y-98105235D01*
X198840388Y-98122973D01*
X198855439Y-98218001D01*
X198921491Y-98421290D01*
X198921492Y-98421291D01*
X199018535Y-98611749D01*
X199144174Y-98784674D01*
X199144175Y-98784676D01*
X199295324Y-98935825D01*
X199468250Y-99061464D01*
X199658708Y-99158507D01*
X199658709Y-99158508D01*
X199861999Y-99224560D01*
X199925999Y-99234697D01*
X199926000Y-99234697D01*
X199926000Y-98330702D01*
X199987007Y-98365925D01*
X200114174Y-98400000D01*
X200245826Y-98400000D01*
X200372993Y-98365925D01*
X200434000Y-98330702D01*
X200434000Y-99234697D01*
X200498000Y-99224560D01*
X200701290Y-99158508D01*
X200701291Y-99158507D01*
X200891749Y-99061464D01*
X201064674Y-98935825D01*
X201064676Y-98935825D01*
X201215825Y-98784676D01*
X201215825Y-98784674D01*
X201341464Y-98611749D01*
X201438507Y-98421291D01*
X201438508Y-98421290D01*
X201504560Y-98218000D01*
X201519611Y-98122974D01*
X201544205Y-98082840D01*
X201589974Y-98071851D01*
X201630108Y-98096445D01*
G37*
G04 #@! TD.AperFunction*
G04 #@! TA.AperFunction,Conductor*
G36*
X240060339Y-99108513D02*
G01*
X240078000Y-99145426D01*
X240080908Y-99172481D01*
X240080909Y-99172485D01*
X240124287Y-99288786D01*
X240131204Y-99307331D01*
X240217454Y-99422546D01*
X240332669Y-99508796D01*
X240467517Y-99559091D01*
X240527127Y-99565500D01*
X240699345Y-99565499D01*
X240742830Y-99583512D01*
X240760843Y-99626999D01*
X240742830Y-99670486D01*
X240718348Y-99685489D01*
X240653707Y-99706492D01*
X240463250Y-99803535D01*
X240290325Y-99929174D01*
X240139174Y-100080325D01*
X240013535Y-100253250D01*
X239916492Y-100443708D01*
X239916491Y-100443709D01*
X239850439Y-100646999D01*
X239840302Y-100711000D01*
X240898164Y-100711000D01*
X240857370Y-100781657D01*
X240825000Y-100902465D01*
X240825000Y-101027535D01*
X240857370Y-101148343D01*
X240898164Y-101219000D01*
X239840302Y-101219000D01*
X239850439Y-101283000D01*
X239916491Y-101486290D01*
X239916492Y-101486291D01*
X240013535Y-101676749D01*
X240139174Y-101849674D01*
X240139175Y-101849676D01*
X240290324Y-102000825D01*
X240463250Y-102126464D01*
X240653708Y-102223507D01*
X240653709Y-102223508D01*
X240857001Y-102289561D01*
X240859349Y-102290125D01*
X240859033Y-102291439D01*
X240895752Y-102313897D01*
X240906780Y-102359657D01*
X240882221Y-102399812D01*
X240865034Y-102408579D01*
X240752553Y-102445127D01*
X240598209Y-102523769D01*
X240458073Y-102625584D01*
X240458073Y-102625585D01*
X240458072Y-102625586D01*
X240335586Y-102748072D01*
X240335585Y-102748073D01*
X240335584Y-102748073D01*
X240233771Y-102888206D01*
X240233768Y-102888212D01*
X240224745Y-102905920D01*
X240188955Y-102936489D01*
X240169949Y-102939500D01*
X239947963Y-102939500D01*
X239947947Y-102939499D01*
X239944184Y-102939499D01*
X239805817Y-102939499D01*
X239805815Y-102939499D01*
X239672169Y-102975309D01*
X239672165Y-102975311D01*
X239552336Y-103044494D01*
X239552331Y-103044498D01*
X238669498Y-103927331D01*
X238669494Y-103927336D01*
X238600310Y-104047167D01*
X238598216Y-104054984D01*
X238598216Y-104054987D01*
X238586404Y-104099068D01*
X238557749Y-104136411D01*
X238511082Y-104142554D01*
X238473739Y-104113899D01*
X238465500Y-104083150D01*
X238465500Y-100284564D01*
X238483513Y-100241077D01*
X239616077Y-99108513D01*
X239659564Y-99090500D01*
X240016852Y-99090500D01*
X240060339Y-99108513D01*
G37*
G04 #@! TD.AperFunction*
G04 #@! TA.AperFunction,Conductor*
G36*
X246361487Y-53358513D02*
G01*
X246379500Y-53402000D01*
X246379500Y-118048000D01*
X246361487Y-118091487D01*
X246318000Y-118109500D01*
X188657000Y-118109500D01*
X188613513Y-118091487D01*
X188595500Y-118048000D01*
X188595500Y-113543706D01*
X191189500Y-113543706D01*
X191189500Y-113786293D01*
X191221163Y-114026796D01*
X191280213Y-114247169D01*
X191283946Y-114261100D01*
X191376776Y-114485212D01*
X191437095Y-114589687D01*
X191498065Y-114695292D01*
X191498066Y-114695293D01*
X191645733Y-114887736D01*
X191817263Y-115059266D01*
X192009706Y-115206933D01*
X192009707Y-115206934D01*
X192054102Y-115232565D01*
X192219788Y-115328224D01*
X192443900Y-115421054D01*
X192608591Y-115465183D01*
X192678203Y-115483836D01*
X192678204Y-115483836D01*
X192678211Y-115483838D01*
X192918712Y-115515500D01*
X192918715Y-115515500D01*
X193161285Y-115515500D01*
X193161288Y-115515500D01*
X193401789Y-115483838D01*
X193636100Y-115421054D01*
X193860212Y-115328224D01*
X194070289Y-115206936D01*
X194262738Y-115059265D01*
X194434265Y-114887738D01*
X194581936Y-114695289D01*
X194703224Y-114485212D01*
X194796054Y-114261100D01*
X194858838Y-114026789D01*
X194890500Y-113786288D01*
X194890500Y-113543712D01*
X194858838Y-113303211D01*
X194796054Y-113068900D01*
X194703224Y-112844788D01*
X194581936Y-112634711D01*
X194581934Y-112634707D01*
X194581933Y-112634706D01*
X194434266Y-112442263D01*
X194262736Y-112270733D01*
X194070293Y-112123066D01*
X194070292Y-112123065D01*
X193965250Y-112062420D01*
X193860212Y-112001776D01*
X193636100Y-111908946D01*
X193636094Y-111908944D01*
X193401796Y-111846163D01*
X193401789Y-111846162D01*
X193376185Y-111842791D01*
X193161293Y-111814500D01*
X193161288Y-111814500D01*
X192918712Y-111814500D01*
X192918706Y-111814500D01*
X192678203Y-111846163D01*
X192443905Y-111908944D01*
X192443899Y-111908946D01*
X192219790Y-112001775D01*
X192009707Y-112123065D01*
X192009706Y-112123066D01*
X191817263Y-112270733D01*
X191645733Y-112442263D01*
X191498066Y-112634706D01*
X191498065Y-112634707D01*
X191376775Y-112844790D01*
X191283946Y-113068899D01*
X191283944Y-113068905D01*
X191221163Y-113303203D01*
X191189500Y-113543706D01*
X188595500Y-113543706D01*
X188595500Y-101712128D01*
X191759500Y-101712128D01*
X191759500Y-103107872D01*
X191765908Y-103167481D01*
X191765909Y-103167485D01*
X191765910Y-103167487D01*
X191816204Y-103302331D01*
X191902454Y-103417546D01*
X192017669Y-103503796D01*
X192152517Y-103554091D01*
X192212127Y-103560500D01*
X193057872Y-103560499D01*
X193117483Y-103554091D01*
X193252331Y-103503796D01*
X193367546Y-103417546D01*
X193453796Y-103302331D01*
X193504091Y-103167483D01*
X193510500Y-103107873D01*
X193510499Y-101712128D01*
X193504091Y-101652517D01*
X193453796Y-101517669D01*
X193367546Y-101402454D01*
X193290924Y-101345095D01*
X193252333Y-101316205D01*
X193252328Y-101316203D01*
X193117487Y-101265910D01*
X193117485Y-101265909D01*
X193117483Y-101265909D01*
X193057873Y-101259500D01*
X193057871Y-101259500D01*
X192212127Y-101259500D01*
X192152518Y-101265908D01*
X192152514Y-101265909D01*
X192017671Y-101316203D01*
X192017666Y-101316205D01*
X191902454Y-101402454D01*
X191816205Y-101517666D01*
X191816203Y-101517671D01*
X191765910Y-101652512D01*
X191759500Y-101712128D01*
X188595500Y-101712128D01*
X188595500Y-69141078D01*
X190384500Y-69141078D01*
X190384500Y-96548921D01*
X190413340Y-96693906D01*
X190413345Y-96693923D01*
X190469916Y-96830496D01*
X190487206Y-96856371D01*
X190495911Y-96869399D01*
X190551276Y-96952261D01*
X190552051Y-96953420D01*
X191441487Y-97842854D01*
X191459500Y-97886341D01*
X191459500Y-98774677D01*
X191474032Y-98847738D01*
X191487146Y-98867364D01*
X191529399Y-98930601D01*
X191584266Y-98967261D01*
X191612261Y-98985967D01*
X191670473Y-98997545D01*
X191685322Y-99000499D01*
X191685323Y-99000500D01*
X191685326Y-99000500D01*
X192891857Y-99000500D01*
X192935344Y-99018513D01*
X194696487Y-100779656D01*
X194714500Y-100823143D01*
X194714500Y-107090019D01*
X194707798Y-107117935D01*
X194704354Y-107124696D01*
X194704354Y-107124697D01*
X194704353Y-107124700D01*
X194689500Y-107218477D01*
X194689500Y-108481513D01*
X194689501Y-108481523D01*
X194704353Y-108575301D01*
X194704353Y-108575302D01*
X194704354Y-108575304D01*
X194761950Y-108688342D01*
X194761952Y-108688345D01*
X194851654Y-108778047D01*
X194851656Y-108778048D01*
X194851658Y-108778050D01*
X194964696Y-108835646D01*
X195058481Y-108850500D01*
X195421518Y-108850499D01*
X195515304Y-108835646D01*
X195628342Y-108778050D01*
X195718050Y-108688342D01*
X195775646Y-108575304D01*
X195790500Y-108481519D01*
X195790499Y-107218482D01*
X195775646Y-107124696D01*
X195772201Y-107117935D01*
X195765500Y-107090019D01*
X195765500Y-100510814D01*
X195765499Y-100510813D01*
X195729690Y-100377170D01*
X195729689Y-100377168D01*
X195729688Y-100377164D01*
X195660505Y-100257335D01*
X195562665Y-100159495D01*
X195560522Y-100157352D01*
X195560511Y-100157342D01*
X193678513Y-98275344D01*
X193660500Y-98231857D01*
X193660500Y-97025323D01*
X193660499Y-97025322D01*
X193645967Y-96952261D01*
X193632172Y-96931615D01*
X193590601Y-96869399D01*
X193526544Y-96826598D01*
X193507738Y-96814032D01*
X193434677Y-96799500D01*
X193434674Y-96799500D01*
X192546341Y-96799500D01*
X192502854Y-96781487D01*
X191903513Y-96182145D01*
X191885500Y-96138658D01*
X191885500Y-69551341D01*
X191903513Y-69507854D01*
X192062854Y-69348513D01*
X192106341Y-69330500D01*
X192698684Y-69330500D01*
X192742171Y-69348513D01*
X192833073Y-69439415D01*
X192952064Y-69525867D01*
X192973212Y-69541232D01*
X193127555Y-69619873D01*
X193222605Y-69650757D01*
X193240034Y-69656420D01*
X193275826Y-69686990D01*
X193279519Y-69733915D01*
X193248949Y-69769707D01*
X193234254Y-69774481D01*
X193234349Y-69774875D01*
X193232001Y-69775438D01*
X193028709Y-69841491D01*
X193028708Y-69841492D01*
X192838250Y-69938535D01*
X192665325Y-70064174D01*
X192514174Y-70215325D01*
X192388535Y-70388250D01*
X192291492Y-70578708D01*
X192291491Y-70578709D01*
X192225439Y-70781999D01*
X192215302Y-70846000D01*
X193273164Y-70846000D01*
X193232370Y-70916657D01*
X193200000Y-71037465D01*
X193200000Y-71162535D01*
X193232370Y-71283343D01*
X193273164Y-71354000D01*
X192215302Y-71354000D01*
X192225439Y-71418000D01*
X192291491Y-71621290D01*
X192291492Y-71621291D01*
X192388535Y-71811749D01*
X192514174Y-71984674D01*
X192514175Y-71984676D01*
X192665324Y-72135825D01*
X192838250Y-72261464D01*
X193028708Y-72358507D01*
X193028709Y-72358508D01*
X193093349Y-72379510D01*
X193129142Y-72410079D01*
X193132835Y-72457004D01*
X193102266Y-72492797D01*
X193074345Y-72499500D01*
X192902127Y-72499500D01*
X192842518Y-72505908D01*
X192842514Y-72505909D01*
X192707671Y-72556203D01*
X192707666Y-72556205D01*
X192592454Y-72642454D01*
X192506205Y-72757666D01*
X192506203Y-72757671D01*
X192455910Y-72892512D01*
X192449500Y-72952128D01*
X192449500Y-74247872D01*
X192455908Y-74307481D01*
X192455909Y-74307485D01*
X192506203Y-74442328D01*
X192506205Y-74442333D01*
X192540627Y-74488314D01*
X192592454Y-74557546D01*
X192707669Y-74643796D01*
X192842517Y-74694091D01*
X192902127Y-74700500D01*
X194447872Y-74700499D01*
X194507483Y-74694091D01*
X194642331Y-74643796D01*
X194757546Y-74557546D01*
X194843796Y-74442331D01*
X194894091Y-74307483D01*
X194900500Y-74247873D01*
X194900499Y-72952128D01*
X194894091Y-72892517D01*
X194843796Y-72757669D01*
X194757546Y-72642454D01*
X194688314Y-72590627D01*
X194642333Y-72556205D01*
X194642328Y-72556203D01*
X194507487Y-72505910D01*
X194507485Y-72505909D01*
X194507483Y-72505909D01*
X194447873Y-72499500D01*
X194447872Y-72499500D01*
X194275656Y-72499500D01*
X194232169Y-72481487D01*
X194214156Y-72438000D01*
X194232169Y-72394513D01*
X194256652Y-72379510D01*
X194321290Y-72358508D01*
X194321291Y-72358507D01*
X194511749Y-72261464D01*
X194684674Y-72135825D01*
X194684676Y-72135825D01*
X194835825Y-71984676D01*
X194835825Y-71984674D01*
X194961464Y-71811749D01*
X194973203Y-71788711D01*
X195008995Y-71758141D01*
X195055920Y-71761834D01*
X195086490Y-71797626D01*
X195089500Y-71816631D01*
X195089500Y-89963657D01*
X195071487Y-90007144D01*
X194557051Y-90521579D01*
X194518354Y-90579495D01*
X194474917Y-90644503D01*
X194474913Y-90644511D01*
X194418345Y-90781076D01*
X194418340Y-90781093D01*
X194389500Y-90926078D01*
X194389500Y-97028684D01*
X194371487Y-97072171D01*
X194260586Y-97183072D01*
X194260585Y-97183073D01*
X194260584Y-97183073D01*
X194158769Y-97323209D01*
X194080127Y-97477553D01*
X194026598Y-97642296D01*
X193999500Y-97813385D01*
X193999500Y-97986614D01*
X194026598Y-98157703D01*
X194080127Y-98322446D01*
X194158769Y-98476790D01*
X194260584Y-98616926D01*
X194383073Y-98739415D01*
X194523206Y-98841228D01*
X194523212Y-98841232D01*
X194677555Y-98919873D01*
X194842296Y-98973401D01*
X194842299Y-98973402D01*
X195013389Y-99000500D01*
X195013393Y-99000500D01*
X195186607Y-99000500D01*
X195186611Y-99000500D01*
X195357701Y-98973402D01*
X195357704Y-98973401D01*
X195357705Y-98973401D01*
X195376600Y-98967261D01*
X195423525Y-98970952D01*
X195439094Y-98982263D01*
X196196487Y-99739656D01*
X196214500Y-99783143D01*
X196214500Y-107090019D01*
X196207798Y-107117935D01*
X196204354Y-107124696D01*
X196204354Y-107124697D01*
X196204353Y-107124700D01*
X196189500Y-107218477D01*
X196189500Y-108481513D01*
X196189501Y-108481523D01*
X196204353Y-108575301D01*
X196204353Y-108575302D01*
X196204354Y-108575304D01*
X196261950Y-108688342D01*
X196261952Y-108688345D01*
X196351654Y-108778047D01*
X196351656Y-108778048D01*
X196351658Y-108778050D01*
X196464696Y-108835646D01*
X196558481Y-108850500D01*
X196921518Y-108850499D01*
X197015304Y-108835646D01*
X197128342Y-108778050D01*
X197218050Y-108688342D01*
X197275646Y-108575304D01*
X197290500Y-108481519D01*
X197290499Y-107218482D01*
X197275646Y-107124696D01*
X197272201Y-107117935D01*
X197265500Y-107090019D01*
X197265500Y-99470814D01*
X197265499Y-99470813D01*
X197229690Y-99337170D01*
X197229689Y-99337168D01*
X197229688Y-99337164D01*
X197160505Y-99217335D01*
X197062665Y-99119495D01*
X197060522Y-99117352D01*
X197060511Y-99117342D01*
X196182263Y-98239094D01*
X196164250Y-98195607D01*
X196167261Y-98176600D01*
X196173401Y-98157705D01*
X196173401Y-98157704D01*
X196173401Y-98157703D01*
X196173402Y-98157701D01*
X196200500Y-97986611D01*
X196200500Y-97813389D01*
X196200499Y-97813385D01*
X196539500Y-97813385D01*
X196539500Y-97986614D01*
X196566598Y-98157703D01*
X196620127Y-98322446D01*
X196698769Y-98476790D01*
X196800584Y-98616926D01*
X196923073Y-98739415D01*
X197063206Y-98841228D01*
X197063212Y-98841232D01*
X197217555Y-98919873D01*
X197382296Y-98973401D01*
X197382299Y-98973402D01*
X197553389Y-99000500D01*
X197653000Y-99000500D01*
X197696487Y-99018513D01*
X197714500Y-99062000D01*
X197714500Y-107090019D01*
X197707798Y-107117935D01*
X197704354Y-107124696D01*
X197704354Y-107124697D01*
X197704353Y-107124700D01*
X197689500Y-107218477D01*
X197689500Y-107313658D01*
X197671488Y-107357144D01*
X197657048Y-107371584D01*
X197574918Y-107494501D01*
X197574913Y-107494511D01*
X197518345Y-107631076D01*
X197518340Y-107631093D01*
X197489500Y-107776078D01*
X197489500Y-111278921D01*
X197518340Y-111423906D01*
X197518345Y-111423923D01*
X197560421Y-111525501D01*
X197574916Y-111560495D01*
X197574917Y-111560496D01*
X197604230Y-111604367D01*
X197604229Y-111604367D01*
X197657046Y-111683414D01*
X197657051Y-111683420D01*
X199581487Y-113607854D01*
X199599500Y-113651341D01*
X199599500Y-114462872D01*
X199605908Y-114522481D01*
X199605909Y-114522485D01*
X199656203Y-114657328D01*
X199656205Y-114657333D01*
X199670529Y-114676467D01*
X199742454Y-114772546D01*
X199857669Y-114858796D01*
X199992517Y-114909091D01*
X200052127Y-114915500D01*
X201347872Y-114915499D01*
X201407483Y-114909091D01*
X201542331Y-114858796D01*
X201657546Y-114772546D01*
X201743796Y-114657331D01*
X201794091Y-114522483D01*
X201800500Y-114462873D01*
X201800499Y-114290653D01*
X201818512Y-114247169D01*
X201861999Y-114229156D01*
X201905486Y-114247169D01*
X201920489Y-114271651D01*
X201941492Y-114336292D01*
X202038535Y-114526749D01*
X202164174Y-114699674D01*
X202164175Y-114699676D01*
X202315324Y-114850825D01*
X202488250Y-114976464D01*
X202678708Y-115073507D01*
X202678709Y-115073508D01*
X202881999Y-115139560D01*
X202945999Y-115149697D01*
X202946000Y-115149697D01*
X202946000Y-114095702D01*
X203007007Y-114130925D01*
X203134174Y-114165000D01*
X203265826Y-114165000D01*
X203392993Y-114130925D01*
X203454000Y-114095702D01*
X203454000Y-115149697D01*
X203518000Y-115139560D01*
X203721290Y-115073508D01*
X203721291Y-115073507D01*
X203911749Y-114976464D01*
X204084674Y-114850825D01*
X204084676Y-114850825D01*
X204235825Y-114699676D01*
X204235825Y-114699674D01*
X204361464Y-114526749D01*
X204458507Y-114336291D01*
X204458508Y-114336290D01*
X204524560Y-114133001D01*
X204557999Y-113921880D01*
X204558000Y-113921872D01*
X204558000Y-113919000D01*
X203630703Y-113919000D01*
X203665925Y-113857993D01*
X203700000Y-113730826D01*
X203700000Y-113599174D01*
X203665925Y-113472007D01*
X203630703Y-113411000D01*
X204558000Y-113411000D01*
X204558000Y-113409643D01*
X204576013Y-113366156D01*
X204619500Y-113348143D01*
X204662987Y-113366156D01*
X205717342Y-114420511D01*
X205717347Y-114420517D01*
X205719495Y-114422665D01*
X205817335Y-114520505D01*
X205937164Y-114589688D01*
X205995340Y-114605276D01*
X206070814Y-114625500D01*
X206070816Y-114625500D01*
X206070817Y-114625500D01*
X208336943Y-114625500D01*
X208371109Y-114635864D01*
X208431873Y-114676465D01*
X208477318Y-114695289D01*
X208550247Y-114725498D01*
X208550252Y-114725499D01*
X208550256Y-114725501D01*
X208675927Y-114750499D01*
X208675928Y-114750500D01*
X208675931Y-114750500D01*
X208804072Y-114750500D01*
X208804072Y-114750499D01*
X208929744Y-114725501D01*
X208929749Y-114725498D01*
X208929752Y-114725498D01*
X208960359Y-114712819D01*
X209048127Y-114676465D01*
X209154669Y-114605276D01*
X209245276Y-114514669D01*
X209316465Y-114408127D01*
X209352819Y-114320359D01*
X209365498Y-114289752D01*
X209365498Y-114289749D01*
X209365501Y-114289744D01*
X209390499Y-114164072D01*
X209390500Y-114164072D01*
X209390500Y-114035928D01*
X209390499Y-114035927D01*
X209365502Y-113910261D01*
X209365498Y-113910247D01*
X209316467Y-113791879D01*
X209316465Y-113791873D01*
X209245276Y-113685331D01*
X209190432Y-113630487D01*
X209172419Y-113587000D01*
X209190352Y-113543706D01*
X240084500Y-113543706D01*
X240084500Y-113786293D01*
X240116163Y-114026796D01*
X240175213Y-114247169D01*
X240178946Y-114261100D01*
X240271776Y-114485212D01*
X240332095Y-114589687D01*
X240393065Y-114695292D01*
X240393066Y-114695293D01*
X240540733Y-114887736D01*
X240712263Y-115059266D01*
X240904706Y-115206933D01*
X240904707Y-115206934D01*
X240949102Y-115232565D01*
X241114788Y-115328224D01*
X241338900Y-115421054D01*
X241503591Y-115465183D01*
X241573203Y-115483836D01*
X241573204Y-115483836D01*
X241573211Y-115483838D01*
X241813712Y-115515500D01*
X241813715Y-115515500D01*
X242056285Y-115515500D01*
X242056288Y-115515500D01*
X242296789Y-115483838D01*
X242531100Y-115421054D01*
X242755212Y-115328224D01*
X242965289Y-115206936D01*
X243157738Y-115059265D01*
X243329265Y-114887738D01*
X243476936Y-114695289D01*
X243598224Y-114485212D01*
X243691054Y-114261100D01*
X243753838Y-114026789D01*
X243785500Y-113786288D01*
X243785500Y-113543712D01*
X243753838Y-113303211D01*
X243691054Y-113068900D01*
X243598224Y-112844788D01*
X243476936Y-112634711D01*
X243476934Y-112634707D01*
X243476933Y-112634706D01*
X243329266Y-112442263D01*
X243157736Y-112270733D01*
X242965293Y-112123066D01*
X242965292Y-112123065D01*
X242860250Y-112062420D01*
X242755212Y-112001776D01*
X242531100Y-111908946D01*
X242531094Y-111908944D01*
X242296796Y-111846163D01*
X242296789Y-111846162D01*
X242271185Y-111842791D01*
X242056293Y-111814500D01*
X242056288Y-111814500D01*
X241813712Y-111814500D01*
X241813706Y-111814500D01*
X241573203Y-111846163D01*
X241338905Y-111908944D01*
X241338899Y-111908946D01*
X241114790Y-112001775D01*
X240904707Y-112123065D01*
X240904706Y-112123066D01*
X240712263Y-112270733D01*
X240540733Y-112442263D01*
X240393066Y-112634706D01*
X240393065Y-112634707D01*
X240271775Y-112844790D01*
X240178946Y-113068899D01*
X240178944Y-113068905D01*
X240116163Y-113303203D01*
X240084500Y-113543706D01*
X209190352Y-113543706D01*
X209190432Y-113543513D01*
X209233919Y-113525500D01*
X237967038Y-113525500D01*
X237967054Y-113525501D01*
X237970817Y-113525501D01*
X238109184Y-113525501D01*
X238127117Y-113520695D01*
X238214591Y-113497256D01*
X238242836Y-113489688D01*
X238362665Y-113420505D01*
X238460505Y-113322665D01*
X238460505Y-113322663D01*
X238465563Y-113317606D01*
X238465567Y-113317601D01*
X244857601Y-106925567D01*
X244857606Y-106925563D01*
X244862663Y-106920505D01*
X244862665Y-106920505D01*
X244960505Y-106822665D01*
X245029688Y-106702836D01*
X245065499Y-106569185D01*
X245065500Y-106569185D01*
X245065500Y-91074147D01*
X245065501Y-91074134D01*
X245065501Y-90930814D01*
X245031784Y-90804987D01*
X245031784Y-90804984D01*
X245029689Y-90797167D01*
X245029688Y-90797165D01*
X245029688Y-90797164D01*
X244960505Y-90677335D01*
X244862665Y-90579495D01*
X244860522Y-90577352D01*
X244860511Y-90577342D01*
X242527763Y-88244594D01*
X242510507Y-88210728D01*
X242509996Y-88207500D01*
X242498402Y-88134299D01*
X242444873Y-87969555D01*
X242366232Y-87815212D01*
X242277076Y-87692500D01*
X242264415Y-87675073D01*
X242141926Y-87552584D01*
X242001790Y-87450769D01*
X241847446Y-87372127D01*
X241844225Y-87371081D01*
X241840866Y-87369989D01*
X241805075Y-87339420D01*
X241801382Y-87292495D01*
X241831952Y-87256703D01*
X241859872Y-87250000D01*
X242075505Y-87250000D01*
X242075507Y-87249999D01*
X242179326Y-87239392D01*
X242179332Y-87239391D01*
X242347517Y-87183661D01*
X242347522Y-87183658D01*
X242498339Y-87090634D01*
X242623634Y-86965339D01*
X242716658Y-86814522D01*
X242716661Y-86814517D01*
X242772391Y-86646332D01*
X242772392Y-86646326D01*
X242782999Y-86542507D01*
X242783000Y-86542504D01*
X242783000Y-86146000D01*
X241701836Y-86146000D01*
X241742630Y-86075343D01*
X241775000Y-85954535D01*
X241775000Y-85829465D01*
X241742630Y-85708657D01*
X241701836Y-85638000D01*
X242783000Y-85638000D01*
X242783000Y-85241495D01*
X242782999Y-85241492D01*
X242772392Y-85137673D01*
X242772391Y-85137667D01*
X242716661Y-84969482D01*
X242716658Y-84969477D01*
X242623634Y-84818660D01*
X242498339Y-84693365D01*
X242347522Y-84600341D01*
X242347517Y-84600338D01*
X242179332Y-84544608D01*
X242179326Y-84544607D01*
X242075507Y-84534000D01*
X241554000Y-84534000D01*
X241554000Y-85490163D01*
X241483343Y-85449370D01*
X241362535Y-85417000D01*
X241237465Y-85417000D01*
X241116657Y-85449370D01*
X241046000Y-85490163D01*
X241046000Y-84534000D01*
X240524492Y-84534000D01*
X240420673Y-84544607D01*
X240420667Y-84544608D01*
X240252482Y-84600338D01*
X240252477Y-84600341D01*
X240101660Y-84693365D01*
X239976365Y-84818660D01*
X239883341Y-84969477D01*
X239883338Y-84969482D01*
X239827608Y-85137667D01*
X239827607Y-85137673D01*
X239817000Y-85241492D01*
X239817000Y-85638000D01*
X240898164Y-85638000D01*
X240857370Y-85708657D01*
X240825000Y-85829465D01*
X240825000Y-85954535D01*
X240857370Y-86075343D01*
X240898164Y-86146000D01*
X239817000Y-86146000D01*
X239817000Y-86542507D01*
X239827607Y-86646326D01*
X239827608Y-86646332D01*
X239883338Y-86814517D01*
X239883341Y-86814522D01*
X239976365Y-86965339D01*
X240101660Y-87090634D01*
X240252477Y-87183658D01*
X240252482Y-87183661D01*
X240420667Y-87239391D01*
X240420673Y-87239392D01*
X240524492Y-87249999D01*
X240524495Y-87250000D01*
X240740128Y-87250000D01*
X240783615Y-87268013D01*
X240801628Y-87311500D01*
X240783615Y-87354987D01*
X240759134Y-87369989D01*
X240756877Y-87370722D01*
X240752553Y-87372127D01*
X240598209Y-87450769D01*
X240458073Y-87552584D01*
X240458073Y-87552585D01*
X240458072Y-87552586D01*
X240335586Y-87675072D01*
X240335585Y-87675073D01*
X240335584Y-87675073D01*
X240233769Y-87815209D01*
X240155127Y-87969553D01*
X240101598Y-88134296D01*
X240074500Y-88305385D01*
X240074500Y-88478614D01*
X240101598Y-88649703D01*
X240155127Y-88814446D01*
X240233769Y-88968790D01*
X240335584Y-89108926D01*
X240458073Y-89231415D01*
X240598209Y-89333230D01*
X240598212Y-89333232D01*
X240752555Y-89411873D01*
X240917296Y-89465401D01*
X240917299Y-89465402D01*
X241088389Y-89492500D01*
X241088393Y-89492500D01*
X241511607Y-89492500D01*
X241511611Y-89492500D01*
X241682701Y-89465402D01*
X241847445Y-89411873D01*
X242001788Y-89333232D01*
X242033589Y-89310126D01*
X242079355Y-89299137D01*
X242113224Y-89316393D01*
X243996487Y-91199656D01*
X244014500Y-91243143D01*
X244014500Y-106256857D01*
X243996487Y-106300344D01*
X237840344Y-112456487D01*
X237796857Y-112474500D01*
X237507142Y-112474500D01*
X237463655Y-112456487D01*
X237445642Y-112413000D01*
X237463655Y-112369513D01*
X238412667Y-111420501D01*
X241720505Y-108112665D01*
X241789689Y-107992835D01*
X241815298Y-107897262D01*
X241825501Y-107859185D01*
X241825501Y-107717055D01*
X241825500Y-107717037D01*
X241825500Y-107033741D01*
X241843513Y-106990254D01*
X241859076Y-106978946D01*
X242001788Y-106906232D01*
X242141928Y-106804414D01*
X242264414Y-106681928D01*
X242366232Y-106541788D01*
X242444873Y-106387445D01*
X242498402Y-106222701D01*
X242525500Y-106051611D01*
X242525500Y-105878389D01*
X242498402Y-105707299D01*
X242444873Y-105542555D01*
X242366232Y-105388212D01*
X242264414Y-105248072D01*
X242141928Y-105125586D01*
X242141927Y-105125585D01*
X242141926Y-105125584D01*
X242001790Y-105023769D01*
X241847446Y-104945127D01*
X241682702Y-104891598D01*
X241682704Y-104891598D01*
X241511614Y-104864500D01*
X241511611Y-104864500D01*
X241088389Y-104864500D01*
X241088385Y-104864500D01*
X240917296Y-104891598D01*
X240752553Y-104945127D01*
X240598209Y-105023769D01*
X240458073Y-105125584D01*
X240458073Y-105125585D01*
X240458072Y-105125586D01*
X240335586Y-105248072D01*
X240335585Y-105248073D01*
X240335584Y-105248073D01*
X240233769Y-105388209D01*
X240155127Y-105542553D01*
X240101598Y-105707296D01*
X240074500Y-105878385D01*
X240074500Y-106051614D01*
X240101598Y-106222703D01*
X240155127Y-106387446D01*
X240233769Y-106541790D01*
X240335584Y-106681926D01*
X240458073Y-106804415D01*
X240598209Y-106906230D01*
X240598212Y-106906232D01*
X240740921Y-106978945D01*
X240771490Y-107014736D01*
X240774500Y-107033741D01*
X240774500Y-107546856D01*
X240756487Y-107590343D01*
X236760477Y-111586354D01*
X236716990Y-111604367D01*
X236323727Y-111604367D01*
X236280240Y-111586354D01*
X236262227Y-111542867D01*
X236280240Y-111499380D01*
X236292973Y-111489608D01*
X236412665Y-111420505D01*
X236510505Y-111322665D01*
X236510505Y-111322663D01*
X236515563Y-111317606D01*
X236515566Y-111317601D01*
X239510505Y-108322665D01*
X239579689Y-108202835D01*
X239606172Y-108104000D01*
X239615501Y-108069185D01*
X239615501Y-107927054D01*
X239615500Y-107927036D01*
X239615500Y-104493143D01*
X239633513Y-104449656D01*
X240074657Y-104008513D01*
X240118144Y-103990500D01*
X240169949Y-103990500D01*
X240213436Y-104008513D01*
X240224743Y-104024076D01*
X240233768Y-104041788D01*
X240233771Y-104041793D01*
X240335584Y-104181926D01*
X240458073Y-104304415D01*
X240534641Y-104360045D01*
X240598212Y-104406232D01*
X240752555Y-104484873D01*
X240917296Y-104538401D01*
X240917299Y-104538402D01*
X241088389Y-104565500D01*
X241088393Y-104565500D01*
X241511607Y-104565500D01*
X241511611Y-104565500D01*
X241682701Y-104538402D01*
X241847445Y-104484873D01*
X242001788Y-104406232D01*
X242141928Y-104304414D01*
X242264414Y-104181928D01*
X242366232Y-104041788D01*
X242444873Y-103887445D01*
X242498402Y-103722701D01*
X242525500Y-103551611D01*
X242525500Y-103378389D01*
X242498402Y-103207299D01*
X242444873Y-103042555D01*
X242366232Y-102888212D01*
X242264414Y-102748072D01*
X242141928Y-102625586D01*
X242141927Y-102625585D01*
X242141926Y-102625584D01*
X242001790Y-102523769D01*
X241847446Y-102445127D01*
X241734965Y-102408579D01*
X241699173Y-102378009D01*
X241695480Y-102331084D01*
X241726050Y-102295292D01*
X241740746Y-102290524D01*
X241740651Y-102290125D01*
X241742998Y-102289561D01*
X241946290Y-102223508D01*
X241946291Y-102223507D01*
X242136749Y-102126464D01*
X242309674Y-102000825D01*
X242309676Y-102000825D01*
X242460825Y-101849676D01*
X242460825Y-101849674D01*
X242586464Y-101676749D01*
X242683507Y-101486291D01*
X242683508Y-101486290D01*
X242749560Y-101283000D01*
X242759698Y-101219000D01*
X241701836Y-101219000D01*
X241742630Y-101148343D01*
X241775000Y-101027535D01*
X241775000Y-100902465D01*
X241742630Y-100781657D01*
X241701836Y-100711000D01*
X242759697Y-100711000D01*
X242749560Y-100646999D01*
X242683508Y-100443709D01*
X242683507Y-100443708D01*
X242586464Y-100253250D01*
X242460825Y-100080325D01*
X242460825Y-100080324D01*
X242309676Y-99929175D01*
X242309674Y-99929174D01*
X242136749Y-99803535D01*
X241946291Y-99706492D01*
X241946290Y-99706491D01*
X241881650Y-99685489D01*
X241845857Y-99654920D01*
X241842164Y-99607995D01*
X241872733Y-99572202D01*
X241900653Y-99565499D01*
X242072872Y-99565499D01*
X242132483Y-99559091D01*
X242267331Y-99508796D01*
X242382546Y-99422546D01*
X242468796Y-99307331D01*
X242519091Y-99172483D01*
X242525500Y-99112873D01*
X242525499Y-97817128D01*
X242525097Y-97813393D01*
X242519091Y-97757518D01*
X242519090Y-97757514D01*
X242489070Y-97677027D01*
X242468796Y-97622669D01*
X242382546Y-97507454D01*
X242313314Y-97455627D01*
X242267333Y-97421205D01*
X242267328Y-97421203D01*
X242132487Y-97370910D01*
X242132485Y-97370909D01*
X242132483Y-97370909D01*
X242072873Y-97364500D01*
X242072871Y-97364500D01*
X240527127Y-97364500D01*
X240467518Y-97370908D01*
X240467514Y-97370909D01*
X240332671Y-97421203D01*
X240332666Y-97421205D01*
X240217454Y-97507454D01*
X240131205Y-97622666D01*
X240131203Y-97622671D01*
X240080909Y-97757515D01*
X240080908Y-97757516D01*
X240077999Y-97784576D01*
X240055440Y-97825887D01*
X240016852Y-97839500D01*
X239313391Y-97839500D01*
X239192554Y-97863535D01*
X239192545Y-97863538D01*
X239145396Y-97883067D01*
X239078717Y-97910687D01*
X239078715Y-97910688D01*
X239078714Y-97910689D01*
X239078711Y-97910690D01*
X238976273Y-97979136D01*
X238976267Y-97979141D01*
X237354139Y-99601269D01*
X237319915Y-99652490D01*
X237285689Y-99703711D01*
X237285684Y-99703721D01*
X237269484Y-99742834D01*
X237269484Y-99742835D01*
X237238537Y-99817546D01*
X237238535Y-99817553D01*
X237214500Y-99938390D01*
X237214500Y-106965436D01*
X237196487Y-107008923D01*
X235098923Y-109106487D01*
X235055436Y-109124500D01*
X218874564Y-109124500D01*
X218831077Y-109106487D01*
X216624863Y-106900273D01*
X233827500Y-106900273D01*
X233827500Y-107099726D01*
X233866408Y-107295328D01*
X233866410Y-107295336D01*
X233876288Y-107319183D01*
X233942734Y-107479599D01*
X234053540Y-107645431D01*
X234194569Y-107786460D01*
X234360401Y-107897266D01*
X234544665Y-107973590D01*
X234740273Y-108012499D01*
X234740274Y-108012500D01*
X234740277Y-108012500D01*
X234939726Y-108012500D01*
X234939726Y-108012499D01*
X235135335Y-107973590D01*
X235319599Y-107897266D01*
X235485431Y-107786460D01*
X235626460Y-107645431D01*
X235737266Y-107479599D01*
X235813590Y-107295335D01*
X235852499Y-107099726D01*
X235852500Y-107099726D01*
X235852500Y-106900274D01*
X235852499Y-106900273D01*
X235834594Y-106810261D01*
X235813590Y-106704665D01*
X235737266Y-106520401D01*
X235626460Y-106354569D01*
X235485431Y-106213540D01*
X235483245Y-106212079D01*
X235319604Y-106102737D01*
X235319602Y-106102736D01*
X235319599Y-106102734D01*
X235192161Y-106049948D01*
X235135336Y-106026410D01*
X235135328Y-106026408D01*
X234939726Y-105987500D01*
X234939723Y-105987500D01*
X234740277Y-105987500D01*
X234740274Y-105987500D01*
X234544671Y-106026408D01*
X234544663Y-106026410D01*
X234431012Y-106073486D01*
X234360401Y-106102734D01*
X234360398Y-106102735D01*
X234360395Y-106102737D01*
X234194571Y-106213538D01*
X234194569Y-106213539D01*
X234053539Y-106354569D01*
X234053538Y-106354571D01*
X233942737Y-106520395D01*
X233942735Y-106520398D01*
X233942734Y-106520401D01*
X233922528Y-106569183D01*
X233866410Y-106704663D01*
X233866408Y-106704671D01*
X233827500Y-106900273D01*
X216624863Y-106900273D01*
X216420751Y-106696161D01*
X216413105Y-106686845D01*
X216345276Y-106585331D01*
X216254669Y-106494724D01*
X216254668Y-106494723D01*
X216254669Y-106494723D01*
X216148128Y-106423536D01*
X216148129Y-106423536D01*
X216148127Y-106423535D01*
X216148120Y-106423532D01*
X216029752Y-106374501D01*
X216029738Y-106374497D01*
X215904072Y-106349500D01*
X215904069Y-106349500D01*
X215775931Y-106349500D01*
X215775928Y-106349500D01*
X215650261Y-106374497D01*
X215650247Y-106374501D01*
X215531879Y-106423532D01*
X215531871Y-106423536D01*
X215425331Y-106494723D01*
X215334723Y-106585331D01*
X215263536Y-106691871D01*
X215263532Y-106691879D01*
X215214501Y-106810247D01*
X215214497Y-106810261D01*
X215189500Y-106935927D01*
X215189500Y-107064072D01*
X215214497Y-107189738D01*
X215214501Y-107189752D01*
X215258233Y-107295328D01*
X215263535Y-107308127D01*
X215281574Y-107335124D01*
X215334723Y-107414668D01*
X215425331Y-107505276D01*
X215425330Y-107505276D01*
X215473866Y-107537706D01*
X215526845Y-107573105D01*
X215536161Y-107580751D01*
X218102592Y-110147182D01*
X218102599Y-110147190D01*
X218104142Y-110148733D01*
X218191267Y-110235858D01*
X218225416Y-110258675D01*
X218293710Y-110304309D01*
X218293712Y-110304310D01*
X218293714Y-110304311D01*
X218407548Y-110351463D01*
X218407551Y-110351463D01*
X218407555Y-110351465D01*
X218413674Y-110352682D01*
X218452812Y-110378832D01*
X218461995Y-110424997D01*
X218435845Y-110464135D01*
X218401677Y-110474500D01*
X217583143Y-110474500D01*
X217539656Y-110456487D01*
X214133513Y-107050344D01*
X214115500Y-107006857D01*
X214115500Y-104360045D01*
X233570000Y-104360045D01*
X233570000Y-104559954D01*
X233601272Y-104757392D01*
X233663045Y-104947512D01*
X233753797Y-105125622D01*
X233753800Y-105125627D01*
X233779621Y-105161167D01*
X234459000Y-104481788D01*
X234459000Y-104510160D01*
X234484964Y-104607061D01*
X234535124Y-104693940D01*
X234606060Y-104764876D01*
X234692939Y-104815036D01*
X234789840Y-104841000D01*
X234818210Y-104841000D01*
X234138832Y-105520376D01*
X234174378Y-105546203D01*
X234352487Y-105636954D01*
X234542607Y-105698727D01*
X234740045Y-105729999D01*
X234740053Y-105730000D01*
X234939947Y-105730000D01*
X234939954Y-105729999D01*
X235137392Y-105698727D01*
X235327512Y-105636954D01*
X235505616Y-105546205D01*
X235505624Y-105546201D01*
X235541167Y-105520376D01*
X234861790Y-104841000D01*
X234890160Y-104841000D01*
X234987061Y-104815036D01*
X235073940Y-104764876D01*
X235144876Y-104693940D01*
X235195036Y-104607061D01*
X235221000Y-104510160D01*
X235221000Y-104481790D01*
X235900376Y-105161167D01*
X235926201Y-105125624D01*
X235926205Y-105125616D01*
X236016954Y-104947512D01*
X236078727Y-104757392D01*
X236109999Y-104559954D01*
X236110000Y-104559946D01*
X236110000Y-104360053D01*
X236109999Y-104360045D01*
X236078727Y-104162607D01*
X236016954Y-103972487D01*
X235926203Y-103794378D01*
X235900376Y-103758832D01*
X235221000Y-104438208D01*
X235221000Y-104409840D01*
X235195036Y-104312939D01*
X235144876Y-104226060D01*
X235073940Y-104155124D01*
X234987061Y-104104964D01*
X234890160Y-104079000D01*
X234861788Y-104079000D01*
X235541167Y-103399621D01*
X235505627Y-103373800D01*
X235505622Y-103373797D01*
X235327512Y-103283045D01*
X235137392Y-103221272D01*
X234939954Y-103190000D01*
X234740045Y-103190000D01*
X234542607Y-103221272D01*
X234352490Y-103283045D01*
X234174371Y-103373801D01*
X234138831Y-103399621D01*
X234818210Y-104079000D01*
X234789840Y-104079000D01*
X234692939Y-104104964D01*
X234606060Y-104155124D01*
X234535124Y-104226060D01*
X234484964Y-104312939D01*
X234459000Y-104409840D01*
X234459000Y-104438210D01*
X233779621Y-103758831D01*
X233753801Y-103794371D01*
X233663045Y-103972490D01*
X233601272Y-104162607D01*
X233570000Y-104360045D01*
X214115500Y-104360045D01*
X214115500Y-101820273D01*
X233827500Y-101820273D01*
X233827500Y-102019726D01*
X233866408Y-102215328D01*
X233866410Y-102215335D01*
X233942734Y-102399599D01*
X233942736Y-102399602D01*
X233942737Y-102399604D01*
X234025702Y-102523769D01*
X234053540Y-102565431D01*
X234194569Y-102706460D01*
X234360401Y-102817266D01*
X234544665Y-102893590D01*
X234740273Y-102932499D01*
X234740274Y-102932500D01*
X234740277Y-102932500D01*
X234939726Y-102932500D01*
X234939726Y-102932499D01*
X235135335Y-102893590D01*
X235319599Y-102817266D01*
X235485431Y-102706460D01*
X235626460Y-102565431D01*
X235737266Y-102399599D01*
X235813590Y-102215335D01*
X235852499Y-102019726D01*
X235852500Y-102019726D01*
X235852500Y-101820274D01*
X235852499Y-101820273D01*
X235834704Y-101730814D01*
X235813590Y-101624665D01*
X235737266Y-101440401D01*
X235626460Y-101274569D01*
X235485431Y-101133540D01*
X235331692Y-101030814D01*
X235319604Y-101022737D01*
X235319602Y-101022736D01*
X235319599Y-101022734D01*
X235192161Y-100969948D01*
X235135336Y-100946410D01*
X235135328Y-100946408D01*
X234939726Y-100907500D01*
X234939723Y-100907500D01*
X234740277Y-100907500D01*
X234740274Y-100907500D01*
X234544671Y-100946408D01*
X234544663Y-100946410D01*
X234431012Y-100993486D01*
X234360401Y-101022734D01*
X234360398Y-101022735D01*
X234360395Y-101022737D01*
X234194571Y-101133538D01*
X234194569Y-101133539D01*
X234053539Y-101274569D01*
X234053538Y-101274571D01*
X233942737Y-101440395D01*
X233942735Y-101440398D01*
X233942734Y-101440401D01*
X233927437Y-101477331D01*
X233866410Y-101624663D01*
X233866410Y-101624665D01*
X233827500Y-101820273D01*
X214115500Y-101820273D01*
X214115500Y-99280273D01*
X233827500Y-99280273D01*
X233827500Y-99479726D01*
X233866408Y-99675328D01*
X233866410Y-99675336D01*
X233889948Y-99732161D01*
X233942734Y-99859599D01*
X234053540Y-100025431D01*
X234194569Y-100166460D01*
X234360401Y-100277266D01*
X234544665Y-100353590D01*
X234740273Y-100392499D01*
X234740274Y-100392500D01*
X234740277Y-100392500D01*
X234939726Y-100392500D01*
X234939726Y-100392499D01*
X235135335Y-100353590D01*
X235319599Y-100277266D01*
X235485431Y-100166460D01*
X235626460Y-100025431D01*
X235737266Y-99859599D01*
X235813590Y-99675335D01*
X235852499Y-99479726D01*
X235852500Y-99479726D01*
X235852500Y-99280274D01*
X235852499Y-99280273D01*
X235831058Y-99172485D01*
X235813590Y-99084665D01*
X235737266Y-98900401D01*
X235626460Y-98734569D01*
X235485431Y-98593540D01*
X235483245Y-98592079D01*
X235319604Y-98482737D01*
X235319602Y-98482736D01*
X235319599Y-98482734D01*
X235192161Y-98429948D01*
X235135336Y-98406410D01*
X235135328Y-98406408D01*
X234939726Y-98367500D01*
X234939723Y-98367500D01*
X234740277Y-98367500D01*
X234740274Y-98367500D01*
X234544671Y-98406408D01*
X234544663Y-98406410D01*
X234431012Y-98453486D01*
X234360401Y-98482734D01*
X234360398Y-98482735D01*
X234360395Y-98482737D01*
X234194571Y-98593538D01*
X234194569Y-98593539D01*
X234053539Y-98734569D01*
X234053538Y-98734571D01*
X233942737Y-98900395D01*
X233942735Y-98900398D01*
X233942734Y-98900401D01*
X233930225Y-98930601D01*
X233866410Y-99084663D01*
X233866408Y-99084671D01*
X233827500Y-99280273D01*
X214115500Y-99280273D01*
X214115500Y-96740273D01*
X233827500Y-96740273D01*
X233827500Y-96939726D01*
X233866408Y-97135328D01*
X233866410Y-97135336D01*
X233888328Y-97188250D01*
X233942734Y-97319599D01*
X233942736Y-97319602D01*
X233942737Y-97319604D01*
X234010624Y-97421203D01*
X234053540Y-97485431D01*
X234194569Y-97626460D01*
X234360401Y-97737266D01*
X234544665Y-97813590D01*
X234740273Y-97852499D01*
X234740274Y-97852500D01*
X234740277Y-97852500D01*
X234939726Y-97852500D01*
X234939726Y-97852499D01*
X235135335Y-97813590D01*
X235319599Y-97737266D01*
X235485431Y-97626460D01*
X235626460Y-97485431D01*
X235737266Y-97319599D01*
X235813590Y-97135335D01*
X235852499Y-96939726D01*
X235852500Y-96939726D01*
X235852500Y-96740274D01*
X235852499Y-96740273D01*
X235843279Y-96693923D01*
X235813590Y-96544665D01*
X235737266Y-96360401D01*
X235626460Y-96194569D01*
X235485431Y-96053540D01*
X235483245Y-96052079D01*
X235319604Y-95942737D01*
X235319602Y-95942736D01*
X235319599Y-95942734D01*
X235192161Y-95889948D01*
X235135336Y-95866410D01*
X235135328Y-95866408D01*
X234939726Y-95827500D01*
X234939723Y-95827500D01*
X234740277Y-95827500D01*
X234740274Y-95827500D01*
X234544671Y-95866408D01*
X234544663Y-95866410D01*
X234431012Y-95913486D01*
X234360401Y-95942734D01*
X234360398Y-95942735D01*
X234360395Y-95942737D01*
X234194571Y-96053538D01*
X234194569Y-96053539D01*
X234053539Y-96194569D01*
X234053538Y-96194571D01*
X233942737Y-96360395D01*
X233942735Y-96360398D01*
X233942734Y-96360401D01*
X233913486Y-96431012D01*
X233866410Y-96544663D01*
X233866408Y-96544671D01*
X233827500Y-96740273D01*
X214115500Y-96740273D01*
X214115500Y-94200273D01*
X233827500Y-94200273D01*
X233827500Y-94399726D01*
X233866408Y-94595328D01*
X233866410Y-94595335D01*
X233942734Y-94779599D01*
X234053540Y-94945431D01*
X234194569Y-95086460D01*
X234360401Y-95197266D01*
X234544665Y-95273590D01*
X234740273Y-95312499D01*
X234740274Y-95312500D01*
X234740277Y-95312500D01*
X234939726Y-95312500D01*
X234939726Y-95312499D01*
X235135335Y-95273590D01*
X235319599Y-95197266D01*
X235485431Y-95086460D01*
X235626460Y-94945431D01*
X235737266Y-94779599D01*
X235813590Y-94595335D01*
X235852499Y-94399726D01*
X235852500Y-94399726D01*
X235852500Y-94200274D01*
X235852499Y-94200273D01*
X235813591Y-94004671D01*
X235813590Y-94004665D01*
X235737266Y-93820401D01*
X235626460Y-93654569D01*
X235485431Y-93513540D01*
X235483245Y-93512079D01*
X235319604Y-93402737D01*
X235319602Y-93402736D01*
X235319599Y-93402734D01*
X235192161Y-93349948D01*
X235135336Y-93326410D01*
X235135328Y-93326408D01*
X234939726Y-93287500D01*
X234939723Y-93287500D01*
X234740277Y-93287500D01*
X234740274Y-93287500D01*
X234544671Y-93326408D01*
X234544663Y-93326410D01*
X234431012Y-93373486D01*
X234360401Y-93402734D01*
X234360398Y-93402735D01*
X234360395Y-93402737D01*
X234194571Y-93513538D01*
X234194569Y-93513539D01*
X234053539Y-93654569D01*
X234053538Y-93654571D01*
X233942737Y-93820395D01*
X233942735Y-93820398D01*
X233942734Y-93820401D01*
X233913486Y-93891012D01*
X233866410Y-94004663D01*
X233866408Y-94004671D01*
X233827500Y-94200273D01*
X214115500Y-94200273D01*
X214115500Y-91660273D01*
X233827500Y-91660273D01*
X233827500Y-91859726D01*
X233866408Y-92055328D01*
X233866410Y-92055335D01*
X233942734Y-92239599D01*
X234053540Y-92405431D01*
X234194569Y-92546460D01*
X234360401Y-92657266D01*
X234544665Y-92733590D01*
X234740273Y-92772499D01*
X234740274Y-92772500D01*
X234740277Y-92772500D01*
X234939726Y-92772500D01*
X234939726Y-92772499D01*
X235135335Y-92733590D01*
X235319599Y-92657266D01*
X235485431Y-92546460D01*
X235626460Y-92405431D01*
X235737266Y-92239599D01*
X235813590Y-92055335D01*
X235852499Y-91859726D01*
X235852500Y-91859726D01*
X235852500Y-91660274D01*
X235852499Y-91660273D01*
X235842285Y-91608926D01*
X235813590Y-91464665D01*
X235737266Y-91280401D01*
X235626460Y-91114569D01*
X235485431Y-90973540D01*
X235421492Y-90930817D01*
X235319604Y-90862737D01*
X235319602Y-90862736D01*
X235319599Y-90862734D01*
X235188642Y-90808490D01*
X235181146Y-90805385D01*
X240074500Y-90805385D01*
X240074500Y-90978614D01*
X240101598Y-91149703D01*
X240155127Y-91314446D01*
X240233769Y-91468790D01*
X240335584Y-91608926D01*
X240335585Y-91608927D01*
X240335586Y-91608928D01*
X240458072Y-91731414D01*
X240598212Y-91833232D01*
X240752555Y-91911873D01*
X240917296Y-91965401D01*
X240917299Y-91965402D01*
X241088389Y-91992500D01*
X241088393Y-91992500D01*
X241511607Y-91992500D01*
X241511611Y-91992500D01*
X241682701Y-91965402D01*
X241847445Y-91911873D01*
X242001788Y-91833232D01*
X242141928Y-91731414D01*
X242264414Y-91608928D01*
X242366232Y-91468788D01*
X242444873Y-91314445D01*
X242498402Y-91149701D01*
X242525500Y-90978611D01*
X242525500Y-90805389D01*
X242498402Y-90634299D01*
X242444873Y-90469555D01*
X242366232Y-90315212D01*
X242306138Y-90232500D01*
X242264415Y-90175073D01*
X242141926Y-90052584D01*
X242001790Y-89950769D01*
X241847446Y-89872127D01*
X241682702Y-89818598D01*
X241682704Y-89818598D01*
X241511614Y-89791500D01*
X241511611Y-89791500D01*
X241088389Y-89791500D01*
X241088385Y-89791500D01*
X240917296Y-89818598D01*
X240752553Y-89872127D01*
X240598209Y-89950769D01*
X240458073Y-90052584D01*
X240458073Y-90052585D01*
X240458072Y-90052586D01*
X240335586Y-90175072D01*
X240335585Y-90175073D01*
X240335584Y-90175073D01*
X240233769Y-90315209D01*
X240155127Y-90469553D01*
X240101598Y-90634296D01*
X240074500Y-90805385D01*
X235181146Y-90805385D01*
X235135336Y-90786410D01*
X235135328Y-90786408D01*
X234939726Y-90747500D01*
X234939723Y-90747500D01*
X234740277Y-90747500D01*
X234740274Y-90747500D01*
X234544671Y-90786408D01*
X234544663Y-90786410D01*
X234431012Y-90833486D01*
X234360401Y-90862734D01*
X234360398Y-90862735D01*
X234360395Y-90862737D01*
X234194571Y-90973538D01*
X234194569Y-90973539D01*
X234053539Y-91114569D01*
X234053538Y-91114571D01*
X233942737Y-91280395D01*
X233942735Y-91280398D01*
X233942734Y-91280401D01*
X233937576Y-91292854D01*
X233866410Y-91464663D01*
X233866408Y-91464671D01*
X233827500Y-91660273D01*
X214115500Y-91660273D01*
X214115500Y-78060814D01*
X214115499Y-78060813D01*
X214079690Y-77927170D01*
X214079689Y-77927168D01*
X214079688Y-77927164D01*
X214010505Y-77807335D01*
X213912665Y-77709495D01*
X213910522Y-77707352D01*
X213910511Y-77707342D01*
X210447604Y-74244435D01*
X210429591Y-74200948D01*
X210430773Y-74188949D01*
X210452500Y-74079724D01*
X210452500Y-73880274D01*
X210452499Y-73880273D01*
X210413591Y-73684671D01*
X210413590Y-73684665D01*
X210337266Y-73500401D01*
X210226460Y-73334569D01*
X210085431Y-73193540D01*
X210083245Y-73192079D01*
X209919604Y-73082737D01*
X209919602Y-73082736D01*
X209919599Y-73082734D01*
X209792161Y-73029948D01*
X209735336Y-73006410D01*
X209735328Y-73006408D01*
X209539726Y-72967500D01*
X209539723Y-72967500D01*
X209340277Y-72967500D01*
X209340274Y-72967500D01*
X209144671Y-73006408D01*
X209144663Y-73006410D01*
X209031012Y-73053486D01*
X208960401Y-73082734D01*
X208960398Y-73082735D01*
X208960395Y-73082737D01*
X208794571Y-73193538D01*
X208794569Y-73193539D01*
X208653539Y-73334569D01*
X208653538Y-73334571D01*
X208542737Y-73500395D01*
X208542735Y-73500398D01*
X208542734Y-73500401D01*
X208513486Y-73571012D01*
X208466410Y-73684663D01*
X208466408Y-73684671D01*
X208427500Y-73880273D01*
X208427500Y-74079726D01*
X208466408Y-74275328D01*
X208466410Y-74275335D01*
X208542734Y-74459599D01*
X208653540Y-74625431D01*
X208794569Y-74766460D01*
X208960401Y-74877266D01*
X209144665Y-74953590D01*
X209340273Y-74992499D01*
X209340274Y-74992500D01*
X209340277Y-74992500D01*
X209539725Y-74992500D01*
X209602790Y-74979955D01*
X209648949Y-74970773D01*
X209695115Y-74979955D01*
X209704435Y-74987604D01*
X213046487Y-78329656D01*
X213064500Y-78373143D01*
X213064500Y-107177037D01*
X213064499Y-107177055D01*
X213064499Y-107319185D01*
X213085815Y-107398733D01*
X213085815Y-107398734D01*
X213100309Y-107452829D01*
X213100311Y-107452833D01*
X213100312Y-107452836D01*
X213169495Y-107572665D01*
X213169498Y-107572668D01*
X213270833Y-107674004D01*
X213270847Y-107674016D01*
X216917342Y-111320511D01*
X216917347Y-111320517D01*
X216919495Y-111322665D01*
X217017335Y-111420505D01*
X217101564Y-111469134D01*
X217101563Y-111469134D01*
X217101566Y-111469135D01*
X217137023Y-111489608D01*
X217165676Y-111526952D01*
X217159530Y-111573619D01*
X217122186Y-111602272D01*
X217106271Y-111604367D01*
X215963010Y-111604367D01*
X215919523Y-111586354D01*
X212633513Y-108300344D01*
X212615500Y-108256857D01*
X212615500Y-84324147D01*
X212615501Y-84324134D01*
X212615501Y-84180814D01*
X212581784Y-84054987D01*
X212581784Y-84054984D01*
X212579689Y-84047167D01*
X212579688Y-84047165D01*
X212579688Y-84047164D01*
X212510505Y-83927335D01*
X212412665Y-83829495D01*
X212410522Y-83827352D01*
X212410511Y-83827342D01*
X210447604Y-81864435D01*
X210429591Y-81820948D01*
X210430773Y-81808949D01*
X210452500Y-81699724D01*
X210452500Y-81500274D01*
X210452499Y-81500273D01*
X210413591Y-81304671D01*
X210413590Y-81304665D01*
X210337266Y-81120401D01*
X210226460Y-80954569D01*
X210085431Y-80813540D01*
X210083245Y-80812079D01*
X209919604Y-80702737D01*
X209919602Y-80702736D01*
X209919599Y-80702734D01*
X209792161Y-80649948D01*
X209735336Y-80626410D01*
X209735328Y-80626408D01*
X209539726Y-80587500D01*
X209539723Y-80587500D01*
X209340277Y-80587500D01*
X209340274Y-80587500D01*
X209144671Y-80626408D01*
X209144663Y-80626410D01*
X209031012Y-80673486D01*
X208960401Y-80702734D01*
X208960398Y-80702735D01*
X208960395Y-80702737D01*
X208794571Y-80813538D01*
X208794569Y-80813539D01*
X208653539Y-80954569D01*
X208653538Y-80954571D01*
X208542737Y-81120395D01*
X208542735Y-81120398D01*
X208542734Y-81120401D01*
X208513486Y-81191012D01*
X208466410Y-81304663D01*
X208466408Y-81304671D01*
X208427500Y-81500273D01*
X208427500Y-81699726D01*
X208466408Y-81895328D01*
X208466410Y-81895335D01*
X208542734Y-82079599D01*
X208653540Y-82245431D01*
X208794569Y-82386460D01*
X208960401Y-82497266D01*
X209144665Y-82573590D01*
X209340273Y-82612499D01*
X209340274Y-82612500D01*
X209340277Y-82612500D01*
X209539725Y-82612500D01*
X209602790Y-82599955D01*
X209648949Y-82590773D01*
X209695115Y-82599955D01*
X209704435Y-82607604D01*
X211546487Y-84449656D01*
X211564500Y-84493143D01*
X211564500Y-108427037D01*
X211564499Y-108427055D01*
X211564499Y-108569185D01*
X211592719Y-108674499D01*
X211592719Y-108674500D01*
X211600309Y-108702829D01*
X211600311Y-108702833D01*
X211600312Y-108702836D01*
X211669495Y-108822665D01*
X211669498Y-108822668D01*
X211770833Y-108924004D01*
X211770847Y-108924016D01*
X215216344Y-112369513D01*
X215234357Y-112413000D01*
X215216344Y-112456487D01*
X215172857Y-112474500D01*
X207183143Y-112474500D01*
X207139656Y-112456487D01*
X203295456Y-108612287D01*
X203277443Y-108568800D01*
X203278200Y-108559179D01*
X203290499Y-108481523D01*
X203290500Y-108481519D01*
X203290499Y-107218482D01*
X203275646Y-107124696D01*
X203272201Y-107117935D01*
X203265500Y-107090019D01*
X203265500Y-106900273D01*
X208427500Y-106900273D01*
X208427500Y-107099726D01*
X208466408Y-107295328D01*
X208466410Y-107295336D01*
X208476288Y-107319183D01*
X208542734Y-107479599D01*
X208653540Y-107645431D01*
X208794569Y-107786460D01*
X208960401Y-107897266D01*
X209144665Y-107973590D01*
X209340273Y-108012499D01*
X209340274Y-108012500D01*
X209340277Y-108012500D01*
X209539726Y-108012500D01*
X209539726Y-108012499D01*
X209735335Y-107973590D01*
X209919599Y-107897266D01*
X210085431Y-107786460D01*
X210226460Y-107645431D01*
X210337266Y-107479599D01*
X210413590Y-107295335D01*
X210452499Y-107099726D01*
X210452500Y-107099726D01*
X210452500Y-106900274D01*
X210452499Y-106900273D01*
X210434594Y-106810261D01*
X210413590Y-106704665D01*
X210337266Y-106520401D01*
X210226460Y-106354569D01*
X210085431Y-106213540D01*
X210083245Y-106212079D01*
X209919604Y-106102737D01*
X209919602Y-106102736D01*
X209919599Y-106102734D01*
X209792161Y-106049948D01*
X209735336Y-106026410D01*
X209735328Y-106026408D01*
X209539726Y-105987500D01*
X209539723Y-105987500D01*
X209340277Y-105987500D01*
X209340274Y-105987500D01*
X209144671Y-106026408D01*
X209144663Y-106026410D01*
X209031012Y-106073486D01*
X208960401Y-106102734D01*
X208960398Y-106102735D01*
X208960395Y-106102737D01*
X208794571Y-106213538D01*
X208794569Y-106213539D01*
X208653539Y-106354569D01*
X208653538Y-106354571D01*
X208542737Y-106520395D01*
X208542735Y-106520398D01*
X208542734Y-106520401D01*
X208522528Y-106569183D01*
X208466410Y-106704663D01*
X208466408Y-106704671D01*
X208427500Y-106900273D01*
X203265500Y-106900273D01*
X203265500Y-104360045D01*
X208170000Y-104360045D01*
X208170000Y-104559954D01*
X208201272Y-104757392D01*
X208263045Y-104947512D01*
X208353797Y-105125622D01*
X208353800Y-105125627D01*
X208379621Y-105161167D01*
X209059000Y-104481788D01*
X209059000Y-104510160D01*
X209084964Y-104607061D01*
X209135124Y-104693940D01*
X209206060Y-104764876D01*
X209292939Y-104815036D01*
X209389840Y-104841000D01*
X209418210Y-104841000D01*
X208738832Y-105520376D01*
X208774378Y-105546203D01*
X208952487Y-105636954D01*
X209142607Y-105698727D01*
X209340045Y-105729999D01*
X209340053Y-105730000D01*
X209539947Y-105730000D01*
X209539954Y-105729999D01*
X209737392Y-105698727D01*
X209927512Y-105636954D01*
X210105616Y-105546205D01*
X210105624Y-105546201D01*
X210141167Y-105520376D01*
X209461790Y-104841000D01*
X209490160Y-104841000D01*
X209587061Y-104815036D01*
X209673940Y-104764876D01*
X209744876Y-104693940D01*
X209795036Y-104607061D01*
X209821000Y-104510160D01*
X209821000Y-104481790D01*
X210500376Y-105161167D01*
X210526201Y-105125624D01*
X210526205Y-105125616D01*
X210616954Y-104947512D01*
X210678727Y-104757392D01*
X210709999Y-104559954D01*
X210710000Y-104559946D01*
X210710000Y-104360053D01*
X210709999Y-104360045D01*
X210678727Y-104162607D01*
X210616954Y-103972487D01*
X210526203Y-103794378D01*
X210500376Y-103758832D01*
X209821000Y-104438208D01*
X209821000Y-104409840D01*
X209795036Y-104312939D01*
X209744876Y-104226060D01*
X209673940Y-104155124D01*
X209587061Y-104104964D01*
X209490160Y-104079000D01*
X209461788Y-104079000D01*
X210141167Y-103399621D01*
X210105627Y-103373800D01*
X210105622Y-103373797D01*
X209927512Y-103283045D01*
X209737392Y-103221272D01*
X209539954Y-103190000D01*
X209340045Y-103190000D01*
X209142607Y-103221272D01*
X208952490Y-103283045D01*
X208774371Y-103373801D01*
X208738831Y-103399621D01*
X209418210Y-104079000D01*
X209389840Y-104079000D01*
X209292939Y-104104964D01*
X209206060Y-104155124D01*
X209135124Y-104226060D01*
X209084964Y-104312939D01*
X209059000Y-104409840D01*
X209059000Y-104438210D01*
X208379621Y-103758831D01*
X208353801Y-103794371D01*
X208263045Y-103972490D01*
X208201272Y-104162607D01*
X208170000Y-104360045D01*
X203265500Y-104360045D01*
X203265500Y-102043142D01*
X203283512Y-101999656D01*
X203571040Y-101712128D01*
X204469500Y-101712128D01*
X204469500Y-103107872D01*
X204475908Y-103167481D01*
X204475909Y-103167485D01*
X204475910Y-103167487D01*
X204526204Y-103302331D01*
X204612454Y-103417546D01*
X204727669Y-103503796D01*
X204862517Y-103554091D01*
X204922127Y-103560500D01*
X205767872Y-103560499D01*
X205827483Y-103554091D01*
X205962331Y-103503796D01*
X206077546Y-103417546D01*
X206163796Y-103302331D01*
X206214091Y-103167483D01*
X206220500Y-103107873D01*
X206220499Y-101820273D01*
X208427500Y-101820273D01*
X208427500Y-102019726D01*
X208466408Y-102215328D01*
X208466410Y-102215335D01*
X208542734Y-102399599D01*
X208542736Y-102399602D01*
X208542737Y-102399604D01*
X208625702Y-102523769D01*
X208653540Y-102565431D01*
X208794569Y-102706460D01*
X208960401Y-102817266D01*
X209144665Y-102893590D01*
X209340273Y-102932499D01*
X209340274Y-102932500D01*
X209340277Y-102932500D01*
X209539726Y-102932500D01*
X209539726Y-102932499D01*
X209735335Y-102893590D01*
X209919599Y-102817266D01*
X210085431Y-102706460D01*
X210226460Y-102565431D01*
X210337266Y-102399599D01*
X210413590Y-102215335D01*
X210452499Y-102019726D01*
X210452500Y-102019726D01*
X210452500Y-101820274D01*
X210452499Y-101820273D01*
X210434704Y-101730814D01*
X210413590Y-101624665D01*
X210337266Y-101440401D01*
X210226460Y-101274569D01*
X210085431Y-101133540D01*
X209931692Y-101030814D01*
X209919604Y-101022737D01*
X209919602Y-101022736D01*
X209919599Y-101022734D01*
X209792161Y-100969948D01*
X209735336Y-100946410D01*
X209735328Y-100946408D01*
X209539726Y-100907500D01*
X209539723Y-100907500D01*
X209340277Y-100907500D01*
X209340274Y-100907500D01*
X209144671Y-100946408D01*
X209144663Y-100946410D01*
X209031012Y-100993486D01*
X208960401Y-101022734D01*
X208960398Y-101022735D01*
X208960395Y-101022737D01*
X208794571Y-101133538D01*
X208794569Y-101133539D01*
X208653539Y-101274569D01*
X208653538Y-101274571D01*
X208542737Y-101440395D01*
X208542735Y-101440398D01*
X208542734Y-101440401D01*
X208527437Y-101477331D01*
X208466410Y-101624663D01*
X208466410Y-101624665D01*
X208427500Y-101820273D01*
X206220499Y-101820273D01*
X206220499Y-101712128D01*
X206214091Y-101652517D01*
X206163796Y-101517669D01*
X206077546Y-101402454D01*
X206000924Y-101345095D01*
X205962333Y-101316205D01*
X205962328Y-101316203D01*
X205827487Y-101265910D01*
X205827485Y-101265909D01*
X205827483Y-101265909D01*
X205767873Y-101259500D01*
X205767871Y-101259500D01*
X204922127Y-101259500D01*
X204862518Y-101265908D01*
X204862514Y-101265909D01*
X204727671Y-101316203D01*
X204727666Y-101316205D01*
X204612454Y-101402454D01*
X204526205Y-101517666D01*
X204526203Y-101517671D01*
X204475910Y-101652512D01*
X204469500Y-101712128D01*
X203571040Y-101712128D01*
X205577601Y-99705566D01*
X205577606Y-99705563D01*
X205582663Y-99700505D01*
X205582665Y-99700505D01*
X205680505Y-99602665D01*
X205749688Y-99482836D01*
X205752909Y-99470817D01*
X205785499Y-99349186D01*
X205785500Y-99349185D01*
X205785500Y-99280273D01*
X208427500Y-99280273D01*
X208427500Y-99479726D01*
X208466408Y-99675328D01*
X208466410Y-99675336D01*
X208489948Y-99732161D01*
X208542734Y-99859599D01*
X208653540Y-100025431D01*
X208794569Y-100166460D01*
X208960401Y-100277266D01*
X209144665Y-100353590D01*
X209340273Y-100392499D01*
X209340274Y-100392500D01*
X209340277Y-100392500D01*
X209539726Y-100392500D01*
X209539726Y-100392499D01*
X209735335Y-100353590D01*
X209919599Y-100277266D01*
X210085431Y-100166460D01*
X210226460Y-100025431D01*
X210337266Y-99859599D01*
X210413590Y-99675335D01*
X210452499Y-99479726D01*
X210452500Y-99479726D01*
X210452500Y-99280274D01*
X210452499Y-99280273D01*
X210431058Y-99172485D01*
X210413590Y-99084665D01*
X210337266Y-98900401D01*
X210226460Y-98734569D01*
X210085431Y-98593540D01*
X210083245Y-98592079D01*
X209919604Y-98482737D01*
X209919602Y-98482736D01*
X209919599Y-98482734D01*
X209792161Y-98429948D01*
X209735336Y-98406410D01*
X209735328Y-98406408D01*
X209539726Y-98367500D01*
X209539723Y-98367500D01*
X209340277Y-98367500D01*
X209340274Y-98367500D01*
X209144671Y-98406408D01*
X209144663Y-98406410D01*
X209031012Y-98453486D01*
X208960401Y-98482734D01*
X208960398Y-98482735D01*
X208960395Y-98482737D01*
X208794571Y-98593538D01*
X208794569Y-98593539D01*
X208653539Y-98734569D01*
X208653538Y-98734571D01*
X208542737Y-98900395D01*
X208542735Y-98900398D01*
X208542734Y-98900401D01*
X208530225Y-98930601D01*
X208466410Y-99084663D01*
X208466408Y-99084671D01*
X208427500Y-99280273D01*
X205785500Y-99280273D01*
X205785500Y-98905051D01*
X205803513Y-98861564D01*
X205819076Y-98850256D01*
X205836788Y-98841232D01*
X205976928Y-98739414D01*
X206099414Y-98616928D01*
X206201232Y-98476788D01*
X206279873Y-98322445D01*
X206333402Y-98157701D01*
X206360500Y-97986611D01*
X206360500Y-97813389D01*
X206333402Y-97642299D01*
X206279873Y-97477555D01*
X206201232Y-97323212D01*
X206099414Y-97183072D01*
X205976928Y-97060586D01*
X205976927Y-97060585D01*
X205976926Y-97060584D01*
X205836790Y-96958769D01*
X205682446Y-96880127D01*
X205517702Y-96826598D01*
X205517704Y-96826598D01*
X205346614Y-96799500D01*
X205346611Y-96799500D01*
X205173389Y-96799500D01*
X205173385Y-96799500D01*
X205002296Y-96826598D01*
X204837553Y-96880127D01*
X204683209Y-96958769D01*
X204543073Y-97060584D01*
X204543073Y-97060585D01*
X204543072Y-97060586D01*
X204420586Y-97183072D01*
X204420585Y-97183073D01*
X204420584Y-97183073D01*
X204318769Y-97323209D01*
X204240127Y-97477553D01*
X204186598Y-97642296D01*
X204159500Y-97813385D01*
X204159500Y-97986614D01*
X204186598Y-98157703D01*
X204240127Y-98322446D01*
X204318769Y-98476790D01*
X204420584Y-98616926D01*
X204543073Y-98739415D01*
X204605369Y-98784676D01*
X204683212Y-98841232D01*
X204700920Y-98850254D01*
X204731489Y-98886045D01*
X204734500Y-98905051D01*
X204734500Y-99036856D01*
X204716487Y-99080343D01*
X202319498Y-101477331D01*
X202319494Y-101477336D01*
X202250312Y-101597164D01*
X202250309Y-101597170D01*
X202242943Y-101624664D01*
X202242943Y-101624665D01*
X202214499Y-101730814D01*
X202214499Y-101874134D01*
X202214500Y-101874147D01*
X202214500Y-107090019D01*
X202207798Y-107117935D01*
X202204354Y-107124696D01*
X202204354Y-107124697D01*
X202204353Y-107124700D01*
X202189500Y-107218477D01*
X202189500Y-108481513D01*
X202189501Y-108481523D01*
X202204353Y-108575301D01*
X202204353Y-108575302D01*
X202204354Y-108575304D01*
X202207797Y-108582061D01*
X202214500Y-108609981D01*
X202214500Y-108727037D01*
X202214499Y-108727055D01*
X202214499Y-108869185D01*
X202242743Y-108974591D01*
X202250310Y-109002832D01*
X202250311Y-109002833D01*
X202250312Y-109002836D01*
X202319495Y-109122665D01*
X202319498Y-109122668D01*
X202420833Y-109224004D01*
X202420847Y-109224016D01*
X206517342Y-113320511D01*
X206517347Y-113320517D01*
X206519495Y-113322665D01*
X206617335Y-113420505D01*
X206685291Y-113459739D01*
X206713945Y-113497083D01*
X206707802Y-113543750D01*
X206670458Y-113572404D01*
X206654541Y-113574500D01*
X206383143Y-113574500D01*
X206339656Y-113556487D01*
X201783513Y-109000344D01*
X201765500Y-108956857D01*
X201765500Y-108609981D01*
X201772202Y-108582061D01*
X201775646Y-108575304D01*
X201790500Y-108481519D01*
X201790499Y-107218482D01*
X201775646Y-107124696D01*
X201772201Y-107117935D01*
X201765500Y-107090019D01*
X201765500Y-101343142D01*
X201783512Y-101299656D01*
X203037601Y-100045566D01*
X203037606Y-100045563D01*
X203042663Y-100040505D01*
X203042665Y-100040505D01*
X203140505Y-99942665D01*
X203209688Y-99822836D01*
X203211106Y-99817546D01*
X203241111Y-99705563D01*
X203245499Y-99689185D01*
X203245500Y-99689185D01*
X203245500Y-98905051D01*
X203263513Y-98861564D01*
X203279076Y-98850256D01*
X203296788Y-98841232D01*
X203436928Y-98739414D01*
X203559414Y-98616928D01*
X203661232Y-98476788D01*
X203739873Y-98322445D01*
X203793402Y-98157701D01*
X203820500Y-97986611D01*
X203820500Y-97813389D01*
X203793402Y-97642299D01*
X203739873Y-97477555D01*
X203661232Y-97323212D01*
X203559414Y-97183072D01*
X203436928Y-97060586D01*
X203436927Y-97060585D01*
X203436926Y-97060584D01*
X203296790Y-96958769D01*
X203142446Y-96880127D01*
X202977702Y-96826598D01*
X202977704Y-96826598D01*
X202806614Y-96799500D01*
X202806611Y-96799500D01*
X202633389Y-96799500D01*
X202633385Y-96799500D01*
X202462296Y-96826598D01*
X202297553Y-96880127D01*
X202143209Y-96958769D01*
X202003073Y-97060584D01*
X202003073Y-97060585D01*
X202003072Y-97060586D01*
X201880586Y-97183072D01*
X201880585Y-97183073D01*
X201880584Y-97183073D01*
X201778769Y-97323209D01*
X201700127Y-97477553D01*
X201646598Y-97642295D01*
X201641097Y-97677027D01*
X201616502Y-97717160D01*
X201570732Y-97728148D01*
X201530599Y-97703553D01*
X201519611Y-97677025D01*
X201504560Y-97581999D01*
X201438508Y-97378709D01*
X201438507Y-97378708D01*
X201341464Y-97188250D01*
X201215825Y-97015325D01*
X201215825Y-97015324D01*
X201064676Y-96864175D01*
X201064674Y-96864174D01*
X200958469Y-96787010D01*
X200894141Y-96740273D01*
X208427500Y-96740273D01*
X208427500Y-96939726D01*
X208466408Y-97135328D01*
X208466410Y-97135336D01*
X208488328Y-97188250D01*
X208542734Y-97319599D01*
X208542736Y-97319602D01*
X208542737Y-97319604D01*
X208610624Y-97421203D01*
X208653540Y-97485431D01*
X208794569Y-97626460D01*
X208960401Y-97737266D01*
X209144665Y-97813590D01*
X209340273Y-97852499D01*
X209340274Y-97852500D01*
X209340277Y-97852500D01*
X209539726Y-97852500D01*
X209539726Y-97852499D01*
X209735335Y-97813590D01*
X209919599Y-97737266D01*
X210085431Y-97626460D01*
X210226460Y-97485431D01*
X210337266Y-97319599D01*
X210413590Y-97135335D01*
X210452499Y-96939726D01*
X210452500Y-96939726D01*
X210452500Y-96740274D01*
X210452499Y-96740273D01*
X210443279Y-96693923D01*
X210413590Y-96544665D01*
X210337266Y-96360401D01*
X210226460Y-96194569D01*
X210085431Y-96053540D01*
X210083245Y-96052079D01*
X209919604Y-95942737D01*
X209919602Y-95942736D01*
X209919599Y-95942734D01*
X209792161Y-95889948D01*
X209735336Y-95866410D01*
X209735328Y-95866408D01*
X209539726Y-95827500D01*
X209539723Y-95827500D01*
X209340277Y-95827500D01*
X209340274Y-95827500D01*
X209144671Y-95866408D01*
X209144663Y-95866410D01*
X209031012Y-95913486D01*
X208960401Y-95942734D01*
X208960398Y-95942735D01*
X208960395Y-95942737D01*
X208794571Y-96053538D01*
X208794569Y-96053539D01*
X208653539Y-96194569D01*
X208653538Y-96194571D01*
X208542737Y-96360395D01*
X208542735Y-96360398D01*
X208542734Y-96360401D01*
X208513486Y-96431012D01*
X208466410Y-96544663D01*
X208466408Y-96544671D01*
X208427500Y-96740273D01*
X200894141Y-96740273D01*
X200891749Y-96738535D01*
X200701291Y-96641492D01*
X200701290Y-96641491D01*
X200498000Y-96575439D01*
X200434000Y-96565302D01*
X200434000Y-97469297D01*
X200372993Y-97434075D01*
X200245826Y-97400000D01*
X200114174Y-97400000D01*
X199987007Y-97434075D01*
X199926000Y-97469297D01*
X199926000Y-96565302D01*
X199861999Y-96575439D01*
X199658709Y-96641491D01*
X199658708Y-96641492D01*
X199468250Y-96738535D01*
X199295325Y-96864174D01*
X199144174Y-97015325D01*
X199018535Y-97188250D01*
X198921492Y-97378708D01*
X198921491Y-97378709D01*
X198855439Y-97581998D01*
X198840388Y-97677026D01*
X198815793Y-97717160D01*
X198770024Y-97728148D01*
X198729890Y-97703553D01*
X198718902Y-97677026D01*
X198718902Y-97677025D01*
X198713402Y-97642299D01*
X198659873Y-97477555D01*
X198581232Y-97323212D01*
X198479414Y-97183072D01*
X198356928Y-97060586D01*
X198356927Y-97060585D01*
X198356926Y-97060584D01*
X198216790Y-96958769D01*
X198062446Y-96880127D01*
X197897702Y-96826598D01*
X197897704Y-96826598D01*
X197726614Y-96799500D01*
X197726611Y-96799500D01*
X197553389Y-96799500D01*
X197553385Y-96799500D01*
X197382296Y-96826598D01*
X197217553Y-96880127D01*
X197063209Y-96958769D01*
X196923073Y-97060584D01*
X196923073Y-97060585D01*
X196923072Y-97060586D01*
X196800586Y-97183072D01*
X196800585Y-97183073D01*
X196800584Y-97183073D01*
X196698769Y-97323209D01*
X196620127Y-97477553D01*
X196566598Y-97642296D01*
X196539500Y-97813385D01*
X196200499Y-97813385D01*
X196173402Y-97642299D01*
X196119873Y-97477555D01*
X196041232Y-97323212D01*
X195939414Y-97183072D01*
X195908513Y-97152171D01*
X195890500Y-97108684D01*
X195890500Y-94200273D01*
X208427500Y-94200273D01*
X208427500Y-94399726D01*
X208466408Y-94595328D01*
X208466410Y-94595335D01*
X208542734Y-94779599D01*
X208653540Y-94945431D01*
X208794569Y-95086460D01*
X208960401Y-95197266D01*
X209144665Y-95273590D01*
X209340273Y-95312499D01*
X209340274Y-95312500D01*
X209340277Y-95312500D01*
X209539726Y-95312500D01*
X209539726Y-95312499D01*
X209735335Y-95273590D01*
X209919599Y-95197266D01*
X210085431Y-95086460D01*
X210226460Y-94945431D01*
X210337266Y-94779599D01*
X210413590Y-94595335D01*
X210452499Y-94399726D01*
X210452500Y-94399726D01*
X210452500Y-94200274D01*
X210452499Y-94200273D01*
X210413591Y-94004671D01*
X210413590Y-94004665D01*
X210337266Y-93820401D01*
X210226460Y-93654569D01*
X210085431Y-93513540D01*
X210083245Y-93512079D01*
X209919604Y-93402737D01*
X209919602Y-93402736D01*
X209919599Y-93402734D01*
X209792161Y-93349948D01*
X209735336Y-93326410D01*
X209735328Y-93326408D01*
X209539726Y-93287500D01*
X209539723Y-93287500D01*
X209340277Y-93287500D01*
X209340274Y-93287500D01*
X209144671Y-93326408D01*
X209144663Y-93326410D01*
X209031012Y-93373486D01*
X208960401Y-93402734D01*
X208960398Y-93402735D01*
X208960395Y-93402737D01*
X208794571Y-93513538D01*
X208794569Y-93513539D01*
X208653539Y-93654569D01*
X208653538Y-93654571D01*
X208542737Y-93820395D01*
X208542735Y-93820398D01*
X208542734Y-93820401D01*
X208513486Y-93891012D01*
X208466410Y-94004663D01*
X208466408Y-94004671D01*
X208427500Y-94200273D01*
X195890500Y-94200273D01*
X195890500Y-91660273D01*
X208427500Y-91660273D01*
X208427500Y-91859726D01*
X208466408Y-92055328D01*
X208466410Y-92055335D01*
X208542734Y-92239599D01*
X208653540Y-92405431D01*
X208794569Y-92546460D01*
X208960401Y-92657266D01*
X209144665Y-92733590D01*
X209340273Y-92772499D01*
X209340274Y-92772500D01*
X209340277Y-92772500D01*
X209539726Y-92772500D01*
X209539726Y-92772499D01*
X209735335Y-92733590D01*
X209919599Y-92657266D01*
X210085431Y-92546460D01*
X210226460Y-92405431D01*
X210337266Y-92239599D01*
X210413590Y-92055335D01*
X210452499Y-91859726D01*
X210452500Y-91859726D01*
X210452500Y-91660274D01*
X210452499Y-91660273D01*
X210442285Y-91608926D01*
X210413590Y-91464665D01*
X210337266Y-91280401D01*
X210226460Y-91114569D01*
X210085431Y-90973540D01*
X210021492Y-90930817D01*
X209919604Y-90862737D01*
X209919602Y-90862736D01*
X209919599Y-90862734D01*
X209792161Y-90809948D01*
X209735336Y-90786410D01*
X209735328Y-90786408D01*
X209539726Y-90747500D01*
X209539723Y-90747500D01*
X209340277Y-90747500D01*
X209340274Y-90747500D01*
X209144671Y-90786408D01*
X209144663Y-90786410D01*
X209031012Y-90833486D01*
X208960401Y-90862734D01*
X208960398Y-90862735D01*
X208960395Y-90862737D01*
X208794571Y-90973538D01*
X208794569Y-90973539D01*
X208653539Y-91114569D01*
X208653538Y-91114571D01*
X208542737Y-91280395D01*
X208542735Y-91280398D01*
X208542734Y-91280401D01*
X208537576Y-91292854D01*
X208466410Y-91464663D01*
X208466408Y-91464671D01*
X208427500Y-91660273D01*
X195890500Y-91660273D01*
X195890500Y-91336341D01*
X195908513Y-91292854D01*
X196132184Y-91069183D01*
X196422951Y-90778416D01*
X196505084Y-90655495D01*
X196561658Y-90518913D01*
X196563369Y-90510312D01*
X196590499Y-90373921D01*
X196590500Y-90373921D01*
X196590500Y-89120273D01*
X208427500Y-89120273D01*
X208427500Y-89319726D01*
X208466408Y-89515328D01*
X208466410Y-89515335D01*
X208542734Y-89699599D01*
X208542736Y-89699602D01*
X208542737Y-89699604D01*
X208622247Y-89818598D01*
X208653540Y-89865431D01*
X208794569Y-90006460D01*
X208960401Y-90117266D01*
X209144665Y-90193590D01*
X209340273Y-90232499D01*
X209340274Y-90232500D01*
X209340277Y-90232500D01*
X209539726Y-90232500D01*
X209539726Y-90232499D01*
X209735335Y-90193590D01*
X209919599Y-90117266D01*
X210085431Y-90006460D01*
X210226460Y-89865431D01*
X210337266Y-89699599D01*
X210413590Y-89515335D01*
X210452499Y-89319726D01*
X210452500Y-89319726D01*
X210452500Y-89120274D01*
X210452499Y-89120273D01*
X210450242Y-89108928D01*
X210413590Y-88924665D01*
X210337266Y-88740401D01*
X210226460Y-88574569D01*
X210085431Y-88433540D01*
X210083245Y-88432079D01*
X209919604Y-88322737D01*
X209919602Y-88322736D01*
X209919599Y-88322734D01*
X209792161Y-88269948D01*
X209735336Y-88246410D01*
X209735328Y-88246408D01*
X209539726Y-88207500D01*
X209539723Y-88207500D01*
X209340277Y-88207500D01*
X209340274Y-88207500D01*
X209144671Y-88246408D01*
X209144663Y-88246410D01*
X209031012Y-88293486D01*
X208960401Y-88322734D01*
X208960398Y-88322735D01*
X208960395Y-88322737D01*
X208794571Y-88433538D01*
X208794569Y-88433539D01*
X208653539Y-88574569D01*
X208653538Y-88574571D01*
X208542737Y-88740395D01*
X208542735Y-88740398D01*
X208542734Y-88740401D01*
X208513486Y-88811012D01*
X208466410Y-88924663D01*
X208466408Y-88924671D01*
X208427500Y-89120273D01*
X196590500Y-89120273D01*
X196590500Y-86580273D01*
X208427500Y-86580273D01*
X208427500Y-86779726D01*
X208466408Y-86975328D01*
X208466410Y-86975335D01*
X208542734Y-87159599D01*
X208542736Y-87159602D01*
X208542737Y-87159604D01*
X208596050Y-87239392D01*
X208653540Y-87325431D01*
X208794569Y-87466460D01*
X208960401Y-87577266D01*
X209144665Y-87653590D01*
X209340273Y-87692499D01*
X209340274Y-87692500D01*
X209340277Y-87692500D01*
X209539726Y-87692500D01*
X209539726Y-87692499D01*
X209735335Y-87653590D01*
X209919599Y-87577266D01*
X210085431Y-87466460D01*
X210226460Y-87325431D01*
X210337266Y-87159599D01*
X210413590Y-86975335D01*
X210452499Y-86779726D01*
X210452500Y-86779726D01*
X210452500Y-86580274D01*
X210452499Y-86580273D01*
X210413591Y-86384671D01*
X210413590Y-86384665D01*
X210337266Y-86200401D01*
X210226460Y-86034569D01*
X210085431Y-85893540D01*
X209989537Y-85829465D01*
X209919604Y-85782737D01*
X209919602Y-85782736D01*
X209919599Y-85782734D01*
X209792161Y-85729948D01*
X209735336Y-85706410D01*
X209735328Y-85706408D01*
X209539726Y-85667500D01*
X209539723Y-85667500D01*
X209340277Y-85667500D01*
X209340274Y-85667500D01*
X209144671Y-85706408D01*
X209144663Y-85706410D01*
X209031012Y-85753486D01*
X208960401Y-85782734D01*
X208960398Y-85782735D01*
X208960395Y-85782737D01*
X208794571Y-85893538D01*
X208794569Y-85893539D01*
X208653539Y-86034569D01*
X208653538Y-86034571D01*
X208542737Y-86200395D01*
X208542735Y-86200398D01*
X208542734Y-86200401D01*
X208513486Y-86271012D01*
X208466410Y-86384663D01*
X208466408Y-86384671D01*
X208427500Y-86580273D01*
X196590500Y-86580273D01*
X196590500Y-84040273D01*
X208427500Y-84040273D01*
X208427500Y-84239726D01*
X208466408Y-84435328D01*
X208466410Y-84435335D01*
X208542734Y-84619599D01*
X208653540Y-84785431D01*
X208794569Y-84926460D01*
X208960401Y-85037266D01*
X209144665Y-85113590D01*
X209340273Y-85152499D01*
X209340274Y-85152500D01*
X209340277Y-85152500D01*
X209539726Y-85152500D01*
X209539726Y-85152499D01*
X209735335Y-85113590D01*
X209919599Y-85037266D01*
X210085431Y-84926460D01*
X210226460Y-84785431D01*
X210337266Y-84619599D01*
X210413590Y-84435335D01*
X210452499Y-84239726D01*
X210452500Y-84239726D01*
X210452500Y-84040274D01*
X210452499Y-84040273D01*
X210413591Y-83844671D01*
X210413590Y-83844665D01*
X210337266Y-83660401D01*
X210226460Y-83494569D01*
X210085431Y-83353540D01*
X210083245Y-83352079D01*
X209919604Y-83242737D01*
X209919602Y-83242736D01*
X209919599Y-83242734D01*
X209792161Y-83189948D01*
X209735336Y-83166410D01*
X209735328Y-83166408D01*
X209539726Y-83127500D01*
X209539723Y-83127500D01*
X209340277Y-83127500D01*
X209340274Y-83127500D01*
X209144671Y-83166408D01*
X209144663Y-83166410D01*
X209031012Y-83213486D01*
X208960401Y-83242734D01*
X208960398Y-83242735D01*
X208960395Y-83242737D01*
X208794571Y-83353538D01*
X208794569Y-83353539D01*
X208653539Y-83494569D01*
X208653538Y-83494571D01*
X208542737Y-83660395D01*
X208542735Y-83660398D01*
X208542734Y-83660401D01*
X208513486Y-83731012D01*
X208466410Y-83844663D01*
X208466408Y-83844671D01*
X208427500Y-84040273D01*
X196590500Y-84040273D01*
X196590500Y-78500507D01*
X199982000Y-78500507D01*
X199992607Y-78604326D01*
X199992608Y-78604332D01*
X200048338Y-78772517D01*
X200048341Y-78772522D01*
X200141365Y-78923339D01*
X200266660Y-79048634D01*
X200417477Y-79141658D01*
X200417482Y-79141661D01*
X200585667Y-79197391D01*
X200585673Y-79197392D01*
X200689492Y-79207999D01*
X200689495Y-79208000D01*
X200836000Y-79208000D01*
X200836000Y-78254000D01*
X199982000Y-78254000D01*
X199982000Y-78500507D01*
X196590500Y-78500507D01*
X196590500Y-77499492D01*
X199982000Y-77499492D01*
X199982000Y-77746000D01*
X200836000Y-77746000D01*
X200836000Y-76792000D01*
X200689492Y-76792000D01*
X200585673Y-76802607D01*
X200585667Y-76802608D01*
X200417482Y-76858338D01*
X200417477Y-76858341D01*
X200266660Y-76951365D01*
X200141365Y-77076660D01*
X200048341Y-77227477D01*
X200048338Y-77227482D01*
X199992608Y-77395667D01*
X199992607Y-77395673D01*
X199982000Y-77499492D01*
X196590500Y-77499492D01*
X196590500Y-68245322D01*
X197934500Y-68245322D01*
X197934500Y-68944677D01*
X197949032Y-69017738D01*
X197956623Y-69029098D01*
X198004399Y-69100601D01*
X198062167Y-69139200D01*
X198065667Y-69144437D01*
X198071487Y-69146848D01*
X198078351Y-69163420D01*
X198088318Y-69178336D01*
X198089500Y-69190335D01*
X198089500Y-69269664D01*
X198071487Y-69313151D01*
X198062168Y-69320799D01*
X198004399Y-69359398D01*
X197949032Y-69442261D01*
X197934500Y-69515322D01*
X197934500Y-70214677D01*
X197949032Y-70287738D01*
X197976621Y-70329028D01*
X198004399Y-70370601D01*
X198062167Y-70409200D01*
X198065667Y-70414437D01*
X198071487Y-70416848D01*
X198078351Y-70433420D01*
X198088318Y-70448336D01*
X198089500Y-70460335D01*
X198089500Y-70539664D01*
X198071487Y-70583151D01*
X198062168Y-70590799D01*
X198004399Y-70629398D01*
X197949032Y-70712261D01*
X197934500Y-70785322D01*
X197934500Y-71484677D01*
X197949032Y-71557738D01*
X197976621Y-71599028D01*
X198004399Y-71640601D01*
X198066615Y-71682172D01*
X198087261Y-71695967D01*
X198156210Y-71709682D01*
X198195347Y-71735833D01*
X198204530Y-71781998D01*
X198178379Y-71821135D01*
X198156210Y-71830318D01*
X198087261Y-71844032D01*
X198004399Y-71899399D01*
X197949032Y-71982261D01*
X197934500Y-72055322D01*
X197934500Y-72754677D01*
X197949032Y-72827738D01*
X197976621Y-72869028D01*
X198004399Y-72910601D01*
X198049846Y-72940967D01*
X198087261Y-72965967D01*
X198145473Y-72977545D01*
X198160322Y-72980499D01*
X198160323Y-72980500D01*
X198160326Y-72980500D01*
X199519677Y-72980500D01*
X199519677Y-72980499D01*
X199548980Y-72974670D01*
X199592738Y-72965967D01*
X199592739Y-72965966D01*
X199592740Y-72965966D01*
X199675601Y-72910601D01*
X199730966Y-72827740D01*
X199730966Y-72827739D01*
X199730967Y-72827738D01*
X199739670Y-72783980D01*
X199745499Y-72754677D01*
X199745500Y-72754677D01*
X199745500Y-72055323D01*
X199745499Y-72055322D01*
X199730967Y-71982261D01*
X199689101Y-71919604D01*
X199675601Y-71899399D01*
X199608404Y-71854500D01*
X199592738Y-71844032D01*
X199523789Y-71830318D01*
X199484652Y-71804168D01*
X199475469Y-71758002D01*
X199501619Y-71718865D01*
X199523789Y-71709682D01*
X199592738Y-71695967D01*
X199592739Y-71695966D01*
X199592740Y-71695966D01*
X199675601Y-71640601D01*
X199730966Y-71557740D01*
X199730966Y-71557739D01*
X199730967Y-71557738D01*
X199745499Y-71484677D01*
X199745500Y-71484677D01*
X199745500Y-70785323D01*
X199745499Y-70785322D01*
X199730967Y-70712261D01*
X199691586Y-70653323D01*
X199675601Y-70629399D01*
X199675600Y-70629398D01*
X199617832Y-70590799D01*
X199614332Y-70585561D01*
X199608513Y-70583151D01*
X199601647Y-70566577D01*
X199591682Y-70551662D01*
X199590500Y-70539664D01*
X199590500Y-70460335D01*
X199608513Y-70416848D01*
X199617828Y-70409202D01*
X199675601Y-70370601D01*
X199730966Y-70287740D01*
X199730966Y-70287739D01*
X199730967Y-70287738D01*
X199739670Y-70243980D01*
X199745499Y-70214677D01*
X199745500Y-70214677D01*
X199745500Y-69515323D01*
X199745499Y-69515322D01*
X199730967Y-69442261D01*
X199694091Y-69387072D01*
X199675601Y-69359399D01*
X199653924Y-69344915D01*
X199617832Y-69320799D01*
X199614332Y-69315561D01*
X199608513Y-69313151D01*
X199601647Y-69296577D01*
X199591682Y-69281662D01*
X199590500Y-69269664D01*
X199590500Y-69190335D01*
X199608513Y-69146848D01*
X199617828Y-69139202D01*
X199675601Y-69100601D01*
X199730966Y-69017740D01*
X199730966Y-69017739D01*
X199730967Y-69017738D01*
X199739404Y-68975322D01*
X200109500Y-68975322D01*
X200109500Y-72024677D01*
X200124032Y-72097738D01*
X200149481Y-72135825D01*
X200179399Y-72180601D01*
X200241615Y-72222172D01*
X200262261Y-72235967D01*
X200320473Y-72247545D01*
X200335322Y-72250499D01*
X200335323Y-72250500D01*
X200335326Y-72250500D01*
X203034677Y-72250500D01*
X203034677Y-72250499D01*
X203063980Y-72244670D01*
X203107738Y-72235967D01*
X203107739Y-72235966D01*
X203107740Y-72235966D01*
X203190601Y-72180601D01*
X203245966Y-72097740D01*
X203245966Y-72097739D01*
X203245967Y-72097738D01*
X203249431Y-72080322D01*
X203624500Y-72080322D01*
X203624500Y-72729677D01*
X203639032Y-72802738D01*
X203655737Y-72827738D01*
X203694399Y-72885601D01*
X203731815Y-72910601D01*
X203777261Y-72940967D01*
X203833369Y-72952127D01*
X203850322Y-72955499D01*
X203850323Y-72955500D01*
X203850326Y-72955500D01*
X205209677Y-72955500D01*
X205209677Y-72955499D01*
X205238980Y-72949670D01*
X205282738Y-72940967D01*
X205282739Y-72940966D01*
X205282740Y-72940966D01*
X205365601Y-72885601D01*
X205420966Y-72802740D01*
X205420966Y-72802739D01*
X205420967Y-72802738D01*
X205429932Y-72757666D01*
X205435499Y-72729677D01*
X205435500Y-72729677D01*
X205435500Y-72080323D01*
X205435499Y-72080322D01*
X205420967Y-72007261D01*
X205404262Y-71982260D01*
X205365601Y-71924399D01*
X205324028Y-71896621D01*
X205282738Y-71869032D01*
X205209677Y-71854500D01*
X205209674Y-71854500D01*
X203850326Y-71854500D01*
X203850323Y-71854500D01*
X203777261Y-71869032D01*
X203694399Y-71924399D01*
X203639032Y-72007261D01*
X203624500Y-72080322D01*
X203249431Y-72080322D01*
X203252418Y-72065307D01*
X203260499Y-72024677D01*
X203260500Y-72024677D01*
X203260500Y-69066987D01*
X203278513Y-69023500D01*
X203322000Y-69005487D01*
X203365487Y-69023500D01*
X203379622Y-69045495D01*
X203424553Y-69165960D01*
X203512096Y-69282903D01*
X203621128Y-69364524D01*
X203645146Y-69405005D01*
X203641092Y-69437289D01*
X203639033Y-69442260D01*
X203624500Y-69515322D01*
X203624500Y-70214677D01*
X203639032Y-70287738D01*
X203666621Y-70329028D01*
X203694399Y-70370601D01*
X203752166Y-70409199D01*
X203777261Y-70425967D01*
X203846210Y-70439682D01*
X203885347Y-70465833D01*
X203894530Y-70511998D01*
X203868379Y-70551135D01*
X203846210Y-70560318D01*
X203777261Y-70574032D01*
X203694399Y-70629399D01*
X203639032Y-70712261D01*
X203624500Y-70785322D01*
X203624500Y-71484677D01*
X203639032Y-71557738D01*
X203666621Y-71599028D01*
X203694399Y-71640601D01*
X203756615Y-71682172D01*
X203777261Y-71695967D01*
X203835473Y-71707545D01*
X203850322Y-71710499D01*
X203850323Y-71710500D01*
X203850326Y-71710500D01*
X205209677Y-71710500D01*
X205209677Y-71710499D01*
X205238980Y-71704670D01*
X205282738Y-71695967D01*
X205282739Y-71695966D01*
X205282740Y-71695966D01*
X205365601Y-71640601D01*
X205420966Y-71557740D01*
X205420966Y-71557739D01*
X205420967Y-71557738D01*
X205435499Y-71484677D01*
X205435500Y-71484677D01*
X205435500Y-70785323D01*
X205435499Y-70785322D01*
X205420967Y-70712261D01*
X205381586Y-70653323D01*
X205365601Y-70629399D01*
X205365600Y-70629398D01*
X205326294Y-70603135D01*
X205300144Y-70563998D01*
X205309327Y-70517832D01*
X205348464Y-70491682D01*
X205360462Y-70490500D01*
X205903000Y-70490500D01*
X205946487Y-70508513D01*
X205964500Y-70552000D01*
X205964500Y-75715436D01*
X205946487Y-75758923D01*
X204348923Y-77356487D01*
X204305436Y-77374500D01*
X203951423Y-77374500D01*
X203907936Y-77356487D01*
X203893801Y-77334493D01*
X203883796Y-77307669D01*
X203882891Y-77306460D01*
X203797546Y-77192454D01*
X203728314Y-77140627D01*
X203682333Y-77106205D01*
X203682328Y-77106203D01*
X203547487Y-77055910D01*
X203547485Y-77055909D01*
X203547483Y-77055909D01*
X203487873Y-77049500D01*
X203487871Y-77049500D01*
X202692127Y-77049500D01*
X202632518Y-77055908D01*
X202632514Y-77055909D01*
X202497671Y-77106203D01*
X202497666Y-77106205D01*
X202382454Y-77192454D01*
X202296205Y-77307666D01*
X202296204Y-77307669D01*
X202284192Y-77339874D01*
X202252117Y-77374324D01*
X202205077Y-77376003D01*
X202170627Y-77343928D01*
X202168192Y-77337726D01*
X202131661Y-77227482D01*
X202131658Y-77227477D01*
X202038634Y-77076660D01*
X201913339Y-76951365D01*
X201762522Y-76858341D01*
X201762517Y-76858338D01*
X201594332Y-76802608D01*
X201594326Y-76802607D01*
X201490507Y-76792000D01*
X201344000Y-76792000D01*
X201344000Y-79208000D01*
X201490505Y-79208000D01*
X201490507Y-79207999D01*
X201594326Y-79197392D01*
X201594332Y-79197391D01*
X201762517Y-79141661D01*
X201762522Y-79141658D01*
X201913339Y-79048634D01*
X202001700Y-78960273D01*
X208427500Y-78960273D01*
X208427500Y-79159726D01*
X208466408Y-79355328D01*
X208466410Y-79355335D01*
X208542734Y-79539599D01*
X208653540Y-79705431D01*
X208794569Y-79846460D01*
X208960401Y-79957266D01*
X209144665Y-80033590D01*
X209340273Y-80072499D01*
X209340274Y-80072500D01*
X209340277Y-80072500D01*
X209539726Y-80072500D01*
X209539726Y-80072499D01*
X209735335Y-80033590D01*
X209919599Y-79957266D01*
X210085431Y-79846460D01*
X210226460Y-79705431D01*
X210337266Y-79539599D01*
X210413590Y-79355335D01*
X210452499Y-79159726D01*
X210452500Y-79159726D01*
X210452500Y-78960274D01*
X210452499Y-78960273D01*
X210445152Y-78923339D01*
X210413590Y-78764665D01*
X210337266Y-78580401D01*
X210226460Y-78414569D01*
X210085431Y-78273540D01*
X210083245Y-78272079D01*
X209919604Y-78162737D01*
X209919602Y-78162736D01*
X209919599Y-78162734D01*
X209792161Y-78109948D01*
X209735336Y-78086410D01*
X209735328Y-78086408D01*
X209539726Y-78047500D01*
X209539723Y-78047500D01*
X209340277Y-78047500D01*
X209340274Y-78047500D01*
X209144671Y-78086408D01*
X209144663Y-78086410D01*
X209031012Y-78133486D01*
X208960401Y-78162734D01*
X208960398Y-78162735D01*
X208960395Y-78162737D01*
X208794571Y-78273538D01*
X208794569Y-78273539D01*
X208653539Y-78414569D01*
X208653538Y-78414571D01*
X208542737Y-78580395D01*
X208542735Y-78580398D01*
X208542734Y-78580401D01*
X208534010Y-78601463D01*
X208466410Y-78764663D01*
X208466408Y-78764671D01*
X208427500Y-78960273D01*
X202001700Y-78960273D01*
X202038634Y-78923339D01*
X202131658Y-78772522D01*
X202131662Y-78772515D01*
X202168192Y-78662274D01*
X202198969Y-78626660D01*
X202245914Y-78623240D01*
X202281528Y-78654017D01*
X202284192Y-78660126D01*
X202296204Y-78692331D01*
X202382454Y-78807546D01*
X202497669Y-78893796D01*
X202632517Y-78944091D01*
X202692127Y-78950500D01*
X203487872Y-78950499D01*
X203547483Y-78944091D01*
X203616064Y-78918511D01*
X203666679Y-78899634D01*
X203668924Y-78898796D01*
X203682331Y-78893796D01*
X203797546Y-78807546D01*
X203883796Y-78692331D01*
X203893801Y-78665507D01*
X203925876Y-78631057D01*
X203951423Y-78625500D01*
X204651609Y-78625500D01*
X204671747Y-78621493D01*
X204712029Y-78613481D01*
X204772452Y-78601463D01*
X204823300Y-78580401D01*
X204886286Y-78554312D01*
X204944245Y-78515584D01*
X204988733Y-78485858D01*
X205075858Y-78398733D01*
X205075858Y-78398732D01*
X205079354Y-78395237D01*
X205079365Y-78395223D01*
X206985223Y-76489365D01*
X206985237Y-76489354D01*
X207013848Y-76460743D01*
X207054318Y-76420273D01*
X208427500Y-76420273D01*
X208427500Y-76619726D01*
X208466408Y-76815328D01*
X208466410Y-76815336D01*
X208489948Y-76872161D01*
X208542734Y-76999599D01*
X208542736Y-76999602D01*
X208542737Y-76999604D01*
X208613966Y-77106205D01*
X208653540Y-77165431D01*
X208794569Y-77306460D01*
X208960401Y-77417266D01*
X209144665Y-77493590D01*
X209340273Y-77532499D01*
X209340274Y-77532500D01*
X209340277Y-77532500D01*
X209539726Y-77532500D01*
X209539726Y-77532499D01*
X209735335Y-77493590D01*
X209919599Y-77417266D01*
X210085431Y-77306460D01*
X210226460Y-77165431D01*
X210337266Y-76999599D01*
X210413590Y-76815335D01*
X210452499Y-76619726D01*
X210452500Y-76619726D01*
X210452500Y-76420274D01*
X210452499Y-76420273D01*
X210449935Y-76407385D01*
X210413590Y-76224665D01*
X210337266Y-76040401D01*
X210226460Y-75874569D01*
X210085431Y-75733540D01*
X209967266Y-75654584D01*
X209919604Y-75622737D01*
X209919602Y-75622736D01*
X209919599Y-75622734D01*
X209792161Y-75569948D01*
X209735336Y-75546410D01*
X209735328Y-75546408D01*
X209539726Y-75507500D01*
X209539723Y-75507500D01*
X209340277Y-75507500D01*
X209340274Y-75507500D01*
X209144671Y-75546408D01*
X209144663Y-75546410D01*
X209031012Y-75593486D01*
X208960401Y-75622734D01*
X208960398Y-75622735D01*
X208960395Y-75622737D01*
X208794571Y-75733538D01*
X208794569Y-75733539D01*
X208653539Y-75874569D01*
X208653538Y-75874571D01*
X208542737Y-76040395D01*
X208542735Y-76040398D01*
X208542734Y-76040401D01*
X208533949Y-76061610D01*
X208466410Y-76224663D01*
X208466408Y-76224671D01*
X208427500Y-76420273D01*
X207054318Y-76420273D01*
X207075858Y-76398733D01*
X207086311Y-76383089D01*
X207086312Y-76383089D01*
X207117910Y-76335799D01*
X207117910Y-76335798D01*
X207144312Y-76296286D01*
X207191463Y-76182451D01*
X207215499Y-76061610D01*
X207215500Y-76061610D01*
X207215500Y-70552000D01*
X207233513Y-70508513D01*
X207277000Y-70490500D01*
X208835836Y-70490500D01*
X208879323Y-70508513D01*
X208897336Y-70552000D01*
X208879323Y-70595487D01*
X208870004Y-70603135D01*
X208794571Y-70653537D01*
X208653539Y-70794569D01*
X208653538Y-70794571D01*
X208542737Y-70960395D01*
X208542735Y-70960398D01*
X208542734Y-70960401D01*
X208513486Y-71031012D01*
X208466410Y-71144663D01*
X208466408Y-71144671D01*
X208427500Y-71340273D01*
X208427500Y-71539726D01*
X208466408Y-71735328D01*
X208466410Y-71735335D01*
X208542734Y-71919599D01*
X208542736Y-71919602D01*
X208542737Y-71919604D01*
X208650126Y-72080322D01*
X208653540Y-72085431D01*
X208794569Y-72226460D01*
X208960401Y-72337266D01*
X209144665Y-72413590D01*
X209340273Y-72452499D01*
X209340274Y-72452500D01*
X209340277Y-72452500D01*
X209539726Y-72452500D01*
X209539726Y-72452499D01*
X209735335Y-72413590D01*
X209919599Y-72337266D01*
X210085431Y-72226460D01*
X210226460Y-72085431D01*
X210337266Y-71919599D01*
X210413590Y-71735335D01*
X210452499Y-71539726D01*
X210452500Y-71539726D01*
X210452500Y-71340274D01*
X210452499Y-71340273D01*
X210451646Y-71335987D01*
X210413590Y-71144665D01*
X210337266Y-70960401D01*
X210226460Y-70794569D01*
X210085431Y-70653540D01*
X210085428Y-70653537D01*
X210009996Y-70603135D01*
X209983846Y-70563998D01*
X209993029Y-70517832D01*
X210032166Y-70491682D01*
X210044164Y-70490500D01*
X219670436Y-70490500D01*
X219713923Y-70508513D01*
X228196487Y-78991077D01*
X228214500Y-79034564D01*
X228214500Y-86811610D01*
X228238535Y-86932444D01*
X228238536Y-86932449D01*
X228238537Y-86932451D01*
X228285688Y-87046286D01*
X228309925Y-87082558D01*
X228309925Y-87082559D01*
X228354136Y-87148726D01*
X228354141Y-87148732D01*
X228444765Y-87239357D01*
X228444778Y-87239368D01*
X230824141Y-89618732D01*
X230824142Y-89618733D01*
X230911267Y-89705858D01*
X230945416Y-89728675D01*
X231013710Y-89774309D01*
X231013712Y-89774310D01*
X231013714Y-89774311D01*
X231127548Y-89821463D01*
X231248389Y-89845499D01*
X231248390Y-89845500D01*
X231248393Y-89845500D01*
X231248394Y-89845500D01*
X234008135Y-89845500D01*
X234051622Y-89863513D01*
X234053539Y-89865430D01*
X234053540Y-89865431D01*
X234194569Y-90006460D01*
X234360401Y-90117266D01*
X234544665Y-90193590D01*
X234740273Y-90232499D01*
X234740274Y-90232500D01*
X234740277Y-90232500D01*
X234939726Y-90232500D01*
X234939726Y-90232499D01*
X235135335Y-90193590D01*
X235319599Y-90117266D01*
X235485431Y-90006460D01*
X235626460Y-89865431D01*
X235737266Y-89699599D01*
X235813590Y-89515335D01*
X235852499Y-89319726D01*
X235852500Y-89319726D01*
X235852500Y-89120274D01*
X235852499Y-89120273D01*
X235850242Y-89108928D01*
X235813590Y-88924665D01*
X235737266Y-88740401D01*
X235626460Y-88574569D01*
X235485431Y-88433540D01*
X235483245Y-88432079D01*
X235319604Y-88322737D01*
X235319602Y-88322736D01*
X235319599Y-88322734D01*
X235192161Y-88269948D01*
X235135336Y-88246410D01*
X235135328Y-88246408D01*
X234939726Y-88207500D01*
X234939723Y-88207500D01*
X234740277Y-88207500D01*
X234740274Y-88207500D01*
X234544671Y-88246408D01*
X234544663Y-88246410D01*
X234431012Y-88293486D01*
X234360401Y-88322734D01*
X234360398Y-88322735D01*
X234360395Y-88322737D01*
X234194571Y-88433538D01*
X234194569Y-88433539D01*
X234051622Y-88576487D01*
X234008135Y-88594500D01*
X231594565Y-88594500D01*
X231551078Y-88576487D01*
X229554864Y-86580273D01*
X233827500Y-86580273D01*
X233827500Y-86779726D01*
X233866408Y-86975328D01*
X233866410Y-86975335D01*
X233942734Y-87159599D01*
X233942736Y-87159602D01*
X233942737Y-87159604D01*
X233996050Y-87239392D01*
X234053540Y-87325431D01*
X234194569Y-87466460D01*
X234360401Y-87577266D01*
X234544665Y-87653590D01*
X234740273Y-87692499D01*
X234740274Y-87692500D01*
X234740277Y-87692500D01*
X234939726Y-87692500D01*
X234939726Y-87692499D01*
X235135335Y-87653590D01*
X235319599Y-87577266D01*
X235485431Y-87466460D01*
X235626460Y-87325431D01*
X235737266Y-87159599D01*
X235813590Y-86975335D01*
X235852499Y-86779726D01*
X235852500Y-86779726D01*
X235852500Y-86580274D01*
X235852499Y-86580273D01*
X235813591Y-86384671D01*
X235813590Y-86384665D01*
X235737266Y-86200401D01*
X235626460Y-86034569D01*
X235485431Y-85893540D01*
X235389537Y-85829465D01*
X235319604Y-85782737D01*
X235319602Y-85782736D01*
X235319599Y-85782734D01*
X235192161Y-85729948D01*
X235135336Y-85706410D01*
X235135328Y-85706408D01*
X234939726Y-85667500D01*
X234939723Y-85667500D01*
X234740277Y-85667500D01*
X234740274Y-85667500D01*
X234544671Y-85706408D01*
X234544663Y-85706410D01*
X234431012Y-85753486D01*
X234360401Y-85782734D01*
X234360398Y-85782735D01*
X234360395Y-85782737D01*
X234194571Y-85893538D01*
X234194569Y-85893539D01*
X234053539Y-86034569D01*
X234053538Y-86034571D01*
X233942737Y-86200395D01*
X233942735Y-86200398D01*
X233942734Y-86200401D01*
X233913486Y-86271012D01*
X233866410Y-86384663D01*
X233866408Y-86384671D01*
X233827500Y-86580273D01*
X229554864Y-86580273D01*
X229483513Y-86508922D01*
X229465500Y-86465435D01*
X229465500Y-84040273D01*
X233827500Y-84040273D01*
X233827500Y-84239726D01*
X233866408Y-84435328D01*
X233866410Y-84435335D01*
X233942734Y-84619599D01*
X234053540Y-84785431D01*
X234194569Y-84926460D01*
X234360401Y-85037266D01*
X234544665Y-85113590D01*
X234740273Y-85152499D01*
X234740274Y-85152500D01*
X234740277Y-85152500D01*
X234939726Y-85152500D01*
X234939726Y-85152499D01*
X235135335Y-85113590D01*
X235319599Y-85037266D01*
X235485431Y-84926460D01*
X235626460Y-84785431D01*
X235737266Y-84619599D01*
X235813590Y-84435335D01*
X235852499Y-84239726D01*
X235852500Y-84239726D01*
X235852500Y-84040274D01*
X235852499Y-84040273D01*
X235813591Y-83844671D01*
X235813590Y-83844665D01*
X235737266Y-83660401D01*
X235626460Y-83494569D01*
X235485431Y-83353540D01*
X235483245Y-83352079D01*
X235319604Y-83242737D01*
X235319602Y-83242736D01*
X235319599Y-83242734D01*
X235192161Y-83189948D01*
X235135336Y-83166410D01*
X235135328Y-83166408D01*
X234939726Y-83127500D01*
X234939723Y-83127500D01*
X234740277Y-83127500D01*
X234740274Y-83127500D01*
X234544671Y-83166408D01*
X234544663Y-83166410D01*
X234431012Y-83213486D01*
X234360401Y-83242734D01*
X234360398Y-83242735D01*
X234360395Y-83242737D01*
X234194571Y-83353538D01*
X234194569Y-83353539D01*
X234053539Y-83494569D01*
X234053538Y-83494571D01*
X233942737Y-83660395D01*
X233942735Y-83660398D01*
X233942734Y-83660401D01*
X233913486Y-83731012D01*
X233866410Y-83844663D01*
X233866408Y-83844671D01*
X233827500Y-84040273D01*
X229465500Y-84040273D01*
X229465500Y-81500273D01*
X233827500Y-81500273D01*
X233827500Y-81699726D01*
X233866408Y-81895328D01*
X233866410Y-81895335D01*
X233942734Y-82079599D01*
X234053540Y-82245431D01*
X234194569Y-82386460D01*
X234360401Y-82497266D01*
X234544665Y-82573590D01*
X234740273Y-82612499D01*
X234740274Y-82612500D01*
X234740277Y-82612500D01*
X234939726Y-82612500D01*
X234939726Y-82612499D01*
X235135335Y-82573590D01*
X235319599Y-82497266D01*
X235485431Y-82386460D01*
X235626460Y-82245431D01*
X235737266Y-82079599D01*
X235813590Y-81895335D01*
X235852499Y-81699726D01*
X235852500Y-81699726D01*
X235852500Y-81500274D01*
X235852499Y-81500273D01*
X235813591Y-81304671D01*
X235813590Y-81304665D01*
X235737266Y-81120401D01*
X235626460Y-80954569D01*
X235485431Y-80813540D01*
X235483245Y-80812079D01*
X235319604Y-80702737D01*
X235319602Y-80702736D01*
X235319599Y-80702734D01*
X235192161Y-80649948D01*
X235135336Y-80626410D01*
X235135328Y-80626408D01*
X234939726Y-80587500D01*
X234939723Y-80587500D01*
X234740277Y-80587500D01*
X234740274Y-80587500D01*
X234544671Y-80626408D01*
X234544663Y-80626410D01*
X234431012Y-80673486D01*
X234360401Y-80702734D01*
X234360398Y-80702735D01*
X234360395Y-80702737D01*
X234194571Y-80813538D01*
X234194569Y-80813539D01*
X234053539Y-80954569D01*
X234053538Y-80954571D01*
X233942737Y-81120395D01*
X233942735Y-81120398D01*
X233942734Y-81120401D01*
X233913486Y-81191012D01*
X233866410Y-81304663D01*
X233866408Y-81304671D01*
X233827500Y-81500273D01*
X229465500Y-81500273D01*
X229465500Y-78960273D01*
X233827500Y-78960273D01*
X233827500Y-79159726D01*
X233866408Y-79355328D01*
X233866410Y-79355335D01*
X233942734Y-79539599D01*
X234053540Y-79705431D01*
X234194569Y-79846460D01*
X234360401Y-79957266D01*
X234544665Y-80033590D01*
X234740273Y-80072499D01*
X234740274Y-80072500D01*
X234740277Y-80072500D01*
X234939726Y-80072500D01*
X234939726Y-80072499D01*
X235135335Y-80033590D01*
X235319599Y-79957266D01*
X235485431Y-79846460D01*
X235626460Y-79705431D01*
X235737266Y-79539599D01*
X235813590Y-79355335D01*
X235852499Y-79159726D01*
X235852500Y-79159726D01*
X235852500Y-78960274D01*
X235852499Y-78960273D01*
X235845152Y-78923339D01*
X235813590Y-78764665D01*
X235737266Y-78580401D01*
X235626460Y-78414569D01*
X235558019Y-78346128D01*
X239033500Y-78346128D01*
X239033500Y-79641872D01*
X239039908Y-79701481D01*
X239039909Y-79701485D01*
X239090203Y-79836328D01*
X239090205Y-79836333D01*
X239097787Y-79846461D01*
X239176454Y-79951546D01*
X239268934Y-80020776D01*
X239286050Y-80033590D01*
X239291669Y-80037796D01*
X239426517Y-80088091D01*
X239486127Y-80094500D01*
X241081872Y-80094499D01*
X241141483Y-80088091D01*
X241276331Y-80037796D01*
X241391546Y-79951546D01*
X241477796Y-79836331D01*
X241528091Y-79701483D01*
X241534500Y-79641873D01*
X241534499Y-78346128D01*
X241528091Y-78286517D01*
X241477796Y-78151669D01*
X241391546Y-78036454D01*
X241322314Y-77984627D01*
X241276333Y-77950205D01*
X241276328Y-77950203D01*
X241141487Y-77899910D01*
X241141485Y-77899909D01*
X241141483Y-77899909D01*
X241081873Y-77893500D01*
X241081871Y-77893500D01*
X239486127Y-77893500D01*
X239426518Y-77899908D01*
X239426514Y-77899909D01*
X239291671Y-77950203D01*
X239291666Y-77950205D01*
X239176454Y-78036454D01*
X239090205Y-78151666D01*
X239090203Y-78151671D01*
X239039910Y-78286512D01*
X239033500Y-78346128D01*
X235558019Y-78346128D01*
X235485431Y-78273540D01*
X235483245Y-78272079D01*
X235319604Y-78162737D01*
X235319602Y-78162736D01*
X235319599Y-78162734D01*
X235192161Y-78109948D01*
X235135336Y-78086410D01*
X235135328Y-78086408D01*
X234939726Y-78047500D01*
X234939723Y-78047500D01*
X234740277Y-78047500D01*
X234740274Y-78047500D01*
X234544671Y-78086408D01*
X234544663Y-78086410D01*
X234431012Y-78133486D01*
X234360401Y-78162734D01*
X234360398Y-78162735D01*
X234360395Y-78162737D01*
X234194571Y-78273538D01*
X234194569Y-78273539D01*
X234053539Y-78414569D01*
X234053538Y-78414571D01*
X233942737Y-78580395D01*
X233942735Y-78580398D01*
X233942734Y-78580401D01*
X233934010Y-78601463D01*
X233866410Y-78764663D01*
X233866408Y-78764671D01*
X233827500Y-78960273D01*
X229465500Y-78960273D01*
X229465500Y-78814654D01*
X229465501Y-78814633D01*
X229465501Y-78688391D01*
X229445451Y-78587598D01*
X229445451Y-78587596D01*
X229441464Y-78567555D01*
X229441463Y-78567548D01*
X229413638Y-78500372D01*
X229412602Y-78497872D01*
X229394310Y-78453711D01*
X229325860Y-78351269D01*
X227435334Y-76460743D01*
X227394864Y-76420273D01*
X233827500Y-76420273D01*
X233827500Y-76619726D01*
X233866408Y-76815328D01*
X233866410Y-76815336D01*
X233889948Y-76872161D01*
X233942734Y-76999599D01*
X233942736Y-76999602D01*
X233942737Y-76999604D01*
X234013966Y-77106205D01*
X234053540Y-77165431D01*
X234194569Y-77306460D01*
X234360401Y-77417266D01*
X234544665Y-77493590D01*
X234740273Y-77532499D01*
X234740274Y-77532500D01*
X234740277Y-77532500D01*
X234939726Y-77532500D01*
X234939726Y-77532499D01*
X235135335Y-77493590D01*
X235319599Y-77417266D01*
X235485431Y-77306460D01*
X235626460Y-77165431D01*
X235737266Y-76999599D01*
X235813590Y-76815335D01*
X235852499Y-76619726D01*
X235852500Y-76619726D01*
X235852500Y-76420274D01*
X235852499Y-76420273D01*
X235851843Y-76416971D01*
X235849936Y-76407385D01*
X239033500Y-76407385D01*
X239033500Y-76580614D01*
X239060598Y-76751703D01*
X239114127Y-76916446D01*
X239192769Y-77070790D01*
X239294584Y-77210926D01*
X239417073Y-77333415D01*
X239502764Y-77395673D01*
X239557212Y-77435232D01*
X239711555Y-77513873D01*
X239876296Y-77567401D01*
X239876299Y-77567402D01*
X240047389Y-77594500D01*
X240047393Y-77594500D01*
X240520607Y-77594500D01*
X240520611Y-77594500D01*
X240691701Y-77567402D01*
X240856445Y-77513873D01*
X241010788Y-77435232D01*
X241150928Y-77333414D01*
X241273414Y-77210928D01*
X241375232Y-77070788D01*
X241453873Y-76916445D01*
X241507402Y-76751701D01*
X241534500Y-76580611D01*
X241534500Y-76407389D01*
X241507402Y-76236299D01*
X241453873Y-76071555D01*
X241375232Y-75917212D01*
X241375230Y-75917209D01*
X241273415Y-75777073D01*
X241150926Y-75654584D01*
X241010790Y-75552769D01*
X240856446Y-75474127D01*
X240691702Y-75420598D01*
X240691704Y-75420598D01*
X240520614Y-75393500D01*
X240520611Y-75393500D01*
X240047389Y-75393500D01*
X240047385Y-75393500D01*
X239876296Y-75420598D01*
X239711553Y-75474127D01*
X239557209Y-75552769D01*
X239417073Y-75654584D01*
X239417073Y-75654585D01*
X239417072Y-75654586D01*
X239294586Y-75777072D01*
X239294585Y-75777073D01*
X239294584Y-75777073D01*
X239192769Y-75917209D01*
X239114127Y-76071553D01*
X239060598Y-76236296D01*
X239033500Y-76407385D01*
X235849936Y-76407385D01*
X235815904Y-76236299D01*
X235813590Y-76224665D01*
X235737266Y-76040401D01*
X235626460Y-75874569D01*
X235485431Y-75733540D01*
X235367266Y-75654584D01*
X235319604Y-75622737D01*
X235319602Y-75622736D01*
X235319599Y-75622734D01*
X235192161Y-75569948D01*
X235135336Y-75546410D01*
X235135328Y-75546408D01*
X234939726Y-75507500D01*
X234939723Y-75507500D01*
X234740277Y-75507500D01*
X234740274Y-75507500D01*
X234544671Y-75546408D01*
X234544663Y-75546410D01*
X234431012Y-75593486D01*
X234360401Y-75622734D01*
X234360398Y-75622735D01*
X234360395Y-75622737D01*
X234194571Y-75733538D01*
X234194569Y-75733539D01*
X234053539Y-75874569D01*
X234053538Y-75874571D01*
X233942737Y-76040395D01*
X233942735Y-76040398D01*
X233942734Y-76040401D01*
X233933949Y-76061610D01*
X233866410Y-76224663D01*
X233866408Y-76224671D01*
X233827500Y-76420273D01*
X227394864Y-76420273D01*
X226368091Y-75393500D01*
X224854864Y-73880273D01*
X233827500Y-73880273D01*
X233827500Y-74079726D01*
X233866408Y-74275328D01*
X233866410Y-74275335D01*
X233942734Y-74459599D01*
X234053540Y-74625431D01*
X234194569Y-74766460D01*
X234360401Y-74877266D01*
X234544665Y-74953590D01*
X234740273Y-74992499D01*
X234740274Y-74992500D01*
X234740277Y-74992500D01*
X234939726Y-74992500D01*
X234939726Y-74992499D01*
X235135335Y-74953590D01*
X235319599Y-74877266D01*
X235485431Y-74766460D01*
X235626460Y-74625431D01*
X235737266Y-74459599D01*
X235813590Y-74275335D01*
X235852499Y-74079726D01*
X235852500Y-74079726D01*
X235852500Y-73880274D01*
X235852499Y-73880273D01*
X235813591Y-73684671D01*
X235813590Y-73684665D01*
X235737266Y-73500401D01*
X235626460Y-73334569D01*
X235485431Y-73193540D01*
X235483245Y-73192079D01*
X235319604Y-73082737D01*
X235319602Y-73082736D01*
X235319599Y-73082734D01*
X235192161Y-73029948D01*
X235135336Y-73006410D01*
X235135328Y-73006408D01*
X234939726Y-72967500D01*
X234939723Y-72967500D01*
X234740277Y-72967500D01*
X234740274Y-72967500D01*
X234544671Y-73006408D01*
X234544663Y-73006410D01*
X234431012Y-73053486D01*
X234360401Y-73082734D01*
X234360398Y-73082735D01*
X234360395Y-73082737D01*
X234194571Y-73193538D01*
X234194569Y-73193539D01*
X234053539Y-73334569D01*
X234053538Y-73334571D01*
X233942737Y-73500395D01*
X233942735Y-73500398D01*
X233942734Y-73500401D01*
X233913486Y-73571012D01*
X233866410Y-73684663D01*
X233866408Y-73684671D01*
X233827500Y-73880273D01*
X224854864Y-73880273D01*
X221627912Y-70653322D01*
X233827500Y-70653322D01*
X233827500Y-72226677D01*
X233842032Y-72299738D01*
X233867105Y-72337262D01*
X233897399Y-72382601D01*
X233943777Y-72413589D01*
X233980261Y-72437967D01*
X234038473Y-72449545D01*
X234053322Y-72452499D01*
X234053323Y-72452500D01*
X234053326Y-72452500D01*
X235626677Y-72452500D01*
X235626677Y-72452499D01*
X235655980Y-72446670D01*
X235699738Y-72437967D01*
X235699739Y-72437966D01*
X235699740Y-72437966D01*
X235782601Y-72382601D01*
X235837966Y-72299740D01*
X235837966Y-72299739D01*
X235837967Y-72299738D01*
X235850651Y-72235967D01*
X235852499Y-72226677D01*
X235852500Y-72226677D01*
X235852500Y-70653323D01*
X235852499Y-70653322D01*
X235837967Y-70580261D01*
X235824095Y-70559500D01*
X235782601Y-70497399D01*
X235727130Y-70460335D01*
X235699738Y-70442032D01*
X235626677Y-70427500D01*
X235626674Y-70427500D01*
X234053326Y-70427500D01*
X234053323Y-70427500D01*
X233980261Y-70442032D01*
X233897399Y-70497399D01*
X233842032Y-70580261D01*
X233827500Y-70653322D01*
X221627912Y-70653322D01*
X220991975Y-70017385D01*
X239945500Y-70017385D01*
X239945500Y-70190614D01*
X239972598Y-70361703D01*
X240026127Y-70526446D01*
X240104769Y-70680790D01*
X240206584Y-70820926D01*
X240329073Y-70943415D01*
X240469209Y-71045230D01*
X240469212Y-71045232D01*
X240623555Y-71123873D01*
X240788296Y-71177401D01*
X240788299Y-71177402D01*
X240959389Y-71204500D01*
X240959393Y-71204500D01*
X241132607Y-71204500D01*
X241132611Y-71204500D01*
X241303701Y-71177402D01*
X241468445Y-71123873D01*
X241622788Y-71045232D01*
X241762928Y-70943414D01*
X241885414Y-70820928D01*
X241987232Y-70680788D01*
X242065873Y-70526445D01*
X242119402Y-70361701D01*
X242146500Y-70190611D01*
X242146500Y-70017389D01*
X242119402Y-69846299D01*
X242065873Y-69681555D01*
X241987232Y-69527212D01*
X241978594Y-69515323D01*
X241885415Y-69387073D01*
X241762926Y-69264584D01*
X241622790Y-69162769D01*
X241468446Y-69084127D01*
X241303702Y-69030598D01*
X241303704Y-69030598D01*
X241132614Y-69003500D01*
X241132611Y-69003500D01*
X240959389Y-69003500D01*
X240959385Y-69003500D01*
X240788296Y-69030598D01*
X240623553Y-69084127D01*
X240469209Y-69162769D01*
X240329073Y-69264584D01*
X240329073Y-69264585D01*
X240329072Y-69264586D01*
X240206586Y-69387072D01*
X240206585Y-69387073D01*
X240206584Y-69387073D01*
X240104769Y-69527209D01*
X240026127Y-69681553D01*
X239972598Y-69846296D01*
X239945500Y-70017385D01*
X220991975Y-70017385D01*
X220444368Y-69469778D01*
X220444357Y-69469765D01*
X220353732Y-69379141D01*
X220353726Y-69379136D01*
X220302510Y-69344915D01*
X220302509Y-69344915D01*
X220251286Y-69310688D01*
X220170792Y-69277347D01*
X220152244Y-69269664D01*
X220137453Y-69263537D01*
X220137446Y-69263535D01*
X220044680Y-69245084D01*
X220035322Y-69243222D01*
X220016609Y-69239500D01*
X220016607Y-69239500D01*
X220016606Y-69239500D01*
X207163394Y-69239500D01*
X207163388Y-69239500D01*
X207101997Y-69251711D01*
X207078003Y-69251711D01*
X207016611Y-69239500D01*
X207016606Y-69239500D01*
X205696594Y-69239500D01*
X205653107Y-69221487D01*
X205635094Y-69178000D01*
X205638972Y-69156508D01*
X205686493Y-69029098D01*
X205693000Y-68968588D01*
X205693000Y-68849000D01*
X203367000Y-68849000D01*
X203367000Y-68886316D01*
X203348987Y-68929803D01*
X203305500Y-68947816D01*
X203262013Y-68929803D01*
X203249919Y-68907179D01*
X203248285Y-68907857D01*
X203245967Y-68902261D01*
X203232172Y-68881615D01*
X203190601Y-68819399D01*
X203149028Y-68791621D01*
X203107738Y-68764032D01*
X203034677Y-68749500D01*
X203034674Y-68749500D01*
X201709674Y-68749500D01*
X200335326Y-68749500D01*
X200335323Y-68749500D01*
X200262261Y-68764032D01*
X200179399Y-68819399D01*
X200124032Y-68902261D01*
X200109500Y-68975322D01*
X199739404Y-68975322D01*
X199742391Y-68960307D01*
X199745499Y-68944677D01*
X199745500Y-68944677D01*
X199745500Y-68245324D01*
X199742802Y-68231762D01*
X199742802Y-68231761D01*
X199740743Y-68221411D01*
X203367000Y-68221411D01*
X203367000Y-68341000D01*
X204276000Y-68341000D01*
X204784000Y-68341000D01*
X205693000Y-68341000D01*
X205693000Y-68221411D01*
X205686493Y-68160901D01*
X205635446Y-68024039D01*
X205547903Y-67907096D01*
X205430960Y-67819553D01*
X205294098Y-67768506D01*
X205233589Y-67762000D01*
X204784000Y-67762000D01*
X204784000Y-68341000D01*
X204276000Y-68341000D01*
X204276000Y-67762000D01*
X203826411Y-67762000D01*
X203765901Y-67768506D01*
X203629039Y-67819553D01*
X203512096Y-67907096D01*
X203424553Y-68024039D01*
X203373506Y-68160901D01*
X203367000Y-68221411D01*
X199740743Y-68221411D01*
X199730966Y-68172261D01*
X199730966Y-68172260D01*
X199675601Y-68089399D01*
X199634028Y-68061621D01*
X199592738Y-68034032D01*
X199516711Y-68018910D01*
X199516990Y-68017506D01*
X199479445Y-67997420D01*
X199465500Y-67958423D01*
X199465500Y-67477385D01*
X239945500Y-67477385D01*
X239945500Y-67650614D01*
X239972598Y-67821703D01*
X240026127Y-67986446D01*
X240104769Y-68140790D01*
X240206584Y-68280926D01*
X240206585Y-68280927D01*
X240206586Y-68280928D01*
X240329072Y-68403414D01*
X240469212Y-68505232D01*
X240623555Y-68583873D01*
X240788296Y-68637401D01*
X240788299Y-68637402D01*
X240959389Y-68664500D01*
X240959393Y-68664500D01*
X241132607Y-68664500D01*
X241132611Y-68664500D01*
X241303701Y-68637402D01*
X241468445Y-68583873D01*
X241622788Y-68505232D01*
X241762928Y-68403414D01*
X241885414Y-68280928D01*
X241987232Y-68140788D01*
X242065873Y-67986445D01*
X242119402Y-67821701D01*
X242146500Y-67650611D01*
X242146500Y-67477389D01*
X242119402Y-67306299D01*
X242065873Y-67141555D01*
X241987232Y-66987212D01*
X241987230Y-66987209D01*
X241885415Y-66847073D01*
X241762926Y-66724584D01*
X241622790Y-66622769D01*
X241468446Y-66544127D01*
X241303702Y-66490598D01*
X241303704Y-66490598D01*
X241132614Y-66463500D01*
X241132611Y-66463500D01*
X240959389Y-66463500D01*
X240959385Y-66463500D01*
X240788296Y-66490598D01*
X240623553Y-66544127D01*
X240469209Y-66622769D01*
X240329073Y-66724584D01*
X240329073Y-66724585D01*
X240329072Y-66724586D01*
X240206586Y-66847072D01*
X240206585Y-66847073D01*
X240206584Y-66847073D01*
X240104769Y-66987209D01*
X240026127Y-67141553D01*
X239972598Y-67306296D01*
X239945500Y-67477385D01*
X199465500Y-67477385D01*
X199465500Y-67034564D01*
X199483513Y-66991077D01*
X200081078Y-66393513D01*
X200124565Y-66375500D01*
X201901610Y-66375500D01*
X201901610Y-66375499D01*
X201991090Y-66357701D01*
X202022452Y-66351463D01*
X202055792Y-66337652D01*
X202136286Y-66304312D01*
X202196403Y-66264142D01*
X202238733Y-66235858D01*
X202325858Y-66148733D01*
X202325858Y-66148731D01*
X202330916Y-66143674D01*
X202330919Y-66143669D01*
X202720857Y-65753734D01*
X202726254Y-65745658D01*
X202789311Y-65651286D01*
X202836463Y-65537452D01*
X202860499Y-65416609D01*
X202860500Y-65416609D01*
X202860500Y-64149322D01*
X239945500Y-64149322D01*
X239945500Y-65898677D01*
X239960032Y-65971738D01*
X239987621Y-66013028D01*
X240015399Y-66054601D01*
X240077615Y-66096172D01*
X240098261Y-66109967D01*
X240156473Y-66121545D01*
X240171322Y-66124499D01*
X240171323Y-66124500D01*
X240171326Y-66124500D01*
X241920677Y-66124500D01*
X241920677Y-66124499D01*
X241949980Y-66118670D01*
X241993738Y-66109967D01*
X241993739Y-66109966D01*
X241993740Y-66109966D01*
X242076601Y-66054601D01*
X242131966Y-65971740D01*
X242131966Y-65971739D01*
X242131967Y-65971738D01*
X242146499Y-65898677D01*
X242146500Y-65898677D01*
X242146500Y-64149323D01*
X242146499Y-64149322D01*
X242131967Y-64076261D01*
X242118172Y-64055615D01*
X242076601Y-63993399D01*
X242035028Y-63965621D01*
X241993738Y-63938032D01*
X241920677Y-63923500D01*
X241920674Y-63923500D01*
X240171326Y-63923500D01*
X240171323Y-63923500D01*
X240098261Y-63938032D01*
X240015399Y-63993399D01*
X239960032Y-64076261D01*
X239945500Y-64149322D01*
X202860500Y-64149322D01*
X202860500Y-63332367D01*
X202878513Y-63288880D01*
X202922000Y-63270867D01*
X202965487Y-63288880D01*
X202974936Y-63301061D01*
X203060946Y-63446499D01*
X203178500Y-63564053D01*
X203321604Y-63648683D01*
X203321605Y-63648684D01*
X203480999Y-63694991D01*
X203481000Y-63694991D01*
X203989000Y-63694991D01*
X204148394Y-63648684D01*
X204148395Y-63648683D01*
X204291499Y-63564053D01*
X204409053Y-63446499D01*
X204493683Y-63303395D01*
X204493684Y-63303393D01*
X204540064Y-63143756D01*
X204540066Y-63143745D01*
X204543000Y-63106461D01*
X204543000Y-62694000D01*
X203989000Y-62694000D01*
X203989000Y-63694991D01*
X203481000Y-63694991D01*
X203481000Y-62186000D01*
X203989000Y-62186000D01*
X204542999Y-62186000D01*
X204542999Y-61808477D01*
X204684500Y-61808477D01*
X204684500Y-63071513D01*
X204684501Y-63071523D01*
X204699353Y-63165301D01*
X204699353Y-63165302D01*
X204699354Y-63165304D01*
X204756950Y-63278342D01*
X204756952Y-63278345D01*
X204846654Y-63368047D01*
X204846656Y-63368048D01*
X204846658Y-63368050D01*
X204959696Y-63425646D01*
X205053481Y-63440500D01*
X205416518Y-63440499D01*
X205510304Y-63425646D01*
X205623342Y-63368050D01*
X205713050Y-63278342D01*
X205770646Y-63165304D01*
X205785500Y-63071519D01*
X205785499Y-61808482D01*
X205775250Y-61743767D01*
X205786239Y-61697999D01*
X205792500Y-61690667D01*
X206939656Y-60543513D01*
X206983143Y-60525500D01*
X214867038Y-60525500D01*
X214867054Y-60525501D01*
X214870817Y-60525501D01*
X215009184Y-60525501D01*
X215044319Y-60516086D01*
X215114591Y-60497256D01*
X215114592Y-60497256D01*
X215127043Y-60493919D01*
X215142836Y-60489688D01*
X215262665Y-60420505D01*
X215360505Y-60322665D01*
X215360505Y-60322663D01*
X215365563Y-60317606D01*
X215365567Y-60317601D01*
X216019656Y-59663512D01*
X216063143Y-59645499D01*
X216547872Y-59645499D01*
X216607483Y-59639091D01*
X216742331Y-59588796D01*
X216857546Y-59502546D01*
X216943796Y-59387331D01*
X216994091Y-59252483D01*
X217000500Y-59192873D01*
X217000499Y-59020653D01*
X217018512Y-58977169D01*
X217061999Y-58959156D01*
X217105486Y-58977169D01*
X217120489Y-59001651D01*
X217141492Y-59066292D01*
X217238535Y-59256749D01*
X217364174Y-59429674D01*
X217364175Y-59429676D01*
X217515324Y-59580825D01*
X217688250Y-59706464D01*
X217878708Y-59803507D01*
X217878709Y-59803508D01*
X218081999Y-59869560D01*
X218145999Y-59879697D01*
X218146000Y-59879697D01*
X218146000Y-58821836D01*
X218216657Y-58862630D01*
X218337465Y-58895000D01*
X218462535Y-58895000D01*
X218583343Y-58862630D01*
X218654000Y-58821836D01*
X218654000Y-59879697D01*
X218718000Y-59869560D01*
X218921290Y-59803508D01*
X218921291Y-59803507D01*
X219111749Y-59706464D01*
X219284674Y-59580825D01*
X219284676Y-59580825D01*
X219435825Y-59429676D01*
X219435825Y-59429674D01*
X219561464Y-59256749D01*
X219658507Y-59066291D01*
X219658508Y-59066290D01*
X219724561Y-58862998D01*
X219725125Y-58860651D01*
X219726441Y-58860967D01*
X219748889Y-58824252D01*
X219794648Y-58813217D01*
X219834807Y-58837770D01*
X219843579Y-58854965D01*
X219880127Y-58967446D01*
X219958769Y-59121790D01*
X220060584Y-59261926D01*
X220183073Y-59384415D01*
X220270898Y-59448224D01*
X220323212Y-59486232D01*
X220340920Y-59495254D01*
X220371489Y-59531045D01*
X220374500Y-59550051D01*
X220374500Y-59796857D01*
X220356487Y-59840344D01*
X218240344Y-61956487D01*
X218196857Y-61974500D01*
X207346999Y-61974500D01*
X207303512Y-61956487D01*
X207285499Y-61913000D01*
X207285499Y-61808486D01*
X207285498Y-61808476D01*
X207274060Y-61736254D01*
X207270646Y-61714696D01*
X207213050Y-61601658D01*
X207213048Y-61601656D01*
X207213047Y-61601654D01*
X207123345Y-61511952D01*
X207123342Y-61511950D01*
X207010304Y-61454354D01*
X207010303Y-61454353D01*
X207010302Y-61454353D01*
X206934167Y-61442295D01*
X206916519Y-61439500D01*
X206916518Y-61439500D01*
X206553486Y-61439500D01*
X206553476Y-61439501D01*
X206459698Y-61454353D01*
X206346654Y-61511952D01*
X206256952Y-61601654D01*
X206199353Y-61714697D01*
X206184500Y-61808477D01*
X206184500Y-63071513D01*
X206184501Y-63071523D01*
X206199353Y-63165301D01*
X206199353Y-63165302D01*
X206199354Y-63165304D01*
X206256950Y-63278342D01*
X206256952Y-63278345D01*
X206346654Y-63368047D01*
X206346656Y-63368048D01*
X206346658Y-63368050D01*
X206459696Y-63425646D01*
X206553481Y-63440500D01*
X206916518Y-63440499D01*
X207010304Y-63425646D01*
X207123342Y-63368050D01*
X207213050Y-63278342D01*
X207270646Y-63165304D01*
X207284572Y-63077379D01*
X207309166Y-63037245D01*
X207345315Y-63025500D01*
X218367038Y-63025500D01*
X218367054Y-63025501D01*
X218370817Y-63025501D01*
X218509184Y-63025501D01*
X218544319Y-63016086D01*
X218614591Y-62997256D01*
X218614592Y-62997256D01*
X218627043Y-62993919D01*
X218642836Y-62989688D01*
X218762665Y-62920505D01*
X218860505Y-62822665D01*
X218860505Y-62822663D01*
X218865563Y-62817606D01*
X218865567Y-62817601D01*
X221217601Y-60465567D01*
X221217606Y-60465563D01*
X221222663Y-60460505D01*
X221222665Y-60460505D01*
X221320505Y-60362665D01*
X221389688Y-60242836D01*
X221425499Y-60109185D01*
X221425500Y-60109185D01*
X221425500Y-59550051D01*
X221443513Y-59506564D01*
X221459076Y-59495256D01*
X221476788Y-59486232D01*
X221616928Y-59384414D01*
X221739414Y-59261928D01*
X221841232Y-59121788D01*
X221919873Y-58967445D01*
X221973402Y-58802701D01*
X222000500Y-58631611D01*
X222000500Y-58208389D01*
X221973402Y-58037299D01*
X221919873Y-57872555D01*
X221841232Y-57718212D01*
X221826454Y-57697872D01*
X221826437Y-57697848D01*
X221801631Y-57663706D01*
X240084500Y-57663706D01*
X240084500Y-57906293D01*
X240116163Y-58146796D01*
X240140242Y-58236657D01*
X240178946Y-58381100D01*
X240271776Y-58605212D01*
X240332420Y-58710250D01*
X240393065Y-58815292D01*
X240393066Y-58815293D01*
X240540733Y-59007736D01*
X240712263Y-59179266D01*
X240904706Y-59326933D01*
X240904707Y-59326934D01*
X240905601Y-59327450D01*
X241114788Y-59448224D01*
X241338900Y-59541054D01*
X241482374Y-59579498D01*
X241573203Y-59603836D01*
X241573204Y-59603836D01*
X241573211Y-59603838D01*
X241813712Y-59635500D01*
X241813715Y-59635500D01*
X242056285Y-59635500D01*
X242056288Y-59635500D01*
X242296789Y-59603838D01*
X242531100Y-59541054D01*
X242755212Y-59448224D01*
X242965289Y-59326936D01*
X243157738Y-59179265D01*
X243329265Y-59007738D01*
X243459988Y-58837375D01*
X243476933Y-58815293D01*
X243476934Y-58815292D01*
X243478132Y-58813217D01*
X243598224Y-58605212D01*
X243691054Y-58381100D01*
X243753838Y-58146789D01*
X243785500Y-57906288D01*
X243785500Y-57663712D01*
X243753838Y-57423211D01*
X243691054Y-57188900D01*
X243598224Y-56964788D01*
X243476936Y-56754711D01*
X243476934Y-56754707D01*
X243476933Y-56754706D01*
X243329266Y-56562263D01*
X243157736Y-56390733D01*
X242965293Y-56243066D01*
X242965292Y-56243065D01*
X242860250Y-56182420D01*
X242755212Y-56121776D01*
X242531100Y-56028946D01*
X242531094Y-56028944D01*
X242296796Y-55966163D01*
X242296789Y-55966162D01*
X242271185Y-55962791D01*
X242056293Y-55934500D01*
X242056288Y-55934500D01*
X241813712Y-55934500D01*
X241813706Y-55934500D01*
X241573203Y-55966163D01*
X241338905Y-56028944D01*
X241338899Y-56028946D01*
X241114790Y-56121775D01*
X240904707Y-56243065D01*
X240904706Y-56243066D01*
X240712263Y-56390733D01*
X240540733Y-56562263D01*
X240393066Y-56754706D01*
X240393065Y-56754707D01*
X240271775Y-56964790D01*
X240178946Y-57188899D01*
X240178944Y-57188905D01*
X240116163Y-57423203D01*
X240084500Y-57663706D01*
X221801631Y-57663706D01*
X221739415Y-57578073D01*
X221616926Y-57455584D01*
X221506978Y-57375702D01*
X221491991Y-57360114D01*
X221482952Y-57346586D01*
X221482951Y-57346584D01*
X221378416Y-57242049D01*
X221378415Y-57242048D01*
X221378416Y-57242048D01*
X221255496Y-57159917D01*
X221255497Y-57159917D01*
X221255495Y-57159916D01*
X221255488Y-57159913D01*
X221118923Y-57103345D01*
X221118906Y-57103340D01*
X220973921Y-57074500D01*
X220973918Y-57074500D01*
X220826082Y-57074500D01*
X220826079Y-57074500D01*
X220681093Y-57103340D01*
X220681076Y-57103345D01*
X220544511Y-57159913D01*
X220544503Y-57159917D01*
X220421584Y-57242048D01*
X220317050Y-57346582D01*
X220308005Y-57360119D01*
X220293020Y-57375703D01*
X220183077Y-57455581D01*
X220183063Y-57455593D01*
X220060585Y-57578072D01*
X220060584Y-57578073D01*
X219958769Y-57718209D01*
X219880127Y-57872553D01*
X219843579Y-57985034D01*
X219813009Y-58020826D01*
X219766084Y-58024519D01*
X219730292Y-57993949D01*
X219725524Y-57979253D01*
X219725125Y-57979349D01*
X219724561Y-57977001D01*
X219658508Y-57773709D01*
X219658507Y-57773708D01*
X219561464Y-57583250D01*
X219435825Y-57410325D01*
X219435825Y-57410324D01*
X219284676Y-57259175D01*
X219284674Y-57259174D01*
X219111749Y-57133535D01*
X218921291Y-57036492D01*
X218921290Y-57036491D01*
X218718000Y-56970439D01*
X218654000Y-56960302D01*
X218654000Y-58018163D01*
X218583343Y-57977370D01*
X218462535Y-57945000D01*
X218337465Y-57945000D01*
X218216657Y-57977370D01*
X218146000Y-58018163D01*
X218146000Y-56960302D01*
X218081999Y-56970439D01*
X217878709Y-57036491D01*
X217878708Y-57036492D01*
X217688250Y-57133535D01*
X217515325Y-57259174D01*
X217364174Y-57410325D01*
X217238535Y-57583250D01*
X217141492Y-57773707D01*
X217120489Y-57838350D01*
X217089919Y-57874142D01*
X217042994Y-57877835D01*
X217007202Y-57847265D01*
X217000499Y-57819345D01*
X217000499Y-57647127D01*
X216994091Y-57587518D01*
X216994090Y-57587514D01*
X216987174Y-57568972D01*
X216943796Y-57452669D01*
X216857546Y-57337454D01*
X216752978Y-57259174D01*
X216742333Y-57251205D01*
X216742328Y-57251203D01*
X216607487Y-57200910D01*
X216607485Y-57200909D01*
X216607483Y-57200909D01*
X216547873Y-57194500D01*
X216547871Y-57194500D01*
X215252127Y-57194500D01*
X215192518Y-57200908D01*
X215192514Y-57200909D01*
X215057671Y-57251203D01*
X215057666Y-57251205D01*
X214942454Y-57337454D01*
X214856205Y-57452666D01*
X214856203Y-57452671D01*
X214805910Y-57587512D01*
X214799500Y-57647128D01*
X214799500Y-59192872D01*
X214805908Y-59252481D01*
X214829704Y-59316283D01*
X214829304Y-59327450D01*
X214833581Y-59337773D01*
X214828497Y-59350046D01*
X214828023Y-59363323D01*
X214815569Y-59381260D01*
X214740345Y-59456486D01*
X214696858Y-59474500D01*
X206670814Y-59474500D01*
X206627032Y-59486232D01*
X206627031Y-59486232D01*
X206537170Y-59510309D01*
X206537164Y-59510312D01*
X206417336Y-59579494D01*
X206417331Y-59579498D01*
X204814498Y-61182331D01*
X204814494Y-61182336D01*
X204745310Y-61302167D01*
X204743216Y-61309984D01*
X204743216Y-61309987D01*
X204709499Y-61435814D01*
X204709499Y-61579134D01*
X204709500Y-61579147D01*
X204709500Y-61680019D01*
X204702798Y-61707935D01*
X204699354Y-61714696D01*
X204699354Y-61714697D01*
X204699353Y-61714700D01*
X204684500Y-61808477D01*
X204542999Y-61808477D01*
X204542999Y-61773552D01*
X204540064Y-61736244D01*
X204493684Y-61576606D01*
X204493683Y-61576604D01*
X204409053Y-61433500D01*
X204291499Y-61315946D01*
X204148398Y-61231318D01*
X204148399Y-61231318D01*
X203989000Y-61185006D01*
X203989000Y-62186000D01*
X203481000Y-62186000D01*
X203481000Y-61185007D01*
X203480999Y-61185006D01*
X203321600Y-61231318D01*
X203178500Y-61315946D01*
X203060946Y-61433500D01*
X202976316Y-61576604D01*
X202976315Y-61576606D01*
X202929935Y-61736243D01*
X202929933Y-61736254D01*
X202927000Y-61773538D01*
X202927000Y-62166943D01*
X202922319Y-62178243D01*
X202922319Y-62190478D01*
X202913668Y-62199128D01*
X202908987Y-62210430D01*
X202897685Y-62215111D01*
X202889035Y-62223762D01*
X202876801Y-62223762D01*
X202865500Y-62228443D01*
X202854199Y-62223762D01*
X202841965Y-62223762D01*
X202833314Y-62215111D01*
X202822013Y-62210430D01*
X202808681Y-62190478D01*
X202806826Y-62186000D01*
X202790179Y-62145810D01*
X202785499Y-62122278D01*
X202785499Y-61808486D01*
X202785498Y-61808476D01*
X202774060Y-61736254D01*
X202770646Y-61714696D01*
X202713050Y-61601658D01*
X202713048Y-61601656D01*
X202713047Y-61601654D01*
X202623345Y-61511952D01*
X202623342Y-61511950D01*
X202510304Y-61454354D01*
X202510303Y-61454353D01*
X202510302Y-61454353D01*
X202434167Y-61442295D01*
X202416519Y-61439500D01*
X202416518Y-61439500D01*
X202053486Y-61439500D01*
X202053476Y-61439501D01*
X201959698Y-61454353D01*
X201846654Y-61511952D01*
X201756952Y-61601654D01*
X201699353Y-61714697D01*
X201684500Y-61808477D01*
X201684500Y-62122279D01*
X201679819Y-62145814D01*
X201633537Y-62257546D01*
X201633535Y-62257553D01*
X201609500Y-62378390D01*
X201609500Y-65063000D01*
X201591487Y-65106487D01*
X201548000Y-65124500D01*
X199904654Y-65124500D01*
X199904634Y-65124499D01*
X199901607Y-65124499D01*
X199778394Y-65124499D01*
X199778392Y-65124499D01*
X199677599Y-65144547D01*
X199677597Y-65144548D01*
X199662457Y-65147560D01*
X199657542Y-65148538D01*
X199610396Y-65168067D01*
X199543716Y-65195687D01*
X199543710Y-65195690D01*
X199441269Y-65264139D01*
X198354139Y-66351269D01*
X198319915Y-66402490D01*
X198285691Y-66453708D01*
X198285689Y-66453711D01*
X198285688Y-66453714D01*
X198259850Y-66516093D01*
X198257219Y-66522446D01*
X198248241Y-66544123D01*
X198248239Y-66544128D01*
X198238537Y-66567546D01*
X198238535Y-66567554D01*
X198215583Y-66682945D01*
X198215584Y-66682946D01*
X198214500Y-66688396D01*
X198214500Y-67958423D01*
X198196487Y-68001910D01*
X198163054Y-68017730D01*
X198163289Y-68018910D01*
X198087261Y-68034032D01*
X198004399Y-68089399D01*
X197949032Y-68172261D01*
X197934500Y-68245322D01*
X196590500Y-68245322D01*
X196590500Y-66661080D01*
X196582879Y-66622769D01*
X196582879Y-66622768D01*
X196561660Y-66516093D01*
X196561659Y-66516092D01*
X196561659Y-66516088D01*
X196506242Y-66382302D01*
X196505421Y-66380008D01*
X196422956Y-66256590D01*
X196422951Y-66256584D01*
X196318416Y-66152049D01*
X195683420Y-65517051D01*
X195588628Y-65453714D01*
X195588627Y-65453713D01*
X195560496Y-65434916D01*
X195423923Y-65378345D01*
X195423906Y-65378340D01*
X195278921Y-65349500D01*
X195278918Y-65349500D01*
X194631316Y-65349500D01*
X194587829Y-65331487D01*
X194516926Y-65260584D01*
X194376790Y-65158769D01*
X194222446Y-65080127D01*
X194057702Y-65026598D01*
X194057704Y-65026598D01*
X193886614Y-64999500D01*
X193886611Y-64999500D01*
X193463389Y-64999500D01*
X193463385Y-64999500D01*
X193292296Y-65026598D01*
X193127553Y-65080127D01*
X192973209Y-65158769D01*
X192833073Y-65260584D01*
X192833073Y-65260585D01*
X192833072Y-65260586D01*
X192710586Y-65383072D01*
X192710585Y-65383073D01*
X192710584Y-65383073D01*
X192608769Y-65523209D01*
X192530127Y-65677553D01*
X192476598Y-65842296D01*
X192449500Y-66013385D01*
X192449500Y-66186614D01*
X192476598Y-66357700D01*
X192476598Y-66357701D01*
X192530127Y-66522446D01*
X192608769Y-66676790D01*
X192710584Y-66816926D01*
X192833073Y-66939415D01*
X192928972Y-67009090D01*
X192973212Y-67041232D01*
X193127555Y-67119873D01*
X193292296Y-67173401D01*
X193292299Y-67173402D01*
X193463389Y-67200500D01*
X193463393Y-67200500D01*
X193886607Y-67200500D01*
X193886611Y-67200500D01*
X194057701Y-67173402D01*
X194222445Y-67119873D01*
X194376788Y-67041232D01*
X194516928Y-66939414D01*
X194587829Y-66868513D01*
X194631316Y-66850500D01*
X194868658Y-66850500D01*
X194912145Y-66868513D01*
X195071487Y-67027854D01*
X195089500Y-67071341D01*
X195089500Y-70383368D01*
X195071487Y-70426855D01*
X195028000Y-70444868D01*
X194984513Y-70426855D01*
X194973203Y-70411289D01*
X194961462Y-70388247D01*
X194835825Y-70215325D01*
X194835825Y-70215324D01*
X194684676Y-70064175D01*
X194684674Y-70064174D01*
X194511749Y-69938535D01*
X194321291Y-69841492D01*
X194321290Y-69841491D01*
X194117998Y-69775438D01*
X194115651Y-69774875D01*
X194115962Y-69773576D01*
X194079218Y-69751063D01*
X194068226Y-69705294D01*
X194092817Y-69665158D01*
X194109963Y-69656420D01*
X194222445Y-69619873D01*
X194376788Y-69541232D01*
X194516928Y-69439414D01*
X194639414Y-69316928D01*
X194741232Y-69176788D01*
X194819873Y-69022445D01*
X194873402Y-68857701D01*
X194900500Y-68686611D01*
X194900500Y-68513389D01*
X194873402Y-68342299D01*
X194819873Y-68177555D01*
X194741232Y-68023212D01*
X194738535Y-68019500D01*
X194639415Y-67883073D01*
X194516926Y-67760584D01*
X194376790Y-67658769D01*
X194222446Y-67580127D01*
X194057702Y-67526598D01*
X194057704Y-67526598D01*
X193886614Y-67499500D01*
X193886611Y-67499500D01*
X193463389Y-67499500D01*
X193463385Y-67499500D01*
X193292296Y-67526598D01*
X193127553Y-67580127D01*
X192973209Y-67658769D01*
X192833073Y-67760584D01*
X192833073Y-67760585D01*
X192782171Y-67811487D01*
X192738684Y-67829500D01*
X191696080Y-67829500D01*
X191676854Y-67833324D01*
X191667241Y-67835236D01*
X191648057Y-67839051D01*
X191551093Y-67858339D01*
X191551079Y-67858343D01*
X191491383Y-67883070D01*
X191491384Y-67883071D01*
X191414507Y-67914915D01*
X191414503Y-67914917D01*
X191373160Y-67942541D01*
X191332373Y-67969794D01*
X191332372Y-67969795D01*
X191332371Y-67969794D01*
X191291591Y-67997042D01*
X191291585Y-67997047D01*
X190552051Y-68736579D01*
X190510404Y-68798911D01*
X190510403Y-68798912D01*
X190469918Y-68859501D01*
X190469913Y-68859511D01*
X190413345Y-68996076D01*
X190413340Y-68996093D01*
X190384500Y-69141078D01*
X188595500Y-69141078D01*
X188595500Y-57663706D01*
X191189500Y-57663706D01*
X191189500Y-57906293D01*
X191221163Y-58146796D01*
X191245242Y-58236657D01*
X191283946Y-58381100D01*
X191376776Y-58605212D01*
X191437420Y-58710250D01*
X191498065Y-58815292D01*
X191498066Y-58815293D01*
X191645733Y-59007736D01*
X191817263Y-59179266D01*
X192009706Y-59326933D01*
X192009707Y-59326934D01*
X192010601Y-59327450D01*
X192219788Y-59448224D01*
X192443900Y-59541054D01*
X192587374Y-59579498D01*
X192678203Y-59603836D01*
X192678204Y-59603836D01*
X192678211Y-59603838D01*
X192918712Y-59635500D01*
X192918715Y-59635500D01*
X193161285Y-59635500D01*
X193161288Y-59635500D01*
X193401789Y-59603838D01*
X193636100Y-59541054D01*
X193860212Y-59448224D01*
X194070289Y-59326936D01*
X194262738Y-59179265D01*
X194434265Y-59007738D01*
X194564988Y-58837375D01*
X194581933Y-58815293D01*
X194581934Y-58815292D01*
X194583132Y-58813217D01*
X194703224Y-58605212D01*
X194796054Y-58381100D01*
X194858838Y-58146789D01*
X194890500Y-57906288D01*
X194890500Y-57663712D01*
X194858838Y-57423211D01*
X194796054Y-57188900D01*
X194703224Y-56964788D01*
X194581936Y-56754711D01*
X194581934Y-56754707D01*
X194581933Y-56754706D01*
X194434266Y-56562263D01*
X194262736Y-56390733D01*
X194208702Y-56349271D01*
X194147264Y-56302128D01*
X198754500Y-56302128D01*
X198754500Y-57697872D01*
X198760908Y-57757481D01*
X198760909Y-57757485D01*
X198783982Y-57819345D01*
X198811204Y-57892331D01*
X198897454Y-58007546D01*
X199012669Y-58093796D01*
X199147517Y-58144091D01*
X199207127Y-58150500D01*
X200052872Y-58150499D01*
X200112483Y-58144091D01*
X200247331Y-58093796D01*
X200362546Y-58007546D01*
X200448796Y-57892331D01*
X200499091Y-57757483D01*
X200505500Y-57697873D01*
X200505499Y-56302128D01*
X208464500Y-56302128D01*
X208464500Y-57697872D01*
X208470908Y-57757481D01*
X208470909Y-57757485D01*
X208493982Y-57819345D01*
X208521204Y-57892331D01*
X208607454Y-58007546D01*
X208722669Y-58093796D01*
X208857517Y-58144091D01*
X208917127Y-58150500D01*
X209762872Y-58150499D01*
X209822483Y-58144091D01*
X209957331Y-58093796D01*
X210072546Y-58007546D01*
X210158796Y-57892331D01*
X210209091Y-57757483D01*
X210215500Y-57697873D01*
X210215499Y-56302128D01*
X210209091Y-56242517D01*
X210158796Y-56107669D01*
X210072546Y-55992454D01*
X209995130Y-55934500D01*
X209957333Y-55906205D01*
X209957328Y-55906203D01*
X209822487Y-55855910D01*
X209822485Y-55855909D01*
X209822483Y-55855909D01*
X209762873Y-55849500D01*
X209762871Y-55849500D01*
X208917127Y-55849500D01*
X208857518Y-55855908D01*
X208857514Y-55855909D01*
X208722671Y-55906203D01*
X208722666Y-55906205D01*
X208607454Y-55992454D01*
X208521205Y-56107666D01*
X208521203Y-56107671D01*
X208470910Y-56242512D01*
X208470910Y-56242514D01*
X208470909Y-56242517D01*
X208470850Y-56243066D01*
X208464500Y-56302128D01*
X200505499Y-56302128D01*
X200499091Y-56242517D01*
X200448796Y-56107669D01*
X200362546Y-55992454D01*
X200285130Y-55934500D01*
X200247333Y-55906205D01*
X200247328Y-55906203D01*
X200112487Y-55855910D01*
X200112485Y-55855909D01*
X200112483Y-55855909D01*
X200052873Y-55849500D01*
X200052871Y-55849500D01*
X199207127Y-55849500D01*
X199147518Y-55855908D01*
X199147514Y-55855909D01*
X199012671Y-55906203D01*
X199012666Y-55906205D01*
X198897454Y-55992454D01*
X198811205Y-56107666D01*
X198811203Y-56107671D01*
X198760910Y-56242512D01*
X198760910Y-56242514D01*
X198760909Y-56242517D01*
X198760850Y-56243066D01*
X198754500Y-56302128D01*
X194147264Y-56302128D01*
X194070293Y-56243066D01*
X194070292Y-56243065D01*
X193965250Y-56182420D01*
X193860212Y-56121776D01*
X193636100Y-56028946D01*
X193636094Y-56028944D01*
X193401796Y-55966163D01*
X193401789Y-55966162D01*
X193376185Y-55962791D01*
X193161293Y-55934500D01*
X193161288Y-55934500D01*
X192918712Y-55934500D01*
X192918706Y-55934500D01*
X192678203Y-55966163D01*
X192443905Y-56028944D01*
X192443899Y-56028946D01*
X192219790Y-56121775D01*
X192009707Y-56243065D01*
X192009706Y-56243066D01*
X191817263Y-56390733D01*
X191645733Y-56562263D01*
X191498066Y-56754706D01*
X191498065Y-56754707D01*
X191376775Y-56964790D01*
X191283946Y-57188899D01*
X191283944Y-57188905D01*
X191221163Y-57423203D01*
X191189500Y-57663706D01*
X188595500Y-57663706D01*
X188595500Y-53402000D01*
X188613513Y-53358513D01*
X188657000Y-53340500D01*
X246318000Y-53340500D01*
X246361487Y-53358513D01*
G37*
G04 #@! TD.AperFunction*
M02*
